<svg xmlns="http://www.w3.org/2000/svg" width="8" height="12">
    <path d="m 3.582,8 c 0.211,0 0.798,0.035 1,0 v 4 l -2,-1 V 8 c 0.372,0.066 0.861,0 1,0 z M 0.44,5.384 C 0.163,4.866 0,4.276 0,3.646 0,1.633 1.604,0.002 3.582,0.002 c 1.978,0 3.582,1.631 3.582,3.644 0,0.647 -0.169,1.254 -0.461,1.781 L 6.641,5.495 6.618,5.567 C 5.954,6.549 4.844,7.192 3.584,7.192 2.25,7.192 1.084,6.467 0.44,5.384 z M 2.613,1.276 c -0.549,0 -0.995,0.453 -0.995,1.013 0,0.559 0.446,1.013 0.995,1.013 0.551,0 0.996,-0.454 0.996,-1.013 0,-0.56 -0.445,-1.013 -0.996,-1.013 z" fill="#a0a0a0"/>
</svg>
