<svg xmlns="http://www.w3.org/2000/svg" width="32" height="32"><path fill="#A6CD2A" d="M6.581 23.419c-1.612-2.042-2.581-4.615-2.581-7.419 0-6.627 5.373-12 12-12s12 5.373 12 12c0 2.804-.969 5.377-2.581 7.419l2.847 2.847c2.328-2.779 3.734-6.357 3.734-10.266 0-8.837-7.163-16-16-16s-16 7.163-16 16c0 3.909 1.406 7.487 3.734 10.266l2.847-2.847z"/><path fill="#0DA5D5" d="M27.314 27.314l-2.828-2.828c-2.172 2.171-5.172 3.514-8.486 3.514s-6.314-1.343-8.484-3.515l-2.828 2.828c2.894 2.896 6.894 4.687 11.312 4.687s8.418-1.791 11.314-4.686z"/></svg>