<?xml version="1.0" encoding="utf-8"?>
<!-- Generator: Adobe Illustrator 16.0.0, SVG Export Plug-In . SVG Version: 6.00 Build 0)  -->
<!DOCTYPE svg PUBLIC "-//W3C//DTD SVG 1.1//EN" "http://www.w3.org/Graphics/SVG/1.1/DTD/svg11.dtd">
<svg version="1.1" id="Layer_1" xmlns="http://www.w3.org/2000/svg" xmlns:xlink="http://www.w3.org/1999/xlink" x="0px" y="0px"
	 width="16px" height="16px" viewBox="0 0 16 16" enable-background="new 0 0 16 16" xml:space="preserve">
<g>
	<g>
		<polygon fill="#454545" points="6,1 3,1 1,1 1,3 1,6 3,6 3,3 6,3 		"/>
	</g>
	<rect x="9" y="13" fill="#FFFFFF" width="6" height="3"/>
	<g>
		<polygon fill="#3C3C3C" points="10,15 13,15 15,15 15,13 15,10 13,10 13,13 10,13 		"/>
	</g>
	<g>
		<polygon fill="#454545" points="15,6 15,3 15,1 13,1 10,1 10,3 13,3 13,6 		"/>
	</g>
	<rect x="1" y="13" fill="#FFFFFF" width="6" height="3"/>
	<g>
		<polygon fill="#3C3C3C" points="1,10 1,13 1,15 3,15 6,15 6,13 3,13 3,10 		"/>
	</g>
	<rect x="12" y="10" fill="#FFFFFF" width="1" height="3"/>
	<rect x="3" y="10" fill="#FFFFFF" width="1" height="3"/>
</g>
</svg>
