<svg xmlns="http://www.w3.org/2000/svg" width="32" height="32">
    <path d="M 6.581,23.419 C 4.969,21.377 4,18.804 4,16 4,9.373 9.373,4 16,4 c 6.627,0 12,5.373 12,12 0,2.804 -0.969,5.377 -2.581,7.419 l 2.847,2.847 C 30.594,23.487 32,19.909 32,16 32,7.163 24.837,0 16,0 7.163,0 0,7.163 0,16 c 0,3.909 1.406,7.487 3.734,10.266 l 2.847,-2.847 z" fill="#a6cd2a"/>
    <path d="M 27.314,27.314 24.486,24.486 C 22.314,26.657 19.314,28 16,28 12.686,28 9.686,26.657 7.516,24.485 L 4.688,27.313 C 7.582,30.209 11.582,32 16,32 c 4.418,0 8.418,-1.791 11.314,-4.686 z" fill="#0da5d5"/>
</svg>
