<svg xmlns="http://www.w3.org/2000/svg" width="12" height="12">
    <path d="M 3.141,6.86 C 3.059,6.586 3,6.301 3,6 3,4.343 4.343,3 6,3 7.657,3 9,4.343 9,6 9,6.301 8.941,6.586 8.859,6.86 l 2.26,2.259 C 11.674,8.209 12,7.144 12,6 12,2.686 9.314,0 6,0 2.686,0 0,2.686 0,6 0,7.144 0.326,8.209 0.881,9.119 L 3.141,6.86 z" fill="#a6cd2a"/>
    <path d="m 6,12 c 1.657,0 3.157,-0.672 4.243,-1.757 L 8.122,8.122 C 7.578,8.664 6.828,9 6,9 5.172,9 4.422,8.664 3.879,8.121 L 1.758,10.242 C 2.843,11.328 4.343,12 6,12 z" fill="#0da5d5"/>
</svg>
