<svg xmlns="http://www.w3.org/2000/svg" width="24" height="24"><path fill="#0DA5D5" d="M18.564 7.435c.903 1.295 1.436 2.867 1.436 4.565 0 4.418-3.582 8-8 8s-8-3.582-8-8c0-1.698.533-3.27 1.436-4.565l-2.855-2.854c-1.612 2.042-2.581 4.614-2.581 7.419 0 6.627 5.373 12 12 12s12-5.373 12-12c0-2.805-.969-5.377-2.581-7.419l-2.855 2.854z"/><path fill="#A6CD2A" d="M12 0c-3.314 0-6.314 1.343-8.484 3.515l2.827 2.828c1.448-1.448 3.448-2.343 5.657-2.343s4.209.895 5.657 2.343l2.827-2.828c-2.17-2.172-5.17-3.515-8.484-3.515z"/></svg>