<svg xmlns="http://www.w3.org/2000/svg" width="44" height="44"><path fill="#0DA5D5" d="M35.68 10.32c2.688 3.145 4.32 7.219 4.32 11.68 0 9.941-8.059 18-18 18s-18-8.059-18-18c0-4.461 1.632-8.535 4.32-11.68l-2.84-2.84c-3.41 3.874-5.48 8.954-5.48 14.52 0 12.15 9.85 22 22 22s22-9.85 22-22c0-5.566-2.07-10.646-5.48-14.52l-2.84 2.84z"/><path fill="#A6CD2A" d="M9.271 9.272c3.258-3.257 7.758-5.272 12.729-5.272s9.471 2.015 12.729 5.272l2.828-2.828c-3.982-3.982-9.482-6.444-15.557-6.444s-11.575 2.462-15.557 6.444l2.828 2.828z"/></svg>