<svg xmlns="http://www.w3.org/2000/svg" width="24" height="24">
    <path d="M 18.564,7.435 C 19.467,8.73 20,10.302 20,12 20,16.418 16.418,20 12,20 7.582,20 4,16.418 4,12 4,10.302 4.533,8.73 5.436,7.435 L 2.581,4.581 C 0.969,6.623 0,9.195 0,12 0,18.627 5.373,24 12,24 18.627,24 24,18.627 24,12 24,9.195 23.031,6.623 21.419,4.581 l -2.855,2.854 z" fill="#0da5d5"/>
    <path d="M 12,0 C 8.686,0 5.686,1.343 3.516,3.515 L 6.343,6.343 C 7.791,4.895 9.791,4 12,4 c 2.209,0 4.209,0.895 5.657,2.343 L 20.484,3.515 C 18.314,1.343 15.314,0 12,0 z" fill="#a6cd2a"/>
</svg>
