<svg width="40" height="20" viewBox="0 0 40 20" fill="none" xmlns="http://www.w3.org/2000/svg">
    <path d="M2.00011 8.72731C1.98229 5.72738 4.05025 4 6.80779 4C9.47674 4 11.2797 5.58179 11.2797 8.05437C11.2797 10.1091 10.0602 11.2546 7.99196 12.2727C7.21431 12.6547 6.34807 13.1818 5.46454 13.4544H11.3681V16H2.00011V12.66C3.85604 12.0235 4.88111 11.3271 6.59576 10.4728C7.90363 9.81815 8.71666 9.23633 8.71666 8.1819C8.71666 7.16358 7.97439 6.36366 6.80779 6.36366C5.27006 6.36366 4.52753 7.52729 4.56292 8.72731H2.00011Z" fill="#6E7173"/>
    <path d="M23.6348 9.63643V10.5453C23.6348 13.5455 21.6552 16 18.067 16C14.6202 16 12.2518 13.4727 12.2518 9.99986C12.2518 6.52731 14.5497 4 18.1554 4C21.2487 4 23.1751 5.8363 23.6348 7.99991H21.0717C20.6301 6.96353 19.534 6.36366 18.2261 6.36366C15.9813 6.36366 14.7263 8.14523 14.7263 9.99986C14.7263 11.8545 15.9991 13.6363 18.2086 13.6363C19.5872 13.6363 20.736 12.9456 21.0896 11.8181H17.7313V9.63643H23.6348Z" fill="#6E7173"/>
    <path d="M27.4528 16H24.9783V4H27.4528V16Z" fill="#6E7173"/>
    <path d="M38.4292 7.63648H35.8662C35.6185 6.85461 34.947 6.18167 33.4446 6.18167C32.1543 6.18167 31.5004 6.69096 31.5004 7.41809C31.5004 8.30915 32.7375 8.56366 34.293 8.83623L34.361 8.84818C36.4076 9.20779 38.5 9.57545 38.5 12.2727C38.5 14.8 36.4672 16 33.7274 16C31.1998 16 28.9373 14.4727 28.6899 12.1818H31.2527C31.5712 13.1273 32.5079 13.8181 33.8512 13.8181C35.1415 13.8181 35.8662 13.3818 35.8662 12.5455C35.8662 11.514 34.3606 11.2653 32.8555 11.0167C32.8221 11.0112 32.7887 11.0056 32.7553 11.0001C31.1468 10.7273 28.8844 9.9818 28.8844 7.54535C28.8844 5.34534 30.7581 4 33.5332 4C36.2727 4 38.164 5.41814 38.4292 7.63648Z" fill="#6E7173"/>
</svg>
