<svg xmlns="http://www.w3.org/2000/svg" width="56" height="26"><path fill="#A6CD2A" d="M33.238 8.449c.493 1.062.762 2.26.762 3.551 0 6.483-6.757 11.701-10.6 15h10.172c1.535-2.649 2.428-5.717 2.428-9 0-3.513-1.022-6.78-2.762-9.551zm-17.238 19.551c7.725-6.715 13-11.113 13-15.5 0-1.629-1.206-4.5-4-4.5-2.213 0-4.389 1.643-4 7h-4c-1.125-6.211 2.057-11 8.5-11 2.44 0 4.433.745 5.879 1.988-3.296-3.668-8.06-5.988-13.379-5.988-9.941 0-18 8.059-18 18s8.059 18 18 18c4.825 0 9.197-1.909 12.429-5h-14.429v-3z"/><path d="M49 6c-4.869 0-8 2.431-8 8.5v8c0 6.583 4.714 8.5 9 8.5 1.852 0 5.386-.971 7-3v-10.5h-8v4h4v5c-2.156 2.516-8 1.111-8-5v-7c0-3.806 1.942-5 4-5 2.194 0 4 .982 4 4h4c.137-2.709-1.382-7.5-8-7.5zm12 24.5h4v-24h-4v24zm11-18c0-1.584 1.641-3 3.5-3 2.204 0 3.775 1.211 3.5 4h4c0-2-.958-7.5-7.5-7.5-4.063 0-7.5 2.093-7.5 6.5 0 9.089 12.069 5.526 12 11-.035 1.997-2.175 4-4 4-1.997 0-4.275-1.522-4-5h-4c0 5 1.75 8.5 7.5 8.5 4.854 0 8.5-3.576 8.5-7.57 0-9.4-12-5.662-12-10.93z"/></svg>
