<svg xmlns="http://www.w3.org/2000/svg" height="24" width="55">
 <path fill="#a2c124" d="m24.395 12c0-1.4545-0.22177-2.6545-0.66532-4-0.14785 4.2545-4.879 7.8182-7.4664 10h6.7641c0.70229-2 1.3676-3.9273 1.3676-6m-4.731-9.3455c-2.033-1.6-4.62-2.6545-7.466-2.6545-6.7276 0-12.198 5.4182-12.198 12s5.4704 12 12.198 12c3.1048 0 5.9509-1.4545 8.1317-3.3455h-8.797v-2.6545c5.3595-4.5455 8.797-7.3455 8.797-10 0-1.1273-0.81317-2.6545-2.6983-2.6545-1.4785 0-2.6983 1.3455-2.6983 4.6545h-3.4005c-0.73925-4.2182 1.8481-7.6727 6.2466-7.6727 0.66532 0 1.2567 0.21818 1.8851 0.32727"/>
 <path fill="#3c4347" d="m36.593 9.3455h1.3676c0-2-0.66532-5.1273-4.7312-5.2727-4.732-0.2183-6.1 2.6181-6.1 5.9272v5.3455c0 4.4 3.4375 5.3455 6.0988 5.3455 1.5524 0 3.4005-0.87273 4.7312-2v-6.6909h-5.4335v2.6545h2.6983v2.6545c-1.3676 1.3455-5.4335 1.3455-5.4335-2.6545v-5.3091c0-4 5.9509-4.1455 5.6183 0h1.1828zm18.296 6.6545c0-5.8182-6.9859-4.0727-6.9859-7.6 0-1.2 0.81317-2 2.1808-2 1.4415 0 2.2547 1.0182 2.2547 2.9818h2.5874c0-2-0.66532-5.3455-4.7312-5.3455-2.7722 0-4.879 1.4182-4.879 4.3273 0 6.0727 7.1707 4.0727 7.0598 7.6727-0.07392 1.4545-1.1458 2.0727-2.3656 2.0727-1.4415 0-2.6983-0.72727-2.4395-3.3818h-2.6613c-0.25874 3.3455 1.4415 6 5.3595 6 2.699 0 4.732-2.145 4.732-5.345l-0.111 0.618zm-12.198 4h-2.6983v-16h2.6983v16z"/>
</svg>
