<svg width="14" height="14" viewBox="0 0 14 14" fill="none" xmlns="http://www.w3.org/2000/svg">
<path fill-rule="evenodd" clip-rule="evenodd" d="M13.8462 6.99989C13.8462 10.864 10.7308 14 6.92318 14C3.10156 14 0 10.864 0 6.99989C0 3.13602 3.10156 0 6.92318 0C10.7308 0 13.8462 3.13602 13.8462 6.99989ZM10.7585 6.07597C10.7585 4.15815 9.20777 2.38004 6.92317 2.38004C4.63858 2.38004 3.0878 4.15815 3.0878 6.07597C3.0878 6.84596 3.2539 7.51796 3.64155 8.35813C5.91238 8.35813 6.32775 9.884 6.42466 10.906L6.49385 11.62H7.3525L7.42169 10.906C7.51839 9.884 7.93396 8.35813 10.2046 8.35813C10.5922 7.51796 10.7585 6.84596 10.7585 6.07597Z" fill="#299400"/>
</svg>
