<svg xmlns="http://www.w3.org/2000/svg" width="45" height="14">
 <path
   fill-rule="evenodd"
   clip-rule="evenodd"
   fill="#6D7173"
   d="M6.964 0c3.865 0 6.99 3.144 6.99 6.994 0 3.862-3.125 7.006-6.99 7.006C3.136 14 0 10.856 0 6.994 0 3.144 3.136 0 6.964 0zm.025 2.45c-2.297 0-3.85 1.805-3.85 3.735 0 .772.172 1.457.575 2.304 2.33.012 2.794 1.446 2.943 2.712l.014.126.061.573h.501l.061-.573.014-.126c.15-1.266.605-2.7 3.017-2.712.416-.847.489-1.532.489-2.291 0-1.955-1.528-3.748-3.825-3.748zm34.142-.21c2.094 0 3.6 1.04 3.869 3.017h-2.12c-.14-.735-.753-1.305-1.775-1.305-.88 0-1.404.418-1.404 1.102 0 .778.884.942 1.757 1.074l.196.029c1.367.203 3.32.596 3.32 2.776 0 2.029-1.698 2.967-3.767 2.967-2.234 0-3.754-1.116-3.881-3.195h2.094c.179.964.894 1.496 1.966 1.496.869 0 1.482-.355 1.482-1.077 0-1.065-1.226-1.09-2.478-1.332-.97-.19-2.796-.659-2.796-2.623 0-1.851 1.417-2.929 3.537-2.929zm-12.365.21c2.174 0 4.013 1.217 4.374 3.338h-2.1c-.323-.941-1.168-1.468-2.299-1.468-1.85 0-2.646 1.443-2.646 2.861 0 1.406.845 2.824 2.659 2.824 1.031 0 1.926-.464 2.323-1.443H28.53V7.006h4.61v.74c0 2.535-1.926 4.154-4.386 4.154-2.498 0-4.684-1.744-4.684-4.694 0-2.911 2.013-4.756 4.696-4.756zm-9.156 0c2.12 0 3.574 1.217 3.574 3.148 0 1.574-.966 2.496-2.658 3.234-1.116.48-1.225.548-2.386.898h5.232v1.82h-7.599V8.845c1.09-.37 2.157-.787 3.65-1.44 1.09-.479 1.68-.921 1.68-1.709 0-.787-.59-1.475-1.593-1.475-1.154 0-1.806.922-1.78 1.93h-2.032C15.685 3.84 17.353 2.45 19.61 2.45zm16.764 0v9.1h-1.978v-9.1h1.978z"
 />
</svg>