<?xml version="1.0" encoding="UTF-8"?>
<!DOCTYPE svg PUBLIC "-//W3C//DTD SVG 1.1//EN" "http://www.w3.org/Graphics/SVG/1.1/DTD/svg11.dtd">
<!-- Creator: CorelDRAW X6 -->
<svg xmlns="http://www.w3.org/2000/svg" xml:space="preserve" width="56" height="26" version="1.1" style="shape-rendering:geometricPrecision; text-rendering:geometricPrecision; image-rendering:optimizeQuality; fill-rule:evenodd; clip-rule:evenodd"
viewBox="0 0 514 254"
 xmlns:xlink="http://www.w3.org/1999/xlink">
 <defs>
  <style type="text/css">
   <![CDATA[
    .fil1 {fill:black}
    .fil0 {fill:#A6CD2A}
   ]]>
  </style>
 </defs>
 <g id="Layer_x0020_1">
  <metadata id="CorelCorpID_0Corel-Layer"/>
  <path class="fil0" d="M203 69c3,6 5,14 5,22 0,40 -41,72 -65,92l62 0c9,-16 15,-35 15,-55 0,-21 -6,-41 -17,-58zm-105 120c47,-41 80,-68 80,-95 0,-10 -7,-28 -24,-28 -14,0 -27,10 -24,43l-24 0c-7,-38 13,-67 52,-67 15,0 27,5 36,12 -20,-22 -49,-37 -82,-37 -61,0 -110,49 -110,110 0,61 49,110 110,110 30,0 56,-12 76,-31l-88 0 0 -18z"/>
  <path class="fil1" d="M300 54c-30,0 -49,15 -49,52l0 49c0,40 29,52 55,52 11,0 33,-6 43,-18l0 -64 -49 0 0 24 24 0 0 31c-13,15 -49,7 -49,-31l0 -43c0,-23 12,-31 24,-31 13,0 24,6 24,24l24 0c1,-17 -8,-46 -49,-46zm73 150l24 0 0 -147 -24 0 0 147zm67 -110c0,-10 10,-18 21,-18 13,0 23,7 21,24l24 0c0,-12 -6,-46 -46,-46 -25,0 -46,13 -46,40 0,56 74,34 73,67 0,12 -13,24 -24,24 -12,0 -26,-9 -24,-31l-24 0c0,31 11,52 46,52 30,0 52,-22 52,-46 0,-57 -73,-35 -73,-67l0 0z"/>
 </g>
</svg>
