<?xml version="1.0" standalone="no"?>
<!DOCTYPE svg PUBLIC "-//W3C//DTD SVG 1.1//EN" "http://www.w3.org/Graphics/SVG/1.1/DTD/svg11.dtd" >
<svg xmlns="http://www.w3.org/2000/svg">
<metadata></metadata>
<defs>
<font id="suisse_intlcondensed" horiz-adv-x="548" >
<font-face units-per-em="1000" ascent="800" descent="-200" />
<missing-glyph horiz-adv-x="193" />
<glyph unicode="ft" horiz-adv-x="534" d="M459 0q-36 0 -58.5 6.5t-35.5 22t-18 40t-5 60.5v350h-71v59h71v135h86v-135h93v-59h-93v-339q0 -26 2.5 -42t9.5 -24.5t19.5 -11.5t33.5 -3h28v-59h-62v0zM78 479h-71v59h71v59q0 38 7 63t23 39.5t41.5 20t63.5 5.5h48v-57h-32q-21 0 -34 -3t-19.5 -11t-9 -22.5 t-2.5 -37.5v-56h97v-59h-97v-479h-86v479z" />
<glyph unicode="tf" horiz-adv-x="527" d="M189 0q-36 0 -58.5 6.5t-35.5 22t-18 40t-5 60.5v350h-71v59h71v135h86v-135h93v-59h-93v-339q0 -26 2.5 -42t9.5 -24.5t19.5 -11.5t33.5 -3h28v-59h-62v0zM342 479h-71v59h71v59q0 38 7 63t23 39.5t41.5 20t63.5 5.5h48v-57h-32q-21 0 -34 -3t-19.5 -11t-9 -22.5 t-2.5 -37.5v-56h97v-59h-97v-479h-86v479z" />
<glyph unicode="tt" horiz-adv-x="528" d="M189 0q-36 0 -58.5 6.5t-35.5 22t-18 40t-5 60.5v350h-71v59h71v135h86v-135h93v-59h-93v-339q0 -26 2.5 -42t9.5 -24.5t19.5 -11.5t33.5 -3h28v-59h-62v0zM453 0q-36 0 -58.5 6.5t-35.5 22t-18 40t-5 60.5v350h-71v59h71v135h86v-135h93v-59h-93v-339q0 -26 2.5 -42 t9.5 -24.5t19.5 -11.5t33.5 -3h28v-59h-62v0z" />
<glyph unicode="&#x407;&#x407;" horiz-adv-x="421" d="M86 778h-79v104h79v-104zM250 778h-79v104h79v-104zM414 778h-79v104h79v-104zM152 0h-90v725h90v-725zM370 0h-90v725h90v-725z" />
<glyph unicode="&#x457;&#x457;" horiz-adv-x="403" d="M91 618h-78v107h78v-107zM241 618h-78v107h78v-107zM390 618h-77v107h77v-107zM147 0h-86v538h86v-538zM343 0h-86v538h86v-538z" />
<glyph unicode=" "  horiz-adv-x="193" />
<glyph unicode="&#x09;" horiz-adv-x="193" />
<glyph unicode="&#xa0;" horiz-adv-x="193" />
<glyph unicode="!" horiz-adv-x="266" d="M88 523v202h89v-202l-15 -330h-59zM88 125h90v-125h-90v125z" />
<glyph unicode="&#x22;" horiz-adv-x="317" d="M44 725h87l-16 -238h-55zM187 725h85l-16 -238h-55z" />
<glyph unicode="#" horiz-adv-x="579" d="M329 212h-130l-29 -212h-69l29 212h-113l10 66h112l26 187h-111l8 67h112l27 193h69l-27 -193h130l27 193h69l-27 -193h112l-9 -67h-112l-26 -187h111l-8 -66h-112l-29 -212h-69zM208 278h130l26 187h-130z" />
<glyph unicode="$" horiz-adv-x="508" d="M236 -12q-98 7 -149.5 65.5t-51.5 168.5v4h87v-4q0 -86 36.5 -127.5t102.5 -41.5q64 0 95 33t31 91q0 29 -7 50.5t-21 38t-34 30t-47 25.5l-89 40q-31 14 -57 30t-45 38.5t-30 53.5t-11 75q0 85 52.5 131t137.5 49v82h42v-84q80 -8 128.5 -57t48.5 -145v-4h-87v4 q0 66 -32 102t-89 36q-56 0 -86 -29.5t-30 -79.5q0 -53 21 -79t59 -43l94 -44q35 -16 66 -32.5t54 -40t36.5 -56t13.5 -80.5q0 -92 -50.5 -144t-146.5 -56v-87h-42v87z" />
<glyph unicode="%" horiz-adv-x="700" d="M148 350q22 0 34.5 10.5t18.5 30.5t7.5 49t1.5 66v28q0 37 -1.5 66t-7.5 49t-18.5 30.5t-34.5 10.5q-21 0 -33.5 -10.5t-19 -30.5t-8.5 -49t-2 -66v-28q0 -37 2 -66t8.5 -49t19 -30.5t33.5 -10.5zM148 308q-71 0 -98 45.5t-27 140.5v52q0 95 27 140t98 45t98 -45t27 -140 v-52q0 -95 -27 -140.5t-98 -45.5zM448 725h48l-244 -725h-47zM553 33q22 0 34.5 10.5t18.5 30.5t7.5 49t1.5 66v28q0 37 -1.5 66t-7.5 49t-18.5 30.5t-34.5 10.5q-21 0 -33.5 -10.5t-19 -30.5t-8.5 -49t-2 -66v-28q0 -37 2 -66t8.5 -49t19 -30.5t33.5 -10.5zM553 -9 q-71 0 -98 45.5t-27 140.5v52q0 95 27 140t98 45t98 -45t27 -140v-52q0 -95 -27 -140.5t-98 -45.5z" />
<glyph unicode="&#x26;" horiz-adv-x="597" d="M233 -13q-50 0 -89 15.5t-66 42.5t-41.5 63.5t-14.5 78.5q0 36 8.5 63.5t25.5 51.5t42.5 46t58.5 46l26 19q-19 26 -33.5 48t-24 43.5t-14.5 43.5t-5 48q0 33 11.5 59t32.5 44.5t49.5 28.5t63.5 10q31 0 59 -8.5t49 -26t33.5 -43.5t12.5 -62q0 -32 -10.5 -58.5t-28.5 -49 t-42 -43t-51 -39.5l-4 -3l148 -195q14 34 22 79t10 110h71q-2 -78 -16.5 -142t-39.5 -109l113 -148h-94l-63 83q-76 -96 -199 -96zM242 51q47 0 85.5 21.5t64.5 64.5l-170 225l-24 -17q-48 -35 -70.5 -68.5t-22.5 -86.5q0 -30 10 -55.5t28 -44t43 -29t56 -10.5zM181 594 q0 -20 4 -36t11.5 -32t19 -32.5t27.5 -37.5l3 2q19 14 37 29t31.5 31.5t21.5 35.5t8 41q0 36 -20 58.5t-61 22.5q-35 0 -58.5 -20t-23.5 -62z" />
<glyph unicode="'" horiz-adv-x="177" d="M43 725h91l-20 -237h-52z" />
<glyph unicode="(" horiz-adv-x="234" d="M169 -175q-23 34 -45.5 81.5t-41 105.5t-30 124.5t-11.5 138.5t11.5 138.5t30 124.5t41 105t45.5 82h72q-24 -42 -46 -91.5t-38.5 -106t-26 -119.5t-9.5 -133t9.5 -133t26 -119.5t38.5 -106t46 -91.5h-72v0z" />
<glyph unicode=")" horiz-adv-x="234" d="M-5 -175q24 42 46 91.5t38.5 106t26 119.5t9.5 133t-9.5 133t-26 119.5t-38.5 106t-46 91.5h72q22 -35 45 -82t41.5 -105t30 -124.5t11.5 -138.5t-11.5 -138.5t-30 -124.5t-41.5 -105.5t-45 -81.5h-72z" />
<glyph unicode="*" horiz-adv-x="382" d="M72 454l71 99l-116 41l18 55l115 -42v118h59v-118l117 41l20 -55l-118 -39l71 -99l-44 -33l-74 99l-70 -99z" />
<glyph unicode="+" d="M238 234h-210v71h210v233h72v-233h210v-71h-210v-234h-72v234z" />
<glyph unicode="," horiz-adv-x="234" d="M64 106h105v-113l-56 -123h-54l49 130h-44v106z" />
<glyph unicode="-" horiz-adv-x="338" d="M50 307h238v-75h-238v75z" />
<glyph unicode="." horiz-adv-x="226" d="M61 106h105v-106h-105v106z" />
<glyph unicode="/" horiz-adv-x="331" d="M246 725h85l-247 -725h-84z" />
<glyph unicode="0" horiz-adv-x="549" d="M274 50q43 0 68.5 19.5t39 56.5t17.5 91t4 123v45q0 69 -4 123.5t-17.5 91.5t-39 56.5t-68.5 19.5q-42 0 -67.5 -19.5t-39 -56.5t-17.5 -91.5t-4 -123.5v-45q0 -69 4 -123t17.5 -91t39 -56.5t67.5 -19.5zM274 -13q-60 0 -101.5 19.5t-67 60.5t-36.5 103t-11 148v89 q0 85 11 147.5t36.5 103.5t67 60.5t101.5 19.5q61 0 102.5 -19.5t67 -60.5t37 -103.5t11.5 -147.5v-89q0 -86 -11.5 -148t-37 -103t-67 -60.5t-102.5 -19.5z" />
<glyph unicode="1" horiz-adv-x="325" d="M150 572h-137v56q50 0 78.5 2t44 11.5t22 29t12.5 54.5h67v-725h-87v572z" />
<glyph unicode="2" horiz-adv-x="480" d="M41 67l81 102q45 57 86 109.5t72 100.5t49.5 92.5t18.5 86.5q0 61 -28.5 90t-79.5 29q-58 0 -85.5 -40t-27.5 -114v-7h-81v6q0 104 49.5 160t149.5 56q42 0 76.5 -10t60 -31.5t39.5 -54.5t14 -79q0 -47 -18 -94t-49 -97t-73 -105t-90 -116l-65 -82h298v-69h-397v67z" />
<glyph unicode="3" horiz-adv-x="505" d="M235 -13q-94 0 -146 50.5t-52 145.5v4h81v-4q0 -58 27.5 -95.5t90.5 -37.5q38 0 63 11.5t39.5 31t20.5 46.5t6 57q0 35 -8 62.5t-26.5 46.5t-48.5 29t-74 10h-38v64h36q69 0 103 34t34 106q0 63 -27 96t-84 33q-59 0 -82 -35.5t-23 -97.5v-4h-81v4q0 95 49.5 144.5 t139.5 49.5q41 0 77 -9.5t62.5 -31t41.5 -57t15 -87.5q0 -68 -30.5 -112t-83.5 -58q63 -14 100 -60.5t37 -124.5q0 -109 -57 -160t-162 -51z" />
<glyph unicode="4" horiz-adv-x="509" d="M306 189h-290v65l291 471h85v-467h84v-69h-84v-189h-86v189zM306 258v353l-220 -353h220z" />
<glyph unicode="5" horiz-adv-x="506" d="M241 -13q-93 0 -146 50.5t-53 145.5v4h82v-4q0 -63 28.5 -98.5t88.5 -35.5q64 0 94 44t30 124v36q0 80 -29.5 124.5t-89.5 44.5q-47 0 -74.5 -26.5t-41.5 -69.5l-77 3l38 396h346v-68h-280l-23 -249q14 29 49.5 52.5t89.5 23.5q85 0 133 -57t48 -167v-48q0 -109 -56 -167 t-157 -58z" />
<glyph unicode="6" horiz-adv-x="535" d="M274 -13q-51 0 -90.5 15t-66.5 48.5t-41.5 87.5t-14.5 132v100q0 91 10 160t35.5 115t68.5 69.5t108 23.5q47 0 82 -14.5t58.5 -39.5t35 -60t11.5 -75v-6h-81v5q0 60 -26 94.5t-82 34.5q-38 0 -64 -17.5t-41.5 -51.5t-22 -85t-6.5 -117v-24q5 16 17 33t30.5 31t43 23 t55.5 9q86 0 138 -56.5t52 -169.5v-39q0 -57 -15 -99.5t-42.5 -70.5t-66 -42t-85.5 -14zM271 49q59 0 91.5 42.5t32.5 124.5v28q0 83 -32.5 126.5t-91.5 43.5q-58 0 -91.5 -45t-33.5 -127v-24q0 -81 33.5 -125t91.5 -44z" />
<glyph unicode="7" horiz-adv-x="434" d="M84 0q6 108 26 200.5t53.5 173t81 150.5t108.5 133h-339v68h416v-68q-65 -66 -111.5 -137t-77 -150.5t-47 -171t-22.5 -198.5h-88v0z" />
<glyph unicode="8" horiz-adv-x="539" d="M270 -13q-52 0 -93.5 12t-71 38t-45.5 66.5t-16 97.5q0 44 11.5 76t30 54t41 35.5t45.5 21.5q-17 6 -36.5 18.5t-35.5 32.5t-26.5 48.5t-10.5 66.5q0 48 15.5 83t43 57.5t65.5 33t83 10.5t82.5 -10.5t65 -33t43 -57.5t15.5 -83q0 -38 -10.5 -66.5t-26.5 -48.5 t-35.5 -32.5t-37.5 -18.5q23 -8 46 -21.5t41.5 -35.5t30 -54t11.5 -76q0 -57 -16 -97.5t-45 -66.5t-71 -38t-93 -12zM270 49q62 0 99 37t37 107v16q0 70 -36.5 107.5t-99.5 37.5t-100.5 -37.5t-37.5 -106.5v-17q0 -70 37.5 -107t100.5 -37zM270 413q57 0 87 31.5t30 94.5v12 q0 63 -30 94.5t-87 31.5q-118 0 -118 -126v-13q0 -63 30.5 -94t87.5 -31z" />
<glyph unicode="9" horiz-adv-x="535" d="M253 -13q-47 0 -82 14.5t-58 39.5t-34 59.5t-11 75.5v6h82v-4q0 -60 24.5 -94.5t80.5 -34.5q77 0 105.5 68.5t28.5 201.5v24q-5 -16 -17 -33t-30.5 -31t-43 -23t-55.5 -9q-86 0 -138.5 56.5t-52.5 169.5v39q0 114 57.5 170t152.5 56q51 0 90.5 -15t66.5 -48.5t41.5 -87.5 t14.5 -132v-100q0 -91 -10 -160t-35.5 -115t-68 -69.5t-108.5 -23.5zM265 311q60 0 92 45.5t32 126.5v24q0 81 -32 125.5t-92 44.5q-59 0 -91 -42.5t-32 -125.5v-28q0 -83 32 -126.5t91 -43.5z" />
<glyph unicode=":" horiz-adv-x="238" d="M64 115h111v-115h-111v115zM64 538h111v-115h-111v115z" />
<glyph unicode=";" horiz-adv-x="263" d="M64 106h105v-113l-56 -123h-54l49 130h-44v106zM58 537h105v-106h-105v106z" />
<glyph unicode="&#x3c;" d="M71 232v75l406 229v-79l-326 -188l326 -186v-80z" />
<glyph unicode="=" d="M64 194h421v-70h-421v70zM64 414h421v-70h-421v70z" />
<glyph unicode="&#x3e;" d="M72 3v80l325 186l-325 188v79l405 -229v-75z" />
<glyph unicode="?" horiz-adv-x="451" d="M157 234q0 36 6 61t18.5 44.5t30.5 36.5t42 37q34 30 55 62.5t21 82.5q0 65 -29.5 92t-77.5 27q-112 0 -112 -153v-4h-82v4q0 105 50.5 159.5t144.5 54.5q40 0 75 -9t61.5 -30t42 -55.5t15.5 -85.5q0 -34 -9 -61.5t-23 -50t-31.5 -40t-34.5 -32.5q-21 -18 -36 -31 t-24.5 -28t-14.5 -34t-5 -49v-39h-83v41zM154 125h89v-125h-89v125z" />
<glyph unicode="@" horiz-adv-x="767" d="M384 -13q-77 0 -138.5 27t-105 76t-67 116t-23.5 147q0 81 27 151t74 121t111.5 80.5t139.5 29.5q68 0 125.5 -22t99.5 -63.5t66 -101.5t24 -135q0 -60 -14 -107t-38 -79.5t-54.5 -49.5t-62.5 -17q-25 0 -42.5 8.5t-28 23t-15 34t-3.5 41.5q-19 -49 -52 -75.5t-77 -28.5 q-22 0 -44 10.5t-39.5 31.5t-28.5 54t-11 78q0 47 13.5 90.5t36.5 76.5t55 53t69 20q22 0 39 -9t28.5 -22.5t18.5 -30t10 -32.5l9 74h51l-34 -230q-3 -26 -3 -47.5t4.5 -37t15.5 -24.5t29 -9q23 0 44 13.5t37.5 39t26 63t9.5 84.5q0 67 -21.5 118.5t-58.5 86.5t-85 53.5 t-101 18.5q-63 0 -117 -26t-94 -71.5t-63 -106.5t-23 -130q0 -68 21 -125.5t58 -99.5t88.5 -66t113.5 -24q21 0 43.5 3t44.5 8t41 12t33 16l21 -45q-20 -10 -43 -18t-47.5 -14t-48 -9t-44.5 -3zM339 217q25 0 46.5 16t37 42t24 60.5t8.5 71.5q0 56 -21 85.5t-51 29.5 q-24 0 -45 -15t-36 -40t-24 -59t-9 -71q0 -61 20.5 -90.5t49.5 -29.5z" />
<glyph unicode="A" horiz-adv-x="527" d="M210 725h106l201 -725h-92l-49 189h-231l-49 -189h-86zM162 254h197l-98 384z" />
<glyph unicode="B" horiz-adv-x="524" d="M73 725h167q51 0 93 -8t72.5 -28.5t47 -55.5t16.5 -89q0 -66 -32 -106.5t-85 -54.5q62 -14 101 -56.5t39 -118.5q0 -59 -16.5 -98.5t-47.5 -64t-74.5 -35t-98.5 -10.5h-182v725zM250 65q42 0 71 10t47 28.5t26 45t8 59.5q0 70 -34.5 103.5t-124.5 33.5h-80v-280h87z M239 407q69 0 105 30t36 99q0 66 -35 95.5t-106 29.5h-76v-254h76z" />
<glyph unicode="C" horiz-adv-x="528" d="M278 -13q-62 0 -106.5 19.5t-73 60.5t-42 103t-13.5 148v89q0 85 13.5 147.5t42 103.5t73 60.5t106.5 19.5q108 0 163 -61.5t55 -176.5v-5h-88v4q0 92 -32.5 132.5t-98.5 40.5q-43 0 -70 -19.5t-42.5 -56.5t-21.5 -91t-6 -123v-39q0 -69 6 -123t21.5 -91t42.5 -56t70 -19 q66 0 98.5 40t32.5 132v4h88v-4q0 -116 -55 -177.5t-163 -61.5z" />
<glyph unicode="D" horiz-adv-x="553" d="M237 65q49 0 83 14t55.5 46t31 85.5t9.5 133.5v38q0 79 -9.5 132.5t-31 86t-55.5 46.5t-83 14h-74v-596h74zM73 725h161q65 0 116 -15.5t86.5 -53t54.5 -100t19 -155.5v-79q0 -93 -19 -154.5t-54.5 -99t-86.5 -53t-116 -15.5h-161v725z" />
<glyph unicode="E" horiz-adv-x="459" d="M73 725h366v-70h-276v-245h252v-71h-252v-269h276v-70h-366v725z" />
<glyph unicode="F" horiz-adv-x="429" d="M73 725h346v-70h-256v-245h232v-71h-232v-339h-90v725z" />
<glyph unicode="G" horiz-adv-x="557" d="M266 -13q-116 0 -169.5 80.5t-53.5 250.5v89q0 171 55.5 251t180.5 80q108 0 163.5 -61t55.5 -170v-3h-88v3q0 85 -32.5 125t-98.5 40q-44 0 -71.5 -19.5t-43 -56.5t-21.5 -91t-6 -123v-39q0 -69 6 -123t21.5 -91t43 -56t71.5 -19q77 0 109.5 55.5t32.5 157.5v31h-171v67 h250v-365h-68l-1 96q-22 -50 -61 -79.5t-104 -29.5z" />
<glyph unicode="H" horiz-adv-x="579" d="M73 725h90v-315h253v315h90v-725h-90v339h-253v-339h-90v725z" />
<glyph unicode="I" horiz-adv-x="236" d="M73 725h90v-725h-90v725z" />
<glyph unicode="J" horiz-adv-x="446" d="M191 -13q-98 0 -141.5 56t-43.5 157v10h90v-10q0 -76 20 -111t73 -35q54 0 74 35.5t20 110.5v525h90v-525q0 -109 -43.5 -161t-138.5 -52z" />
<glyph unicode="K" horiz-adv-x="523" d="M242 346l-79 -114v-232h-90v725h90v-364l247 364h92l-207 -301l230 -424h-94z" />
<glyph unicode="L" horiz-adv-x="445" d="M73 725h90v-655h277v-70h-367v725z" />
<glyph unicode="M" horiz-adv-x="725" d="M73 725h131l159 -622l160 622h129v-725h-82v632h-2l-8 -39l-159 -593h-78l-159 593l-7 39h-2v-632h-82v725z" />
<glyph unicode="N" horiz-adv-x="578" d="M73 725h108l243 -607v607h81v-725h-107l-244 608v-608h-81v725z" />
<glyph unicode="O" horiz-adv-x="562" d="M281 672q-44 0 -71.5 -19.5t-44 -56.5t-22.5 -91t-6 -123v-39q0 -69 6 -123t22.5 -91t44 -56t71.5 -19q43 0 71 19t44.5 56t22.5 91t6 123v39q0 69 -6 123t-22.5 91t-44.5 56.5t-71 19.5zM281 738q124 0 181 -80t57 -251v-89q0 -171 -57 -251t-181 -80q-125 0 -181.5 80 t-56.5 251v89q0 171 56.5 251t181.5 80z" />
<glyph unicode="P" horiz-adv-x="501" d="M73 725h160q62 0 110 -8t80.5 -31t49.5 -64t17 -107q0 -65 -17 -106t-49.5 -64.5t-80.5 -32.5t-110 -9h-70v-303h-90v725zM227 369q43 0 75 5t52.5 21t30.5 44.5t10 75.5q0 46 -10 75t-30.5 44.5t-52.5 21t-75 5.5h-64v-292h64z" />
<glyph unicode="Q" horiz-adv-x="562" d="M281 738q124 0 181 -80t57 -251v-89q0 -208 -85 -283l73 -98l-50 -40l-78 106q-21 -8 -45.5 -12t-52.5 -4q-125 0 -181.5 80t-56.5 251v89q0 171 56.5 251t181.5 80zM281 672q-44 0 -71.5 -19.5t-44 -56.5t-22.5 -91t-6 -123v-39q0 -69 6 -123t22.5 -91t44 -56t71.5 -19 q32 0 53 10l-56 77l50 38l55 -75q24 36 33 96t9 143v39q0 69 -6 123t-22.5 91t-44.5 56.5t-71 19.5z" />
<glyph unicode="R" horiz-adv-x="536" d="M295 331q-15 -2 -31 -3t-33 -1h-68v-327h-90v725h161q67 0 116.5 -9t81.5 -31t48 -60.5t16 -96.5q0 -79 -30 -120.5t-88 -59.5l133 -348h-94zM236 387q43 0 74.5 5.5t52 20.5t30 41.5t9.5 69.5q0 42 -9.5 69t-30 42t-52 20.5t-74.5 5.5h-73v-274h73z" />
<glyph unicode="S" horiz-adv-x="507" d="M262 -13q-110 0 -169 59t-59 176v8h89v-8q0 -86 36 -127.5t102 -41.5q64 0 95 32.5t31 91.5q0 28 -7 49t-21 37t-34 28.5t-47 24.5l-89 42q-31 14 -57 30t-45.5 39t-30.5 54.5t-11 75.5t15 77.5t41.5 56.5t63.5 35t82 12q46 0 84.5 -12.5t66.5 -37.5t43 -63.5t15 -90.5 v-8h-87v8q0 66 -32.5 102t-89.5 36q-56 0 -86 -29.5t-30 -80.5q0 -26 5.5 -44.5t15.5 -32t25 -23t34 -17.5l94 -44q35 -15 66 -32.5t54.5 -41.5t37 -57.5t13.5 -81.5q0 -96 -55.5 -148.5t-158.5 -52.5z" />
<glyph unicode="T" horiz-adv-x="455" d="M182 655h-178v70h447v-70h-179v-655h-90v655z" />
<glyph unicode="U" horiz-adv-x="557" d="M278 -13q-64 0 -105.5 14t-65.5 46.5t-33.5 85.5t-9.5 130v462h90v-474q0 -52 5.5 -89.5t19 -61.5t37.5 -35t62 -11t62.5 11t38.5 35t19.5 61.5t5.5 89.5v474h89v-462q0 -77 -9.5 -130t-33.5 -85.5t-65.5 -46.5t-106.5 -14z" />
<glyph unicode="V" horiz-adv-x="485" d="M8 725h91l146 -629l146 629h86l-181 -725h-106z" />
<glyph unicode="W" horiz-adv-x="725" d="M14 725h83l106 -622l117 622h84l117 -622l106 622h83l-129 -725h-105l-113 617l-115 -617h-106z" />
<glyph unicode="X" horiz-adv-x="493" d="M202 373l-183 352h94l134 -267l139 267h91l-185 -344l198 -381h-93l-151 294l-152 -294h-91z" />
<glyph unicode="Y" horiz-adv-x="492" d="M201 287l-193 438h90l148 -356l148 356h90l-194 -439v-286h-89v287z" />
<glyph unicode="Z" horiz-adv-x="475" d="M25 66l328 589h-305v70h401v-66l-328 -589h336v-70h-432v66z" />
<glyph unicode="[" horiz-adv-x="271" d="M85 725h190v-62h-118v-775h118v-63h-190v900z" />
<glyph unicode="\" horiz-adv-x="330" d="M0 725h84l246 -725h-85z" />
<glyph unicode="]" horiz-adv-x="271" d="M-4 -112h116v775h-116v62h190v-900h-190v63z" />
<glyph unicode="^" horiz-adv-x="464" d="M196 714h73l202 -387h-81l-158 303l-158 -303h-81z" />
<glyph unicode="_" horiz-adv-x="440" d="M17 0h408v-77h-408v77z" />
<glyph unicode="`" horiz-adv-x="219" d="M25 725h105l64 -119h-68z" />
<glyph unicode="a" horiz-adv-x="450" d="M176 -13q-68 0 -105 36t-37 110v15q0 61 41 96t117 63l118 42v45q0 57 -24 78.5t-67 21.5q-91 0 -91 -109v-11h-83v11q0 87 48 126.5t129 39.5q39 0 71.5 -7t56 -26t36.5 -52.5t13 -86.5v-41.5t-0.5 -64.5t-0.5 -63.5v-39.5v-56.5t1 -44.5t1.5 -36.5t2.5 -32.5h-82l-2 78 q-19 -45 -53.5 -68t-89.5 -23zM203 45q23 0 43 8.5t35 27t23.5 48.5t8.5 73v92l-88 -32q-49 -17 -73.5 -42t-24.5 -70v-12q0 -42 18 -67.5t58 -25.5z" />
<glyph unicode="b" horiz-adv-x="482" d="M259 487q-56 0 -85.5 -55.5t-29.5 -161.5t29.5 -162t85.5 -56t76 52t20 151v29q0 100 -20 151.5t-76 51.5zM283 551q161 0 161 -242v-79q0 -242 -161 -242q-51 0 -87 29t-49 71v-88h-86v725h86v-273q13 42 49 70.5t87 28.5z" />
<glyph unicode="c" horiz-adv-x="435" d="M229 -13q-100 0 -145.5 59t-45.5 185v76q0 124 45.5 183.5t145.5 59.5q37 0 69 -11t55 -34t36 -58t13 -83v-6h-81v6q0 124 -92 124q-33 0 -53.5 -14t-31 -39.5t-14 -62t-3.5 -81.5v-45q0 -46 3.5 -82.5t14 -62t31 -39t53.5 -13.5q92 0 92 124v5h81v-6q0 -47 -13 -81.5 t-36 -57.5t-55 -34.5t-69 -11.5z" />
<glyph unicode="d" horiz-adv-x="482" d="M199 -13q-161 0 -161 242v79q0 242 161 242q51 0 87 -29t49 -71v275h86v-725h-86v86q-13 -42 -49 -70.5t-87 -28.5zM223 51q56 0 85.5 55.5t29.5 161.5t-29.5 162t-85.5 56t-76 -52t-20 -151v-29q0 -101 20 -152t76 -51z" />
<glyph unicode="e" horiz-adv-x="451" d="M230 -13q-100 0 -145.5 59.5t-45.5 182.5v79q0 123 46 182.5t146 59.5t143.5 -59.5t43.5 -188.5v-41h-292v-15q0 -46 4 -82.5t15.5 -62t32 -39t52.5 -13.5q96 0 96 118v5h84v-5q0 -96 -47.5 -138t-132.5 -42zM126 317h205v7q0 39 -4 70t-15 52t-30 32t-50 11 q-32 0 -52.5 -11.5t-32.5 -33.5t-16.5 -52.5t-4.5 -68.5v-6z" />
<glyph unicode="f" horiz-adv-x="263" d="M78 479h-71v59h71v59q0 38 7 63t23 39.5t41.5 20t63.5 5.5h48v-57h-32q-21 0 -34 -3t-19.5 -11t-9 -22.5t-2.5 -37.5v-56h97v-59h-97v-479h-86v479z" />
<glyph unicode="g" horiz-adv-x="484" d="M234 -188q-92 0 -134.5 43.5t-42.5 113.5v5h83v-5q0 -43 22 -69t73 -26q56 0 79 30t23 106v103q-14 -43 -47 -71.5t-84 -28.5q-79 0 -123.5 61t-44.5 179v64q0 121 44.5 177t123.5 56q51 0 84 -29t47 -71v88h86v-512q0 -104 -42.5 -159t-146.5 -55zM225 76q58 0 87 52.5 t29 149.5q0 102 -29 155t-87 53q-57 0 -77.5 -47t-20.5 -144v-15q0 -96 20.5 -150t77.5 -54z" />
<glyph unicode="h" horiz-adv-x="468" d="M61 725h86v-275q15 43 50 71.5t87 28.5q74 0 103 -46.5t29 -144.5v-359h-86v331q0 37 -2.5 65.5t-11 48t-23.5 30t-39 10.5q-53 0 -80 -51.5t-27 -139.5v-294h-86v725z" />
<glyph unicode="i" horiz-adv-x="207" d="M61 538h86v-538h-86v538zM61 725h86v-109h-86v109z" />
<glyph unicode="j" horiz-adv-x="207" d="M-22 -117h22q21 0 33 3.5t18.5 13.5t8 26t1.5 42v570h86v-570q0 -42 -7 -70t-22.5 -44t-42 -22.5t-65.5 -6.5h-32v58zM61 725h86v-109h-86v109z" />
<glyph unicode="k" horiz-adv-x="434" d="M208 247l-61 -84v-163h-86v725h86v-446l183 259h88l-156 -216l164 -322h-94z" />
<glyph unicode="l" horiz-adv-x="208" d="M61 725h86v-725h-86v725z" />
<glyph unicode="m" horiz-adv-x="715" d="M61 538h86v-90q15 42 48.5 71t81.5 29q55 0 82 -27t37 -81q17 50 53.5 79t84.5 29q74 0 101.5 -48.5t27.5 -146.5v-353h-86v330q0 36 -3 64.5t-10.5 48.5t-21 30.5t-35.5 10.5q-49 0 -75.5 -47.5t-26.5 -130.5v-306h-86v341q0 67 -13 105t-57 38q-49 0 -75.5 -51.5 t-26.5 -139.5v-293h-86v538z" />
<glyph unicode="n" horiz-adv-x="468" d="M61 538h86v-88q15 43 50 71.5t87 28.5q74 0 103 -46.5t29 -144.5v-359h-86v331q0 37 -2.5 65.5t-11 48t-23.5 30t-39 10.5q-53 0 -80 -51.5t-27 -139.5v-294h-86v538z" />
<glyph unicode="o" horiz-adv-x="458" d="M229 489q-33 0 -53 -14t-31 -40.5t-14.5 -64t-3.5 -84.5v-35q0 -47 3.5 -84.5t14.5 -63.5t31 -40t53 -14t53 14t31 40t14.5 63.5t3.5 84.5v35q0 47 -3.5 84.5t-14.5 64t-31 40.5t-53 14zM229 550q100 0 145.5 -59t45.5 -184v-77q0 -125 -45.5 -184t-145.5 -59t-145.5 59 t-45.5 184v77q0 125 45.5 184t145.5 59z" />
<glyph unicode="p" horiz-adv-x="482" d="M283 551q161 0 161 -242v-79q0 -242 -161 -242q-51 0 -87 29t-49 71v-263h-86v713h86v-86q13 42 49 70.5t87 28.5zM259 487q-56 0 -85.5 -55.5t-29.5 -161.5t29.5 -162t85.5 -56t76 52t20 151v29q0 100 -20 151.5t-76 51.5z" />
<glyph unicode="q" horiz-adv-x="482" d="M335 86q-14 -42 -49.5 -70.5t-86.5 -28.5q-161 0 -161 242v79q0 242 161 242q51 0 86.5 -29t49.5 -71v88h86v-713h-86v261zM223 51q55 0 85 55.5t30 161.5t-30 162t-85 56q-56 0 -76 -52t-20 -151v-29q0 -101 20 -152t76 -51z" />
<glyph unicode="r" horiz-adv-x="286" d="M61 538h85v-108q11 45 40.5 76.5t83.5 31.5h20v-80h-31q-59 0 -85.5 -39t-26.5 -131v-288h-86v538z" />
<glyph unicode="s" horiz-adv-x="422" d="M212 -13q-83 0 -133.5 42.5t-50.5 135.5v5h83v-6q0 -56 26 -85.5t74 -29.5q42 0 70 19t28 61q0 36 -15 57.5t-58 38.5l-79 30q-25 9 -46.5 22.5t-37 32t-24 42.5t-8.5 55q0 36 12.5 63t34.5 44.5t52.5 26.5t65.5 9q34 0 65 -9.5t54 -29t37 -49.5t14 -71v-5h-81v5 q0 53 -28 75.5t-64 22.5q-33 0 -59.5 -18.5t-26.5 -56.5q0 -31 15.5 -48t50.5 -31l79 -31q59 -23 92 -61t33 -105q0 -38 -14 -66.5t-37.5 -47.5t-55.5 -28t-68 -9z" />
<glyph unicode="t" horiz-adv-x="264" d="M189 0q-36 0 -58.5 6.5t-35.5 22t-18 40t-5 60.5v350h-71v59h71v135h86v-135h93v-59h-93v-339q0 -26 2.5 -42t9.5 -24.5t19.5 -11.5t33.5 -3h28v-59h-62v0z" />
<glyph unicode="u" horiz-adv-x="460" d="M185 -13q-76 0 -104.5 48.5t-28.5 146.5v356h86v-332q0 -36 2.5 -64.5t10.5 -48.5t22 -30.5t38 -10.5q51 0 77 51.5t25 139.5v295h86v-538h-83v88q-14 -43 -47 -72t-84 -29z" />
<glyph unicode="v" horiz-adv-x="396" d="M8 538h86l105 -445l106 445h83l-141 -538h-100z" />
<glyph unicode="w" horiz-adv-x="573" d="M20 538h76l66 -435l83 435h82l83 -435l67 435h76l-91 -538h-92l-84 449l-83 -449h-93z" />
<glyph unicode="x" horiz-adv-x="388" d="M151 276l-141 262h88l97 -182l100 182h84l-142 -260l149 -278h-87l-106 198l-109 -198h-85z" />
<glyph unicode="y" horiz-adv-x="400" d="M45 -116h29q19 0 31.5 2.5t21.5 10t15.5 22.5t12.5 41l11 39l-158 539h86l113 -424l105 424h80l-145 -544q-14 -54 -26.5 -87.5t-30 -51.5t-42 -24t-63.5 -6h-40v59z" />
<glyph unicode="z" horiz-adv-x="377" d="M17 58l246 421h-222v59h313v-58l-245 -421h251v-59h-343v58z" />
<glyph unicode="{" horiz-adv-x="259" d="M235 -175q-42 0 -70.5 6.5t-46.5 23t-25.5 44t-7.5 68.5v164q0 23 -2.5 43.5t-10.5 35.5t-22 24t-38 10v67q24 1 38 10t22 24t10.5 35.5t2.5 43.5v159q0 41 7.5 68.5t25.5 44t46.5 23t70.5 6.5h24v-66h-12q-28 0 -44.5 -3.5t-25.5 -13t-12 -25t-3 -39.5v-163 q0 -35 -5.5 -59t-15.5 -39.5t-25 -24.5t-33 -14v-2q18 -5 33 -14t25 -24.5t15.5 -39.5t5.5 -58v-167q0 -24 3 -40t12 -25t25.5 -13t44.5 -4h12v-66h-24v0z" />
<glyph unicode="|" horiz-adv-x="215" d="M68 725h80v-815h-80v815z" />
<glyph unicode="}" horiz-adv-x="259" d="M0 -175v66h12q28 0 44.5 4t25.5 13t12 25t3 40v167q0 34 5.5 58t15.5 39.5t25 24.5t33 14v2q-18 5 -33 14t-25 24.5t-15.5 39.5t-5.5 59v163q0 24 -3 39.5t-12 25t-25.5 13t-44.5 3.5h-12v66h24q42 0 70.5 -6.5t46.5 -23t25.5 -44t7.5 -68.5v-159q0 -23 2.5 -43.5 t10.5 -35.5t22 -24t38 -10v-67q-24 -1 -38 -10t-22 -24t-10.5 -35.5t-2.5 -43.5v-164q0 -41 -7.5 -68.5t-25.5 -44t-46.5 -23t-70.5 -6.5h-24z" />
<glyph unicode="~" d="M38 196q5 70 36.5 108.5t93.5 38.5q33 0 60.5 -11.5t52 -25t47.5 -24.5t47 -11q29 0 46.5 17t20.5 55h68q-5 -71 -36.5 -109t-94.5 -38q-30 0 -56 11.5t-50.5 25t-48.5 25t-51 11.5q-29 0 -46.5 -17t-20.5 -56h-68v0z" />
<glyph unicode="&#xa1;" horiz-adv-x="268" d="M90 15l14 324h59l16 -324v-190h-89v190zM90 538h89v-125h-89v125z" />
<glyph unicode="&#xa2;" horiz-adv-x="443" d="M209 -12q-89 5 -129.5 65.5t-40.5 177.5v76q0 115 40.5 175.5t129.5 66.5v71h41v-71q67 -7 109.5 -52.5t42.5 -132.5v-5h-82v5q0 124 -92 124q-33 0 -53 -14t-31 -39.5t-14.5 -62t-3.5 -81.5v-45q0 -46 3.5 -82.5t14.5 -62t31 -39t53 -13.5q92 0 92 124v4h82v-5 q0 -87 -42.5 -132t-109.5 -52v-81h-41v81z" />
<glyph unicode="&#xa3;" horiz-adv-x="522" d="M45 380h99q-11 21 -23 42.5t-21.5 44t-15.5 46t-6 49.5q0 47 15.5 80.5t42 54.5t62.5 31t77 10q94 0 146 -54.5t52 -159.5v-4h-81v6q0 76 -30 113.5t-87 37.5q-51 0 -81 -28t-30 -88q0 -24 6 -47.5t16 -46t21.5 -44t22.5 -43.5h168v-53h-145q5 -16 8.5 -32t3.5 -33 q0 -30 -8.5 -58.5t-23 -53t-33 -44.5t-38.5 -33l1 -1q39 18 74 18q19 0 36 -6t33.5 -12.5t33.5 -12t38 -5.5q26 1 44 8.5t36 18.5l31 -57q-27 -17 -52.5 -27t-55.5 -10q-27 0 -48 6t-39.5 13t-38.5 13t-45 6q-27 0 -62.5 -8.5t-74.5 -28.5l-30 61q26 14 51 33t44.5 44 t31.5 56t12 69q0 20 -4 39t-10 37h-123v53z" />
<glyph unicode="&#xa4;" horiz-adv-x="640" d="M62 131l68 70q-23 31 -36.5 67.5t-13.5 77.5q0 42 13.5 79t36.5 67l-68 69l38 36l66 -67q31 26 69.5 40.5t81.5 14.5q45 0 84 -15t71 -41l69 68l37 -36l-69 -70q23 -31 35 -67.5t12 -77.5q0 -82 -49 -143l71 -72l-37 -36l-70 70q-32 -26 -71 -40.5t-83 -14.5 q-88 0 -148 54l-69 -69zM317 177q37 0 68 13.5t53.5 36.5t35 53.5t12.5 65.5q0 36 -12.5 67.5t-35 55t-53.5 37t-68 13.5q-36 0 -66 -13.5t-51 -37t-33 -55t-12 -67.5q0 -35 12 -65.5t33 -53.5t51 -36.5t66 -13.5z" />
<glyph unicode="&#xa5;" horiz-adv-x="491" d="M72 281h131v6l-195 438h87l151 -357l150 357h87l-195 -439v-5h130v-52h-130v-82h130v-51h-130v-96h-85v96h-131v51h131v82h-131v52z" />
<glyph unicode="&#xa6;" horiz-adv-x="240" d="M86 215h69v-305h-69v305zM86 725h69v-310h-69v310z" />
<glyph unicode="&#xa7;" horiz-adv-x="519" d="M262 -186q-41 0 -77.5 11.5t-64 34t-43.5 57t-16 80.5v3h84v-3q0 -60 33.5 -91t82.5 -31q23 0 43.5 5.5t36 17t24.5 29t9 42.5q0 39 -21 65t-66 48l-120 59q-29 15 -53 30.5t-41.5 34.5t-27 43t-9.5 55q0 51 29 85t71 58q-29 24 -46.5 56.5t-17.5 77.5q0 76 52.5 116.5 t136.5 40.5q40 0 74 -11.5t59 -34t38.5 -55.5t13.5 -76v-4h-84v5q0 48 -26.5 81.5t-76.5 33.5q-21 0 -39.5 -5t-32.5 -16t-22 -29t-8 -44q0 -38 18 -64.5t61 -47.5l119 -59q29 -15 53 -31t40.5 -35t25.5 -42.5t9 -54.5q0 -50 -28.5 -84.5t-68.5 -57.5q32 -24 52.5 -57.5 t20.5 -78.5q0 -38 -15 -67t-41 -49t-62 -30.5t-79 -10.5zM321 147q2 -2 8 -4q27 15 48 40.5t21 58.5t-19 59.5t-70 51.5l-106 52l-12 5q-27 -15 -48.5 -40t-21.5 -59q0 -33 21 -59.5t72 -51.5z" />
<glyph unicode="&#xa8;" horiz-adv-x="327" d="M25 722h78v-107h-78v107zM224 722h78v-107h-78v107z" />
<glyph unicode="&#xa9;" horiz-adv-x="836" d="M417 158q-74 0 -103 43t-29 135v52q0 91 29 134.5t103 43.5q124 0 124 -132v-4h-67v3q0 49 -14.5 66.5t-43.5 17.5q-20 0 -32 -9.5t-18 -28t-8 -45.5t-2 -61v-22q0 -35 2 -62t8 -46t18 -28.5t32 -9.5q29 0 43.5 18t14.5 67v3h67v-3q0 -132 -124 -132zM418 36 q67 0 124.5 23.5t99.5 66.5t66 102.5t24 130.5q0 72 -24 131.5t-66 102t-99.5 66.5t-124.5 24q-66 0 -123.5 -24t-100 -66.5t-67 -102t-24.5 -131.5q0 -71 24.5 -130.5t67 -102.5t100 -66.5t123.5 -23.5zM418 -13q-77 0 -144 27.5t-116.5 76.5t-78.5 117t-29 150 q0 83 29 151.5t78.5 118t116.5 77t144 27.5q76 0 143 -27.5t117 -77t79 -118t29 -151.5q0 -82 -29 -150t-79 -117t-117 -76.5t-143 -27.5z" />
<glyph unicode="&#xaa;" horiz-adv-x="256" d="M96 417q-38 0 -59.5 23.5t-21.5 63.5v6q0 32 24 53q12 11 29.5 18.5t41.5 15.5l59 23v26q0 27 -11 38.5t-34 11.5t-36 -12.5t-13 -41.5v-6h-54v6q0 48 28 70.5t76 22.5q24 0 43 -4t32.5 -15t20.5 -30.5t7 -51.5v-112q0 -35 0.5 -57t2.5 -40h-55l-1 41q-21 -49 -79 -49z M117 456q25 0 39.5 18t14.5 63v48l-44 -18q-26 -9 -39 -21t-13 -35v-6q0 -23 10.5 -36t31.5 -13z" />
<glyph unicode="&#xab;" horiz-adv-x="327" d="M20 227v102l131 145v-103l-85 -93l85 -94v-102zM171 227v102l131 145v-103l-84 -93l84 -94v-102z" />
<glyph unicode="&#xac;" d="M457 362h-438v71h511v-342h-73v271z" />
<glyph unicode="&#xad;" horiz-adv-x="338" d="M50 307h238v-75h-238v75z" />
<glyph unicode="&#xae;" horiz-adv-x="835" d="M418 -13q-77 0 -144 27.5t-116.5 76.5t-78.5 117t-29 150q0 83 29 151.5t78.5 118t116.5 77t144 27.5q76 0 143 -27.5t117 -77t79 -118t29 -151.5q0 -82 -29 -150t-79 -117t-117 -76.5t-143 -27.5zM418 39q67 0 124 23.5t99 65.5t65.5 101t23.5 130t-23.5 130 t-65.5 101.5t-99 66t-124 23.5q-66 0 -123 -23.5t-99.5 -66t-66.5 -101.5t-24 -130t24 -130t66.5 -101t99.5 -65.5t123 -23.5zM432 343q-8 -1 -16 -1h-16h-30v-172h-65v394h96q37 0 64.5 -5t45.5 -17t26.5 -33t8.5 -53q0 -42 -14 -65.5t-42 -35.5l66 -185h-63zM402 385 q21 0 35 2.5t23 10t12.5 20.5t3.5 33q0 40 -16 52.5t-58 12.5h-32v-131h32z" />
<glyph unicode="&#xaf;" horiz-adv-x="281" d="M25 696h231v-61h-231v61z" />
<glyph unicode="&#xb0;" horiz-adv-x="335" d="M166 483q42 0 66.5 27t24.5 68t-24.5 68t-66.5 27q-38 0 -63 -27t-25 -68t25 -68t63 -27zM166 427q-31 0 -57.5 12t-46.5 32t-31.5 47.5t-11.5 59.5q0 31 11.5 58t31.5 47.5t46.5 32t57.5 11.5q32 0 59.5 -11.5t47.5 -32t31.5 -47.5t11.5 -58q0 -32 -11.5 -59.5 t-31.5 -47.5t-47.5 -32t-59.5 -12z" />
<glyph unicode="&#xb1;" d="M237 293h-206v70h206v170h73v-170h207v-70h-207v-173h-73v173zM31 69h486v-69h-486v69z" />
<glyph unicode="&#xb2;" horiz-adv-x="276" d="M22 484l45 57q27 34 49.5 62.5t39 54t26 48.5t9.5 45q0 60 -54 60t-54 -82v-4h-59v4q0 60 29 92t87 32q52 0 82 -24t30 -75q0 -49 -34.5 -101.5t-87.5 -119.5l-37 -48h160v-47h-231v46z" />
<glyph unicode="&#xb3;" horiz-adv-x="291" d="M136 430q-53 0 -83.5 28t-30.5 85v2h58v-2q0 -32 12.5 -51.5t44.5 -19.5q39 0 52 23t13 55q0 35 -17 56.5t-63 21.5h-21v42h21q67 0 67 72q0 33 -13 51t-42 18t-40 -17t-11 -52v-2h-58v2q0 57 30.5 84t81.5 27q24 0 44.5 -5t36 -17.5t24 -32.5t8.5 -50q0 -40 -17.5 -63 t-44.5 -31q35 -9 55.5 -34.5t20.5 -68.5q0 -64 -33.5 -92.5t-94.5 -28.5z" />
<glyph unicode="&#xb4;" horiz-adv-x="219" d="M91 725h103l-101 -119h-68z" />
<glyph unicode="&#xb6;" horiz-adv-x="478" d="M177 374q-32 0 -64 10.5t-57 32t-40.5 54t-15.5 77.5t16 78.5t45 55t70 32.5t92 11h174v-814h-57v761h-105v-761h-58v463z" />
<glyph unicode="&#xb7;" horiz-adv-x="210" d="M53 319h104v-102h-104v102z" />
<glyph unicode="&#xb8;" horiz-adv-x="238" d="M105 -194q-42 0 -80 13l13 38q11 -5 26.5 -8.5t30.5 -3.5q23 0 41 8.5t18 28.5q0 17 -13.5 25.5t-32.5 8.5q-11 0 -22 -2.5t-20 -7.5l-19 17l48 78h42l-33 -54q8 2 15 3t16 1q32 0 55 -17.5t23 -49.5q0 -21 -9.5 -35.5t-24.5 -24t-34.5 -14t-39.5 -4.5z" />
<glyph unicode="&#xb9;" horiz-adv-x="210" d="M101 753h-74v40q26 0 41.5 1.5t24 6.5t12.5 15.5t8 29.5h48v-408h-60v315z" />
<glyph unicode="&#xba;" horiz-adv-x="265" d="M133 456q34 0 42 28t8 79v22q0 49 -8 78.5t-42 29.5t-43 -29t-9 -79v-22q0 -51 9 -79t43 -28zM133 415q-58 0 -85 34.5t-27 103.5v44q0 67 27 102t85 35q57 0 84.5 -35t27.5 -102v-44q0 -138 -112 -138z" />
<glyph unicode="&#xbb;" horiz-adv-x="327" d="M25 184l83 94l-83 93v103l130 -145v-102l-130 -145v102zM176 184l84 94l-84 93v103l131 -145v-102l-131 -145v102z" />
<glyph unicode="&#xbc;" horiz-adv-x="700" d="M576 103h-159v44l158 261h58v-256h49v-49h-49v-103h-57v103zM576 152v178l-112 -178h112zM448 725h48l-244 -725h-47zM143 632h-74v40q26 0 41.5 1.5t24 6.5t12.5 15.5t8 29.5h48v-408h-60v315z" />
<glyph unicode="&#xbd;" horiz-adv-x="700" d="M435 46l45 57q27 34 49.5 62.5t39 54t26 48.5t9.5 45q0 60 -54 60t-54 -82v-4h-59v4q0 60 29 92t87 32q52 0 82 -24t30 -75q0 -49 -34.5 -101.5t-87.5 -119.5l-37 -48h160v-47h-231v46zM448 725h48l-244 -725h-47zM143 632h-74v40q26 0 41.5 1.5t24 6.5t12.5 15.5t8 29.5 h48v-408h-60v315z" />
<glyph unicode="&#xbe;" horiz-adv-x="700" d="M576 103h-159v44l158 261h58v-256h49v-49h-49v-103h-57v103zM576 152v178l-112 -178h112zM448 725h48l-244 -725h-47zM139 309q-54 0 -84 28t-30 85v2h57v-2q0 -32 13 -51.5t44 -19.5q39 0 52.5 23t13.5 55q0 35 -17 56.5t-63 21.5h-22v43h21q68 0 68 72q0 32 -13 50 t-42 18t-40.5 -17t-11.5 -52v-2h-57v2q0 57 30 84t81 27q24 0 45 -5t36.5 -17.5t24 -32.5t8.5 -50q0 -40 -18 -63t-44 -31q35 -9 55.5 -34.5t20.5 -68.5q0 -64 -33.5 -92.5t-94.5 -28.5z" />
<glyph unicode="&#xbf;" horiz-adv-x="463" d="M233 -188q-40 0 -75 9t-61.5 29t-41.5 53.5t-15 83.5q0 34 9 61t23 49t31.5 39.5t35.5 32.5q20 18 35 31t24.5 27.5t14.5 34t5 49.5v36h82v-37q0 -37 -6.5 -62t-18.5 -45t-30 -37t-42 -37q-17 -14 -31 -28.5t-24 -31t-15.5 -37t-5.5 -45.5q0 -62 29.5 -88.5t77.5 -26.5 q113 0 113 149v4h81v-4q0 -101 -50.5 -155t-144.5 -54zM214 538h89v-125h-89v125z" />
<glyph unicode="&#xc0;" horiz-adv-x="527" d="M210 725h106l201 -725h-92l-49 189h-231l-49 -189h-86zM162 254h197l-98 384zM132 886h112l71 -113h-78z" />
<glyph unicode="&#xc1;" horiz-adv-x="527" d="M210 725h106l201 -725h-92l-49 189h-231l-49 -189h-86zM162 254h197l-98 384zM285 886h113l-104 -113h-79z" />
<glyph unicode="&#xc2;" horiz-adv-x="527" d="M210 725h106l201 -725h-92l-49 189h-231l-49 -189h-86zM162 254h197l-98 384zM221 886h86l111 -113h-89l-65 68l-67 -68h-87z" />
<glyph unicode="&#xc3;" horiz-adv-x="527" d="M210 725h106l201 -725h-92l-49 189h-231l-49 -189h-86zM162 254h197l-98 384zM113 773q2 32 10 53.5t19.5 34.5t26.5 18.5t31 5.5q19 0 36.5 -8t33 -17t29.5 -17t26 -8q14 0 21.5 11.5t9.5 38.5h58q-2 -32 -10 -53.5t-20 -34.5t-26.5 -18.5t-29.5 -5.5q-18 0 -34.5 8 t-32 17t-29 17t-25.5 8q-14 0 -24 -12t-11 -38h-59v0z" />
<glyph unicode="&#xc4;" horiz-adv-x="527" d="M210 725h106l201 -725h-92l-49 189h-231l-49 -189h-86zM162 254h197l-98 384zM126 881h79v-104h-79v104zM324 881h79v-104h-79v104z" />
<glyph unicode="&#xc5;" horiz-adv-x="527" d="M210 725h106l201 -725h-92l-49 189h-231l-49 -189h-86zM162 254h197l-98 384zM264 814q14 0 25.5 9t11.5 26t-11.5 27t-25.5 10q-15 0 -26 -10t-11 -27t11 -26t26 -9zM264 766q-37 0 -62.5 23.5t-25.5 59.5q0 37 26 60t62 23q37 0 62.5 -23t25.5 -60q0 -36 -25.5 -59.5 t-62.5 -23.5z" />
<glyph unicode="&#xc6;" horiz-adv-x="768" d="M382 725h356v-70h-266v-246h243v-70h-243v-269h266v-70h-356v177h-200l-87 -177h-95zM217 248h165v336z" />
<glyph unicode="&#xc7;" horiz-adv-x="528" d="M277 -194q-41 0 -79 13l13 38q11 -5 26.5 -8.5t30.5 -3.5q23 0 41 8.5t18 28.5q0 34 -46 34q-11 0 -22 -2.5t-20 -7.5l-19 17l40 65q-115 5 -166 85t-51 245v89q0 85 13.5 147.5t42 103.5t73 60.5t106.5 19.5q108 0 163 -61.5t55 -176.5v-5h-88v4q0 92 -32.5 132.5 t-98.5 40.5q-43 0 -70 -19.5t-42.5 -56.5t-21.5 -91t-6 -123v-39q0 -69 6 -123t21.5 -91t42.5 -56t70 -19q66 0 98.5 40t32.5 132v4h88v-4q0 -109 -49 -169.5t-145 -68.5l-25 -41q7 2 14.5 3t16.5 1q32 0 55 -17.5t23 -49.5q0 -36 -30.5 -57t-78.5 -21z" />
<glyph unicode="&#xc8;" horiz-adv-x="459" d="M127 886h112l71 -113h-78zM73 725h366v-70h-276v-245h252v-71h-252v-269h276v-70h-366v725z" />
<glyph unicode="&#xc9;" horiz-adv-x="459" d="M73 725h366v-70h-276v-245h252v-71h-252v-269h276v-70h-366v725zM272 886h113l-104 -113h-79z" />
<glyph unicode="&#xca;" horiz-adv-x="459" d="M73 725h366v-70h-276v-245h252v-71h-252v-269h276v-70h-366v725zM213 886h86l111 -113h-89l-65 68l-67 -68h-87z" />
<glyph unicode="&#xcb;" horiz-adv-x="459" d="M73 725h366v-70h-276v-245h252v-71h-252v-269h276v-70h-366v725zM119 881h79v-104h-79v104zM317 881h79v-104h-79v104z" />
<glyph unicode="&#xcc;" horiz-adv-x="235" d="M73 725h90v-725h-90v725zM-22 886h112l71 -113h-78z" />
<glyph unicode="&#xcd;" horiz-adv-x="235" d="M73 725h90v-725h-90v725zM144 886h113l-104 -113h-79z" />
<glyph unicode="&#xce;" horiz-adv-x="235" d="M76 886h84l94 -113h-87l-49 68l-50 -68h-87zM73 725h90v-725h-90v725z" />
<glyph unicode="&#xcf;" horiz-adv-x="235" d="M1 882h79v-104h-79v104zM155 882h79v-104h-79v104zM73 725h90v-725h-90v725z" />
<glyph unicode="&#xd0;" horiz-adv-x="559" d="M-5 405h84v320h161q65 0 116 -15.5t86.5 -53t54.5 -100t19 -155.5v-79q0 -93 -19 -154.5t-54.5 -99t-86.5 -53t-116 -15.5h-161v333h-84v72zM243 65q49 0 83 14t55.5 46t31 85.5t9.5 133.5v38q0 79 -9.5 132.5t-31 86t-55.5 46.5t-83 14h-74v-256h137v-72h-137v-268h74z " />
<glyph unicode="&#xd1;" horiz-adv-x="578" d="M140 773q2 32 10 53.5t19.5 34.5t26.5 18.5t31 5.5q19 0 36.5 -8t33 -17t29.5 -17t26 -8q14 0 21.5 11.5t9.5 38.5h58q-2 -32 -10 -53.5t-20 -34.5t-26.5 -18.5t-29.5 -5.5q-18 0 -34.5 8t-32 17t-29 17t-25.5 8q-14 0 -24 -12t-11 -38h-59v0zM73 725h108l243 -607v607 h81v-725h-107l-244 608v-608h-81v725z" />
<glyph unicode="&#xd2;" horiz-adv-x="562" d="M149 886h112l71 -113h-78zM281 672q-44 0 -71.5 -19.5t-44 -56.5t-22.5 -91t-6 -123v-39q0 -69 6 -123t22.5 -91t44 -56t71.5 -19q43 0 71 19t44.5 56t22.5 91t6 123v39q0 69 -6 123t-22.5 91t-44.5 56.5t-71 19.5zM281 738q124 0 181 -80t57 -251v-89q0 -171 -57 -251 t-181 -80q-125 0 -181.5 80t-56.5 251v89q0 171 56.5 251t181.5 80z" />
<glyph unicode="&#xd3;" horiz-adv-x="562" d="M281 672q-44 0 -71.5 -19.5t-44 -56.5t-22.5 -91t-6 -123v-39q0 -69 6 -123t22.5 -91t44 -56t71.5 -19q43 0 71 19t44.5 56t22.5 91t6 123v39q0 69 -6 123t-22.5 91t-44.5 56.5t-71 19.5zM281 738q124 0 181 -80t57 -251v-89q0 -171 -57 -251t-181 -80q-125 0 -181.5 80 t-56.5 251v89q0 171 56.5 251t181.5 80zM306 886h113l-104 -113h-79z" />
<glyph unicode="&#xd4;" horiz-adv-x="562" d="M240 886h86l111 -113h-89l-65 68l-67 -68h-87zM281 672q-44 0 -71.5 -19.5t-44 -56.5t-22.5 -91t-6 -123v-39q0 -69 6 -123t22.5 -91t44 -56t71.5 -19q43 0 71 19t44.5 56t22.5 91t6 123v39q0 69 -6 123t-22.5 91t-44.5 56.5t-71 19.5zM281 738q124 0 181 -80t57 -251 v-89q0 -171 -57 -251t-181 -80q-125 0 -181.5 80t-56.5 251v89q0 171 56.5 251t181.5 80z" />
<glyph unicode="&#xd5;" horiz-adv-x="562" d="M130 773q2 32 10 53.5t19.5 34.5t26.5 18.5t31 5.5q19 0 36.5 -8t33 -17t29.5 -17t26 -8q14 0 21.5 11.5t9.5 38.5h58q-2 -32 -10 -53.5t-20 -34.5t-26.5 -18.5t-29.5 -5.5q-18 0 -34.5 8t-32 17t-29 17t-25.5 8q-14 0 -24 -12t-11 -38h-59v0zM281 672q-44 0 -71.5 -19.5 t-44 -56.5t-22.5 -91t-6 -123v-39q0 -69 6 -123t22.5 -91t44 -56t71.5 -19q43 0 71 19t44.5 56t22.5 91t6 123v39q0 69 -6 123t-22.5 91t-44.5 56.5t-71 19.5zM281 738q124 0 181 -80t57 -251v-89q0 -171 -57 -251t-181 -80q-125 0 -181.5 80t-56.5 251v89q0 171 56.5 251 t181.5 80z" />
<glyph unicode="&#xd6;" horiz-adv-x="562" d="M146 881h79v-104h-79v104zM344 881h79v-104h-79v104zM281 672q-44 0 -71.5 -19.5t-44 -56.5t-22.5 -91t-6 -123v-39q0 -69 6 -123t22.5 -91t44 -56t71.5 -19q43 0 71 19t44.5 56t22.5 91t6 123v39q0 69 -6 123t-22.5 91t-44.5 56.5t-71 19.5zM281 738q124 0 181 -80 t57 -251v-89q0 -171 -57 -251t-181 -80q-125 0 -181.5 80t-56.5 251v89q0 171 56.5 251t181.5 80z" />
<glyph unicode="&#xd7;" d="M60 88l166 179l-167 182l50 50l165 -179l165 178l51 -50l-167 -181l167 -180l-51 -51l-165 179l-165 -179z" />
<glyph unicode="&#xd8;" horiz-adv-x="562" d="M61 -65l51 115q-7 8 -13 17q-56 80 -56 251v89q0 171 56.5 251t181.5 80q73 0 123 -28l36 80h51l-49 -109q11 -11 20 -23q57 -80 57 -251v-89q0 -171 -57 -251t-181 -80q-81 0 -133 33l-37 -85h-50zM209 73q28 -19 72 -19q43 0 71 19t44.5 56t22.5 91t6 123v39 q0 69 -6 123q-6 47 -19 81l-217 -488q12 -15 26 -25zM281 672q-44 0 -71.5 -19.5t-44 -56.5t-22.5 -91t-6 -123v-39q0 -69 6 -123q4 -39 14 -69l214 484q-9 10 -19 17q-28 20 -71 20z" />
<glyph unicode="&#xd9;" horiz-adv-x="557" d="M143 886h112l71 -113h-78zM278 -13q-64 0 -105.5 14t-65.5 46.5t-33.5 85.5t-9.5 130v462h90v-474q0 -52 5.5 -89.5t19 -61.5t37.5 -35t62 -11t62.5 11t38.5 35t19.5 61.5t5.5 89.5v474h89v-462q0 -77 -9.5 -130t-33.5 -85.5t-65.5 -46.5t-106.5 -14z" />
<glyph unicode="&#xda;" horiz-adv-x="557" d="M278 -13q-64 0 -105.5 14t-65.5 46.5t-33.5 85.5t-9.5 130v462h90v-474q0 -52 5.5 -89.5t19 -61.5t37.5 -35t62 -11t62.5 11t38.5 35t19.5 61.5t5.5 89.5v474h89v-462q0 -77 -9.5 -130t-33.5 -85.5t-65.5 -46.5t-106.5 -14zM302 886h113l-104 -113h-79z" />
<glyph unicode="&#xdb;" horiz-adv-x="557" d="M278 -13q-64 0 -105.5 14t-65.5 46.5t-33.5 85.5t-9.5 130v462h90v-474q0 -52 5.5 -89.5t19 -61.5t37.5 -35t62 -11t62.5 11t38.5 35t19.5 61.5t5.5 89.5v474h89v-462q0 -77 -9.5 -130t-33.5 -85.5t-65.5 -46.5t-106.5 -14zM236 886h86l111 -113h-89l-65 68l-67 -68h-87z " />
<glyph unicode="&#xdc;" horiz-adv-x="557" d="M278 -13q-64 0 -105.5 14t-65.5 46.5t-33.5 85.5t-9.5 130v462h90v-474q0 -52 5.5 -89.5t19 -61.5t37.5 -35t62 -11t62.5 11t38.5 35t19.5 61.5t5.5 89.5v474h89v-462q0 -77 -9.5 -130t-33.5 -85.5t-65.5 -46.5t-106.5 -14zM140 881h79v-104h-79v104zM338 881h79v-104 h-79v104z" />
<glyph unicode="&#xdd;" horiz-adv-x="491" d="M201 287l-193 438h90l148 -356l148 356h90l-194 -439v-286h-89v287zM263 886h113l-104 -113h-79z" />
<glyph unicode="&#xde;" horiz-adv-x="501" d="M73 725h93v-148h67q62 0 110 -8t80.5 -31t49.5 -64t17 -107q0 -65 -17 -106t-49.5 -64.5t-80.5 -32.5t-110 -9h-70v-155h-90v725zM227 221q43 0 75 5t52.5 21t30.5 44.5t10 75.5q0 46 -10 75t-30.5 44.5t-52.5 21t-75 5.5h-64v-292h64z" />
<glyph unicode="&#xdf;" horiz-adv-x="504" d="M61 528q0 58 13 98t37.5 65t60 36t81.5 11q38 0 71.5 -9.5t58 -29.5t39 -52.5t14.5 -78.5q0 -65 -29.5 -105t-77.5 -54q29 -6 54 -20t43.5 -37.5t29 -57t10.5 -78.5q0 -113 -51.5 -164.5t-157.5 -51.5h-48v59h41q36 0 60.5 11.5t39.5 32t21.5 49.5t6.5 64q0 79 -35 117.5 t-114 38.5h-24v62h22q29 0 52 6t38.5 21t24 39.5t8.5 61.5q0 57 -25.5 86t-73.5 29q-58 0 -81 -34.5t-23 -112.5v-530h-86v528z" />
<glyph unicode="&#xe0;" horiz-adv-x="450" d="M176 -13q-68 0 -105 36t-37 110v15q0 61 41 96t117 63l118 42v45q0 57 -24 78.5t-67 21.5q-91 0 -91 -109v-11h-83v11q0 87 48 126.5t129 39.5q39 0 71.5 -7t56 -26t36.5 -52.5t13 -86.5v-41.5t-0.5 -64.5t-0.5 -63.5v-39.5v-56.5t1 -44.5t1.5 -36.5t2.5 -32.5h-82l-2 78 q-19 -45 -53.5 -68t-89.5 -23zM203 45q23 0 43 8.5t35 27t23.5 48.5t8.5 73v92l-88 -32q-49 -17 -73.5 -42t-24.5 -70v-12q0 -42 18 -67.5t58 -25.5zM95 725h105l64 -119h-68z" />
<glyph unicode="&#xe1;" horiz-adv-x="450" d="M176 -13q-68 0 -105 36t-37 110v15q0 61 41 96t117 63l118 42v45q0 57 -24 78.5t-67 21.5q-91 0 -91 -109v-11h-83v11q0 87 48 126.5t129 39.5q39 0 71.5 -7t56 -26t36.5 -52.5t13 -86.5v-41.5t-0.5 -64.5t-0.5 -63.5v-39.5v-56.5t1 -44.5t1.5 -36.5t2.5 -32.5h-82l-2 78 q-19 -45 -53.5 -68t-89.5 -23zM203 45q23 0 43 8.5t35 27t23.5 48.5t8.5 73v92l-88 -32q-49 -17 -73.5 -42t-24.5 -70v-12q0 -42 18 -67.5t58 -25.5zM230 725h103l-101 -119h-68z" />
<glyph unicode="&#xe2;" horiz-adv-x="450" d="M176 -13q-68 0 -105 36t-37 110v15q0 61 41 96t117 63l118 42v45q0 57 -24 78.5t-67 21.5q-91 0 -91 -109v-11h-83v11q0 87 48 126.5t129 39.5q39 0 71.5 -7t56 -26t36.5 -52.5t13 -86.5v-41.5t-0.5 -64.5t-0.5 -63.5v-39.5v-56.5t1 -44.5t1.5 -36.5t2.5 -32.5h-82l-2 78 q-19 -45 -53.5 -68t-89.5 -23zM203 45q23 0 43 8.5t35 27t23.5 48.5t8.5 73v92l-88 -32q-49 -17 -73.5 -42t-24.5 -70v-12q0 -42 18 -67.5t58 -25.5zM174 725h76l111 -119h-78l-70 70l-70 -70h-79z" />
<glyph unicode="&#xe3;" horiz-adv-x="450" d="M176 -13q-68 0 -105 36t-37 110v15q0 61 41 96t117 63l118 42v45q0 57 -24 78.5t-67 21.5q-91 0 -91 -109v-11h-83v11q0 87 48 126.5t129 39.5q39 0 71.5 -7t56 -26t36.5 -52.5t13 -86.5v-41.5t-0.5 -64.5t-0.5 -63.5v-39.5v-56.5t1 -44.5t1.5 -36.5t2.5 -32.5h-82l-2 78 q-19 -45 -53.5 -68t-89.5 -23zM203 45q23 0 43 8.5t35 27t23.5 48.5t8.5 73v92l-88 -32q-49 -17 -73.5 -42t-24.5 -70v-12q0 -42 18 -67.5t58 -25.5zM76 613q2 31 10 52.5t19.5 34.5t26.5 18.5t31 5.5q18 0 35.5 -7.5t33 -17t29.5 -17t26 -7.5q13 0 21 11.5t10 37.5h58 q-2 -32 -10.5 -53t-20.5 -34t-26 -18.5t-29 -5.5q-18 0 -34.5 8t-32 17t-29 17t-25.5 8q-14 0 -23.5 -12t-11.5 -38h-58v0z" />
<glyph unicode="&#xe4;" horiz-adv-x="450" d="M176 -13q-68 0 -105 36t-37 110v15q0 61 41 96t117 63l118 42v45q0 57 -24 78.5t-67 21.5q-91 0 -91 -109v-11h-83v11q0 87 48 126.5t129 39.5q39 0 71.5 -7t56 -26t36.5 -52.5t13 -86.5v-41.5t-0.5 -64.5t-0.5 -63.5v-39.5v-56.5t1 -44.5t1.5 -36.5t2.5 -32.5h-82l-2 78 q-19 -45 -53.5 -68t-89.5 -23zM203 45q23 0 43 8.5t35 27t23.5 48.5t8.5 73v92l-88 -32q-49 -17 -73.5 -42t-24.5 -70v-12q0 -42 18 -67.5t58 -25.5zM77 722h78v-107h-78v107zM276 722h78v-107h-78v107z" />
<glyph unicode="&#xe5;" horiz-adv-x="450" d="M176 -13q-68 0 -105 36t-37 110v15q0 61 41 96t117 63l118 42v45q0 57 -24 78.5t-67 21.5q-91 0 -91 -109v-11h-83v11q0 87 48 126.5t129 39.5q39 0 71.5 -7t56 -26t36.5 -52.5t13 -86.5v-41.5t-0.5 -64.5t-0.5 -63.5v-39.5v-56.5t1 -44.5t1.5 -36.5t2.5 -32.5h-82l-2 78 q-19 -45 -53.5 -68t-89.5 -23zM203 45q23 0 43 8.5t35 27t23.5 48.5t8.5 73v92l-88 -32q-49 -17 -73.5 -42t-24.5 -70v-12q0 -42 18 -67.5t58 -25.5zM212 726q-18 0 -33 -13t-15 -35q0 -21 15 -34.5t33 -13.5q20 0 34.5 13.5t14.5 34.5q0 22 -14.5 35t-34.5 13zM212 593 q-37 0 -63 23.5t-26 61.5q0 37 26.5 61t62.5 24q38 0 64 -24t26 -61q0 -38 -26 -61.5t-64 -23.5z" />
<glyph unicode="&#xe6;" horiz-adv-x="717" d="M171 -13q-64 0 -102 40t-38 111v10q0 59 40 96q20 18 49.5 32.5t67.5 28.5l118 41v49q0 56 -24 77.5t-67 21.5q-44 0 -70.5 -24t-26.5 -79v-11h-76v11q0 81 47 120.5t128 39.5q51 0 86 -15.5t53 -58.5q38 73 139 73t143.5 -61t42.5 -187v-38h-291v-31q0 -42 4.5 -76 t16.5 -58t32 -37t52 -13q47 0 72 29t25 89v4h83v-4q0 -46 -14 -79.5t-38 -56t-56.5 -33.5t-69.5 -11q-68 0 -109 27t-55 78q-20 -57 -60.5 -81t-101.5 -24zM200 46q23 0 43 8t35 26t23.5 48t8.5 75v90l-89 -34q-26 -10 -45.5 -20t-33 -22.5t-20 -28.5t-6.5 -38v-12 q0 -44 22 -68t62 -24zM599 317v16q0 37 -5 66.5t-16.5 49t-31 30t-50.5 10.5q-32 0 -52 -11.5t-32 -33t-16.5 -51.5t-4.5 -67v-9h208z" />
<glyph unicode="&#xe7;" horiz-adv-x="435" d="M213 -194q-42 0 -80 13l13 38q11 -5 26.5 -8.5t30.5 -3.5q23 0 41 8.5t18 28.5q0 17 -13.5 25.5t-32.5 8.5q-11 0 -22 -2.5t-20 -7.5l-19 17l40 66q-81 9 -119 68t-38 174v76q0 124 45.5 183.5t145.5 59.5q37 0 69 -11t55 -34t36 -58t13 -83v-6h-81v6q0 124 -92 124 q-33 0 -53.5 -14t-31 -39.5t-14 -62t-3.5 -81.5v-45q0 -46 3.5 -82.5t14 -62t31 -39t53.5 -13.5q92 0 92 124v5h81v-6q0 -46 -12.5 -80t-34.5 -57t-52.5 -35t-66.5 -13l-24 -40q8 2 15 3t16 1q32 0 55 -17.5t23 -49.5q0 -21 -9.5 -35.5t-24.5 -24t-34.5 -14t-39.5 -4.5z" />
<glyph unicode="&#xe8;" horiz-adv-x="451" d="M230 -13q-100 0 -145.5 59.5t-45.5 182.5v79q0 123 46 182.5t146 59.5t143.5 -59.5t43.5 -188.5v-41h-292v-15q0 -46 4 -82.5t15.5 -62t32 -39t52.5 -13.5q96 0 96 118v5h84v-5q0 -96 -47.5 -138t-132.5 -42zM126 317h205v7q0 39 -4 70t-15 52t-30 32t-50 11 q-32 0 -52.5 -11.5t-32.5 -33.5t-16.5 -52.5t-4.5 -68.5v-6zM107 725h105l64 -119h-68z" />
<glyph unicode="&#xe9;" horiz-adv-x="451" d="M255 725h103l-101 -119h-68zM230 -13q-100 0 -145.5 59.5t-45.5 182.5v79q0 123 46 182.5t146 59.5t143.5 -59.5t43.5 -188.5v-41h-292v-15q0 -46 4 -82.5t15.5 -62t32 -39t52.5 -13.5q96 0 96 118v5h84v-5q0 -96 -47.5 -138t-132.5 -42zM126 317h205v7q0 39 -4 70 t-15 52t-30 32t-50 11q-32 0 -52.5 -11.5t-32.5 -33.5t-16.5 -52.5t-4.5 -68.5v-6z" />
<glyph unicode="&#xea;" horiz-adv-x="451" d="M192 725h76l111 -119h-78l-70 70l-70 -70h-79zM230 -13q-100 0 -145.5 59.5t-45.5 182.5v79q0 123 46 182.5t146 59.5t143.5 -59.5t43.5 -188.5v-41h-292v-15q0 -46 4 -82.5t15.5 -62t32 -39t52.5 -13.5q96 0 96 118v5h84v-5q0 -96 -47.5 -138t-132.5 -42zM126 317h205v7 q0 39 -4 70t-15 52t-30 32t-50 11q-32 0 -52.5 -11.5t-32.5 -33.5t-16.5 -52.5t-4.5 -68.5v-6z" />
<glyph unicode="&#xeb;" horiz-adv-x="451" d="M94 722h78v-107h-78v107zM293 722h78v-107h-78v107zM230 -13q-100 0 -145.5 59.5t-45.5 182.5v79q0 123 46 182.5t146 59.5t143.5 -59.5t43.5 -188.5v-41h-292v-15q0 -46 4 -82.5t15.5 -62t32 -39t52.5 -13.5q96 0 96 118v5h84v-5q0 -96 -47.5 -138t-132.5 -42zM126 317 h205v7q0 39 -4 70t-15 52t-30 32t-50 11q-32 0 -52.5 -11.5t-32.5 -33.5t-16.5 -52.5t-4.5 -68.5v-6z" />
<glyph unicode="&#xec;" horiz-adv-x="203" d="M61 538h86v-538h-86v538zM-23 725h105l64 -119h-68z" />
<glyph unicode="&#xed;" horiz-adv-x="203" d="M126 725h103l-101 -119h-68zM61 538h86v-538h-86v538z" />
<glyph unicode="&#xee;" horiz-adv-x="202" d="M60 725h76l89 -119h-79l-48 70l-47 -70h-80zM61 538h86v-538h-86v538z" />
<glyph unicode="&#xef;" horiz-adv-x="202" d="M-6 725h78v-107h-78v107zM130 725h77v-107h-77v107zM61 538h86v-538h-86v538z" />
<glyph unicode="&#xf0;" horiz-adv-x="468" d="M95 596l94 60q-19 11 -38.5 21t-41.5 21l57 38q20 -10 40 -20.5t40 -23.5l63 41l48 -31l-67 -42q28 -23 52.5 -54t42.5 -72.5t28.5 -95.5t10.5 -123v-85q0 -122 -46.5 -182.5t-145.5 -60.5t-146 60.5t-47 182.5v80q0 120 47 180t138 60q36 0 61.5 -17t37.5 -37l2 1 q-14 41 -36.5 72t-54.5 56l-93 -58zM232 49q32 0 52.5 14t32 40t16 63.5t4.5 84.5v35q0 110 -29 156.5t-82 46.5q-57 0 -78.5 -51.5t-21.5 -150.5v-36q0 -47 4.5 -84.5t16.5 -63.5t32.5 -40t52.5 -14z" />
<glyph unicode="&#xf1;" horiz-adv-x="468" d="M61 538h86v-88q15 43 50 71.5t87 28.5q74 0 103 -46.5t29 -144.5v-359h-86v331q0 37 -2.5 65.5t-11 48t-23.5 30t-39 10.5q-53 0 -80 -51.5t-27 -139.5v-294h-86v538zM89 613q2 31 10 52.5t19.5 34.5t26.5 18.5t31 5.5q18 0 35.5 -7.5t33 -17t29.5 -17t26 -7.5 q13 0 21 11.5t10 37.5h58q-2 -32 -10.5 -53t-20.5 -34t-26 -18.5t-29 -5.5q-18 0 -34.5 8t-32 17t-29 17t-25.5 8q-14 0 -23.5 -12t-11.5 -38h-58v0z" />
<glyph unicode="&#xf2;" horiz-adv-x="457" d="M229 489q-33 0 -53 -14t-31 -40.5t-14.5 -64t-3.5 -84.5v-35q0 -47 3.5 -84.5t14.5 -63.5t31 -40t53 -14t53 14t31 40t14.5 63.5t3.5 84.5v35q0 47 -3.5 84.5t-14.5 64t-31 40.5t-53 14zM229 550q100 0 145.5 -59t45.5 -184v-77q0 -125 -45.5 -184t-145.5 -59t-145.5 59 t-45.5 184v77q0 125 45.5 184t145.5 59zM112 725h105l64 -119h-68z" />
<glyph unicode="&#xf3;" horiz-adv-x="457" d="M258 725h103l-101 -119h-68zM229 489q-33 0 -53 -14t-31 -40.5t-14.5 -64t-3.5 -84.5v-35q0 -47 3.5 -84.5t14.5 -63.5t31 -40t53 -14t53 14t31 40t14.5 63.5t3.5 84.5v35q0 47 -3.5 84.5t-14.5 64t-31 40.5t-53 14zM229 550q100 0 145.5 -59t45.5 -184v-77 q0 -125 -45.5 -184t-145.5 -59t-145.5 59t-45.5 184v77q0 125 45.5 184t145.5 59z" />
<glyph unicode="&#xf4;" horiz-adv-x="457" d="M192 725h76l111 -119h-78l-70 70l-70 -70h-79zM229 489q-33 0 -53 -14t-31 -40.5t-14.5 -64t-3.5 -84.5v-35q0 -47 3.5 -84.5t14.5 -63.5t31 -40t53 -14t53 14t31 40t14.5 63.5t3.5 84.5v35q0 47 -3.5 84.5t-14.5 64t-31 40.5t-53 14zM229 550q100 0 145.5 -59t45.5 -184 v-77q0 -125 -45.5 -184t-145.5 -59t-145.5 59t-45.5 184v77q0 125 45.5 184t145.5 59z" />
<glyph unicode="&#xf5;" horiz-adv-x="457" d="M229 489q-33 0 -53 -14t-31 -40.5t-14.5 -64t-3.5 -84.5v-35q0 -47 3.5 -84.5t14.5 -63.5t31 -40t53 -14t53 14t31 40t14.5 63.5t3.5 84.5v35q0 47 -3.5 84.5t-14.5 64t-31 40.5t-53 14zM229 550q100 0 145.5 -59t45.5 -184v-77q0 -125 -45.5 -184t-145.5 -59t-145.5 59 t-45.5 184v77q0 125 45.5 184t145.5 59zM87 613q2 31 10 52.5t19.5 34.5t26.5 18.5t31 5.5q18 0 35.5 -7.5t33 -17t29.5 -17t26 -7.5q13 0 21 11.5t10 37.5h58q-2 -32 -10.5 -53t-20.5 -34t-26 -18.5t-29 -5.5q-18 0 -34.5 8t-32 17t-29 17t-25.5 8q-14 0 -23.5 -12 t-11.5 -38h-58v0z" />
<glyph unicode="&#xf6;" horiz-adv-x="457" d="M90 722h78v-107h-78v107zM289 722h78v-107h-78v107zM229 489q-33 0 -53 -14t-31 -40.5t-14.5 -64t-3.5 -84.5v-35q0 -47 3.5 -84.5t14.5 -63.5t31 -40t53 -14t53 14t31 40t14.5 63.5t3.5 84.5v35q0 47 -3.5 84.5t-14.5 64t-31 40.5t-53 14zM229 550q100 0 145.5 -59 t45.5 -184v-77q0 -125 -45.5 -184t-145.5 -59t-145.5 59t-45.5 184v77q0 125 45.5 184t145.5 59z" />
<glyph unicode="&#xf7;" d="M226 157h96v-116h-96v116zM38 305h472v-72h-472v72zM226 494h96v-117h-96v117z" />
<glyph unicode="&#xf8;" horiz-adv-x="457" d="M229 550q55 0 95 -20l33 73h43l-43 -95q63 -57 63 -201v-77q0 -125 -45.5 -184t-145.5 -59q-56 0 -95 18l-31 -70h-43q0 1 11.5 26t29.5 66q-63 57 -63 203v77q0 125 45.5 184t145.5 59zM229 489q-33 0 -53 -14t-31 -40.5t-14.5 -64t-3.5 -84.5v-35q0 -42 2.5 -75.5 t10.5 -59.5l155 347q-23 26 -66 26zM331 286q0 41 -2.5 74t-10.5 59l-154 -347q23 -23 65 -23q33 0 53 14t31 40t14.5 63.5t3.5 84.5v35z" />
<glyph unicode="&#xf9;" horiz-adv-x="461" d="M185 -13q-76 0 -104.5 48.5t-28.5 146.5v356h86v-332q0 -36 2.5 -64.5t10.5 -48.5t22 -30.5t38 -10.5q51 0 77 51.5t25 139.5v295h86v-538h-83v88q-14 -43 -47 -72t-84 -29zM98 725h105l64 -119h-68z" />
<glyph unicode="&#xfa;" horiz-adv-x="461" d="M254 725h103l-101 -119h-68zM185 -13q-76 0 -104.5 48.5t-28.5 146.5v356h86v-332q0 -36 2.5 -64.5t10.5 -48.5t22 -30.5t38 -10.5q51 0 77 51.5t25 139.5v295h86v-538h-83v88q-14 -43 -47 -72t-84 -29z" />
<glyph unicode="&#xfb;" horiz-adv-x="461" d="M185 725h76l111 -119h-78l-70 70l-70 -70h-79zM185 -13q-76 0 -104.5 48.5t-28.5 146.5v356h86v-332q0 -36 2.5 -64.5t10.5 -48.5t22 -30.5t38 -10.5q51 0 77 51.5t25 139.5v295h86v-538h-83v88q-14 -43 -47 -72t-84 -29z" />
<glyph unicode="&#xfc;" horiz-adv-x="461" d="M87 722h78v-107h-78v107zM286 722h78v-107h-78v107zM185 -13q-76 0 -104.5 48.5t-28.5 146.5v356h86v-332q0 -36 2.5 -64.5t10.5 -48.5t22 -30.5t38 -10.5q51 0 77 51.5t25 139.5v295h86v-538h-83v88q-14 -43 -47 -72t-84 -29z" />
<glyph unicode="&#xfd;" horiz-adv-x="400" d="M45 -116h29q19 0 31.5 2.5t21.5 10t15.5 22.5t12.5 41l11 39l-158 539h86l113 -424l105 424h80l-145 -544q-14 -54 -26.5 -87.5t-30 -51.5t-42 -24t-63.5 -6h-40v59zM226 725h103l-101 -119h-68z" />
<glyph unicode="&#xfe;" horiz-adv-x="481" d="M61 725h86v-275q14 42 49.5 71t86.5 29q159 0 159 -242v-79q0 -242 -159 -242q-51 0 -86.5 28.5t-49.5 70.5v-261h-86v900zM258 51q56 0 76.5 51t20.5 152v29q0 99 -20.5 151t-76.5 52q-55 0 -85 -52.5t-30 -165.5q0 -112 30 -164.5t85 -52.5z" />
<glyph unicode="&#xff;" horiz-adv-x="400" d="M45 -116h29q19 0 31.5 2.5t21.5 10t15.5 22.5t12.5 41l11 39l-158 539h86l113 -424l105 424h80l-145 -544q-14 -54 -26.5 -87.5t-30 -51.5t-42 -24t-63.5 -6h-40v59zM61 722h78v-107h-78v107zM260 722h78v-107h-78v107z" />
<glyph unicode="&#x100;" horiz-adv-x="527" d="M210 725h106l201 -725h-92l-49 189h-231l-49 -189h-86zM162 254h197l-98 384zM145 864h238v-65h-238v65z" />
<glyph unicode="&#x101;" horiz-adv-x="450" d="M176 -13q-68 0 -105 36t-37 110v15q0 61 41 96t117 63l118 42v45q0 57 -24 78.5t-67 21.5q-91 0 -91 -109v-11h-83v11q0 87 48 126.5t129 39.5q39 0 71.5 -7t56 -26t36.5 -52.5t13 -86.5v-41.5t-0.5 -64.5t-0.5 -63.5v-39.5v-56.5t1 -44.5t1.5 -36.5t2.5 -32.5h-82l-2 78 q-19 -45 -53.5 -68t-89.5 -23zM203 45q23 0 43 8.5t35 27t23.5 48.5t8.5 73v92l-88 -32q-49 -17 -73.5 -42t-24.5 -70v-12q0 -42 18 -67.5t58 -25.5zM96 696h231v-61h-231v61z" />
<glyph unicode="&#x102;" horiz-adv-x="527" d="M210 725h106l201 -725h-92l-49 189h-231l-49 -189h-86zM162 254h197l-98 384zM242 773q-63 0 -94 27.5t-33 85.5h62q2 -36 20.5 -47.5t45.5 -11.5q28 0 46 11.5t20 47.5h63q-7 -113 -130 -113z" />
<glyph unicode="&#x103;" horiz-adv-x="450" d="M176 -13q-68 0 -105 36t-37 110v15q0 61 41 96t117 63l118 42v45q0 57 -24 78.5t-67 21.5q-91 0 -91 -109v-11h-83v11q0 87 48 126.5t129 39.5q39 0 71.5 -7t56 -26t36.5 -52.5t13 -86.5v-41.5t-0.5 -64.5t-0.5 -63.5v-39.5v-56.5t1 -44.5t1.5 -36.5t2.5 -32.5h-82l-2 78 q-19 -45 -53.5 -68t-89.5 -23zM203 45q23 0 43 8.5t35 27t23.5 48.5t8.5 73v92l-88 -32q-49 -17 -73.5 -42t-24.5 -70v-12q0 -42 18 -67.5t58 -25.5zM212 605q-68 0 -97 33.5t-33 86.5h62q3 -36 20 -52.5t48 -16.5t48.5 16.5t20.5 52.5h62q-5 -53 -33.5 -86.5t-97.5 -33.5z " />
<glyph unicode="&#x104;" horiz-adv-x="530" d="M210 725h106l201 -725q-38 -19 -64.5 -44t-26.5 -50q0 -20 13.5 -30.5t36.5 -10.5q13 0 22.5 2.5t18.5 4.5v-53q-14 -4 -30 -5.5t-31 -1.5q-21 0 -41 5t-35 15t-24.5 25.5t-9.5 36.5q0 15 6.5 31t17 30.5t25 26t30.5 18.5l-49 189h-231l-49 -189h-86zM162 254h197 l-98 384z" />
<glyph unicode="&#x105;" horiz-adv-x="452" d="M176 -13q-68 0 -105 36t-37 110v15q0 61 41 96t117 63l118 42v45q0 57 -24 78.5t-67 21.5q-91 0 -91 -109v-11h-83v11q0 87 48 126.5t129 39.5q39 0 71.5 -7t56 -26t36.5 -52.5t13 -86.5v-41.5t-0.5 -64.5t-0.5 -63.5v-39.5v-56.5t1 -44.5t1.5 -36.5t2.5 -32.5 q-39 -19 -65.5 -43.5t-26.5 -49.5q0 -20 14 -30.5t38 -10.5q13 0 22 2.5t18 5.5v-54q-15 -4 -30.5 -5.5t-29.5 -1.5q-21 0 -41 5t-35.5 14.5t-25 25t-9.5 36.5q0 15 8 31t20.5 30.5t28.5 26t32 18.5l-2 78q-19 -45 -53.5 -68t-89.5 -23zM203 45q23 0 43 8.5t35 27t23.5 48.5 t8.5 73v92l-88 -32q-49 -17 -73.5 -42t-24.5 -70v-12q0 -42 18 -67.5t58 -25.5z" />
<glyph unicode="&#x106;" horiz-adv-x="528" d="M278 -13q-62 0 -106.5 19.5t-73 60.5t-42 103t-13.5 148v89q0 85 13.5 147.5t42 103.5t73 60.5t106.5 19.5q108 0 163 -61.5t55 -176.5v-5h-88v4q0 92 -32.5 132.5t-98.5 40.5q-43 0 -70 -19.5t-42.5 -56.5t-21.5 -91t-6 -123v-39q0 -69 6 -123t21.5 -91t42.5 -56t70 -19 q66 0 98.5 40t32.5 132v4h88v-4q0 -116 -55 -177.5t-163 -61.5zM300 886h113l-104 -113h-79z" />
<glyph unicode="&#x107;" horiz-adv-x="435" d="M249 725h103l-101 -119h-68zM229 -13q-100 0 -145.5 59t-45.5 185v76q0 124 45.5 183.5t145.5 59.5q37 0 69 -11t55 -34t36 -58t13 -83v-6h-81v6q0 124 -92 124q-33 0 -53.5 -14t-31 -39.5t-14 -62t-3.5 -81.5v-45q0 -46 3.5 -82.5t14 -62t31 -39t53.5 -13.5q92 0 92 124 v5h81v-6q0 -47 -13 -81.5t-36 -57.5t-55 -34.5t-69 -11.5z" />
<glyph unicode="&#x108;" horiz-adv-x="528" d="M278 -13q-62 0 -106.5 19.5t-73 60.5t-42 103t-13.5 148v89q0 85 13.5 147.5t42 103.5t73 60.5t106.5 19.5q108 0 163 -61.5t55 -176.5v-5h-88v4q0 92 -32.5 132.5t-98.5 40.5q-43 0 -70 -19.5t-42.5 -56.5t-21.5 -91t-6 -123v-39q0 -69 6 -123t21.5 -91t42.5 -56t70 -19 q66 0 98.5 40t32.5 132v4h88v-4q0 -116 -55 -177.5t-163 -61.5zM232 886h86l111 -113h-89l-65 68l-67 -68h-87z" />
<glyph unicode="&#x109;" horiz-adv-x="435" d="M189 725h76l111 -119h-78l-70 70l-70 -70h-79zM229 -13q-100 0 -145.5 59t-45.5 185v76q0 124 45.5 183.5t145.5 59.5q37 0 69 -11t55 -34t36 -58t13 -83v-6h-81v6q0 124 -92 124q-33 0 -53.5 -14t-31 -39.5t-14 -62t-3.5 -81.5v-45q0 -46 3.5 -82.5t14 -62t31 -39 t53.5 -13.5q92 0 92 124v5h81v-6q0 -47 -13 -81.5t-36 -57.5t-55 -34.5t-69 -11.5z" />
<glyph unicode="&#x10a;" horiz-adv-x="528" d="M278 -13q-62 0 -106.5 19.5t-73 60.5t-42 103t-13.5 148v89q0 85 13.5 147.5t42 103.5t73 60.5t106.5 19.5q108 0 163 -61.5t55 -176.5v-5h-88v4q0 92 -32.5 132.5t-98.5 40.5q-43 0 -70 -19.5t-42.5 -56.5t-21.5 -91t-6 -123v-39q0 -69 6 -123t21.5 -91t42.5 -56t70 -19 q66 0 98.5 40t32.5 132v4h88v-4q0 -116 -55 -177.5t-163 -61.5zM229 881h90v-104h-90v104z" />
<glyph unicode="&#x10b;" horiz-adv-x="435" d="M229 -13q-100 0 -145.5 59t-45.5 185v76q0 124 45.5 183.5t145.5 59.5q37 0 69 -11t55 -34t36 -58t13 -83v-6h-81v6q0 124 -92 124q-33 0 -53.5 -14t-31 -39.5t-14 -62t-3.5 -81.5v-45q0 -46 3.5 -82.5t14 -62t31 -39t53.5 -13.5q92 0 92 124v5h81v-6q0 -47 -13 -81.5 t-36 -57.5t-55 -34.5t-69 -11.5zM190 722h78v-107h-78v107z" />
<glyph unicode="&#x10c;" horiz-adv-x="528" d="M230 773l-111 113h87l67 -69l65 69h89l-111 -113h-86zM278 -13q-62 0 -106.5 19.5t-73 60.5t-42 103t-13.5 148v89q0 85 13.5 147.5t42 103.5t73 60.5t106.5 19.5q108 0 163 -61.5t55 -176.5v-5h-88v4q0 92 -32.5 132.5t-98.5 40.5q-43 0 -70 -19.5t-42.5 -56.5 t-21.5 -91t-6 -123v-39q0 -69 6 -123t21.5 -91t42.5 -56t70 -19q66 0 98.5 40t32.5 132v4h88v-4q0 -116 -55 -177.5t-163 -61.5z" />
<glyph unicode="&#x10d;" horiz-adv-x="435" d="M82 725h79l70 -70l70 70h78l-111 -119h-75zM229 -13q-100 0 -145.5 59t-45.5 185v76q0 124 45.5 183.5t145.5 59.5q37 0 69 -11t55 -34t36 -58t13 -83v-6h-81v6q0 124 -92 124q-33 0 -53.5 -14t-31 -39.5t-14 -62t-3.5 -81.5v-45q0 -46 3.5 -82.5t14 -62t31 -39 t53.5 -13.5q92 0 92 124v5h81v-6q0 -47 -13 -81.5t-36 -57.5t-55 -34.5t-69 -11.5z" />
<glyph unicode="&#x10e;" horiz-adv-x="553" d="M238 773l-111 113h87l67 -69l65 69h89l-111 -113h-86zM237 65q49 0 83 14t55.5 46t31 85.5t9.5 133.5v38q0 79 -9.5 132.5t-31 86t-55.5 46.5t-83 14h-74v-596h74zM73 725h161q65 0 116 -15.5t86.5 -53t54.5 -100t19 -155.5v-79q0 -93 -19 -154.5t-54.5 -99t-86.5 -53 t-116 -15.5h-161v725z" />
<glyph unicode="&#x10f;" horiz-adv-x="482" d="M492 725h81l-53 -170h-54zM199 -13q-161 0 -161 242v79q0 242 161 242q51 0 87 -29t49 -71v275h86v-725h-86v86q-13 -42 -49 -70.5t-87 -28.5zM223 51q56 0 85.5 55.5t29.5 161.5t-29.5 162t-85.5 56t-76 -52t-20 -151v-29q0 -101 20 -152t76 -51z" />
<glyph unicode="&#x110;" horiz-adv-x="559" d="M-5 405h84v320h161q65 0 116 -15.5t86.5 -53t54.5 -100t19 -155.5v-79q0 -93 -19 -154.5t-54.5 -99t-86.5 -53t-116 -15.5h-161v333h-84v72zM243 65q49 0 83 14t55.5 46t31 85.5t9.5 133.5v38q0 79 -9.5 132.5t-31 86t-55.5 46.5t-83 14h-74v-256h137v-72h-137v-268h74z " />
<glyph unicode="&#x111;" horiz-adv-x="479" d="M232 638h103v87h86v-87h75v-53h-75v-585h-86v86q-13 -42 -49 -70.5t-87 -28.5q-161 0 -161 242v79q0 242 161 242q51 0 87 -29t49 -71v135h-103v53zM223 51q56 0 85.5 55.5t29.5 161.5t-29.5 162t-85.5 56t-76 -52t-20 -151v-29q0 -101 20 -152t76 -51z" />
<glyph unicode="&#x112;" horiz-adv-x="459" d="M138 864h238v-65h-238v65zM73 725h366v-70h-276v-245h252v-71h-252v-269h276v-70h-366v725z" />
<glyph unicode="&#x113;" horiz-adv-x="451" d="M230 -13q-100 0 -145.5 59.5t-45.5 182.5v79q0 123 46 182.5t146 59.5t143.5 -59.5t43.5 -188.5v-41h-292v-15q0 -46 4 -82.5t15.5 -62t32 -39t52.5 -13.5q96 0 96 118v5h84v-5q0 -96 -47.5 -138t-132.5 -42zM126 317h205v7q0 39 -4 70t-15 52t-30 32t-50 11 q-32 0 -52.5 -11.5t-32.5 -33.5t-16.5 -52.5t-4.5 -68.5v-6zM116 696h231v-61h-231v61z" />
<glyph unicode="&#x114;" horiz-adv-x="459" d="M260 773q-63 0 -94 27.5t-33 85.5h62q2 -36 20.5 -47.5t45.5 -11.5q28 0 46 11.5t20 47.5h63q-7 -113 -130 -113zM73 725h366v-70h-276v-245h252v-71h-252v-269h276v-70h-366v725z" />
<glyph unicode="&#x115;" horiz-adv-x="451" d="M230 -13q-100 0 -145.5 59.5t-45.5 182.5v79q0 123 46 182.5t146 59.5t143.5 -59.5t43.5 -188.5v-41h-292v-15q0 -46 4 -82.5t15.5 -62t32 -39t52.5 -13.5q96 0 96 118v5h84v-5q0 -96 -47.5 -138t-132.5 -42zM126 317h205v7q0 39 -4 70t-15 52t-30 32t-50 11 q-32 0 -52.5 -11.5t-32.5 -33.5t-16.5 -52.5t-4.5 -68.5v-6zM231 605q-68 0 -97 33.5t-33 86.5h62q3 -36 20 -52.5t48 -16.5t48.5 16.5t20.5 52.5h62q-5 -53 -33.5 -86.5t-97.5 -33.5z" />
<glyph unicode="&#x116;" horiz-adv-x="459" d="M212 881h90v-104h-90v104zM73 725h366v-70h-276v-245h252v-71h-252v-269h276v-70h-366v725z" />
<glyph unicode="&#x117;" horiz-adv-x="451" d="M230 -13q-100 0 -145.5 59.5t-45.5 182.5v79q0 123 46 182.5t146 59.5t143.5 -59.5t43.5 -188.5v-41h-292v-15q0 -46 4 -82.5t15.5 -62t32 -39t52.5 -13.5q96 0 96 118v5h84v-5q0 -96 -47.5 -138t-132.5 -42zM126 317h205v7q0 39 -4 70t-15 52t-30 32t-50 11 q-32 0 -52.5 -11.5t-32.5 -33.5t-16.5 -52.5t-4.5 -68.5v-6zM193 722h78v-107h-78v107z" />
<glyph unicode="&#x118;" horiz-adv-x="459" d="M73 725h366v-70h-276v-245h252v-71h-252v-269h276v-70h-1q-38 -19 -64.5 -44t-26.5 -50q0 -20 13.5 -30.5t36.5 -10.5q13 0 22.5 2.5t18.5 4.5v-53q-14 -4 -30 -5.5t-31 -1.5q-21 0 -41 5t-35 15t-24.5 25.5t-9.5 36.5q0 15 7 31t19 30.5t27.5 26t31.5 18.5h-279v725z " />
<glyph unicode="&#x119;" horiz-adv-x="451" d="M359 -180q-30 -8 -59 -8q-21 0 -41 5t-35.5 15t-25 25.5t-9.5 36.5q0 20 11.5 46t29.5 48h-1q-100 0 -145 61t-45 180v79q0 121 46 181.5t146 60.5t143.5 -61t43.5 -187v-41h-292v-15q0 -46 4 -82.5t15.5 -62t32 -39t52.5 -13.5q96 0 96 118v5h84v-5q0 -103 -57 -146 q-46 -36 -65.5 -63t-19.5 -52q0 -20 14 -30.5t38 -10.5q12 0 21 2.5t18 5.5v-53zM126 317h205v7q0 39 -4 70t-15 52t-30 32t-50 11q-32 0 -52.5 -11.5t-32.5 -33.5t-16.5 -52.5t-4.5 -68.5v-6z" />
<glyph unicode="&#x11a;" horiz-adv-x="459" d="M213 773l-111 113h87l67 -69l65 69h89l-111 -113h-86zM73 725h366v-70h-276v-245h252v-71h-252v-269h276v-70h-366v725z" />
<glyph unicode="&#x11b;" horiz-adv-x="451" d="M85 725h79l70 -70l70 70h78l-111 -119h-75zM230 -13q-100 0 -145.5 59.5t-45.5 182.5v79q0 123 46 182.5t146 59.5t143.5 -59.5t43.5 -188.5v-41h-292v-15q0 -46 4 -82.5t15.5 -62t32 -39t52.5 -13.5q96 0 96 118v5h84v-5q0 -96 -47.5 -138t-132.5 -42zM126 317h205v7 q0 39 -4 70t-15 52t-30 32t-50 11q-32 0 -52.5 -11.5t-32.5 -33.5t-16.5 -52.5t-4.5 -68.5v-6z" />
<glyph unicode="&#x11c;" horiz-adv-x="557" d="M235 886h86l111 -113h-89l-65 68l-67 -68h-87zM266 -13q-116 0 -169.5 80.5t-53.5 250.5v89q0 171 55.5 251t180.5 80q108 0 163.5 -61t55.5 -170v-3h-88v3q0 85 -32.5 125t-98.5 40q-44 0 -71.5 -19.5t-43 -56.5t-21.5 -91t-6 -123v-39q0 -69 6 -123t21.5 -91t43 -56 t71.5 -19q77 0 109.5 55.5t32.5 157.5v31h-171v67h250v-365h-68l-1 96q-22 -50 -61 -79.5t-104 -29.5z" />
<glyph unicode="&#x11d;" horiz-adv-x="484" d="M186 725h76l111 -119h-78l-70 70l-70 -70h-79zM234 -188q-92 0 -134.5 43.5t-42.5 113.5v5h83v-5q0 -43 22 -69t73 -26q56 0 79 30t23 106v103q-14 -43 -47 -71.5t-84 -28.5q-79 0 -123.5 61t-44.5 179v64q0 121 44.5 177t123.5 56q51 0 84 -29t47 -71v88h86v-512 q0 -104 -42.5 -159t-146.5 -55zM225 76q58 0 87 52.5t29 149.5q0 102 -29 155t-87 53q-57 0 -77.5 -47t-20.5 -144v-15q0 -96 20.5 -150t77.5 -54z" />
<glyph unicode="&#x11e;" horiz-adv-x="557" d="M256 773q-63 0 -94 27.5t-33 85.5h62q2 -36 20.5 -47.5t45.5 -11.5q28 0 46 11.5t20 47.5h63q-7 -113 -130 -113zM266 -13q-116 0 -169.5 80.5t-53.5 250.5v89q0 171 55.5 251t180.5 80q108 0 163.5 -61t55.5 -170v-3h-88v3q0 85 -32.5 125t-98.5 40q-44 0 -71.5 -19.5 t-43 -56.5t-21.5 -91t-6 -123v-39q0 -69 6 -123t21.5 -91t43 -56t71.5 -19q77 0 109.5 55.5t32.5 157.5v31h-171v67h250v-365h-68l-1 96q-22 -50 -61 -79.5t-104 -29.5z" />
<glyph unicode="&#x11f;" horiz-adv-x="484" d="M234 -188q-92 0 -134.5 43.5t-42.5 113.5v5h83v-5q0 -43 22 -69t73 -26q56 0 79 30t23 106v103q-14 -43 -47 -71.5t-84 -28.5q-79 0 -123.5 61t-44.5 179v64q0 121 44.5 177t123.5 56q51 0 84 -29t47 -71v88h86v-512q0 -104 -42.5 -159t-146.5 -55zM225 76q58 0 87 52.5 t29 149.5q0 102 -29 155t-87 53q-57 0 -77.5 -47t-20.5 -144v-15q0 -96 20.5 -150t77.5 -54zM233 605q-68 0 -97 33.5t-33 86.5h62q3 -36 20 -52.5t48 -16.5t48.5 16.5t20.5 52.5h62q-5 -53 -33.5 -86.5t-97.5 -33.5z" />
<glyph unicode="&#x120;" horiz-adv-x="557" d="M233 881h90v-104h-90v104zM266 -13q-116 0 -169.5 80.5t-53.5 250.5v89q0 171 55.5 251t180.5 80q108 0 163.5 -61t55.5 -170v-3h-88v3q0 85 -32.5 125t-98.5 40q-44 0 -71.5 -19.5t-43 -56.5t-21.5 -91t-6 -123v-39q0 -69 6 -123t21.5 -91t43 -56t71.5 -19 q77 0 109.5 55.5t32.5 157.5v31h-171v67h250v-365h-68l-1 96q-22 -50 -61 -79.5t-104 -29.5z" />
<glyph unicode="&#x121;" horiz-adv-x="484" d="M234 -188q-92 0 -134.5 43.5t-42.5 113.5v5h83v-5q0 -43 22 -69t73 -26q56 0 79 30t23 106v103q-14 -43 -47 -71.5t-84 -28.5q-79 0 -123.5 61t-44.5 179v64q0 121 44.5 177t123.5 56q51 0 84 -29t47 -71v88h86v-512q0 -104 -42.5 -159t-146.5 -55zM225 76q58 0 87 52.5 t29 149.5q0 102 -29 155t-87 53q-57 0 -77.5 -47t-20.5 -144v-15q0 -96 20.5 -150t77.5 -54zM195 722h78v-107h-78v107z" />
<glyph unicode="&#x122;" horiz-adv-x="557" d="M215 -50h87v-88l-40 -83h-49l36 89h-34v82zM266 -13q-116 0 -169.5 80.5t-53.5 250.5v89q0 171 55.5 251t180.5 80q108 0 163.5 -61t55.5 -170v-3h-88v3q0 85 -32.5 125t-98.5 40q-44 0 -71.5 -19.5t-43 -56.5t-21.5 -91t-6 -123v-39q0 -69 6 -123t21.5 -91t43 -56 t71.5 -19q77 0 109.5 55.5t32.5 157.5v31h-171v67h250v-365h-68l-1 96q-22 -50 -61 -79.5t-104 -29.5z" />
<glyph unicode="&#x123;" horiz-adv-x="484" d="M271.002 602.997h-86.9951v87.9941l39.998 82.9951h48.9971l-35.998 -88.9941h33.998v-81.9951zM234 -188q-92 0 -134.5 43.5t-42.5 113.5v5h83v-5q0 -43 22 -69t73 -26q56 0 79 30t23 106v103q-14 -43 -47 -71.5t-84 -28.5q-79 0 -123.5 61t-44.5 179v64q0 121 44.5 177 t123.5 56q51 0 84 -29t47 -71v88h86v-512q0 -104 -42.5 -159t-146.5 -55zM225 76q58 0 87 52.5t29 149.5q0 102 -29 155t-87 53q-57 0 -77.5 -47t-20.5 -144v-15q0 -96 20.5 -150t77.5 -54z" />
<glyph unicode="&#x124;" horiz-adv-x="579" d="M73 725h90v-315h253v315h90v-725h-90v339h-253v-339h-90v725zM247 886h86l111 -113h-89l-65 68l-67 -68h-87z" />
<glyph unicode="&#x125;" horiz-adv-x="478" d="M68 725h86v-275q15 43 50 71.5t87 28.5q74 0 103 -46.5t29 -144.5v-359h-86v331q0 37 -2.5 65.5t-11 48t-23.5 30t-39 10.5q-53 0 -80 -51.5t-27 -139.5v-294h-86v725zM67 886h86l111 -113h-89l-65 68l-67 -68h-87z" />
<glyph unicode="&#x126;" horiz-adv-x="579" d="M17 603h56v122h90v-122h253v122h90v-122h56v-70h-56v-533h-90v339h-253v-339h-90v533h-56v70zM416 410v123h-253v-123h253z" />
<glyph unicode="&#x127;" horiz-adv-x="468" d="M-7 638h67v87h86v-87h126v-53h-126v-135q15 43 50 71.5t87 28.5q74 0 103 -46.5t29 -144.5v-359h-86v331q0 37 -2.5 65.5t-11 48t-23.5 30t-39 10.5q-53 0 -80 -51.5t-27 -139.5v-294h-86v585h-67v53z" />
<glyph unicode="&#x128;" horiz-adv-x="235" d="M-10 773q6 58 30.5 80t54.5 22q17 0 28.5 -7.5t20.5 -17t16.5 -17t17.5 -7.5q27 0 32 49h56q-3 -29 -11.5 -48.5t-20 -31.5t-25.5 -17t-28 -5q-17 0 -28 7.5t-20 16t-17 16t-19 7.5q-27 0 -31 -47h-56zM73 725h90v-725h-90v725z" />
<glyph unicode="&#x129;" horiz-adv-x="202" d="M-30 612q5 63 27.5 87.5t53.5 24.5q19 0 33 -8t25.5 -17t21.5 -17t22 -8q8 0 14 11.5t7 38.5h59q-2 -32 -8.5 -53.5t-16 -34.5t-22 -18.5t-27.5 -5.5q-18 0 -31.5 8t-25.5 17t-22.5 17t-22.5 8q-11 0 -19 -12t-10 -38h-58zM61 538h86v-538h-86v538z" />
<glyph unicode="&#x12a;" horiz-adv-x="235" d="M10 864h215v-65h-215v65zM73 725h90v-725h-90v725z" />
<glyph unicode="&#x12b;" horiz-adv-x="202" d="M0 696h202v-62h-202v62zM61 538h86v-538h-86v538z" />
<glyph unicode="&#x12c;" horiz-adv-x="235" d="M117 771q-61 0 -89.5 28.5t-30.5 86.5h66q1 -35 13.5 -51t40.5 -16t41 16t14 51h65q-2 -58 -30 -86.5t-90 -28.5zM73 725h90v-725h-90v725z" />
<glyph unicode="&#x12d;" horiz-adv-x="202" d="M101 608q-61 0 -85 30.5t-24 86.5h64q0 -34 10.5 -50.5t34.5 -16.5t34 16.5t10 50.5h65q0 -56 -23.5 -86.5t-85.5 -30.5zM61 538h86v-538h-86v538z" />
<glyph unicode="&#x12e;" horiz-adv-x="235" d="M71 725h90v-725h-1q-38 -19 -64.5 -44t-26.5 -50q0 -20 13.5 -30.5t36.5 -10.5q13 0 22.5 2.5t18.5 4.5v-53q-14 -4 -30 -5.5t-31 -1.5q-21 0 -41 5t-35 15t-24.5 25.5t-9.5 36.5q0 15 7 31t18.5 30.5t26 26t30.5 18.5v725z" />
<glyph unicode="&#x12f;" horiz-adv-x="203" d="M84 -188q-21 0 -41 5t-35 15t-24.5 25.5t-9.5 36.5q0 15 7 31t19 30.5t27.5 26t31.5 18.5v538h86v-538h-1q-38 -19 -64.5 -44t-26.5 -50q0 -20 14 -30.5t37 -10.5q13 0 22 2.5t18 5.5v-53q-30 -8 -60 -8zM59 725h86v-109h-86v109z" />
<glyph unicode="&#x130;" horiz-adv-x="235" d="M73 725h90v-725h-90v725zM72 881h90v-104h-90v104z" />
<glyph unicode="&#x131;" horiz-adv-x="207" d="M61 538h86v-538h-86v538z" />
<glyph unicode="&#x134;" horiz-adv-x="446" d="M191 -13q-98 0 -141.5 56t-43.5 157v10h90v-10q0 -76 20 -111t73 -35q54 0 74 35.5t20 110.5v525h90v-525q0 -109 -43.5 -161t-138.5 -52zM276 886h86l111 -113h-89l-65 68l-67 -68h-87z" />
<glyph unicode="&#x135;" horiz-adv-x="207" d="M65 725h76l89 -119h-79l-47 70l-47 -70h-80zM-22 -117h22q21 0 33 3.5t18.5 13.5t8 26t1.5 42v570h86v-570q0 -42 -7 -70t-22.5 -44t-42 -22.5t-65.5 -6.5h-32v58z" />
<glyph unicode="&#x136;" horiz-adv-x="523" d="M241 -50h87v-88l-40 -83h-49l36 89h-34v82zM242 346l-79 -114v-232h-90v725h90v-364l247 364h92l-207 -301l230 -424h-94z" />
<glyph unicode="&#x137;" horiz-adv-x="411" d="M204 -50h87v-88l-40 -83h-49l36 89h-34v82zM208 247l-61 -84v-163h-86v725h86v-446l183 259h88l-156 -216l164 -322h-94z" />
<glyph unicode="&#x138;" horiz-adv-x="428" d="M212 262l-61 -85v-177h-85v538h85v-239l171 239h86l-144 -202l175 -336h-87z" />
<glyph unicode="&#x139;" horiz-adv-x="445" d="M73 725h90v-655h277v-70h-367v725zM146 886h113l-104 -113h-79z" />
<glyph unicode="&#x13a;" horiz-adv-x="209" d="M69 725h86v-725h-86v725zM140 886h113l-104 -113h-79z" />
<glyph unicode="&#x13b;" horiz-adv-x="445" d="M216 -50h87v-88l-40 -83h-49l36 89h-34v82zM73 725h90v-655h277v-70h-367v725z" />
<glyph unicode="&#x13c;" horiz-adv-x="208" d="M60 -50h87v-88l-40 -83h-49l36 89h-34v82zM61 725h86v-725h-86v725z" />
<glyph unicode="&#x13d;" horiz-adv-x="445" d="M265 725h81l-53 -170h-54zM73 725h90v-655h277v-70h-367v725z" />
<glyph unicode="&#x13e;" horiz-adv-x="208" d="M221 725h84l-54 -170h-57zM62 725h86v-725h-86v725z" />
<glyph unicode="&#x13f;" horiz-adv-x="445" d="M296 452h90v-104h-90v104zM73 725h90v-655h277v-70h-367v725z" />
<glyph unicode="&#x140;" horiz-adv-x="326" d="M235 423h78v-107h-78v107zM68 725h86v-725h-86v725z" />
<glyph unicode="&#x141;" horiz-adv-x="453" d="M3 287l78 56v382h90v-317l190 138v-79l-190 -137v-260h277v-70h-367v265l-78 -56v78z" />
<glyph unicode="&#x142;" horiz-adv-x="237" d="M0 349l77 50v326h86v-269l74 49v-76l-74 -49v-380h-86v323l-77 -50v76z" />
<glyph unicode="&#x143;" horiz-adv-x="578" d="M73 725h108l243 -607v607h81v-725h-107l-244 608v-608h-81v725zM328 886h113l-104 -113h-79z" />
<glyph unicode="&#x144;" horiz-adv-x="468" d="M267 725h103l-101 -119h-68zM61 538h86v-88q15 43 50 71.5t87 28.5q74 0 103 -46.5t29 -144.5v-359h-86v331q0 37 -2.5 65.5t-11 48t-23.5 30t-39 10.5q-53 0 -80 -51.5t-27 -139.5v-294h-86v538z" />
<glyph unicode="&#x145;" horiz-adv-x="578" d="M240 -50h87v-88l-40 -83h-49l36 89h-34v82zM73 725h108l243 -607v607h81v-725h-107l-244 608v-608h-81v725z" />
<glyph unicode="&#x146;" horiz-adv-x="468" d="M195 -50h87v-88l-40 -83h-49l36 89h-34v82zM61 538h86v-88q15 43 50 71.5t87 28.5q74 0 103 -46.5t29 -144.5v-359h-86v331q0 37 -2.5 65.5t-11 48t-23.5 30t-39 10.5q-53 0 -80 -51.5t-27 -139.5v-294h-86v538z" />
<glyph unicode="&#x147;" horiz-adv-x="578" d="M247 773l-111 113h87l67 -69l65 69h89l-111 -113h-86zM73 725h108l243 -607v607h81v-725h-107l-244 608v-608h-81v725z" />
<glyph unicode="&#x148;" horiz-adv-x="468" d="M90 725h79l70 -70l70 70h78l-111 -119h-75zM61 538h86v-88q15 43 50 71.5t87 28.5q74 0 103 -46.5t29 -144.5v-359h-86v331q0 37 -2.5 65.5t-11 48t-23.5 30t-39 10.5q-53 0 -80 -51.5t-27 -139.5v-294h-86v538z" />
<glyph unicode="&#x149;" horiz-adv-x="463" d="M60 754h87v-88l-40 -83h-49l36 89h-34v82zM61 538h86v-88q15 43 50 71.5t87 28.5q74 0 103 -46.5t29 -144.5v-359h-86v331q0 37 -2.5 65.5t-11 48t-23.5 30t-39 10.5q-53 0 -80 -51.5t-27 -139.5v-294h-86v538z" />
<glyph unicode="&#x14a;" horiz-adv-x="578" d="M313 -115h19q28 0 46 3.5t28.5 12.5t14 25t3.5 42v33l-270 607v-608h-81v725h107l244 -560v560h81v-755q0 -46 -7 -76t-24 -48t-46 -25t-73 -7h-42v71z" />
<glyph unicode="&#x14b;" horiz-adv-x="468" d="M244 -123h15q24 0 38.5 4t22 14t9.5 27t2 43v366q0 37 -3 65.5t-11 48t-23.5 30t-39.5 10.5q-53 0 -80 -50.5t-27 -140.5v-294h-86v538h86v-88q15 43 50 71.5t87 28.5q74 0 103 -46.5t29 -144.5v-394q0 -44 -7 -72t-23.5 -45t-44 -23.5t-67.5 -6.5h-30v59z" />
<glyph unicode="&#x14c;" horiz-adv-x="562" d="M164 864h238v-65h-238v65zM281 672q-44 0 -71.5 -19.5t-44 -56.5t-22.5 -91t-6 -123v-39q0 -69 6 -123t22.5 -91t44 -56t71.5 -19q43 0 71 19t44.5 56t22.5 91t6 123v39q0 69 -6 123t-22.5 91t-44.5 56.5t-71 19.5zM281 738q124 0 181 -80t57 -251v-89q0 -171 -57 -251 t-181 -80q-125 0 -181.5 80t-56.5 251v89q0 171 56.5 251t181.5 80z" />
<glyph unicode="&#x14d;" horiz-adv-x="457" d="M113 696h231v-61h-231v61zM229 489q-33 0 -53 -14t-31 -40.5t-14.5 -64t-3.5 -84.5v-35q0 -47 3.5 -84.5t14.5 -63.5t31 -40t53 -14t53 14t31 40t14.5 63.5t3.5 84.5v35q0 47 -3.5 84.5t-14.5 64t-31 40.5t-53 14zM229 550q100 0 145.5 -59t45.5 -184v-77 q0 -125 -45.5 -184t-145.5 -59t-145.5 59t-45.5 184v77q0 125 45.5 184t145.5 59z" />
<glyph unicode="&#x14e;" horiz-adv-x="562" d="M261 773q-63 0 -94 27.5t-33 85.5h62q2 -36 20.5 -47.5t45.5 -11.5q28 0 46 11.5t20 47.5h63q-7 -113 -130 -113zM281 672q-44 0 -71.5 -19.5t-44 -56.5t-22.5 -91t-6 -123v-39q0 -69 6 -123t22.5 -91t44 -56t71.5 -19q43 0 71 19t44.5 56t22.5 91t6 123v39q0 69 -6 123 t-22.5 91t-44.5 56.5t-71 19.5zM281 738q124 0 181 -80t57 -251v-89q0 -171 -57 -251t-181 -80q-125 0 -181.5 80t-56.5 251v89q0 171 56.5 251t181.5 80z" />
<glyph unicode="&#x14f;" horiz-adv-x="457" d="M229 489q-33 0 -53 -14t-31 -40.5t-14.5 -64t-3.5 -84.5v-35q0 -47 3.5 -84.5t14.5 -63.5t31 -40t53 -14t53 14t31 40t14.5 63.5t3.5 84.5v35q0 47 -3.5 84.5t-14.5 64t-31 40.5t-53 14zM229 550q100 0 145.5 -59t45.5 -184v-77q0 -125 -45.5 -184t-145.5 -59t-145.5 59 t-45.5 184v77q0 125 45.5 184t145.5 59zM229 605q-68 0 -97 33.5t-33 86.5h62q3 -36 20 -52.5t48 -16.5t48.5 16.5t20.5 52.5h62q-5 -53 -33.5 -86.5t-97.5 -33.5z" />
<glyph unicode="&#x150;" horiz-adv-x="562" d="M281 672q-44 0 -71.5 -19.5t-44 -56.5t-22.5 -91t-6 -123v-39q0 -69 6 -123t22.5 -91t44 -56t71.5 -19q43 0 71 19t44.5 56t22.5 91t6 123v39q0 69 -6 123t-22.5 91t-44.5 56.5t-71 19.5zM281 738q124 0 181 -80t57 -251v-89q0 -171 -57 -251t-181 -80q-125 0 -181.5 80 t-56.5 251v89q0 171 56.5 251t181.5 80zM387 897h113l-104 -113h-79zM216 896h113l-104 -113h-79z" />
<glyph unicode="&#x151;" horiz-adv-x="457" d="M320 725h103l-101 -119h-68zM164 725h103l-101 -119h-68zM229 489q-33 0 -53 -14t-31 -40.5t-14.5 -64t-3.5 -84.5v-35q0 -47 3.5 -84.5t14.5 -63.5t31 -40t53 -14t53 14t31 40t14.5 63.5t3.5 84.5v35q0 47 -3.5 84.5t-14.5 64t-31 40.5t-53 14zM229 550q100 0 145.5 -59 t45.5 -184v-77q0 -125 -45.5 -184t-145.5 -59t-145.5 59t-45.5 184v77q0 125 45.5 184t145.5 59z" />
<glyph unicode="&#x152;" horiz-adv-x="815" d="M281 672q-44 0 -71.5 -19.5t-44 -56.5t-22.5 -91t-6 -123v-39q0 -69 6 -123t22.5 -91t44 -56t71.5 -19q43 0 71 19t44.5 56t22.5 91t6 123v39q0 69 -6 123t-22.5 91t-44.5 56.5t-71 19.5zM429 46q-55 -59 -148 -59q-125 0 -181.5 80t-56.5 251v89q0 171 56.5 251 t181.5 80q92 0 148 -60v47h366v-70h-276v-245h252v-71h-252v-269h276v-70h-366v46z" />
<glyph unicode="&#x153;" horiz-adv-x="762" d="M237 -13q-99 0 -144.5 60.5t-45.5 182.5v77q0 122 45.5 182.5t144.5 60.5q52 0 89 -21t57 -60q21 39 57.5 60t90.5 21q101 0 143.5 -60.5t42.5 -186.5v-38h-290v-25q0 -43 4 -78.5t15 -60.5t31.5 -38.5t52.5 -13.5q48 0 73 29t25 90v4h82v-5q0 -46 -14 -79.5t-38.5 -55.5 t-57.5 -33t-71 -11q-104 0 -146 80q-41 -81 -146 -81zM237 49q33 0 53 14t31 40t14.5 63.5t3.5 84.5v35q0 47 -3.5 84.5t-14.5 64t-31 40.5t-53 14q-32 0 -52.5 -14t-31.5 -40.5t-15 -64t-4 -84.5v-35q0 -47 4 -84.5t15 -63.5t31.5 -40t52.5 -14zM635 317v14q0 37 -4.5 67 t-16.5 50.5t-32 31.5t-50 11q-32 0 -52.5 -11.5t-32.5 -32.5t-16.5 -51t-4.5 -67v-12h209z" />
<glyph unicode="&#x154;" horiz-adv-x="536" d="M295 331q-15 -2 -31 -3t-33 -1h-68v-327h-90v725h161q67 0 116.5 -9t81.5 -31t48 -60.5t16 -96.5q0 -79 -30 -120.5t-88 -59.5l133 -348h-94zM236 387q43 0 74.5 5.5t52 20.5t30 41.5t9.5 69.5q0 42 -9.5 69t-30 42t-52 20.5t-74.5 5.5h-73v-274h73zM304 886h113 l-104 -113h-79z" />
<glyph unicode="&#x155;" horiz-adv-x="284" d="M184 725h103l-101 -119h-68zM61 538h85v-108q11 45 40.5 76.5t83.5 31.5h20v-80h-31q-59 0 -85.5 -39t-26.5 -131v-288h-86v538z" />
<glyph unicode="&#x156;" horiz-adv-x="536" d="M237 -50h87v-88l-40 -83h-49l36 89h-34v82zM295 331q-15 -2 -31 -3t-33 -1h-68v-327h-90v725h161q67 0 116.5 -9t81.5 -31t48 -60.5t16 -96.5q0 -79 -30 -120.5t-88 -59.5l133 -348h-94zM236 387q43 0 74.5 5.5t52 20.5t30 41.5t9.5 69.5q0 42 -9.5 69t-30 42t-52 20.5 t-74.5 5.5h-73v-274h73z" />
<glyph unicode="&#x157;" horiz-adv-x="286" d="M62 -50h87v-88l-40 -83h-49l36 89h-34v82zM63 538h85v-108q11 45 40.5 76.5t83.5 31.5h20v-80h-31q-59 0 -85.5 -39t-26.5 -131v-288h-86v538z" />
<glyph unicode="&#x158;" horiz-adv-x="536" d="M230 773l-111 113h87l67 -69l65 69h89l-111 -113h-86zM295 331q-15 -2 -31 -3t-33 -1h-68v-327h-90v725h161q67 0 116.5 -9t81.5 -31t48 -60.5t16 -96.5q0 -79 -30 -120.5t-88 -59.5l133 -348h-94zM236 387q43 0 74.5 5.5t52 20.5t30 41.5t9.5 69.5q0 42 -9.5 69t-30 42 t-52 20.5t-74.5 5.5h-73v-274h73z" />
<glyph unicode="&#x159;" horiz-adv-x="284" d="M25 725h79l70 -70l70 70h78l-111 -119h-75zM61 538h85v-108q11 45 40.5 76.5t83.5 31.5h20v-80h-31q-59 0 -85.5 -39t-26.5 -131v-288h-86v538z" />
<glyph unicode="&#x15a;" horiz-adv-x="507" d="M262 -13q-110 0 -169 59t-59 176v8h89v-8q0 -86 36 -127.5t102 -41.5q64 0 95 32.5t31 91.5q0 28 -7 49t-21 37t-34 28.5t-47 24.5l-89 42q-31 14 -57 30t-45.5 39t-30.5 54.5t-11 75.5t15 77.5t41.5 56.5t63.5 35t82 12q46 0 84.5 -12.5t66.5 -37.5t43 -63.5t15 -90.5 v-8h-87v8q0 66 -32.5 102t-89.5 36q-56 0 -86 -29.5t-30 -80.5q0 -26 5.5 -44.5t15.5 -32t25 -23t34 -17.5l94 -44q35 -15 66 -32.5t54.5 -41.5t37 -57.5t13.5 -81.5q0 -96 -55.5 -148.5t-158.5 -52.5zM277 886h113l-104 -113h-79z" />
<glyph unicode="&#x15b;" horiz-adv-x="423" d="M224 725h103l-101 -119h-68zM212 -13q-83 0 -133.5 42.5t-50.5 135.5v5h83v-6q0 -56 26 -85.5t74 -29.5q42 0 70 19t28 61q0 36 -15 57.5t-58 38.5l-79 30q-25 9 -46.5 22.5t-37 32t-24 42.5t-8.5 55q0 36 12.5 63t34.5 44.5t52.5 26.5t65.5 9q34 0 65 -9.5t54 -29 t37 -49.5t14 -71v-5h-81v5q0 53 -28 75.5t-64 22.5q-33 0 -59.5 -18.5t-26.5 -56.5q0 -31 15.5 -48t50.5 -31l79 -31q59 -23 92 -61t33 -105q0 -38 -14 -66.5t-37.5 -47.5t-55.5 -28t-68 -9z" />
<glyph unicode="&#x15c;" horiz-adv-x="507" d="M262 -13q-110 0 -169 59t-59 176v8h89v-8q0 -86 36 -127.5t102 -41.5q64 0 95 32.5t31 91.5q0 28 -7 49t-21 37t-34 28.5t-47 24.5l-89 42q-31 14 -57 30t-45.5 39t-30.5 54.5t-11 75.5t15 77.5t41.5 56.5t63.5 35t82 12q46 0 84.5 -12.5t66.5 -37.5t43 -63.5t15 -90.5 v-8h-87v8q0 66 -32.5 102t-89.5 36q-56 0 -86 -29.5t-30 -80.5q0 -26 5.5 -44.5t15.5 -32t25 -23t34 -17.5l94 -44q35 -15 66 -32.5t54.5 -41.5t37 -57.5t13.5 -81.5q0 -96 -55.5 -148.5t-158.5 -52.5zM211 886h86l111 -113h-89l-65 68l-67 -68h-87z" />
<glyph unicode="&#x15d;" horiz-adv-x="423" d="M169 725h76l111 -119h-78l-70 70l-70 -70h-79zM212 -13q-83 0 -133.5 42.5t-50.5 135.5v5h83v-6q0 -56 26 -85.5t74 -29.5q42 0 70 19t28 61q0 36 -15 57.5t-58 38.5l-79 30q-25 9 -46.5 22.5t-37 32t-24 42.5t-8.5 55q0 36 12.5 63t34.5 44.5t52.5 26.5t65.5 9 q34 0 65 -9.5t54 -29t37 -49.5t14 -71v-5h-81v5q0 53 -28 75.5t-64 22.5q-33 0 -59.5 -18.5t-26.5 -56.5q0 -31 15.5 -48t50.5 -31l79 -31q59 -23 92 -61t33 -105q0 -38 -14 -66.5t-37.5 -47.5t-55.5 -28t-68 -9z" />
<glyph unicode="&#x15e;" horiz-adv-x="507" d="M258 -194q-41 0 -79 13l13 38q11 -5 26.5 -8.5t30.5 -3.5q23 0 41 8.5t18 28.5q0 34 -46 34q-11 0 -22 -2.5t-20 -7.5l-19 17l40 65q-100 5 -153.5 63.5t-53.5 170.5v8h89v-8q0 -86 36 -127.5t102 -41.5q64 0 95 32.5t31 91.5q0 28 -7 49t-21 37t-34 28.5t-47 24.5 l-89 42q-31 14 -57 30t-45.5 39t-30.5 54.5t-11 75.5t15 77.5t41.5 56.5t63.5 35t82 12q46 0 84.5 -12.5t66.5 -37.5t43 -63.5t15 -90.5v-8h-87v8q0 66 -32.5 102t-89.5 36q-56 0 -86 -29.5t-30 -80.5q0 -26 5.5 -44.5t15.5 -32t25 -23t34 -17.5l94 -44q35 -15 66 -32.5 t54.5 -41.5t37 -57.5t13.5 -81.5q0 -91 -49.5 -143t-143.5 -57l-25 -41q7 2 14.5 3t16.5 1q32 0 55 -17.5t23 -49.5q0 -36 -30.5 -57t-78.5 -21z" />
<glyph unicode="&#x15f;" horiz-adv-x="423" d="M200 -194q-42 0 -80 13l13 38q11 -5 26.5 -8.5t30.5 -3.5q23 0 41 8.5t18 28.5q0 17 -13.5 25.5t-32.5 8.5q-11 0 -22 -2.5t-20 -7.5l-19 17l40 66q-71 7 -112.5 49t-41.5 127v5h83v-6q0 -56 26 -85.5t74 -29.5q42 0 70 19t28 61q0 36 -15 57.5t-58 38.5l-79 30 q-25 9 -46.5 22.5t-37 32t-24 42.5t-8.5 55q0 36 12.5 63t34.5 44.5t52.5 26.5t65.5 9q34 0 65 -9.5t54 -29t37 -49.5t14 -71v-5h-81v5q0 53 -28 75.5t-64 22.5q-33 0 -59.5 -18.5t-26.5 -56.5q0 -31 15.5 -48t50.5 -31l79 -31q59 -23 92 -61t33 -105q0 -37 -13 -64.5 t-35 -46t-52 -28.5t-64 -11l-24 -41q8 2 15 3t16 1q32 0 55 -17.5t23 -49.5q0 -21 -9.5 -35.5t-24.5 -24t-34.5 -14t-39.5 -4.5z" />
<glyph unicode="&#x160;" horiz-adv-x="507" d="M213 773l-111 113h87l67 -69l65 69h89l-111 -113h-86zM262 -13q-110 0 -169 59t-59 176v8h89v-8q0 -86 36 -127.5t102 -41.5q64 0 95 32.5t31 91.5q0 28 -7 49t-21 37t-34 28.5t-47 24.5l-89 42q-31 14 -57 30t-45.5 39t-30.5 54.5t-11 75.5t15 77.5t41.5 56.5t63.5 35 t82 12q46 0 84.5 -12.5t66.5 -37.5t43 -63.5t15 -90.5v-8h-87v8q0 66 -32.5 102t-89.5 36q-56 0 -86 -29.5t-30 -80.5q0 -26 5.5 -44.5t15.5 -32t25 -23t34 -17.5l94 -44q35 -15 66 -32.5t54.5 -41.5t37 -57.5t13.5 -81.5q0 -96 -55.5 -148.5t-158.5 -52.5z" />
<glyph unicode="&#x161;" horiz-adv-x="423" d="M57 725h79l70 -70l70 70h78l-111 -119h-75zM212 -13q-83 0 -133.5 42.5t-50.5 135.5v5h83v-6q0 -56 26 -85.5t74 -29.5q42 0 70 19t28 61q0 36 -15 57.5t-58 38.5l-79 30q-25 9 -46.5 22.5t-37 32t-24 42.5t-8.5 55q0 36 12.5 63t34.5 44.5t52.5 26.5t65.5 9 q34 0 65 -9.5t54 -29t37 -49.5t14 -71v-5h-81v5q0 53 -28 75.5t-64 22.5q-33 0 -59.5 -18.5t-26.5 -56.5q0 -31 15.5 -48t50.5 -31l79 -31q59 -23 92 -61t33 -105q0 -38 -14 -66.5t-37.5 -47.5t-55.5 -28t-68 -9z" />
<glyph unicode="&#x162;" horiz-adv-x="455" d="M182 655h-178v70h447v-70h-179v-655h-90v655zM183 -50h87v-88l-40 -83h-49l36 89h-34v82z" />
<glyph unicode="&#x163;" horiz-adv-x="264" d="M189 0q-36 0 -58.5 6.5t-35.5 22t-18 40t-5 60.5v350h-71v59h71v135h86v-135h93v-59h-93v-339q0 -26 2.5 -42t9.5 -24.5t19.5 -11.5t33.5 -3h28v-59h-62zM91 -50h87v-88l-40 -83h-49l36 89h-34v82z" />
<glyph unicode="&#x164;" horiz-adv-x="455" d="M184 773l-111 113h87l67 -69l65 69h89l-111 -113h-86zM182 655h-178v70h447v-70h-179v-655h-90v655z" />
<glyph unicode="&#x165;" horiz-adv-x="331" d="M285 725h81l-57 -170h-53zM189 0q-36 0 -58.5 6.5t-35.5 22t-18 40t-5 60.5v350h-71v59h71v135h86v-135h93v-59h-93v-339q0 -26 2.5 -42t9.5 -24.5t19.5 -11.5t33.5 -3h28v-59h-62z" />
<glyph unicode="&#x166;" horiz-adv-x="455" d="M4 404h178v251h-178v70h447v-70h-179v-251h179v-70h-179v-334h-90v334h-178v70z" />
<glyph unicode="&#x167;" horiz-adv-x="309" d="M22 369h71v110h-71v59h71v135h86v-135h93v-59h-93v-110h92v-61h-92v-168q0 -26 2.5 -42t9.5 -24.5t19.5 -11.5t33.5 -3h28v-59h-62q-36 0 -58.5 6.5t-35.5 22t-18 40t-5 60.5v179h-71v61z" />
<glyph unicode="&#x168;" horiz-adv-x="557" d="M129 773q2 32 10 53.5t19.5 34.5t26.5 18.5t31 5.5q19 0 36.5 -8t33 -17t29.5 -17t26 -8q14 0 21.5 11.5t9.5 38.5h58q-2 -32 -10 -53.5t-20 -34.5t-26.5 -18.5t-29.5 -5.5q-18 0 -34.5 8t-32 17t-29 17t-25.5 8q-14 0 -24 -12t-11 -38h-59v0zM278 -13q-64 0 -105.5 14 t-65.5 46.5t-33.5 85.5t-9.5 130v462h90v-474q0 -52 5.5 -89.5t19 -61.5t37.5 -35t62 -11t62.5 11t38.5 35t19.5 61.5t5.5 89.5v474h89v-462q0 -77 -9.5 -130t-33.5 -85.5t-65.5 -46.5t-106.5 -14z" />
<glyph unicode="&#x169;" horiz-adv-x="461" d="M185 -13q-76 0 -104.5 48.5t-28.5 146.5v356h86v-332q0 -36 2.5 -64.5t10.5 -48.5t22 -30.5t38 -10.5q51 0 77 51.5t25 139.5v295h86v-538h-83v88q-14 -43 -47 -72t-84 -29zM75 613q2 31 10 52.5t19.5 34.5t26.5 18.5t31 5.5q18 0 35.5 -7.5t33 -17t29.5 -17t26 -7.5 q13 0 21 11.5t10 37.5h58q-2 -32 -10.5 -53t-20.5 -34t-26 -18.5t-29 -5.5q-18 0 -34.5 8t-32 17t-29 17t-25.5 8q-14 0 -23.5 -12t-11.5 -38h-58v0z" />
<glyph unicode="&#x16a;" horiz-adv-x="557" d="M160 864h238v-65h-238v65zM278 -13q-64 0 -105.5 14t-65.5 46.5t-33.5 85.5t-9.5 130v462h90v-474q0 -52 5.5 -89.5t19 -61.5t37.5 -35t62 -11t62.5 11t38.5 35t19.5 61.5t5.5 89.5v474h89v-462q0 -77 -9.5 -130t-33.5 -85.5t-65.5 -46.5t-106.5 -14z" />
<glyph unicode="&#x16b;" horiz-adv-x="461" d="M185 -13q-76 0 -104.5 48.5t-28.5 146.5v356h86v-332q0 -36 2.5 -64.5t10.5 -48.5t22 -30.5t38 -10.5q51 0 77 51.5t25 139.5v295h86v-538h-83v88q-14 -43 -47 -72t-84 -29zM109 696h231v-61h-231v61z" />
<glyph unicode="&#x16c;" horiz-adv-x="557" d="M256 773q-63 0 -94 27.5t-33 85.5h62q2 -36 20.5 -47.5t45.5 -11.5q28 0 46 11.5t20 47.5h63q-7 -113 -130 -113zM278 -13q-64 0 -105.5 14t-65.5 46.5t-33.5 85.5t-9.5 130v462h90v-474q0 -52 5.5 -89.5t19 -61.5t37.5 -35t62 -11t62.5 11t38.5 35t19.5 61.5t5.5 89.5 v474h89v-462q0 -77 -9.5 -130t-33.5 -85.5t-65.5 -46.5t-106.5 -14z" />
<glyph unicode="&#x16d;" horiz-adv-x="461" d="M185 -13q-76 0 -104.5 48.5t-28.5 146.5v356h86v-332q0 -36 2.5 -64.5t10.5 -48.5t22 -30.5t38 -10.5q51 0 77 51.5t25 139.5v295h86v-538h-83v88q-14 -43 -47 -72t-84 -29zM225 605q-68 0 -97 33.5t-33 86.5h62q3 -36 20 -52.5t48 -16.5t48.5 16.5t20.5 52.5h62 q-5 -53 -33.5 -86.5t-97.5 -33.5z" />
<glyph unicode="&#x16e;" horiz-adv-x="557" d="M278 -13q-64 0 -105.5 14t-65.5 46.5t-33.5 85.5t-9.5 130v462h90v-474q0 -52 5.5 -89.5t19 -61.5t37.5 -35t62 -11t62.5 11t38.5 35t19.5 61.5t5.5 89.5v474h89v-462q0 -77 -9.5 -130t-33.5 -85.5t-65.5 -46.5t-106.5 -14zM278 814q14 0 25.5 9t11.5 26t-11.5 27 t-25.5 10q-15 0 -26 -10t-11 -27t11 -26t26 -9zM278 766q-37 0 -62.5 23.5t-25.5 59.5q0 37 26 60t62 23q37 0 62.5 -23t25.5 -60q0 -36 -25.5 -59.5t-62.5 -23.5z" />
<glyph unicode="&#x16f;" horiz-adv-x="461" d="M227 726q-18 0 -33 -13t-15 -35q0 -21 15 -34.5t33 -13.5q20 0 34.5 13.5t14.5 34.5q0 22 -14.5 35t-34.5 13zM227 593q-37 0 -63 23.5t-26 61.5q0 37 26.5 61t62.5 24q38 0 64 -24t26 -61q0 -38 -26 -61.5t-64 -23.5zM185 -13q-76 0 -104.5 48.5t-28.5 146.5v356h86 v-332q0 -36 2.5 -64.5t10.5 -48.5t22 -30.5t38 -10.5q51 0 77 51.5t25 139.5v295h86v-538h-83v88q-14 -43 -47 -72t-84 -29z" />
<glyph unicode="&#x170;" horiz-adv-x="557" d="M278 -13q-64 0 -105.5 14t-65.5 46.5t-33.5 85.5t-9.5 130v462h90v-474q0 -52 5.5 -89.5t19 -61.5t37.5 -35t62 -11t62.5 11t38.5 35t19.5 61.5t5.5 89.5v474h89v-462q0 -77 -9.5 -130t-33.5 -85.5t-65.5 -46.5t-106.5 -14zM381 897h113l-104 -113h-79zM210 896h113 l-104 -113h-79z" />
<glyph unicode="&#x171;" horiz-adv-x="460" d="M301 725h103l-101 -119h-68zM145 725h103l-101 -119h-68zM185 -13q-76 0 -104.5 48.5t-28.5 146.5v356h86v-332q0 -36 2.5 -64.5t10.5 -48.5t22 -30.5t38 -10.5q51 0 77 51.5t25 139.5v295h86v-538h-83v88q-14 -43 -47 -72t-84 -29z" />
<glyph unicode="&#x172;" horiz-adv-x="557" d="M302 -188q-21 0 -41 5t-35 15t-24.5 25.5t-9.5 36.5q0 25 18 51t43 43q-56 3 -92.5 18.5t-58 48t-30 83.5t-8.5 125v462h90v-474q0 -52 5.5 -89.5t19 -61.5t37.5 -35t62 -11t62.5 11t38.5 35t19.5 61.5t5.5 89.5v474h89v-462q0 -66 -6.5 -113.5t-23 -80.5t-44.5 -51.5 t-71 -25.5q-33 -18 -54.5 -40.5t-21.5 -45.5q0 -20 13.5 -30.5t36.5 -10.5q13 0 22.5 2.5t18.5 4.5v-53q-14 -4 -30 -5.5t-31 -1.5z" />
<glyph unicode="&#x173;" horiz-adv-x="463" d="M185 -13q-76 0 -104.5 48.5t-28.5 146.5v356h86v-332q0 -36 2.5 -64.5t10.5 -48.5t22 -30.5t38 -10.5q51 0 77 51.5t25 139.5v295h86v-538h1q-38 -19 -65 -44t-27 -50q0 -20 14.5 -30.5t37.5 -10.5q13 0 22 2.5t18 5.5v-53q-32 -8 -60 -8q-21 0 -41 5t-35.5 15t-25 25.5 t-9.5 36.5q0 15 7.5 31t20 30.5t28 26t31.5 18.5v88q-14 -43 -47 -72t-84 -29z" />
<glyph unicode="&#x174;" horiz-adv-x="725" d="M319 886h86l111 -113h-89l-65 68l-67 -68h-87zM14 725h83l106 -622l117 622h84l117 -622l106 622h83l-129 -725h-105l-113 617l-115 -617h-106z" />
<glyph unicode="&#x175;" horiz-adv-x="573" d="M246 725h76l111 -119h-78l-70 70l-70 -70h-79zM20 538h76l66 -435l83 435h82l83 -435l67 435h76l-91 -538h-92l-84 449l-83 -449h-93z" />
<glyph unicode="&#x176;" horiz-adv-x="491" d="M201 287l-193 438h90l148 -356l148 356h90l-194 -439v-286h-89v287zM204 886h86l111 -113h-89l-65 68l-67 -68h-87z" />
<glyph unicode="&#x177;" horiz-adv-x="400" d="M45 -116h29q19 0 31.5 2.5t21.5 10t15.5 22.5t12.5 41l11 39l-158 539h86l113 -424l105 424h80l-145 -544q-14 -54 -26.5 -87.5t-30 -51.5t-42 -24t-63.5 -6h-40v59zM158 725h76l111 -119h-78l-70 70l-70 -70h-79z" />
<glyph unicode="&#x178;" horiz-adv-x="491" d="M201 287l-193 438h90l148 -356l148 356h90l-194 -439v-286h-89v287zM109 881h79v-104h-79v104zM307 881h79v-104h-79v104z" />
<glyph unicode="&#x179;" horiz-adv-x="475" d="M25 66l328 589h-305v70h401v-66l-328 -589h336v-70h-432v66zM256 886h113l-104 -113h-79z" />
<glyph unicode="&#x17a;" horiz-adv-x="377" d="M208 725h103l-101 -119h-68zM17 58l246 421h-222v59h313v-58l-245 -421h251v-59h-343v58z" />
<glyph unicode="&#x17b;" horiz-adv-x="475" d="M188 881h90v-104h-90v104zM25 66l328 589h-305v70h401v-66l-328 -589h336v-70h-432v66z" />
<glyph unicode="&#x17c;" horiz-adv-x="377" d="M17 58l246 421h-222v59h313v-58l-245 -421h251v-59h-343v58zM149 722h78v-107h-78v107z" />
<glyph unicode="&#x17d;" horiz-adv-x="475" d="M187 773l-111 113h87l67 -69l65 69h89l-111 -113h-86zM25 66l328 589h-305v70h401v-66l-328 -589h336v-70h-432v66z" />
<glyph unicode="&#x17e;" horiz-adv-x="377" d="M39 725h79l70 -70l70 70h78l-111 -119h-75zM17 58l246 421h-222v59h313v-58l-245 -421h251v-59h-343v58z" />
<glyph unicode="&#x192;" horiz-adv-x="425" d="M166 429l29 163q8 40 20.5 66t32.5 41t48.5 20.5t68.5 5.5h60l-8 -57h-36q-24 0 -40 -3t-27 -12t-18 -24.5t-12 -40.5l-29 -159h134l-11 -61h-134l-70 -391q-9 -46 -20 -75.5t-28.5 -46.5t-45.5 -23.5t-72 -6.5h-63l7 57h44q25 0 40.5 5.5t24.5 16.5t14 28.5t10 41.5 l70 394h-104l11 61h104z" />
<glyph unicode="&#x19d;" horiz-adv-x="578" d="M-13 -115h13q25 0 39.5 3.5t22 12.5t9.5 25.5t2 42.5v756h108l243 -607v607h81v-725h-107l-244 608v-646q0 -44 -5 -72.5t-19.5 -45.5t-40.5 -23.5t-67 -6.5h-35v71z" />
<glyph unicode="&#x19f;" horiz-adv-x="562" d="M281 738q124 0 181 -80t57 -251v-89q0 -171 -57 -251t-181 -80q-125 0 -181.5 80t-56.5 251v89q0 171 56.5 251t181.5 80zM281 54q42 0 69.5 18t44 53t23 85.5t7.5 116.5h-288q0 -66 7 -116.5t23 -85.5t44 -53t70 -18zM281 672q-42 0 -69.5 -18t-44 -53t-23 -85.5 t-7.5 -115.5h288q-1 65 -7.5 115.5t-23 85.5t-44 53t-69.5 18z" />
<glyph unicode="&#x1fa;" horiz-adv-x="527" d="M262 751q-38 0 -63 23.5t-25 59.5q0 20 8.5 36.5t19.5 28.5l90 104h113l-109 -96q23 -8 38.5 -27.5t15.5 -45.5q0 -36 -25.5 -59.5t-62.5 -23.5zM268 792q17 2 28 15t8 33q-2 20 -16.5 29t-31.5 7t-28 -15t-9 -32q2 -20 17 -30t32 -7zM210 725h106l201 -725h-92l-49 189 h-231l-49 -189h-86zM162 254h197l-98 384z" />
<glyph unicode="&#x1fb;" horiz-adv-x="450" d="M218 590q-37 0 -62.5 23t-25.5 60q0 17 7.5 33.5t14.5 26.5l81 115h111l-98 -102q27 -5 43.5 -25t16.5 -48q0 -37 -25 -60t-63 -23zM218 623q20 0 35 13.5t15 36.5t-15 36.5t-35 13.5t-35.5 -13.5t-15.5 -36.5t15.5 -36.5t35.5 -13.5zM176 -13q-68 0 -105 36t-37 110v15 q0 61 41 96t117 63l118 42v45q0 57 -24 78.5t-67 21.5q-91 0 -91 -109v-11h-83v11q0 87 48 126.5t129 39.5q39 0 71.5 -7t56 -26t36.5 -52.5t13 -86.5v-41.5t-0.5 -64.5t-0.5 -63.5v-39.5v-56.5t1 -44.5t1.5 -36.5t2.5 -32.5h-82l-2 78q-19 -45 -53.5 -68t-89.5 -23zM203 45 q23 0 43 8.5t35 27t23.5 48.5t8.5 73v92l-88 -32q-49 -17 -73.5 -42t-24.5 -70v-12q0 -42 18 -67.5t58 -25.5z" />
<glyph unicode="&#x1fc;" horiz-adv-x="774" d="M382 725h356v-70h-266v-246h243v-70h-243v-269h266v-70h-356v177h-200l-87 -177h-95zM217 248h165v336zM588 886h113l-104 -113h-79z" />
<glyph unicode="&#x1fd;" horiz-adv-x="714" d="M401 725h103l-101 -119h-68zM171 -13q-64 0 -102 40t-38 111v10q0 59 40 96q20 18 49.5 32.5t67.5 28.5l118 41v49q0 56 -24 77.5t-67 21.5q-44 0 -70.5 -24t-26.5 -79v-11h-76v11q0 81 47 120.5t128 39.5q51 0 86 -15.5t53 -58.5q38 73 139 73t143.5 -61t42.5 -187v-38 h-291v-31q0 -42 4.5 -76t16.5 -58t32 -37t52 -13q47 0 72 29t25 89v4h83v-4q0 -46 -14 -79.5t-38 -56t-56.5 -33.5t-69.5 -11q-68 0 -109 27t-55 78q-20 -57 -60.5 -81t-101.5 -24zM200 46q23 0 43 8t35 26t23.5 48t8.5 75v90l-89 -34q-26 -10 -45.5 -20t-33 -22.5 t-20 -28.5t-6.5 -38v-12q0 -44 22 -68t62 -24zM599 317v16q0 37 -5 66.5t-16.5 49t-31 30t-50.5 10.5q-32 0 -52 -11.5t-32 -33t-16.5 -51.5t-4.5 -67v-9h208z" />
<glyph unicode="&#x1fe;" horiz-adv-x="562" d="M281 738q74 0 123 -28l36 80h51l-49 -109q40 -39 58.5 -106.5t18.5 -167.5v-89q0 -171 -57 -251t-181 -80q-81 0 -132 33l-38 -85h-50l51 116q-69 78 -69 267v89q0 171 56.5 251t181.5 80zM425 382q0 65 -5.5 116t-19.5 88l-217 -488q33 -44 98 -44q43 0 71 19t44.5 56 t22.5 91t6 123v39zM281 672q-44 0 -71.5 -19.5t-44 -56.5t-22.5 -91t-6 -123v-39q0 -60 4.5 -108t15.5 -83l215 484q-17 17 -39 26.5t-52 9.5zM309 886h113l-104 -113h-79z" />
<glyph unicode="&#x1ff;" horiz-adv-x="468" d="M229 550q55 0 95 -20l33 73h43l-43 -95q63 -57 63 -201v-77q0 -125 -45.5 -184t-145.5 -59q-56 0 -95 18l-31 -70h-43q0 1 11.5 26t29.5 66q-63 57 -63 203v77q0 125 45.5 184t145.5 59zM229 489q-33 0 -53 -14t-31 -40.5t-14.5 -64t-3.5 -84.5v-35q0 -42 2.5 -75.5 t10.5 -59.5l155 347q-23 26 -66 26zM331 286q0 41 -2.5 74t-10.5 59l-154 -347q23 -23 65 -23q33 0 53 14t31 40t14.5 63.5t3.5 84.5v35zM254 725h103l-101 -119h-68z" />
<glyph unicode="&#x218;" horiz-adv-x="507" d="M223 -50h87v-88l-40 -83h-49l36 89h-34v82zM262 -13q-110 0 -169 59t-59 176v8h89v-8q0 -86 36 -127.5t102 -41.5q64 0 95 32.5t31 91.5q0 28 -7 49t-21 37t-34 28.5t-47 24.5l-89 42q-31 14 -57 30t-45.5 39t-30.5 54.5t-11 75.5t15 77.5t41.5 56.5t63.5 35t82 12 q46 0 84.5 -12.5t66.5 -37.5t43 -63.5t15 -90.5v-8h-87v8q0 66 -32.5 102t-89.5 36q-56 0 -86 -29.5t-30 -80.5q0 -26 5.5 -44.5t15.5 -32t25 -23t34 -17.5l94 -44q35 -15 66 -32.5t54.5 -41.5t37 -57.5t13.5 -81.5q0 -96 -55.5 -148.5t-158.5 -52.5z" />
<glyph unicode="&#x219;" horiz-adv-x="423" d="M167 -50h87v-88l-40 -83h-49l36 89h-34v82zM212 -13q-83 0 -133.5 42.5t-50.5 135.5v5h83v-6q0 -56 26 -85.5t74 -29.5q42 0 70 19t28 61q0 36 -15 57.5t-58 38.5l-79 30q-25 9 -46.5 22.5t-37 32t-24 42.5t-8.5 55q0 36 12.5 63t34.5 44.5t52.5 26.5t65.5 9 q34 0 65 -9.5t54 -29t37 -49.5t14 -71v-5h-81v5q0 53 -28 75.5t-64 22.5q-33 0 -59.5 -18.5t-26.5 -56.5q0 -31 15.5 -48t50.5 -31l79 -31q59 -23 92 -61t33 -105q0 -38 -14 -66.5t-37.5 -47.5t-55.5 -28t-68 -9z" />
<glyph unicode="&#x21a;" horiz-adv-x="455" d="M183 -50h87v-88l-40 -83h-49l36 89h-34v82zM182 655h-178v70h447v-70h-179v-655h-90v655z" />
<glyph unicode="&#x21b;" horiz-adv-x="264" d="M91 -50h87v-88l-40 -83h-49l36 89h-34v82zM189 0q-36 0 -58.5 6.5t-35.5 22t-18 40t-5 60.5v350h-71v59h71v135h86v-135h93v-59h-93v-339q0 -26 2.5 -42t9.5 -24.5t19.5 -11.5t33.5 -3h28v-59h-62v0z" />
<glyph unicode="&#x226;" horiz-adv-x="527" d="M210 725h106l201 -725h-92l-49 189h-231l-49 -189h-86zM162 254h197l-98 384zM220 881h90v-104h-90v104z" />
<glyph unicode="&#x227;" horiz-adv-x="450" d="M176 -13q-68 0 -105 36t-37 110v15q0 61 41 96t117 63l118 42v45q0 57 -24 78.5t-67 21.5q-91 0 -91 -109v-11h-83v11q0 87 48 126.5t129 39.5q39 0 71.5 -7t56 -26t36.5 -52.5t13 -86.5v-41.5t-0.5 -64.5t-0.5 -63.5v-39.5v-56.5t1 -44.5t1.5 -36.5t2.5 -32.5h-82l-2 78 q-19 -45 -53.5 -68t-89.5 -23zM203 45q23 0 43 8.5t35 27t23.5 48.5t8.5 73v92l-88 -32q-49 -17 -73.5 -42t-24.5 -70v-12q0 -42 18 -67.5t58 -25.5zM176 722h78v-107h-78v107z" />
<glyph unicode="&#x232;" horiz-adv-x="491" d="M201 287l-193 438h90l148 -356l148 356h90l-194 -439v-286h-89v287zM128 864h238v-65h-238v65z" />
<glyph unicode="&#x233;" horiz-adv-x="400" d="M45 -116h29q19 0 31.5 2.5t21.5 10t15.5 22.5t12.5 41l11 39l-158 539h86l113 -424l105 424h80l-145 -544q-14 -54 -26.5 -87.5t-30 -51.5t-42 -24t-63.5 -6h-40v59zM82 696h231v-61h-231v61z" />
<glyph unicode="&#x237;" horiz-adv-x="207" d="M-22 -117h22q21 0 33 3.5t18.5 13.5t8 26t1.5 42v570h86v-570q0 -42 -7 -70t-22.5 -44t-42 -22.5t-65.5 -6.5h-32v58z" />
<glyph unicode="&#x272;" horiz-adv-x="462" d="M55 538h86v-88q15 43 50 71.5t87 28.5q74 0 103 -46.5t29 -144.5v-359h-86v331q0 37 -2.5 65.5t-11 48t-23.5 30t-39 10.5q-53 0 -80 -52q-25 -47 -27 -126v-339q0 -45 -7 -74t-23.5 -46t-44 -23.5t-68.5 -6.5h-29v59h15q24 0 38 4t21.5 14t9.5 27t2 43v573z" />
<glyph unicode="&#x275;" horiz-adv-x="467" d="M229 550q100 0 145.5 -59t45.5 -184v-77q0 -125 -45.5 -184t-145.5 -59t-145.5 59t-45.5 184v77q0 125 45.5 184t145.5 59zM229 489q-32 0 -51.5 -13t-30.5 -38t-15.5 -60t-4.5 -80h204q0 45 -4.5 80t-15.5 60t-31 38t-51 13zM229 49q31 0 50.5 12.5t31 36.5t15.5 58 t5 78h-204q0 -44 4.5 -78t15.5 -58t31 -36.5t51 -12.5z" />
<glyph unicode="&#x2c6;" horiz-adv-x="347" d="M135 725h76l111 -119h-78l-70 70l-70 -70h-79z" />
<glyph unicode="&#x2c7;" horiz-adv-x="347" d="M25 725h79l70 -70l70 70h78l-111 -119h-75z" />
<glyph unicode="&#x2d8;" horiz-adv-x="311" d="M155 605q-68 0 -97 33.5t-33 86.5h62q3 -36 20 -52.5t48 -16.5t48.5 16.5t20.5 52.5h62q-5 -53 -33.5 -86.5t-97.5 -33.5z" />
<glyph unicode="&#x2d9;" horiz-adv-x="128" d="M25 722h78v-107h-78v107z" />
<glyph unicode="&#x2da;" horiz-adv-x="229" d="M114 726q-18 0 -33 -13t-15 -35q0 -21 15 -34.5t33 -13.5q20 0 34.5 13.5t14.5 34.5q0 22 -14.5 35t-34.5 13zM114 593q-37 0 -63 23.5t-26 61.5q0 37 26.5 61t62.5 24q38 0 64 -24t26 -61q0 -38 -26 -61.5t-64 -23.5z" />
<glyph unicode="&#x2db;" horiz-adv-x="220" d="M135 -188q-21 0 -41 5t-35 15t-24.5 25.5t-9.5 36.5q0 15 7 31t19 30.5t27.5 26t31.5 18.5h85q-38 -19 -64.5 -44t-26.5 -50q0 -20 14 -30.5t37 -10.5q13 0 22 2.5t18 5.5v-53q-30 -8 -60 -8z" />
<glyph unicode="&#x2dc;" horiz-adv-x="350" d="M25 613q2 31 10 52.5t19.5 34.5t26.5 18.5t31 5.5q18 0 35.5 -7.5t33 -17t29.5 -17t26 -7.5q13 0 21 11.5t10 37.5h58q-2 -32 -10.5 -53t-20.5 -34t-26 -18.5t-29 -5.5q-18 0 -34.5 8t-32 17t-29 17t-25.5 8q-14 0 -23.5 -12t-11.5 -38h-58v0z" />
<glyph unicode="&#x2dd;" horiz-adv-x="375" d="M247 725h103l-101 -119h-68zM91 725h103l-101 -119h-68z" />
<glyph unicode="&#x32c;" horiz-adv-x="396" d="M25 0h71l101 -83l103 83h72l-148 -138h-54z" />
<glyph unicode="&#x394;" horiz-adv-x="663" d="M539 71l-207 502l-207 -502h414zM332 742l319 -742h-639z" />
<glyph unicode="&#x3a9;" horiz-adv-x="750" d="M88 76h170v74q-35 11 -69 34t-61 58t-43.5 81.5t-16.5 104.5q0 74 23 132t64 97.5t97 60t123 20.5t123 -20.5t97 -60t64 -97.5t23 -132q0 -58 -16.5 -104.5t-43.5 -81.5t-61.5 -58t-70.5 -34v-74h172v-76h-244v195q40 9 73.5 29.5t57 50.5t36.5 68.5t13 83.5 q0 57 -16 102t-45.5 76.5t-70.5 48t-91 16.5q-51 0 -92 -16.5t-70.5 -48t-45.5 -76.5t-16 -102q0 -45 13 -83.5t37 -68.5t57 -50.5t74 -29.5v-195h-244v76z" />
<glyph unicode="&#x3bc;" horiz-adv-x="459" d="M184 -13q-26 0 -46 6v-7q0 -55 -2 -94.5t-7 -71.5h-87q5 32 7.5 69.5t2.5 88.5v166q-1 18 -1 38v356h87v-381q1 -8 1 -16q3 -28 11 -48t22 -30.5t38 -10.5q51 0 77 51.5t25 139.5v295h86v-538h-83v88q-14 -43 -47 -72t-84 -29z" />
<glyph unicode="&#x3c0;" horiz-adv-x="531" d="M96 467h-71v71h477v-71h-73v-320q0 -27 1 -43t7 -24.5t18 -11t34 -2.5h18v-66h-31q-36 0 -59.5 4.5t-37.5 19t-19.5 40.5t-5.5 69v334h-184v-467h-74v467z" />
<glyph unicode="&#x401;" horiz-adv-x="459" d="M73 725h366v-70h-276v-245h252v-71h-252v-269h276v-70h-366v725zM119 881h79v-104h-79v104zM317 881h79v-104h-79v104z" />
<glyph unicode="&#x402;" horiz-adv-x="623" d="M276 654v-231q19 8 44 13.5t67 5.5q46 0 83.5 -9.5t64 -35.5t41 -71t14.5 -116q0 -109 -51.5 -159.5t-157.5 -50.5h-48v59h41q36 0 60.5 11t39.5 31.5t21 48t6 60.5q0 51 -9 82.5t-26 49t-42 23.5t-57 6q-33 0 -55 -4.5t-36 -10.5v-356h-90v654h-178v71h446v-71h-178z " />
<glyph unicode="&#x403;" horiz-adv-x="442" d="M166 654v-654h-90v725h346v-71h-256zM285 886h113l-104 -113h-79z" />
<glyph unicode="&#x404;" horiz-adv-x="531" d="M408 499q0 92 -32.5 132.5t-98.5 40.5q-41 0 -67.5 -17.5t-42.5 -51.5t-22.5 -83.5t-7.5 -112.5h244v-64h-244q0 -69 6 -123t21.5 -91t42.5 -56t70 -19q66 0 98.5 40t32.5 132v4h88v-4q0 -116 -55 -177.5t-163 -61.5q-62 0 -106.5 19.5t-73 60.5t-42 103t-13.5 148v89 q0 85 13.5 147.5t42 103.5t73 60.5t106.5 19.5q108 0 163 -61.5t55 -176.5v-5h-88v4z" />
<glyph unicode="&#x405;" horiz-adv-x="507" d="M262 -13q-110 0 -169 59t-59 176v8h89v-8q0 -86 36 -127.5t102 -41.5q64 0 95 32.5t31 91.5q0 28 -7 49t-21 37t-34 28.5t-47 24.5l-89 42q-31 14 -57 30t-45.5 39t-30.5 54.5t-11 75.5t15 77.5t41.5 56.5t63.5 35t82 12q46 0 84.5 -12.5t66.5 -37.5t43 -63.5t15 -90.5 v-8h-87v8q0 66 -32.5 102t-89.5 36q-56 0 -86 -29.5t-30 -80.5q0 -26 5.5 -44.5t15.5 -32t25 -23t34 -17.5l94 -44q35 -15 66 -32.5t54.5 -41.5t37 -57.5t13.5 -81.5q0 -96 -55.5 -148.5t-158.5 -52.5z" />
<glyph unicode="&#x406;" horiz-adv-x="242" d="M76 725h90v-725h-90v725z" />
<glyph unicode="&#x407;" horiz-adv-x="235" d="M1 882h79v-104h-79v104zM155 882h79v-104h-79v104zM73 725h90v-725h-90v725z" />
<glyph unicode="&#x408;" horiz-adv-x="446" d="M191 -13q-98 0 -141.5 56t-43.5 157v10h90v-10q0 -76 20 -111t73 -35q54 0 74 35.5t20 110.5v525h90v-525q0 -109 -43.5 -161t-138.5 -52z" />
<glyph unicode="&#x409;" horiz-adv-x="809" d="M530 424q58 0 103.5 -11t76.5 -36t47 -65.5t16 -98.5q0 -65 -18 -106t-50.5 -65t-77 -33t-97.5 -9h-148v655h-140l-6 -164q-2 -58 -7 -122t-13.5 -123t-20 -107t-27.5 -75q-20 -34 -51 -52t-79 -19h-16v82h11q27 0 44 12t28 33q10 21 18.5 65.5t15 103t10.5 124.5t6 129 l5 183h312v-301h58zM524 65q37 0 66.5 6.5t50 23t31.5 44.5t11 71q0 82 -39 115.5t-120 33.5h-52v-294h52z" />
<glyph unicode="&#x40a;" horiz-adv-x="799" d="M518 410q57 0 102.5 -8.5t77 -31t48.5 -62.5t17 -102q0 -64 -17 -104.5t-48.5 -63t-77 -30.5t-102.5 -8h-128v339h-224v-339h-90v725h90v-315h224v315h86v-315h42zM476 64h36q39 0 68 5.5t48.5 21t29.5 43.5t10 73q0 42 -10 68t-29.5 40t-48.5 19t-68 5h-36v-275z" />
<glyph unicode="&#x40b;" horiz-adv-x="640" d="M276 655v-232q19 8 44 13.5t67 5.5q46 0 83.5 -9.5t64 -35.5t41 -71t14.5 -116v-210h-90v206q0 52 -9 84.5t-26 50.5t-41.5 24t-56.5 6q-33 0 -55 -4.5t-36 -10.5v-356h-90v655h-178v70h447v-70h-179z" />
<glyph unicode="&#x40c;" horiz-adv-x="508" d="M410 0l-154 339h-90v-339h-90v725h90v-315h88l160 315h89l-180 -339l179 -386h-92zM291 886h113l-104 -113h-79z" />
<glyph unicode="&#x40e;" horiz-adv-x="497" d="M286 131q-15 -42 -27.5 -68t-29 -40t-39.5 -18.5t-57 -4.5h-62v72h62q16 0 27 2t19.5 9.5t15.5 21t16 36.5l9 28l-219 556h89l168 -443l148 443h86zM386 886q-2 -58 -35 -85.5t-108 -27.5t-108 27.5t-35 85.5h62q2 -36 22.5 -47.5t58.5 -11.5t58.5 11.5t22.5 47.5h62z " />
<glyph unicode="&#x40f;" horiz-adv-x="585" d="M335 -138h-85v138h-174v725h90v-654h253v654h90v-725h-174v-138z" />
<glyph unicode="&#x410;" horiz-adv-x="527" d="M210 725h106l201 -725h-92l-49 189h-231l-49 -189h-86zM162 254h197l-98 384z" />
<glyph unicode="&#x411;" horiz-adv-x="531" d="M166 656v-243h92q64 0 108.5 -14t72.5 -40t40.5 -63.5t12.5 -84.5q0 -60 -16.5 -100.5t-47 -65t-73.5 -35t-97 -10.5h-182v725h374v-69h-284zM166 65h86q81 0 114 38.5t33 108.5q0 71 -34 105.5t-119 34.5h-80v-287z" />
<glyph unicode="&#x412;" horiz-adv-x="523" d="M76 725h167q51 0 93 -8t72.5 -28.5t47 -55.5t16.5 -89q0 -66 -32 -106.5t-85 -54.5q62 -14 101 -56.5t39 -118.5q0 -59 -16.5 -98.5t-47.5 -64t-74.5 -35t-98.5 -10.5h-182v725zM253 65q42 0 71 10t47 28.5t26 45t8 59.5q0 70 -34.5 103.5t-124.5 33.5h-80v-280h87z M242 407q69 0 105 30t36 99q0 66 -35 95.5t-106 29.5h-76v-254h76z" />
<glyph unicode="&#x413;" horiz-adv-x="442" d="M166 654v-654h-90v725h346v-71h-256z" />
<glyph unicode="&#x414;" horiz-adv-x="592" d="M484 -138v138h-389v-138h-80v209h29q12 0 26.5 12t25.5 33q10 21 18.5 66.5t15 104.5t10.5 125.5t6 129.5l5 183h352v-654h61v-209h-80zM233 655l-6 -164q-2 -58 -7 -119t-13.5 -116t-20 -100t-27.5 -72l-8 -13h262v584h-180z" />
<glyph unicode="&#x415;" horiz-adv-x="467" d="M76 725h366v-70h-276v-245h252v-71h-252v-269h276v-70h-366v725z" />
<glyph unicode="&#x416;" horiz-adv-x="727" d="M406 0h-85v339h-78l-143 -339h-94l170 386l-166 339h89l146 -315h76v315h85v-315h76l146 315h89l-166 -339l170 -386h-94l-143 339h-78v-339z" />
<glyph unicode="&#x417;" horiz-adv-x="492" d="M50 505q0 57 14.5 100.5t40.5 72.5t62.5 44t81.5 15q37 0 71.5 -10.5t61 -33t42.5 -58t16 -86.5q0 -127 -111 -167q29 -7 53 -20.5t41.5 -36t27 -54t9.5 -73.5q0 -55 -16 -95t-44.5 -65.5t-66.5 -38t-83 -12.5q-101 0 -155.5 58.5t-54.5 167.5v4h87v-4q0 -81 33 -120.5 t89 -39.5q61 0 91 42.5t30 113.5q0 69 -34 102.5t-120 33.5h-52v62h48q64 0 102.5 31.5t38.5 105.5q0 27 -5.5 50t-18 40t-32 27.5t-47.5 10.5q-54 1 -87 -40t-33 -128v-4h-80v5z" />
<glyph unicode="&#x418;" horiz-adv-x="581" d="M424 0v562l-272 -562h-76v725h81v-563l272 563h76v-725h-81z" />
<glyph unicode="&#x419;" horiz-adv-x="581" d="M443 886q-2 -58 -35 -85.5t-108 -27.5t-108 27.5t-35 85.5h62q2 -36 22.5 -47.5t58.5 -11.5t58.5 11.5t22.5 47.5h62zM424 0v562l-272 -562h-76v725h81v-563l272 563h76v-725h-81z" />
<glyph unicode="&#x41a;" horiz-adv-x="508" d="M410 0l-154 339h-90v-339h-90v725h90v-315h88l160 315h89l-180 -339l179 -386h-92z" />
<glyph unicode="&#x41b;" horiz-adv-x="588" d="M422 0v655h-180l-6 -164q-2 -58 -7 -122t-13.5 -123t-20 -107t-27.5 -75q-20 -34 -51 -52t-79 -19h-16v82h11q27 0 44 12t28 33q10 21 18.5 65.5t15 103t10.5 124.5t6 129l5 183h352v-725h-90z" />
<glyph unicode="&#x41c;" horiz-adv-x="732" d="M76 725h131l159 -622l160 622h129v-725h-82v632h-2l-8 -39l-159 -593h-78l-159 593l-7 39h-2v-632h-82v725z" />
<glyph unicode="&#x41d;" horiz-adv-x="585" d="M76 725h90v-315h253v315h90v-725h-90v339h-253v-339h-90v725z" />
<glyph unicode="&#x41e;" horiz-adv-x="563" d="M281 672q-44 0 -71.5 -19.5t-44 -56.5t-22.5 -91t-6 -123v-39q0 -69 6 -123t22.5 -91t44 -56t71.5 -19q43 0 71 19t44.5 56t22.5 91t6 123v39q0 69 -6 123t-22.5 91t-44.5 56.5t-71 19.5zM281 738q124 0 181 -80t57 -251v-89q0 -171 -57 -251t-181 -80q-125 0 -181.5 80 t-56.5 251v89q0 171 56.5 251t181.5 80z" />
<glyph unicode="&#x41f;" horiz-adv-x="580" d="M414 0v655h-248v-655h-90v725h428v-725h-90z" />
<glyph unicode="&#x420;" horiz-adv-x="515" d="M76 725h160q62 0 110 -8t80.5 -31t49.5 -64t17 -107q0 -65 -17 -106t-49.5 -64.5t-80.5 -32.5t-110 -9h-70v-303h-90v725zM230 369q43 0 75 5t52.5 21t30.5 44.5t10 75.5q0 46 -10 75t-30.5 44.5t-52.5 21t-75 5.5h-64v-292h64z" />
<glyph unicode="&#x421;" horiz-adv-x="528" d="M278 -13q-62 0 -106.5 19.5t-73 60.5t-42 103t-13.5 148v89q0 85 13.5 147.5t42 103.5t73 60.5t106.5 19.5q108 0 163 -61.5t55 -176.5v-5h-88v4q0 92 -32.5 132.5t-98.5 40.5q-43 0 -70 -19.5t-42.5 -56.5t-21.5 -91t-6 -123v-39q0 -69 6 -123t21.5 -91t42.5 -56t70 -19 q66 0 98.5 40t32.5 132v4h88v-4q0 -116 -55 -177.5t-163 -61.5z" />
<glyph unicode="&#x422;" horiz-adv-x="455" d="M182 655h-178v70h447v-70h-179v-655h-90v655z" />
<glyph unicode="&#x423;" horiz-adv-x="497" d="M286 131q-15 -42 -27.5 -68t-29 -40t-39.5 -18.5t-57 -4.5h-62v72h62q16 0 27 2t19.5 9.5t15.5 21t16 36.5l9 28l-219 556h89l168 -443l148 443h86z" />
<glyph unicode="&#x424;" horiz-adv-x="718" d="M401 684q147 -3 211 -68.5t64 -195.5v-108q0 -120 -64 -182t-211 -66v-84h-86v84q-146 3 -209.5 65t-63.5 184v107q0 128 63.5 194t209.5 70v81h86v-81zM315 619q-58 -2 -94 -16t-56.5 -41t-27.5 -68t-7 -95v-66q0 -50 7 -87t27.5 -62t56.5 -38.5t94 -15.5v489zM401 129 q59 1 95.5 14.5t57 39t27.5 63.5t7 88v65q0 54 -7 95t-27.5 68t-57 41t-95.5 16v-490z" />
<glyph unicode="&#x425;" horiz-adv-x="498" d="M202 373l-183 352h94l134 -267l139 267h91l-185 -344l198 -381h-93l-151 294l-152 -294h-91z" />
<glyph unicode="&#x426;" horiz-adv-x="598" d="M490 -138v138h-414v725h90v-654h253v654h90v-654h61v-209h-80z" />
<glyph unicode="&#x427;" horiz-adv-x="520" d="M354 0v301q-17 -9 -49 -19t-81 -10q-39 0 -72.5 9.5t-58 35.5t-39 71t-14.5 116v221h90v-217q0 -52 9 -84.5t25.5 -50.5t40.5 -24t55 -6q32 0 52 5.5t42 19.5v357h90v-725h-90z" />
<glyph unicode="&#x428;" horiz-adv-x="809" d="M76 0v725h90v-654h193v654h90v-654h194v654h90v-725h-657z" />
<glyph unicode="&#x429;" horiz-adv-x="818" d="M790 -138h-85v138h-629v725h90v-654h193v654h90v-654h194v654h90v-654h57v-209z" />
<glyph unicode="&#x42a;" horiz-adv-x="632" d="M358 424q64 0 109 -14.5t73.5 -42.5t41.5 -67.5t13 -90.5q0 -59 -16.5 -99t-47.5 -64.5t-74.5 -35t-98.5 -10.5h-173v654h-161v71h251v-301h83zM353 65q85 0 118.5 39.5t33.5 114.5q0 74 -34.5 108.5t-124.5 34.5h-71v-297h78z" />
<glyph unicode="&#x42b;" horiz-adv-x="707" d="M239 424q64 0 109 -14.5t73.5 -42.5t41.5 -67.5t13 -90.5q0 -59 -16.5 -99t-47.5 -64.5t-74.5 -35t-98.5 -10.5h-163v725h90v-301h73zM234 65q85 0 118.5 39.5t33.5 114.5q0 74 -34.5 108.5t-124.5 34.5h-61v-297h68zM541 725h90v-725h-90v725z" />
<glyph unicode="&#x42c;" horiz-adv-x="522" d="M244 65q85 0 118.5 39.5t33.5 114.5q0 74 -34.5 108.5t-124.5 34.5h-71v-297h78zM249 424q64 0 109 -14.5t73.5 -42.5t41.5 -67.5t13 -90.5q0 -59 -16.5 -99t-47.5 -64.5t-74.5 -35t-98.5 -10.5h-173v725h90v-301h83z" />
<glyph unicode="&#x42d;" horiz-adv-x="530" d="M40 500q0 115 55.5 176.5t162.5 61.5q124 0 178.5 -80t54.5 -251v-88q0 -171 -54.5 -251.5t-178.5 -80.5q-107 0 -162.5 61.5t-55.5 177.5v5h89v-4q0 -91 32 -131.5t97 -40.5q43 0 70.5 19t43.5 56t22 90.5t6 122.5h-249v64h249q-1 63 -8 112.5t-23 83t-43 51t-68 17.5 q-65 0 -97 -40.5t-32 -131.5v-4h-89v5z" />
<glyph unicode="&#x42e;" horiz-adv-x="753" d="M271 410q1 169 54 248.5t156 79.5q117 0 172.5 -80t55.5 -251v-89q0 -171 -55.5 -251t-172.5 -80q-104 0 -157 80t-53 251v21h-105v-339h-90v725h90v-315h105zM616 382q0 69 -6 123t-21.5 91t-41.5 56.5t-66 19.5q-66 0 -91 -75.5t-25 -214.5v-39q0 -139 25 -214t91 -75 q40 0 66 19t41.5 56t21.5 91t6 123v39z" />
<glyph unicode="&#x42f;" horiz-adv-x="528" d="M303 660q-71 0 -108.5 -32.5t-37.5 -112.5q0 -78 34 -112t86 -34h85v291h-59zM362 0v303h-101l-138 -303h-92l154 327q-51 18 -84.5 65.5t-33.5 122.5q0 60 16.5 100.5t46.5 64.5t72.5 34.5t94.5 10.5h155v-725h-90z" />
<glyph unicode="&#x430;" horiz-adv-x="450" d="M176 -13q-68 0 -105 36t-37 110v15q0 61 41 96t117 63l118 42v45q0 57 -24 78.5t-67 21.5q-91 0 -91 -109v-11h-83v11q0 87 48 126.5t129 39.5q39 0 71.5 -7t56 -26t36.5 -52.5t13 -86.5v-41.5t-0.5 -64.5t-0.5 -63.5v-39.5v-56.5t1 -44.5t1.5 -36.5t2.5 -32.5h-82l-2 78 q-19 -45 -53.5 -68t-89.5 -23zM203 45q23 0 43 8.5t35 27t23.5 48.5t8.5 73v92l-88 -32q-49 -17 -73.5 -42t-24.5 -70v-12q0 -42 18 -67.5t58 -25.5z" />
<glyph unicode="&#x431;" horiz-adv-x="464" d="M394 648q-16 -4 -33.5 -6t-45.5 -5q-45 -5 -82.5 -16.5t-65 -37.5t-44.5 -69t-20 -110q22 57 64.5 80t90.5 23q85 0 126 -57t41 -158v-57q1 -125 -45.5 -186.5t-144.5 -61.5t-144.5 62.5t-46.5 193.5v141q0 86 17.5 146t51 99t81.5 59.5t109 26.5q32 3 52 4.5t39 5.5v-77 zM337 273q0 36 -3.5 67.5t-14.5 54.5t-30.5 36.5t-51.5 13.5q-27 0 -47 -13.5t-32.5 -36t-18.5 -52.5t-6 -64v-28q0 -47 4.5 -84.5t15.5 -63.5t30 -40t49 -14q34 0 55 14t32 40t14.5 63.5t3.5 84.5v22z" />
<glyph unicode="&#x432;" horiz-adv-x="447" d="M207 538q44 0 79.5 -6t60 -21t38 -41t13.5 -66q0 -51 -22 -79t-61 -39q47 -11 74.5 -42t27.5 -90q0 -44 -13.5 -73.5t-37.5 -47.5t-57.5 -25.5t-73.5 -7.5h-170v538h142zM150 306h60q51 0 76.5 19.5t25.5 70.5q0 50 -25 70.5t-77 20.5h-60v-181zM150 52h67 q63 0 87.5 26.5t24.5 77.5q0 52 -25.5 76.5t-90.5 24.5h-63v-205z" />
<glyph unicode="&#x433;" horiz-adv-x="342" d="M152 479v-479h-87v538h262v-59h-175z" />
<glyph unicode="&#x434;" horiz-adv-x="480" d="M378 -122v122h-295v-122h-77v181h32q16 0 27.5 25.5t19.5 68t12.5 99.5t6.5 120l6 166h292v-479h53v-181h-77zM183 479l-5 -140q-4 -96 -18 -168t-38 -112h195v420h-134z" />
<glyph unicode="&#x435;" horiz-adv-x="451" d="M230 -13q-100 0 -145.5 59.5t-45.5 182.5v79q0 123 46 182.5t146 59.5t143.5 -59.5t43.5 -188.5v-41h-292v-15q0 -46 4 -82.5t15.5 -62t32 -39t52.5 -13.5q96 0 96 118v5h84v-5q0 -96 -47.5 -138t-132.5 -42zM126 317h205v7q0 39 -4 70t-15 52t-30 32t-50 11 q-32 0 -52.5 -11.5t-32.5 -33.5t-16.5 -52.5t-4.5 -68.5v-6z" />
<glyph unicode="&#x436;" horiz-adv-x="605" d="M343 0h-83v242h-44l-125 -242h-82l145 279l-137 259h79l122 -238h42v238h83v-238h42l120 238h81l-135 -257l145 -281h-83l-126 242h-44v-242z" />
<glyph unicode="&#x437;" horiz-adv-x="411" d="M38 365q0 47 13 82t35.5 57.5t52.5 33.5t65 11q72 0 116.5 -37.5t44.5 -110.5q0 -43 -18 -71.5t-63 -44.5q44 -12 70.5 -43.5t26.5 -91.5q0 -41 -13 -71t-36 -50.5t-55 -30.5t-71 -10q-82 0 -130.5 45.5t-48.5 139.5v4h78v-4q0 -57 25 -90t78 -33q48 0 69 27.5t21 78.5 q0 52 -24 74t-84 22h-29v58h25q49 0 75 18t26 68q0 48 -22.5 69.5t-60.5 21.5q-42 0 -64.5 -31.5t-22.5 -90.5v-4h-79v4z" />
<glyph unicode="&#x438;" horiz-adv-x="494" d="M349 0v394l-217 -394h-67v538h80v-397l216 397h68v-538h-80z" />
<glyph unicode="&#x439;" horiz-adv-x="494" d="M349 0v394l-217 -394h-67v538h80v-397l216 397h68v-538h-80zM249 605q-68 0 -97 33.5t-33 86.5h62q3 -36 20 -52.5t48 -16.5t48.5 16.5t20.5 52.5h62q-5 -53 -33.5 -86.5t-97.5 -33.5z" />
<glyph unicode="&#x43a;" horiz-adv-x="439" d="M151 0h-86v538h86v-238h57l137 238h88l-153 -258l154 -280h-90l-135 242h-58v-242z" />
<glyph unicode="&#x43b;" horiz-adv-x="482" d="M332 0v479h-129l-6 -140q-3 -72 -12.5 -134.5t-27.5 -108.5t-45.5 -72.5t-66.5 -26.5h-30v71h17q22 0 38 24t27 65t17.5 96.5t8.5 118.5l7 166h287v-538h-85z" />
<glyph unicode="&#x43c;" horiz-adv-x="624" d="M480 0v420l-137 -420h-63l-136 410v-410h-79v538h100l150 -439l139 439h105v-538h-79z" />
<glyph unicode="&#x43d;" horiz-adv-x="487" d="M337 0v242h-187v-242h-85v538h85v-238h187v238h85v-538h-85z" />
<glyph unicode="&#x43e;" horiz-adv-x="457" d="M229 489q-33 0 -53 -14t-31 -40.5t-14.5 -64t-3.5 -84.5v-35q0 -47 3.5 -84.5t14.5 -63.5t31 -40t53 -14t53 14t31 40t14.5 63.5t3.5 84.5v35q0 47 -3.5 84.5t-14.5 64t-31 40.5t-53 14zM229 550q100 0 145.5 -59t45.5 -184v-77q0 -125 -45.5 -184t-145.5 -59t-145.5 59 t-45.5 184v77q0 125 45.5 184t145.5 59z" />
<glyph unicode="&#x43f;" horiz-adv-x="487" d="M337 0v479h-187v-479h-85v538h357v-538h-85z" />
<glyph unicode="&#x440;" horiz-adv-x="486" d="M287 551q161 0 161 -242v-79q0 -242 -161 -242q-51 0 -87 29t-49 71v-263h-86v713h86v-86q13 42 49 70.5t87 28.5zM263 487q-56 0 -85.5 -55.5t-29.5 -161.5t29.5 -162t85.5 -56t76 52t20 151v29q0 100 -20 151.5t-76 51.5z" />
<glyph unicode="&#x441;" horiz-adv-x="435" d="M229 -13q-100 0 -145.5 59t-45.5 185v76q0 124 45.5 183.5t145.5 59.5q37 0 69 -11t55 -34t36 -58t13 -83v-6h-81v6q0 124 -92 124q-33 0 -53.5 -14t-31 -39.5t-14 -62t-3.5 -81.5v-45q0 -46 3.5 -82.5t14 -62t31 -39t53.5 -13.5q92 0 92 124v5h81v-6q0 -47 -13 -81.5 t-36 -57.5t-55 -34.5t-69 -11.5z" />
<glyph unicode="&#x442;" horiz-adv-x="392" d="M239 479v-479h-87v479h-146v59h380v-59h-147z" />
<glyph unicode="&#x443;" horiz-adv-x="400" d="M45 -116h29q19 0 31.5 2.5t21.5 10t15.5 22.5t12.5 41l11 39l-158 539h86l113 -424l105 424h80l-145 -544q-14 -54 -26.5 -87.5t-30 -51.5t-42 -24t-63.5 -6h-40v59z" />
<glyph unicode="&#x444;" horiz-adv-x="611" d="M346 550q121 0 174.5 -59.5t53.5 -183.5v-77q0 -125 -53.5 -184.5t-174.5 -58.5v-162h-81v162q-121 0 -174.5 59t-53.5 184v77q0 124 53.5 183.5t174.5 59.5v175h81v-175zM265 489q-45 0 -73 -14t-43 -40.5t-20.5 -64t-5.5 -84.5v-35q0 -47 5.5 -84.5t20.5 -63.5t43 -40 t73 -14v440zM346 49q45 0 73 13.5t43 40t20.5 64t5.5 84.5v35q0 47 -5.5 84.5t-20.5 64t-43 40.5t-73 14v-440z" />
<glyph unicode="&#x445;" horiz-adv-x="388" d="M151 276l-141 262h88l97 -182l100 182h84l-142 -260l149 -278h-87l-106 198l-109 -198h-85z" />
<glyph unicode="&#x446;" horiz-adv-x="495" d="M393 -122v122h-328v538h85v-479h183v479h84v-479h53v-181h-77z" />
<glyph unicode="&#x447;" horiz-adv-x="437" d="M287 0v242q-25 -10 -52 -18t-66 -8q-70 0 -103.5 37.5t-33.5 117.5v167h85v-157q0 -53 17.5 -76.5t67.5 -23.5q19 0 41 4.5t44 18.5v234h85v-538h-85z" />
<glyph unicode="&#x448;" horiz-adv-x="676" d="M65 0v538h85v-479h146v479h85v-479h146v479h84v-538h-546z" />
<glyph unicode="&#x449;" horiz-adv-x="689" d="M587 -122v122h-522v538h85v-479h146v479h85v-479h146v479h84v-479h53v-181h-77z" />
<glyph unicode="&#x44a;" horiz-adv-x="478" d="M219 52h50q56 0 79 27t23 80q0 57 -25 81.5t-81 24.5h-46v-213zM280 314q51 0 85.5 -10.5t55.5 -31t30 -49.5t9 -65q0 -45 -13 -75.5t-36.5 -48.5t-55 -26t-68.5 -8h-155v479h-132v59h219v-224h61z" />
<glyph unicode="&#x44b;" horiz-adv-x="631" d="M223 314q54 0 90 -10.5t57 -31t30 -49.5t9 -65q0 -45 -13.5 -75.5t-37.5 -48.5t-57.5 -26t-73.5 -8h-162v538h87v-224h71zM152 52h60q61 0 85 27t24 80q0 57 -26 81.5t-87 24.5h-56v-213zM480 538h86v-538h-86v538z" />
<glyph unicode="&#x44c;" horiz-adv-x="427" d="M219 314q89 0 139.5 -41.5t50.5 -114.5q0 -45 -13.5 -75.5t-37.5 -48.5t-57.5 -26t-74.5 -8h-161v538h86v-224h68zM151 52h57q63 0 87.5 27t24.5 80q0 57 -26.5 81.5t-89.5 24.5h-53v-213z" />
<glyph unicode="&#x44d;" horiz-adv-x="439" d="M38 368q0 46 13 80.5t36.5 57t55.5 33.5t70 11q99 0 143 -60.5t44 -183.5v-75q0 -122 -44 -183t-143 -61q-38 0 -70 11t-55.5 33.5t-36.5 57t-13 80.5v4h82v-4q0 -120 93 -120q34 0 54.5 13t31.5 38t14.5 61.5t3.5 83.5h-189v57h189q0 43 -4 77.5t-15 58.5t-31.5 37 t-53.5 13q-93 0 -93 -120v-4h-82v4z" />
<glyph unicode="&#x44e;" horiz-adv-x="630" d="M231 307q0 125 43.5 184t128.5 59q97 0 143 -59t46 -184v-77q0 -125 -46 -184t-143 -59q-85 0 -128.5 59t-43.5 184v12h-81v-242h-85v538h85v-238h81v7zM504 286q0 47 -3.5 84.5t-14.5 64t-31 40.5t-52 14q-25 0 -41 -14t-25.5 -40.5t-13 -64t-3.5 -84.5v-35 q0 -95 16.5 -148.5t66.5 -53.5q32 0 52 14t31 40t14.5 63.5t3.5 84.5v35z" />
<glyph unicode="&#x44f;" horiz-adv-x="453" d="M302 0v224h-80l-109 -224h-91l123 247q-48 14 -74.5 48.5t-26.5 84.5q0 45 13.5 75.5t37.5 48.5t57.5 26t74.5 8h161v-538h-86zM245 486q-67 0 -92 -27t-25 -80q0 -49 30.5 -77.5t90.5 -28.5h53v213h-57z" />
<glyph unicode="&#x451;" horiz-adv-x="451" d="M94 722h78v-107h-78v107zM293 722h78v-107h-78v107zM230 -13q-100 0 -145.5 59.5t-45.5 182.5v79q0 123 46 182.5t146 59.5t143.5 -59.5t43.5 -188.5v-41h-292v-15q0 -46 4 -82.5t15.5 -62t32 -39t52.5 -13.5q96 0 96 118v5h84v-5q0 -96 -47.5 -138t-132.5 -42zM126 317 h205v7q0 39 -4 70t-15 52t-30 32t-50 11q-32 0 -52.5 -11.5t-32.5 -33.5t-16.5 -52.5t-4.5 -68.5v-6z" />
<glyph unicode="&#x452;" horiz-adv-x="464" d="M355 572v-59h-201v-200q14 42 49.5 70.5t87.5 28.5q75 0 104 -46t29 -144v-246q0 -43 -8 -72t-25 -46.5t-44 -25t-64 -7.5h-32v58h21q21 0 34 3t20 12t9.5 24.5t2.5 41.5v240q0 67 -15.5 105t-63.5 38q-52 0 -78.5 -50.5t-26.5 -140.5v-156h-86v513h-68v59h68v153h86 v-153h201z" />
<glyph unicode="&#x453;" horiz-adv-x="344" d="M152 479v-479h-87v538h262v-59h-175zM226 725h103l-101 -119h-68z" />
<glyph unicode="&#x454;" horiz-adv-x="440" d="M39 306q0 123 45 183.5t144 60.5q38 0 70 -11t55.5 -33.5t36.5 -57t13 -80.5v-4h-82v4q0 120 -93 120q-33 0 -53 -13t-31.5 -37t-15.5 -58.5t-4 -77.5h189v-57h-189q0 -47 3.5 -83.5t15 -61.5t32 -38t53.5 -13q93 0 93 120v4h82v-4q0 -46 -13 -80.5t-36.5 -57 t-55.5 -33.5t-70 -11q-99 0 -144 61t-45 183v75z" />
<glyph unicode="&#x455;" horiz-adv-x="422" d="M212 -13q-83 0 -133.5 42.5t-50.5 135.5v5h83v-6q0 -56 26 -85.5t74 -29.5q42 0 70 19t28 61q0 36 -15 57.5t-58 38.5l-79 30q-25 9 -46.5 22.5t-37 32t-24 42.5t-8.5 55q0 36 12.5 63t34.5 44.5t52.5 26.5t65.5 9q34 0 65 -9.5t54 -29t37 -49.5t14 -71v-5h-81v5 q0 53 -28 75.5t-64 22.5q-33 0 -59.5 -18.5t-26.5 -56.5q0 -31 15.5 -48t50.5 -31l79 -31q59 -23 92 -61t33 -105q0 -38 -14 -66.5t-37.5 -47.5t-55.5 -28t-68 -9z" />
<glyph unicode="&#x456;" horiz-adv-x="207" d="M61 538h86v-538h-86v538zM61 725h86v-109h-86v109z" />
<glyph unicode="&#x457;" horiz-adv-x="202" d="M-6 725h78v-107h-78v107zM130 725h77v-107h-77v107zM61 538h86v-538h-86v538z" />
<glyph unicode="&#x458;" horiz-adv-x="207" d="M-22 -117h22q21 0 33 3.5t18.5 13.5t8 26t1.5 42v570h86v-570q0 -42 -7 -70t-22.5 -44t-42 -22.5t-65.5 -6.5h-32v58zM61 725h86v-109h-86v109z" />
<glyph unicode="&#x459;" horiz-adv-x="642" d="M449 314q49 0 83 -10.5t54 -31t29 -49.5t9 -65q0 -45 -13 -75.5t-35.5 -48.5t-53.5 -26t-66 -8h-150v479h-104l-6 -140q-3 -72 -12.5 -134.5t-27.5 -108.5t-45.5 -72.5t-66.5 -26.5h-30v71h13q24 0 41 24t28 65t17.5 96.5t8.5 118.5l7 166h262v-224h58zM438 52 q52 0 74.5 27t22.5 80q0 57 -24.5 81.5t-76.5 24.5h-43v-213h47z" />
<glyph unicode="&#x45a;" horiz-adv-x="662" d="M454 300q98 0 144 -41t46 -111q0 -41 -13.5 -69.5t-37.5 -46t-57.5 -25t-74.5 -7.5h-144v242h-166v-242h-86v538h86v-238h166v238h86v-238h51zM403 52h40q64 0 88 26t24 71q0 23 -5 40.5t-18 29t-35.5 17.5t-57.5 6h-36v-190z" />
<glyph unicode="&#x45b;" horiz-adv-x="467" d="M355 572v-59h-201v-200q14 42 49.5 70.5t87.5 28.5q75 0 104 -46t29 -144v-222h-86v204q0 67 -16 105t-63 38q-51 0 -78 -50.5t-27 -140.5v-156h-86v513h-68v59h68v153h86v-153h201z" />
<glyph unicode="&#x45c;" horiz-adv-x="439" d="M151 0h-86v538h86v-238h57l137 238h88l-153 -258l154 -280h-90l-135 242h-58v-242zM258 725h103l-101 -119h-68z" />
<glyph unicode="&#x45e;" horiz-adv-x="400" d="M45 -116h29q19 0 31.5 2.5t21.5 10t15.5 22.5t12.5 41l11 39l-158 539h86l113 -424l105 424h80l-145 -544q-14 -54 -26.5 -87.5t-30 -51.5t-42 -24t-63.5 -6h-40v59zM194 605q-68 0 -97 33.5t-33 86.5h62q3 -36 20 -52.5t48 -16.5t48.5 16.5t20.5 52.5h62 q-5 -53 -33.5 -86.5t-97.5 -33.5z" />
<glyph unicode="&#x45f;" horiz-adv-x="483" d="M280 -122h-77v122h-138v538h85v-479h184v479h84v-538h-138v-122z" />
<glyph unicode="&#x462;" horiz-adv-x="536" d="M406 596v-62h-212v-110h58q62 0 108.5 -10t77.5 -34t46.5 -64.5t15.5 -102.5q0 -66 -17 -107.5t-48.5 -65t-78 -32t-104.5 -8.5h-148v534h-104v62h104v129h90v-129h212zM194 64h52q40 0 70 5.5t49.5 21t29.5 44t10 75.5q0 48 -10 77t-29.5 44.5t-49.5 21t-70 5.5h-52 v-294z" />
<glyph unicode="&#x463;" horiz-adv-x="445" d="M221 314q55 0 91.5 -10.5t58.5 -31t31 -49.5t9 -65q0 -45 -13.5 -75.5t-37.5 -48.5t-57.5 -26t-74.5 -8h-161v513h-67v59h67v153h86v-153h202v-59h-202v-199h68zM210 52q63 0 87.5 27t24.5 80q0 57 -26.5 81.5t-89.5 24.5h-53v-213h57z" />
<glyph unicode="&#x472;" horiz-adv-x="563" d="M43 407q0 171 56.5 251t181.5 80q124 0 181 -80t57 -251v-89q0 -171 -57 -251t-181 -80q-125 0 -181.5 80t-56.5 251v89zM426 407q-1 63 -8 112.5t-23.5 83.5t-44 51.5t-69.5 17.5t-69 -17.5t-43.5 -51.5t-23.5 -83.5t-8 -112.5h289zM137 343q0 -69 6 -123t22.5 -91 t44 -56t71.5 -19t72 19t44.5 56t22.5 91t6 123v1h-289v-1z" />
<glyph unicode="&#x473;" horiz-adv-x="457" d="M38 307q0 125 46 184t146 59q97 0 143 -59t46 -184v-77q0 -125 -46 -184t-143 -59q-100 0 -146 59t-46 184v77zM230 489q-31 0 -50.5 -12.5t-31 -36t-16 -57.5t-5.5 -77q10 6 21.5 8.5t22.5 2.5q17 0 33 -7t31 -15.5t28.5 -15.5t27.5 -7q34 0 40 37q-1 42 -5.5 75.5 t-15.5 56.5t-30.5 35.5t-49.5 12.5zM173 255q-20 0 -30.5 -10.5t-14.5 -34.5q1 -38 6 -68t16.5 -50.5t31 -31.5t48.5 -11t48 11.5t30.5 33.5t16.5 53.5t6 71.5q-9 -5 -19.5 -7t-21.5 -2q-18 0 -33.5 7t-29.5 15.5t-27.5 15.5t-26.5 7z" />
<glyph unicode="&#x474;" horiz-adv-x="543" d="M543 655q-27 0 -46.5 -4.5t-33.5 -17t-24.5 -34.5t-19.5 -58l-128 -541h-101l-181 725h91l143 -628l104 464q11 52 29.5 84t43.5 50t56 24t67 6v-70z" />
<glyph unicode="&#x475;" horiz-adv-x="424" d="M411 467q-25 0 -39 -15.5t-25 -60.5l-105 -391h-93l-141 538h87l104 -445l76 316q10 41 25 66t33 39t39 19t42 5h20v-71h-23z" />
<glyph unicode="&#x490;" horiz-adv-x="442" d="M166 655v-655h-90v725h261v118h85v-188h-256z" />
<glyph unicode="&#x491;" horiz-adv-x="346" d="M152 479v-479h-87v538h189v104h77v-163h-179z" />
<glyph unicode="&#x492;" horiz-adv-x="470" d="M368 386v-70h-174v-316h-90v316h-91v70h91v339h346v-71h-256v-268h174z" />
<glyph unicode="&#x493;" horiz-adv-x="342" d="M273 329v-59h-121v-270h-87v270h-58v59h58v209h262v-59h-175v-150h121z" />
<glyph unicode="&#x496;" horiz-adv-x="780" d="M681 -138v138h-54l-143 339h-78v-339h-85v339h-78l-143 -339h-94l170 386l-166 339h89l146 -315h76v315h85v-315h76l146 315h89l-166 -339l139 -315h71v-209h-80z" />
<glyph unicode="&#x497;" horiz-adv-x="634" d="M539 -122v122h-26l-126 242h-44v-242h-83v242h-44l-125 -242h-82l145 279l-137 259h79l122 -238h42v238h83v-238h42l120 238h81l-135 -257l115 -222h50v-181h-77z" />
<glyph unicode="&#x49a;" horiz-adv-x="550" d="M451 -138v138h-41l-154 339h-90v-339h-90v725h90v-315h88l160 315h89l-180 -339l146 -315h62v-209h-80z" />
<glyph unicode="&#x49b;" horiz-adv-x="470" d="M375 -122v122h-31l-135 242h-58v-242h-86v538h86v-238h57l137 238h88l-153 -258l122 -221h50v-181h-77z" />
<glyph unicode="&#x4a2;" horiz-adv-x="598" d="M490 -138v138h-71v339h-253v-339h-90v725h90v-315h253v315h90v-654h61v-209h-80z" />
<glyph unicode="&#x4a3;" horiz-adv-x="499" d="M397 -122v122h-60v242h-187v-242h-85v538h85v-238h187v238h85v-479h52v-181h-77z" />
<glyph unicode="&#x4ae;" horiz-adv-x="491" d="M201 287l-193 438h90l148 -356l148 356h90l-194 -439v-286h-89v287z" />
<glyph unicode="&#x4af;" horiz-adv-x="396" d="M240 -175h-86v175l-146 538h87l104 -445l106 445h83l-148 -538v-175z" />
<glyph unicode="&#x4b0;" horiz-adv-x="491" d="M392 218h-102v-218h-89v218h-102v65h102v4l-193 438h90l148 -356l148 356h90l-194 -439v-3h102v-65z" />
<glyph unicode="&#x4b1;" horiz-adv-x="396" d="M342 -32h-102v-143h-86v143h-102v62h94l-138 508h87l104 -445l106 445h83l-140 -508h94v-62z" />
<glyph unicode="&#x4b2;" horiz-adv-x="544" d="M445 -138v138h-48l-151 294l-152 -294h-91l199 373l-183 352h94l134 -267l139 267h91l-185 -344l161 -310h72v-209h-80z" />
<glyph unicode="&#x4b3;" horiz-adv-x="425" d="M330 -122v122h-31l-106 199l-109 -199h-85l152 276l-141 262h88l97 -182l100 182h84l-143 -259l118 -220h53v-181h-77z" />
<glyph unicode="&#x4b6;" horiz-adv-x="552" d="M444 -138v138h-90v301q-17 -9 -49 -19t-81 -10q-39 0 -72.5 9.5t-58 35.5t-39 71t-14.5 116v221h90v-217q0 -52 9 -84.5t25.5 -50.5t40.5 -24t55 -6q32 0 52 5.5t42 19.5v357h90v-654h80v-209h-80z" />
<glyph unicode="&#x4b7;" horiz-adv-x="455" d="M353 -122v122h-66v242q-25 -10 -52 -18t-66 -8q-70 0 -103.5 37.5t-33.5 117.5v167h85v-157q0 -53 17.5 -76.5t67.5 -23.5q19 0 41 4.5t44 18.5v234h85v-479h58v-181h-77z" />
<glyph unicode="&#x4ba;" horiz-adv-x="520" d="M166.021 725v-300.981q16.999 8.99902 48.9971 18.999q31.998 9.99902 80.9951 9.99902q38.998 0 72.4951 -9.49902q33.498 -9.5 57.9971 -35.498q24.498 -25.999 38.9971 -70.9961t14.499 -115.992v-220.987h-89.9941v216.987q0 51.9961 -8.99902 84.4941 q-9 32.498 -25.499 50.4971t-40.4971 23.999q-23.999 5.99902 -54.9971 5.99902q-31.998 0 -51.9961 -5.49902q-19.999 -5.5 -41.998 -19.499v-356.979h-89.9941v724.956h89.9941z" />
<glyph unicode="&#x4bb;" horiz-adv-x="471" d="M64 725h86v-275q15 43 50 71.5t87 28.5q74 0 103 -46.5t29 -144.5v-359h-86v331q0 37 -2.5 65.5t-11 48t-23.5 30t-39 10.5q-53 0 -80 -51.5t-27 -139.5v-294h-86v725z" />
<glyph unicode="&#x4c0;" horiz-adv-x="242" d="M76 725h90v-725h-90v725z" />
<glyph unicode="&#x4cf;" horiz-adv-x="216" d="M65 725h86v-725h-86v725z" />
<glyph unicode="&#x4d8;" horiz-adv-x="554" d="M50 495q2 124 60 183.5t163 59.5q121 0 179 -81.5t58 -249.5v-88q0 -171 -57 -251.5t-181 -80.5q-60 0 -103.5 19t-72 60t-42 104.5t-13.5 153.5v65h373q-1 67 -8 120t-23 89t-43 55t-67 19q-67 0 -99.5 -45.5t-34.5 -131.5h-89zM135 324q0 -67 6 -117.5t22 -84t42 -50.5 t67 -17q43 0 70.5 17t43.5 51t22 84.5t6 116.5h-279z" />
<glyph unicode="&#x4d9;" horiz-adv-x="451" d="M221.014 549.999q99.9941 0 145.491 -59.4961t45.4971 -182.489v-78.9951q0 -122.992 -45.9971 -182.488q-45.9971 -59.4971 -145.991 -59.4971q-99.9932 0 -143.491 59.4971q-43.4971 59.4961 -43.4971 188.488v40.9971h291.982v14.999q0 45.9971 -4 82.4951 t-15.499 61.9961q-11.499 25.499 -31.998 38.998t-52.4971 13.499q-95.9941 0 -95.9941 -117.993v-4.99902h-83.9941v4.99902q0 95.9941 47.4971 137.992q47.4971 41.9971 132.491 41.9971zM325.008 220.02h-204.987v-7q0 -38.9971 3.99902 -69.9951q4 -30.998 15 -51.9971 q10.999 -20.999 29.998 -31.998q18.998 -10.999 49.9961 -10.999q31.998 0 52.4971 11.499t32.498 33.498q11.999 21.998 16.499 52.4961q4.5 30.499 4.5 68.4961v6z" />
<glyph unicode="&#x4e2;" horiz-adv-x="581" d="M424 0v562l-272 -562h-76v725h81v-563l272 563h76v-725h-81zM187 864h238v-65h-238v65z" />
<glyph unicode="&#x4e3;" horiz-adv-x="494" d="M349 0v394l-217 -394h-67v538h80v-397l216 397h68v-538h-80zM145 696h231v-61h-231v61z" />
<glyph unicode="&#x4e8;" horiz-adv-x="563" d="M43 407q0 171 56.5 251t181.5 80q124 0 181 -80t57 -251v-89q0 -171 -57 -251t-181 -80q-125 0 -181.5 80t-56.5 251v89zM426 409q-1 63 -8.5 112t-24 82.5t-43.5 51t-69 17.5q-41 0 -68.5 -17.5t-44 -51t-23.5 -82.5t-8 -112h289zM137 343q0 -69 6 -123t22.5 -91t44 -56 t71.5 -19t72 19t44.5 56t22.5 91t6 123v1h-289v-1z" />
<glyph unicode="&#x4e9;" horiz-adv-x="457" d="M38 307q0 125 46 184t146 59q97 0 143 -59t46 -184v-77q0 -125 -46 -184t-143 -59q-100 0 -146 59t-46 184v77zM331 297q0 45 -4.5 80.5t-15.5 60t-30.5 38t-50.5 13.5q-32 0 -51.5 -13.5t-31 -38t-16 -60t-4.5 -80.5h204zM127 235q1 -44 5.5 -78.5t15.5 -58.5t31 -36.5 t51 -12.5t50.5 12.5t30.5 36.5t15.5 58.5t4.5 78.5h-204z" />
<glyph unicode="&#x4ee;" horiz-adv-x="497" d="M136 864h238v-65h-238v65zM286 131q-15 -42 -27.5 -68t-29 -40t-39.5 -18.5t-57 -4.5h-62v72h62q16 0 27 2t19.5 9.5t15.5 21t16 36.5l9 28l-219 556h89l168 -443l148 443h86z" />
<glyph unicode="&#x4ef;" horiz-adv-x="400" d="M84 696h231v-61h-231v61zM45 -116h29q19 0 31.5 2.5t21.5 10t15.5 22.5t12.5 41l11 39l-158 539h86l113 -424l105 424h80l-145 -544q-14 -54 -26.5 -87.5t-30 -51.5t-42 -24t-63.5 -6h-40v59z" />
<glyph unicode="&#x1e80;" horiz-adv-x="725" d="M217 886h112l71 -113h-78zM14 725h83l106 -622l117 622h84l117 -622l106 622h83l-129 -725h-105l-113 617l-115 -617h-106z" />
<glyph unicode="&#x1e81;" horiz-adv-x="573" d="M20 538h76l66 -435l83 435h82l83 -435l67 435h76l-91 -538h-92l-84 449l-83 -449h-93zM152 725h105l64 -119h-68z" />
<glyph unicode="&#x1e82;" horiz-adv-x="725" d="M14 725h83l106 -622l117 622h84l117 -622l106 622h83l-129 -725h-105l-113 617l-115 -617h-106zM393 886h113l-104 -113h-79z" />
<glyph unicode="&#x1e83;" horiz-adv-x="573" d="M318 725h103l-101 -119h-68zM20 538h76l66 -435l83 435h82l83 -435l67 435h76l-91 -538h-92l-84 449l-83 -449h-93z" />
<glyph unicode="&#x1e84;" horiz-adv-x="725" d="M224 881h79v-104h-79v104zM422 881h79v-104h-79v104zM14 725h83l106 -622l117 622h84l117 -622l106 622h83l-129 -725h-105l-113 617l-115 -617h-106z" />
<glyph unicode="&#x1e85;" horiz-adv-x="573" d="M148 722h78v-107h-78v107zM347 722h78v-107h-78v107zM20 538h76l66 -435l83 435h82l83 -435l67 435h76l-91 -538h-92l-84 449l-83 -449h-93z" />
<glyph unicode="&#x1ea0;" horiz-adv-x="527" d="M210 725h106l201 -725h-92l-49 189h-231l-49 -189h-86zM162 254h197l-98 384zM225 -50h78v-108h-78v108z" />
<glyph unicode="&#x1ea1;" horiz-adv-x="450" d="M176 -13q-68 0 -105 36t-37 110v15q0 61 41 96t117 63l118 42v45q0 57 -24 78.5t-67 21.5q-91 0 -91 -109v-11h-83v11q0 87 48 126.5t129 39.5q39 0 71.5 -7t56 -26t36.5 -52.5t13 -86.5v-41.5t-0.5 -64.5t-0.5 -63.5v-39.5v-56.5t1 -44.5t1.5 -36.5t2.5 -32.5h-82l-2 78 q-19 -45 -53.5 -68t-89.5 -23zM203 45q23 0 43 8.5t35 27t23.5 48.5t8.5 73v92l-88 -32q-49 -17 -73.5 -42t-24.5 -70v-12q0 -42 18 -67.5t58 -25.5zM177 -48h78v-108h-78v108z" />
<glyph unicode="&#x1eb8;" horiz-adv-x="459" d="M218 -50h78v-108h-78v108zM73 725h366v-70h-276v-245h252v-71h-252v-269h276v-70h-366v725z" />
<glyph unicode="&#x1eb9;" horiz-adv-x="451" d="M192 -50h78v-108h-78v108zM230 -13q-100 0 -145.5 59.5t-45.5 182.5v79q0 123 46 182.5t146 59.5t143.5 -59.5t43.5 -188.5v-41h-292v-15q0 -46 4 -82.5t15.5 -62t32 -39t52.5 -13.5q96 0 96 118v5h84v-5q0 -96 -47.5 -138t-132.5 -42zM126 317h205v7q0 39 -4 70t-15 52 t-30 32t-50 11q-32 0 -52.5 -11.5t-32.5 -33.5t-16.5 -52.5t-4.5 -68.5v-6z" />
<glyph unicode="&#x1eca;" horiz-adv-x="235" d="M73 725h90v-725h-90v725zM79 -50h78v-108h-78v108z" />
<glyph unicode="&#x1ecb;" horiz-adv-x="203" d="M61 538h86v-538h-86v538zM61 725h86v-109h-86v109zM64 -50h78v-108h-78v108z" />
<glyph unicode="&#x1ecc;" horiz-adv-x="562" d="M246 -50h78v-108h-78v108zM281 672q-44 0 -71.5 -19.5t-44 -56.5t-22.5 -91t-6 -123v-39q0 -69 6 -123t22.5 -91t44 -56t71.5 -19q43 0 71 19t44.5 56t22.5 91t6 123v39q0 69 -6 123t-22.5 91t-44.5 56.5t-71 19.5zM281 738q124 0 181 -80t57 -251v-89q0 -171 -57 -251 t-181 -80q-125 0 -181.5 80t-56.5 251v89q0 171 56.5 251t181.5 80z" />
<glyph unicode="&#x1ecd;" horiz-adv-x="457" d="M195 -50h78v-108h-78v108zM229 489q-33 0 -53 -14t-31 -40.5t-14.5 -64t-3.5 -84.5v-35q0 -47 3.5 -84.5t14.5 -63.5t31 -40t53 -14t53 14t31 40t14.5 63.5t3.5 84.5v35q0 47 -3.5 84.5t-14.5 64t-31 40.5t-53 14zM229 550q100 0 145.5 -59t45.5 -184v-77 q0 -125 -45.5 -184t-145.5 -59t-145.5 59t-45.5 184v77q0 125 45.5 184t145.5 59z" />
<glyph unicode="&#x1ee4;" horiz-adv-x="557" d="M240 -50h78v-108h-78v108zM278 -13q-64 0 -105.5 14t-65.5 46.5t-33.5 85.5t-9.5 130v462h90v-474q0 -52 5.5 -89.5t19 -61.5t37.5 -35t62 -11t62.5 11t38.5 35t19.5 61.5t5.5 89.5v474h89v-462q0 -77 -9.5 -130t-33.5 -85.5t-65.5 -46.5t-106.5 -14z" />
<glyph unicode="&#x1ee5;" horiz-adv-x="461" d="M187 -50h78v-108h-78v108zM185 -13q-76 0 -104.5 48.5t-28.5 146.5v356h86v-332q0 -36 2.5 -64.5t10.5 -48.5t22 -30.5t38 -10.5q51 0 77 51.5t25 139.5v295h86v-538h-83v88q-14 -43 -47 -72t-84 -29z" />
<glyph unicode="&#x1ef2;" horiz-adv-x="491" d="M201 287l-193 438h90l148 -356l148 356h90l-194 -439v-286h-89v287zM117 886h112l71 -113h-78z" />
<glyph unicode="&#x1ef3;" horiz-adv-x="400" d="M45 -116h29q19 0 31.5 2.5t21.5 10t15.5 22.5t12.5 41l11 39l-158 539h86l113 -424l105 424h80l-145 -544q-14 -54 -26.5 -87.5t-30 -51.5t-42 -24t-63.5 -6h-40v59zM75 725h105l64 -119h-68z" />
<glyph unicode="&#x2013;" horiz-adv-x="496" d="M34 307h427v-75h-427v75z" />
<glyph unicode="&#x2014;" horiz-adv-x="725" d="M34 307h656v-75h-656v75z" />
<glyph unicode="&#x2018;" horiz-adv-x="183" d="M144 489h-105v113l56 123h54l-49 -130h44v-106z" />
<glyph unicode="&#x2019;" horiz-adv-x="183" d="M39 725h105v-113l-56 -123h-54l49 130h-44v106z" />
<glyph unicode="&#x201a;" horiz-adv-x="183" d="M40 106h105v-113l-56 -123h-54l49 130h-44v106z" />
<glyph unicode="&#x201c;" horiz-adv-x="346" d="M144 489h-105v113l56 123h54l-49 -130h44v-106zM307 489h-105v113l56 123h54l-49 -130h44v-106z" />
<glyph unicode="&#x201d;" horiz-adv-x="346" d="M202 725h105v-113l-56 -123h-54l49 130h-44v106zM39 725h105v-113l-56 -123h-54l49 130h-44v106z" />
<glyph unicode="&#x201e;" horiz-adv-x="340" d="M196 106h105v-113l-56 -123h-54l49 130h-44v106zM40 106h105v-113l-56 -123h-54l49 130h-44v106z" />
<glyph unicode="&#x2020;" horiz-adv-x="457" d="M189 418h-164v73h164v234h79v-234h165v-73h-165v-418h-79v418z" />
<glyph unicode="&#x2021;" horiz-adv-x="457" d="M189 201h-164v71h164v171h-164v72h164v210h80v-210h164v-72h-164v-171h164v-71h-164v-201h-80v201z" />
<glyph unicode="&#x2022;" horiz-adv-x="459" d="M226 96q-36 0 -68 14t-56 38.5t-38 58t-14 72.5q0 37 14 69t38 56t56 38t68 14q39 0 73 -14t58.5 -38t38.5 -56t14 -69q0 -39 -14 -72.5t-38.5 -58t-58.5 -38.5t-73 -14z" />
<glyph unicode="&#x2026;" horiz-adv-x="723" d="M302 106h105v-106h-105v106zM544 106h105v-106h-105v106zM61 106h105v-106h-105v106z" />
<glyph unicode="&#x2030;" horiz-adv-x="987" d="M448 725h48l-244 -725h-47zM148 350q22 0 34.5 10.5t18.5 30.5t7.5 49t1.5 66v28q0 37 -1.5 66t-7.5 49t-18.5 30.5t-34.5 10.5q-21 0 -33.5 -10.5t-19 -30.5t-8.5 -49t-2 -66v-28q0 -37 2 -66t8.5 -49t19 -30.5t33.5 -10.5zM148 308q-71 0 -98 45.5t-27 140.5v52 q0 95 27 140t98 45t98 -45t27 -140v-52q0 -95 -27 -140.5t-98 -45.5zM542 33q22 0 34.5 10.5t18.5 30.5t7.5 49t1.5 66v28q0 37 -1.5 66t-7.5 49t-18.5 30.5t-34.5 10.5q-21 0 -33.5 -10.5t-19 -30.5t-8.5 -49t-2 -66v-28q0 -37 2 -66t8.5 -49t19 -30.5t33.5 -10.5zM542 -9 q-71 0 -98 45.5t-27 140.5v52q0 95 27 140t98 45t98 -45t27 -140v-52q0 -95 -27 -140.5t-98 -45.5zM839 33q22 0 34.5 10.5t18.5 30.5t7.5 49t1.5 66v28q0 37 -1.5 66t-7.5 49t-18.5 30.5t-34.5 10.5q-21 0 -33.5 -10.5t-19 -30.5t-8.5 -49t-2 -66v-28q0 -37 2 -66t8.5 -49 t19 -30.5t33.5 -10.5zM839 -9q-71 0 -98 45.5t-27 140.5v52q0 95 27 140t98 45t98 -45t27 -140v-52q0 -95 -27 -140.5t-98 -45.5z" />
<glyph unicode="&#x2039;" horiz-adv-x="175" d="M20 227v102l131 145v-103l-85 -93l85 -94v-102z" />
<glyph unicode="&#x203a;" horiz-adv-x="175" d="M25 184l83 94l-83 93v103l130 -145v-102l-130 -145v102z" />
<glyph unicode="&#x2044;" horiz-adv-x="110" d="M153 725h48l-244 -725h-47z" />
<glyph unicode="&#x2070;" horiz-adv-x="312" d="M156 472q22 0 34.5 10.5t18.5 30t7.5 48.5t1.5 66v29q0 37 -1.5 66t-7.5 48.5t-18.5 30t-34.5 10.5q-21 0 -33.5 -10.5t-19 -30t-8 -48.5t-1.5 -66v-29q0 -37 1.5 -66t8 -48.5t19 -30t33.5 -10.5zM156 430q-71 0 -98.5 45t-27.5 140v53q0 95 27.5 140t98.5 45t98 -45 t27 -140v-53q0 -95 -27 -140t-98 -45z" />
<glyph unicode="&#x2074;" horiz-adv-x="294" d="M171 541h-160v44l158 261h58v-256h49v-49h-49v-103h-56v103zM171 590v178l-113 -178h113z" />
<glyph unicode="&#x2075;" horiz-adv-x="281" d="M139 430q-52 0 -84 28.5t-32 85.5v2h58v-2q0 -34 13.5 -53t44.5 -19q32 0 45 23t13 64v23q0 42 -13.5 64.5t-43.5 22.5q-23 0 -36 -12.5t-20 -35.5l-55 2l21 223h200v-48h-153l-12 -129q8 17 27.5 30t47.5 13q100 0 100 -127v-28q0 -127 -121 -127z" />
<glyph unicode="&#x2076;" horiz-adv-x="296" d="M157 430q-65 0 -94.5 38.5t-29.5 129.5v56q0 49 6 86.5t20 62.5t38.5 37.5t62.5 12.5q56 0 82 -30t26 -78v-3h-59v3q0 66 -50 66q-39 0 -52 -35.5t-13 -103.5v-16q7 17 26.5 33t51.5 16q49 0 76.5 -31.5t27.5 -95.5v-20q0 -65 -31 -96.5t-88 -31.5zM153 472q60 0 60 87 v16q0 42 -15 64.5t-45 22.5q-29 0 -44.5 -22.5t-15.5 -64.5v-15q0 -43 15.5 -65.5t44.5 -22.5z" />
<glyph unicode="&#x2077;" horiz-adv-x="233" d="M44 438q5 117 38.5 205.5t99.5 154.5h-178v48h231v-48q-36 -35 -59.5 -74t-38.5 -83t-22 -94.5t-9 -108.5h-62v0z" />
<glyph unicode="&#x2078;" horiz-adv-x="304" d="M153 430q-61 0 -95 28t-34 94q0 46 21.5 70t48.5 34q-10 3 -20.5 10t-19.5 18.5t-14.5 27t-5.5 36.5q0 58 33.5 81.5t85.5 23.5q51 0 84 -23.5t33 -81.5q0 -41 -19.5 -63t-38.5 -29q27 -10 48 -34t21 -70q0 -66 -34 -94t-94 -28zM153 472q33 0 49.5 20.5t16.5 56.5v7 q0 35 -16.5 55.5t-49.5 20.5q-34 0 -51 -20.5t-17 -55.5v-7q0 -36 17 -56.5t51 -20.5zM153 673q30 0 42.5 17t12.5 49v5q0 33 -12.5 50t-42.5 17q-31 0 -44 -17t-13 -50v-5q0 -32 13.5 -49t43.5 -17z" />
<glyph unicode="&#x2079;" horiz-adv-x="302" d="M144 430q-57 0 -82.5 30t-25.5 78v3h59v-3q0 -66 50 -66q39 0 51.5 35.5t12.5 103.5v16q-6 -18 -25.5 -33.5t-51.5 -15.5q-49 0 -77 31.5t-28 95.5v20q0 65 31.5 96.5t87.5 31.5q66 0 95.5 -38.5t29.5 -129.5v-56q0 -49 -6 -86.5t-20 -62.5t-39 -37.5t-62 -12.5zM151 621 q29 0 44 22.5t15 64.5v15q0 88 -59 88q-60 0 -60 -87v-16q0 -42 15 -64.5t45 -22.5z" />
<glyph unicode="&#x207a;" horiz-adv-x="337" d="M142 562h-121v52h121v124h54v-124h121v-52h-121v-124h-54v124z" />
<glyph unicode="&#x207b;" horiz-adv-x="321" d="M21 614h291v-52h-291v52z" />
<glyph unicode="&#x207c;" horiz-adv-x="317" d="M27 555h251v-52h-251v52zM27 675h251v-52h-251v52z" />
<glyph unicode="&#x207d;" horiz-adv-x="139" d="M94 334q-12 19 -25.5 45.5t-24.5 59.5t-18 71.5t-7 79.5t7 78.5t18 70.5t24.5 60t25.5 47h50q-29 -48 -48.5 -113t-19.5 -143q0 -79 19.5 -144t48.5 -112h-50v0z" />
<glyph unicode="&#x207e;" horiz-adv-x="139" d="M-5 334q29 47 48 112t19 144q0 78 -19 143t-48 113h50q13 -20 26 -47t23.5 -60t17.5 -70.5t7 -78.5t-7 -79.5t-17.5 -71.5t-23.5 -59.5t-26 -45.5h-50v0z" />
<glyph unicode="&#x207f;" horiz-adv-x="272" d="M32 740h61v-45q8 23 28 38t49 15q42 0 58.5 -24.5t16.5 -81.5v-204h-61v183q0 38 -6.5 61t-31.5 23q-29 0 -41 -28t-12 -74v-165h-61v302z" />
<glyph unicode="&#x2080;" horiz-adv-x="312" d="M156 -95q22 0 34.5 10.5t18.5 30t7.5 48.5t1.5 66v29q0 37 -1.5 66t-7.5 48.5t-18.5 30t-34.5 10.5q-21 0 -33.5 -10.5t-19 -30t-8 -48.5t-1.5 -66v-29q0 -37 1.5 -66t8 -48.5t19 -30t33.5 -10.5zM156 -137q-71 0 -98.5 45t-27.5 140v53q0 95 27.5 140t98.5 45t98 -45 t27 -140v-53q0 -95 -27 -140t-98 -45z" />
<glyph unicode="&#x2081;" horiz-adv-x="210" d="M101 186h-74v40q26 0 41.5 1.5t24 6.5t12.5 15.5t8 29.5h48v-408h-60v315z" />
<glyph unicode="&#x2082;" horiz-adv-x="276" d="M22 -83l45 57q27 34 49.5 62.5t39 54t26 48.5t9.5 45q0 60 -54 60t-54 -82v-4h-59v4q0 60 29 92t87 32q52 0 82 -24t30 -75q0 -49 -34.5 -101.5t-87.5 -119.5l-37 -48h160v-47h-231v46z" />
<glyph unicode="&#x2083;" horiz-adv-x="291" d="M136 -137q-53 0 -83.5 28t-30.5 85v2h58v-2q0 -32 12.5 -51.5t44.5 -19.5q39 0 52 23t13 55q0 35 -17 56.5t-63 21.5h-21v42h21q67 0 67 72q0 33 -13 51t-42 18t-40 -17t-11 -52v-2h-58v2q0 57 30.5 84t81.5 27q24 0 44.5 -5t36 -17.5t24 -32.5t8.5 -50q0 -40 -17.5 -63 t-44.5 -31q35 -9 55.5 -34.5t20.5 -68.5q0 -64 -33.5 -92.5t-94.5 -28.5z" />
<glyph unicode="&#x2084;" horiz-adv-x="294" d="M171 -26h-160v44l158 261h58v-256h49v-49h-49v-103h-56v103zM171 23v178l-113 -178h113z" />
<glyph unicode="&#x2085;" horiz-adv-x="281" d="M139 -137q-52 0 -84 28.5t-32 85.5v2h58v-2q0 -34 13.5 -53t44.5 -19q32 0 45 23t13 64v23q0 42 -13.5 64.5t-43.5 22.5q-23 0 -36 -12.5t-20 -35.5l-55 2l21 223h200v-48h-153l-12 -129q8 17 27.5 30t47.5 13q100 0 100 -127v-28q0 -127 -121 -127z" />
<glyph unicode="&#x2086;" horiz-adv-x="296" d="M157 -137q-65 0 -94.5 38.5t-29.5 129.5v56q0 49 6 86.5t20 62.5t38.5 37.5t62.5 12.5q56 0 82 -30t26 -78v-3h-59v3q0 66 -50 66q-39 0 -52 -35.5t-13 -103.5v-16q7 17 26.5 33t51.5 16q49 0 76.5 -31.5t27.5 -95.5v-20q0 -65 -31 -96.5t-88 -31.5zM153 -95q60 0 60 87 v16q0 42 -15 64.5t-45 22.5q-29 0 -44.5 -22.5t-15.5 -64.5v-15q0 -43 15.5 -65.5t44.5 -22.5z" />
<glyph unicode="&#x2087;" horiz-adv-x="233" d="M44 -129q5 117 38.5 205.5t99.5 154.5h-178v48h231v-48q-36 -35 -59.5 -74t-38.5 -83t-22 -94.5t-9 -108.5h-62v0z" />
<glyph unicode="&#x2088;" horiz-adv-x="304" d="M153 -137q-61 0 -95 28t-34 94q0 46 21.5 70t48.5 34q-10 3 -20.5 10t-19.5 18.5t-14.5 27t-5.5 36.5q0 58 33.5 81.5t85.5 23.5q51 0 84 -23.5t33 -81.5q0 -41 -19.5 -63t-38.5 -29q27 -10 48 -34t21 -70q0 -66 -34 -94t-94 -28zM153 -95q33 0 49.5 20.5t16.5 56.5v7 q0 35 -16.5 55.5t-49.5 20.5q-34 0 -51 -20.5t-17 -55.5v-7q0 -36 17 -56.5t51 -20.5zM153 106q30 0 42.5 17t12.5 49v5q0 33 -12.5 50t-42.5 17q-31 0 -44 -17t-13 -50v-5q0 -32 13.5 -49t43.5 -17z" />
<glyph unicode="&#x2089;" horiz-adv-x="302" d="M144 -137q-57 0 -82.5 30t-25.5 78v3h59v-3q0 -66 50 -66q39 0 51.5 35.5t12.5 103.5v16q-6 -18 -25.5 -33.5t-51.5 -15.5q-49 0 -77 31.5t-28 95.5v20q0 65 31.5 96.5t87.5 31.5q66 0 95.5 -38.5t29.5 -129.5v-56q0 -49 -6 -86.5t-20 -62.5t-39 -37.5t-62 -12.5zM151 54 q29 0 44 22.5t15 64.5v15q0 88 -59 88q-60 0 -60 -87v-16q0 -42 15 -64.5t45 -22.5z" />
<glyph unicode="&#x208d;" horiz-adv-x="139" d="M94 -233q-12 19 -25.5 45.5t-24.5 59.5t-18 71.5t-7 79.5t7 78.5t18 70.5t24.5 60t25.5 47h50q-29 -48 -48.5 -113t-19.5 -143q0 -79 19.5 -144t48.5 -112h-50v0z" />
<glyph unicode="&#x208e;" horiz-adv-x="139" d="M-5 -233q29 47 48 112t19 144q0 78 -19 143t-48 113h50q13 -20 26 -47t23.5 -60t17.5 -70.5t7 -78.5t-7 -79.5t-17.5 -71.5t-23.5 -59.5t-26 -45.5h-50v0z" />
<glyph unicode="&#x20ac;" horiz-adv-x="589" d="M32 442h72q3 76 17 132t41.5 92.5t70 54t101.5 17.5q107 0 162.5 -61.5t55.5 -176.5v-5h-83v4q0 92 -34.5 133t-100.5 41q-77 0 -107.5 -60.5t-34.5 -170.5h233l-33 -49h-201v-11v-39v-14h165l-32 -49h-132q3 -55 11 -97.5t24.5 -71.5t42.5 -44t64 -15q66 0 100.5 41 t34.5 133v4h83v-4q0 -116 -55.5 -177.5t-162.5 -61.5q-118 0 -171.5 70.5t-58.5 222.5h-104l32 49h72v64h-104z" />
<glyph unicode="&#x20bb;" horiz-adv-x="502" d="M352 229v-66h-179v-163h-90v163h-73v66h73v74h-73v66h73v356h150q58 0 104 -8t77.5 -31t48.5 -64t17 -107q0 -65 -17 -106t-48.5 -64.5t-77.5 -32.5t-104 -9h-60v-74h179zM227 369q40 0 69.5 5t49 21t29.5 44.5t10 75.5q0 46 -10 75t-29.5 44.5t-49 21t-69.5 5.5h-54 v-292h54z" />
<glyph unicode="&#x2113;" horiz-adv-x="425" d="M244 -13q-75 0 -104 39.5t-29 118.5v80l-77 -58l-33 50l110 84v237q0 196 142 196q62 0 96.5 -42.5t34.5 -114.5q0 -48 -14 -87t-38.5 -73t-59 -65t-75.5 -61l-7 -6v-140q0 -48 14.5 -70.5t52.5 -22.5q30 0 51.5 11.5t38.5 25.5l33 -48q-23 -23 -56.5 -38.5t-79.5 -15.5z M190 361l11 9q54 42 81.5 91.5t27.5 114.5q0 48 -16.5 72.5t-44.5 24.5q-33 0 -46 -32t-13 -93v-187z" />
<glyph unicode="&#x2116;" horiz-adv-x="878" d="M699 418q37 0 47.5 32t10.5 88v25q0 56 -10.5 88.5t-47.5 32.5q-38 0 -48.5 -32t-10.5 -89v-25q0 -57 10.5 -88.5t48.5 -31.5zM699 374q-64 0 -94 38t-30 114v49q0 76 30 114t94 38q63 0 93 -38t30 -114v-49q0 -76 -30 -114t-93 -38zM574 339h254v-72h-254v72zM76 725 h108l243 -607v607h81v-725h-107l-244 608v-608h-81v725z" />
<glyph unicode="&#x2117;" horiz-adv-x="835" d="M315 564h96q37 0 64.5 -5t45.5 -17t26.5 -33t8.5 -53q0 -33 -10 -55t-29 -35t-46 -18.5t-61 -5.5h-30v-172h-65v394zM412 385q21 0 35 2.5t23 10t12.5 20.5t3.5 33q0 40 -16 52.5t-58 12.5h-32v-131h32zM418 39q67 0 124 23.5t99 65.5t65.5 101t23.5 130t-23.5 130 t-65.5 101.5t-99 66t-124 23.5q-66 0 -123 -23.5t-99.5 -66t-66.5 -101.5t-24 -130t24 -130t66.5 -101t99.5 -65.5t123 -23.5zM418 -13q-77 0 -144 27.5t-116.5 76.5t-78.5 117t-29 150q0 83 29 151.5t78.5 118t116.5 77t144 27.5q76 0 143 -27.5t117 -77t79 -118t29 -151.5 q0 -82 -29 -150t-79 -117t-117 -76.5t-143 -27.5z" />
<glyph unicode="&#x2122;" horiz-adv-x="656" d="M291 725h93l74 -329l75 329h92v-402h-60v338h-1l-3 -25l-76 -313h-53l-77 313l-4 25h-1v-338h-59v402zM99 676h-92v49h250v-49h-93v-353h-65v353z" />
<glyph unicode="&#x212e;" horiz-adv-x="557" d="M425 302v163q-22 22 -59.5 37.5t-85.5 15.5q-47 0 -86 -13.5t-63 -38.5v-164h294zM286 -13q-66 0 -116.5 22.5t-84.5 61t-51.5 89.5t-17.5 109q0 60 19 112t53.5 89.5t83.5 59t109 21.5q63 0 111 -23t81 -62t50 -90t18 -106h-410v-195q23 -24 68 -39.5t95 -15.5 q71 0 120 34t73 93h40q-12 -33 -32.5 -62.5t-50.5 -51t-69.5 -34t-88.5 -12.5z" />
<glyph unicode="&#x2153;" horiz-adv-x="700" d="M544 -8q-54 0 -84 28t-30 85v2h57v-2q0 -32 13 -51.5t44 -19.5q39 0 52.5 23t13.5 55q0 35 -17 56.5t-63 21.5h-22v43h21q68 0 68 72q0 32 -13 50t-42 18t-40.5 -17t-11.5 -52v-2h-57v2q0 57 30 84t81 27q24 0 45 -5t36.5 -17.5t24 -32.5t8.5 -50q0 -40 -18 -63t-44 -31 q35 -9 55.5 -34.5t20.5 -68.5q0 -64 -33.5 -92.5t-94.5 -28.5zM448 725h48l-244 -725h-47zM143 632h-74v40q26 0 41.5 1.5t24 6.5t12.5 15.5t8 29.5h48v-408h-60v315z" />
<glyph unicode="&#x2154;" horiz-adv-x="700" d="M544 -8q-54 0 -84 28t-30 85v2h57v-2q0 -32 13 -51.5t44 -19.5q39 0 52.5 23t13.5 55q0 35 -17 56.5t-63 21.5h-22v43h21q68 0 68 72q0 32 -13 50t-42 18t-40.5 -17t-11.5 -52v-2h-57v2q0 57 30 84t81 27q24 0 45 -5t36.5 -17.5t24 -32.5t8.5 -50q0 -40 -18 -63t-44 -31 q35 -9 55.5 -34.5t20.5 -68.5q0 -64 -33.5 -92.5t-94.5 -28.5zM30 363l45 57q27 34 49.5 62.5t39 54t26 48.5t9.5 45q0 60 -54 60t-54 -82v-4h-59v4q0 60 29 92t87 32q52 0 82 -24t30 -75q0 -49 -34.5 -101.5t-87.5 -119.5l-37 -48h160v-47h-231v46zM448 725h48l-244 -725 h-47z" />
<glyph unicode="&#x2155;" horiz-adv-x="700" d="M550 -8q-52 0 -84 28t-32 85v2h59v-2q0 -33 13 -52t44 -19q32 0 45 23t13 64v23q0 41 -13.5 64t-43.5 23q-23 0 -36 -13t-20 -35l-55 2l22 223h200v-48h-154l-12 -129q8 17 27.5 30t47.5 13q100 0 100 -127v-28q0 -127 -121 -127zM448 725h48l-244 -725h-47zM143 632h-74 v40q26 0 41.5 1.5t24 6.5t12.5 15.5t8 29.5h48v-408h-60v315z" />
<glyph unicode="&#x2156;" horiz-adv-x="700" d="M30 363l45 57q27 34 49.5 62.5t39 54t26 48.5t9.5 45q0 60 -54 60t-54 -82v-4h-59v4q0 60 29 92t87 32q52 0 82 -24t30 -75q0 -49 -34.5 -101.5t-87.5 -119.5l-37 -48h160v-47h-231v46zM448 725h48l-244 -725h-47zM550 -8q-52 0 -84 28t-32 85v2h59v-2q0 -33 13 -52 t44 -19q32 0 45 23t13 64v23q0 41 -13.5 64t-43.5 23q-23 0 -36 -13t-20 -35l-55 2l22 223h200v-48h-154l-12 -129q8 17 27.5 30t47.5 13q100 0 100 -127v-28q0 -127 -121 -127z" />
<glyph unicode="&#x2157;" horiz-adv-x="700" d="M550 -8q-52 0 -84 28t-32 85v2h59v-2q0 -33 13 -52t44 -19q32 0 45 23t13 64v23q0 41 -13.5 64t-43.5 23q-23 0 -36 -13t-20 -35l-55 2l22 223h200v-48h-154l-12 -129q8 17 27.5 30t47.5 13q100 0 100 -127v-28q0 -127 -121 -127zM139 309q-54 0 -84 28t-30 85v2h57v-2 q0 -32 13 -51.5t44 -19.5q39 0 52.5 23t13.5 55q0 35 -17 56.5t-63 21.5h-22v43h21q68 0 68 72q0 32 -13 50t-42 18t-40.5 -17t-11.5 -52v-2h-57v2q0 57 30 84t81 27q24 0 45 -5t36.5 -17.5t24 -32.5t8.5 -50q0 -40 -18 -63t-44 -31q35 -9 55.5 -34.5t20.5 -68.5 q0 -64 -33.5 -92.5t-94.5 -28.5zM448 725h48l-244 -725h-47z" />
<glyph unicode="&#x2158;" horiz-adv-x="700" d="M172 420h-160v44l158 261h58v-256h49v-49h-49v-103h-56v103zM172 469v178l-113 -178h113zM550 -8q-52 0 -84 28t-32 85v2h59v-2q0 -33 13 -52t44 -19q32 0 45 23t13 64v23q0 41 -13.5 64t-43.5 23q-23 0 -36 -13t-20 -35l-55 2l22 223h200v-48h-154l-12 -129 q8 17 27.5 30t47.5 13q100 0 100 -127v-28q0 -127 -121 -127zM448 725h48l-244 -725h-47z" />
<glyph unicode="&#x2159;" horiz-adv-x="700" d="M448 725h48l-244 -725h-47zM556 -8q-66 0 -95.5 38.5t-29.5 129.5v56q0 49 6 86.5t20 62.5t38.5 37.5t62.5 12.5q57 0 82.5 -30t25.5 -78v-3h-58v3q0 66 -51 66q-39 0 -51.5 -35.5t-12.5 -103.5v-16q7 17 26 33t51 16q49 0 76.5 -31.5t27.5 -95.5v-20q0 -65 -31 -96.5 t-87 -31.5zM551 34q61 0 61 87v16q0 42 -15.5 64.5t-45.5 22.5q-29 0 -44 -22.5t-15 -64.5v-15q0 -88 59 -88zM143 632h-74v40q26 0 41.5 1.5t24 6.5t12.5 15.5t8 29.5h48v-408h-60v315z" />
<glyph unicode="&#x215a;" horiz-adv-x="700" d="M145 309q-52 0 -84 28t-32 85v2h59v-2q0 -33 13 -52t44 -19q32 0 45 23t13 64v23q0 41 -13.5 64t-43.5 23q-23 0 -36 -13t-20 -35l-55 2l22 223h200v-48h-154l-12 -129q8 17 27.5 30t47.5 13q100 0 100 -127v-28q0 -127 -121 -127zM448 725h48l-244 -725h-47zM556 -8 q-66 0 -95.5 38.5t-29.5 129.5v56q0 49 6 86.5t20 62.5t38.5 37.5t62.5 12.5q57 0 82.5 -30t25.5 -78v-3h-58v3q0 66 -51 66q-39 0 -51.5 -35.5t-12.5 -103.5v-16q7 17 26 33t51 16q49 0 76.5 -31.5t27.5 -95.5v-20q0 -65 -31 -96.5t-87 -31.5zM551 34q61 0 61 87v16 q0 42 -15.5 64.5t-45.5 22.5q-29 0 -44 -22.5t-15 -64.5v-15q0 -88 59 -88z" />
<glyph unicode="&#x215b;" horiz-adv-x="700" d="M553 -8q-60 0 -94.5 28t-34.5 94q0 46 21.5 70t48.5 34q-10 3 -20.5 10t-19.5 18.5t-14.5 27t-5.5 36.5q0 58 33.5 81.5t85.5 23.5q51 0 84.5 -23.5t33.5 -81.5q0 -41 -20 -63t-39 -29q27 -10 48.5 -34t21.5 -70q0 -66 -34.5 -94t-94.5 -28zM553 34q33 0 50 20.5t17 56.5 v7q0 35 -17 55.5t-50 20.5t-50.5 -20.5t-17.5 -55.5v-7q0 -36 17.5 -56.5t50.5 -20.5zM553 235q30 0 42.5 17t12.5 49v5q0 33 -12.5 50t-42.5 17q-31 0 -43.5 -17t-12.5 -50v-5q0 -32 13 -49t43 -17zM448 725h48l-244 -725h-47zM143 632h-74v40q26 0 41.5 1.5t24 6.5 t12.5 15.5t8 29.5h48v-408h-60v315z" />
<glyph unicode="&#x215c;" horiz-adv-x="700" d="M139 309q-54 0 -84 28t-30 85v2h57v-2q0 -32 13 -51.5t44 -19.5q39 0 52.5 23t13.5 55q0 35 -17 56.5t-63 21.5h-22v43h21q68 0 68 72q0 32 -13 50t-42 18t-40.5 -17t-11.5 -52v-2h-57v2q0 57 30 84t81 27q24 0 45 -5t36.5 -17.5t24 -32.5t8.5 -50q0 -40 -18 -63t-44 -31 q35 -9 55.5 -34.5t20.5 -68.5q0 -64 -33.5 -92.5t-94.5 -28.5zM448 725h48l-244 -725h-47zM553 -8q-60 0 -94.5 28t-34.5 94q0 46 21.5 70t48.5 34q-10 3 -20.5 10t-19.5 18.5t-14.5 27t-5.5 36.5q0 58 33.5 81.5t85.5 23.5q51 0 84.5 -23.5t33.5 -81.5q0 -41 -20 -63 t-39 -29q27 -10 48.5 -34t21.5 -70q0 -66 -34.5 -94t-94.5 -28zM553 34q33 0 50 20.5t17 56.5v7q0 35 -17 55.5t-50 20.5t-50.5 -20.5t-17.5 -55.5v-7q0 -36 17.5 -56.5t50.5 -20.5zM553 235q30 0 42.5 17t12.5 49v5q0 33 -12.5 50t-42.5 17q-31 0 -43.5 -17t-12.5 -50v-5 q0 -32 13 -49t43 -17z" />
<glyph unicode="&#x215d;" horiz-adv-x="700" d="M145 309q-52 0 -84 28t-32 85v2h59v-2q0 -33 13 -52t44 -19q32 0 45 23t13 64v23q0 41 -13.5 64t-43.5 23q-23 0 -36 -13t-20 -35l-55 2l22 223h200v-48h-154l-12 -129q8 17 27.5 30t47.5 13q100 0 100 -127v-28q0 -127 -121 -127zM553 -8q-60 0 -94.5 28t-34.5 94 q0 46 21.5 70t48.5 34q-10 3 -20.5 10t-19.5 18.5t-14.5 27t-5.5 36.5q0 58 33.5 81.5t85.5 23.5q51 0 84.5 -23.5t33.5 -81.5q0 -41 -20 -63t-39 -29q27 -10 48.5 -34t21.5 -70q0 -66 -34.5 -94t-94.5 -28zM553 34q33 0 50 20.5t17 56.5v7q0 35 -17 55.5t-50 20.5 t-50.5 -20.5t-17.5 -55.5v-7q0 -36 17.5 -56.5t50.5 -20.5zM553 235q30 0 42.5 17t12.5 49v5q0 33 -12.5 50t-42.5 17q-31 0 -43.5 -17t-12.5 -50v-5q0 -32 13 -49t43 -17zM448 725h48l-244 -725h-47z" />
<glyph unicode="&#x215e;" horiz-adv-x="700" d="M75 317q5 117 38.5 205.5t99.5 154.5h-178v48h231v-48q-36 -35 -59.5 -74t-38.5 -83t-22 -94.5t-9 -108.5h-62v0zM553 -8q-60 0 -94.5 28t-34.5 94q0 46 21.5 70t48.5 34q-10 3 -20.5 10t-19.5 18.5t-14.5 27t-5.5 36.5q0 58 33.5 81.5t85.5 23.5q51 0 84.5 -23.5 t33.5 -81.5q0 -41 -20 -63t-39 -29q27 -10 48.5 -34t21.5 -70q0 -66 -34.5 -94t-94.5 -28zM553 34q33 0 50 20.5t17 56.5v7q0 35 -17 55.5t-50 20.5t-50.5 -20.5t-17.5 -55.5v-7q0 -36 17.5 -56.5t50.5 -20.5zM553 235q30 0 42.5 17t12.5 49v5q0 33 -12.5 50t-42.5 17 q-31 0 -43.5 -17t-12.5 -50v-5q0 -32 13 -49t43 -17zM448 725h48l-244 -725h-47z" />
<glyph unicode="&#x215f;" horiz-adv-x="394" d="M448 725h48l-244 -725h-47zM143 632h-74v40q26 0 41.5 1.5t24 6.5t12.5 15.5t8 29.5h48v-408h-60v315z" />
<glyph unicode="&#x2190;" horiz-adv-x="800" d="M170 228l216 -216l-55 -54l-311 311l311 311l56 -54l-217 -216h591v-82h-591z" />
<glyph unicode="&#x2191;" horiz-adv-x="800" d="M359 591l-216 -216l-54 55l311 311l311 -311l-54 -56l-216 217v-591h-82v591z" />
<glyph unicode="&#x2192;" horiz-adv-x="800" d="M630 310l-216 216l55 54l311 -311l-311 -311l-56 54l217 216h-591v82h591z" />
<glyph unicode="&#x2193;" horiz-adv-x="800" d="M441 134l216 216l54 -55l-311 -311l-311 311l54 56l216 -217v591h82v-591z" />
<glyph unicode="&#x2196;" horiz-adv-x="800" d="M215 403v-305h-77v440h440v-77h-305l418 -418l-58 -58z" />
<glyph unicode="&#x2197;" horiz-adv-x="800" d="M527 460h-305v77h440v-440h-78v305l-417 -418l-58 58z" />
<glyph unicode="&#x2198;" horiz-adv-x="800" d="M585 135v305h77v-440h-440v77h305l-418 418l58 58z" />
<glyph unicode="&#x2199;" horiz-adv-x="800" d="M273 77h305v-77h-440v440h77v-305l418 418l58 -58z" />
<glyph unicode="&#x219e;" horiz-adv-x="800" d="M448 228l216 -216l-55 -54l-270 270h-169l216 -216l-55 -54l-311 311l311 311l56 -54l-217 -216h169l270 270l56 -54l-217 -216h313v-82h-313z" />
<glyph unicode="&#x219f;" horiz-adv-x="800" d="M359 313l-216 -216l-54 55l270 270v169l-216 -216l-54 55l311 311l311 -311l-54 -56l-216 217v-169l270 -270l-54 -56l-216 217v-313h-82v313z" />
<glyph unicode="&#x21a0;" horiz-adv-x="800" d="M362 310l-216 216l55 54l270 -270h169l-216 216l55 54l311 -311l-311 -311l-56 54l217 216h-169l-270 -270l-56 54l217 216h-313v82h313z" />
<glyph unicode="&#x21a1;" horiz-adv-x="800" d="M441 412l216 216l54 -55l-270 -270v-169l216 216l54 -55l-311 -311l-311 311l54 56l216 -217v169l-270 270l54 56l216 -217v313h82v-313z" />
<glyph unicode="&#x21a2;" horiz-adv-x="800" d="M773 12l-55 -54l-270 270h-278l216 -216l-55 -54l-311 311l311 311l56 -54l-217 -216h278l270 270l56 -54l-256 -256z" />
<glyph unicode="&#x21a3;" horiz-adv-x="800" d="M291 270l-256 256l56 54l270 -270h278l-217 216l56 54l311 -311l-311 -311l-55 54l216 216h-278l-270 -270l-55 54z" />
<glyph unicode="&#x21a4;" horiz-adv-x="800" d="M679 0v228h-509l216 -216l-55 -54l-311 311l311 311l56 -54l-217 -216h509v228h82v-538h-82z" />
<glyph unicode="&#x21a5;" horiz-adv-x="800" d="M131 82h228v509l-216 -216l-54 55l311 311l311 -311l-54 -56l-216 217v-509h228v-82h-538v82z" />
<glyph unicode="&#x21a6;" horiz-adv-x="800" d="M121 538v-228h509l-216 216l55 54l311 -311l-311 -311l-56 54l217 216h-509v-228h-82v538h82z" />
<glyph unicode="&#x21a7;" horiz-adv-x="800" d="M669 643h-228v-509l216 216l54 -55l-311 -311l-311 311l54 56l216 -217v509h-228v82h538v-82z" />
<glyph unicode="&#x21b0;" horiz-adv-x="800" d="M679 -175v403h-509l216 -216l-55 -54l-311 311l311 311l56 -54l-217 -216h591v-485h-82z" />
<glyph unicode="&#x21b1;" horiz-adv-x="800" d="M39 -175v485h591l-217 216l56 54l311 -311l-311 -311l-55 54l216 216h-509v-403h-82z" />
<glyph unicode="&#x21b2;" horiz-adv-x="800" d="M170 228l217 -216l-56 -54l-311 311l311 311l55 -54l-216 -216h509v415h82v-497h-591z" />
<glyph unicode="&#x21b3;" horiz-adv-x="800" d="M121 310h509l-216 216l55 54l311 -311l-311 -311l-56 54l217 216h-591v497h82v-415z" />
<glyph unicode="&#x2202;" horiz-adv-x="464" d="M230 -13q-100 0 -146 62.5t-46 177.5v55q0 117 45 176t139 59q42 0 70.5 -14.5t43.5 -34.5l2 2q-6 41 -20.5 77t-40.5 62.5t-66.5 42t-97.5 16.5v70q158 0 234.5 -102t76.5 -319v-50q0 -66 -10 -118t-32.5 -88t-59.5 -55t-92 -19zM230 51q65 0 88 49t23 138v27 q0 90 -23.5 139.5t-87.5 49.5q-32 0 -53.5 -13t-34.5 -37.5t-18 -59.5t-5 -79v-26q0 -44 5 -79t18 -59t34.5 -37t53.5 -13z" />
<glyph unicode="&#x220f;" horiz-adv-x="540" d="M75 725h389v-900h-80v830h-228v-830h-81v900z" />
<glyph unicode="&#x2211;" horiz-adv-x="472" d="M30 -106l228 380l-227 381v70h418v-71h-329l225 -380l-228 -378h332v-71h-419v69z" />
<glyph unicode="&#x2212;" d="M28 307h492v-76h-492v76z" />
<glyph unicode="&#x221a;" horiz-adv-x="547" d="M109 165l-78 -37l-31 70l143 67l158 -339l166 799h80l-192 -900h-87z" />
<glyph unicode="&#x221e;" horiz-adv-x="787" d="M588 93q-57 0 -103.5 28.5t-90.5 80.5q-45 -52 -90.5 -80t-104.5 -28q-38 0 -69 12t-53.5 33.5t-35 51t-12.5 64.5t12.5 64.5t35.5 50.5t55 33t70 12q53 0 98 -25t93 -80q45 54 90.5 79.5t101.5 25.5q38 0 70 -12t55 -33t35.5 -50.5t12.5 -64.5q0 -36 -12 -65.5 t-34.5 -51t-54 -33.5t-69.5 -12zM201 161q45 0 78.5 25.5t68.5 69.5q-36 45 -69.5 68.5t-75.5 23.5q-44 0 -72 -25.5t-28 -67.5t28 -68t70 -26zM587 161q42 0 70 26t28 68q0 41 -28.5 67t-74.5 26q-41 0 -74.5 -24t-68.5 -68q37 -45 71.5 -70t76.5 -25z" />
<glyph unicode="&#x222b;" horiz-adv-x="332" d="M75 -185q-33 0 -54 16.5t-21 44.5q0 19 11.5 32t31.5 13q14 0 25.5 -10.5t11.5 -30.5q0 -14 -6 -26q35 2 45 38t10 99q0 43 -2.5 88t-2.5 99v297q0 66 9 113t26 77t42.5 43.5t57.5 13.5t52.5 -16.5t20.5 -44.5q0 -19 -11 -32t-31 -13q-14 0 -26 10t-12 30q0 16 7 27 q-35 -2 -45.5 -38t-10.5 -99q0 -25 1 -46t1.5 -44t1.5 -50t1 -64v-279q0 -134 -35 -191t-98 -57z" />
<glyph unicode="&#x2248;" d="M41 100q6 70 39 107t99 37q34 0 58 -11.5t44.5 -25t40 -25t45.5 -11.5q29 0 47.5 17.5t21.5 55.5h71q-5 -69 -38 -106.5t-99 -37.5q-31 0 -53.5 11t-43.5 24.5t-42 25t-49 11.5q-30 0 -47.5 -17t-22.5 -55h-71zM41 309q6 69 39 106.5t99 37.5q34 0 58 -11.5t44.5 -25 t40 -24.5t45.5 -11q29 0 47.5 17t21.5 55h71q-5 -70 -38 -107t-99 -37q-31 0 -53.5 11t-43.5 24.5t-42 25t-49 11.5q-30 0 -47.5 -17t-22.5 -55h-71z" />
<glyph unicode="&#x2260;" d="M64 194h113l74 150h-187v70h221l61 124h80l-61 -124h120v-70h-154l-74 -150h228v-70h-262l-61 -124h-80l61 124h-79v70z" />
<glyph unicode="&#x2264;" d="M510 467l-366 -142l366 -143v-74l-471 179v75l471 178v-73zM39 69h471v-69h-471v69z" />
<glyph unicode="&#x2265;" d="M39 540l471 -178v-75l-471 -179v74l368 143l-368 142v73zM510 0h-471v69h471v-69z" />
<glyph unicode="&#x25a0;" horiz-adv-x="624" d="M43 538h538v-538h-538v538z" />
<glyph unicode="&#x25a1;" horiz-adv-x="624" d="M43 538h538v-538h-538v538zM124 81h376v376h-376v-376z" />
<glyph unicode="&#x25ca;" horiz-adv-x="524" d="M441 344l-172 284l-173 -284l173 -285zM7 344l262 421l257 -421l-257 -423z" />
<glyph unicode="&#x25cb;" horiz-adv-x="602" d="M301 472q-45 0 -82 -16t-63.5 -43.5t-41.5 -65t-15 -79.5t15 -79t41.5 -64.5t63.5 -43.5t82 -16q44 0 81 16t64 43.5t42 64.5t15 79t-15 79.5t-42 65t-64 43.5t-81 16zM301 550q61 0 113 -22.5t89.5 -60.5t59 -89.5t21.5 -109.5t-21.5 -109t-59 -89.5t-89.5 -60.5 t-113 -22t-113 22t-89.5 60.5t-59 89.5t-21.5 109t21.5 109.5t59 89.5t89.5 60.5t113 22.5z" />
<glyph unicode="&#x25cf;" horiz-adv-x="602" d="M301 -13q-61 0 -113 22t-89.5 60.5t-59 89.5t-21.5 109t21.5 109.5t59 89.5t89.5 60.5t113 22.5t113 -22.5t89.5 -60.5t59 -89.5t21.5 -109.5t-21.5 -109t-59 -89.5t-89.5 -60.5t-113 -22z" />
<glyph unicode="&#xe000;" horiz-adv-x="540" d="M0 540h540v-540h-540v540z" />
<glyph unicode="&#xf6d1;" horiz-adv-x="336" d="M311 886q-2 -58 -35 -85.5t-108 -27.5t-108 27.5t-35 85.5h62q2 -36 22.5 -47.5t58.5 -11.5t58.5 11.5t22.5 47.5h62z" />
<glyph unicode="&#xf6d4;" horiz-adv-x="311" d="M155 605q-68 0 -97 33.5t-33 86.5h62q3 -36 20 -52.5t48 -16.5t48.5 16.5t20.5 52.5h62q-5 -53 -33.5 -86.5t-97.5 -33.5z" />
<glyph unicode="&#xfb01;" horiz-adv-x="461" d="M315 538h86v-538h-86v538zM315 725h86v-109h-86v109zM78 479h-71v59h71v59q0 38 7 63t23 39.5t41.5 20t63.5 5.5h48v-57h-32q-21 0 -34 -3t-19.5 -11t-9 -22.5t-2.5 -37.5v-56h97v-59h-97v-479h-86v479z" />
<glyph unicode="&#xfb02;" horiz-adv-x="461" d="M315 725h86v-725h-86v725zM78 479h-71v59h71v59q0 38 7 63t23 39.5t41.5 20t63.5 5.5h48v-57h-32q-21 0 -34 -3t-19.5 -11t-9 -22.5t-2.5 -37.5v-56h97v-59h-97v-479h-86v479z" />
<glyph horiz-adv-x="508" d="M78 479h-71v59h71v59q0 38 7 63t23 39.5t41.5 20t63.5 5.5h48v-57h-32q-21 0 -34 -3t-19.5 -11t-9 -22.5t-2.5 -37.5v-56h97v-59h-97v-479h-86v479zM457 0q-40 0 -66 5.5t-41 20.5t-20.5 40.5t-5.5 65.5v593h86v-575q0 -27 3 -43.5t11 -25.5t23.5 -12.5t40.5 -3.5h14v-65 h-45v0z" />
<glyph horiz-adv-x="557" d="M126 773q2 32 10 53.5t19.5 34.5t26.5 18.5t31 5.5q19 0 36.5 -8t33 -17t29.5 -17t26 -8q14 0 21.5 11.5t9.5 38.5h58q-2 -32 -10 -53.5t-20 -34.5t-26.5 -18.5t-29.5 -5.5q-18 0 -34.5 8t-32 17t-29 17t-25.5 8q-14 0 -24 -12t-11 -38h-59v0zM266 -13 q-116 0 -169.5 80.5t-53.5 250.5v89q0 171 55.5 251t180.5 80q108 0 163.5 -61t55.5 -170v-3h-88v3q0 85 -32.5 125t-98.5 40q-44 0 -71.5 -19.5t-43 -56.5t-21.5 -91t-6 -123v-39q0 -69 6 -123t21.5 -91t43 -56t71.5 -19q77 0 109.5 55.5t32.5 157.5v31h-171v67h250v-365 h-68l-1 96q-22 -50 -61 -79.5t-104 -29.5z" />
<glyph horiz-adv-x="725" d="M245 864h238v-65h-238v65zM73 725h131l159 -622l160 622h129v-725h-82v632h-2l-8 -39l-159 -593h-78l-159 593l-7 39h-2v-632h-82v725z" />
<glyph horiz-adv-x="725" d="M73 725h131l159 -622l160 622h129v-725h-82v632h-2l-8 -39l-159 -593h-78l-159 593l-7 39h-2v-632h-82v725zM320 886h86l111 -113h-89l-65 68l-67 -68h-87z" />
<glyph horiz-adv-x="501" d="M154 864h238v-65h-238v65zM73 725h160q62 0 110 -8t80.5 -31t49.5 -64t17 -107q0 -65 -17 -106t-49.5 -64.5t-80.5 -32.5t-110 -9h-70v-303h-90v725zM227 369q43 0 75 5t52.5 21t30.5 44.5t10 75.5q0 46 -10 75t-30.5 44.5t-52.5 21t-75 5.5h-64v-292h64z" />
<glyph horiz-adv-x="578" d="M171 864h238v-65h-238v65zM73 725h108l243 -607v607h81v-725h-107l-244 608v-608h-81v725z" />
<glyph horiz-adv-x="578" d="M152 881h79v-104h-79v104zM350 881h79v-104h-79v104zM73 725h108l243 -607v607h81v-725h-107l-244 608v-608h-81v725z" />
<glyph horiz-adv-x="578" d="M247 886h86l111 -113h-89l-65 68l-67 -68h-87zM73 725h108l243 -607v607h81v-725h-107l-244 608v-608h-81v725z" />
<glyph horiz-adv-x="485" d="M234 -188q-92 0 -134.5 43.5t-42.5 113.5v5h83v-5q0 -43 22 -69t73 -26q56 0 79 30t23 106v103q-14 -43 -47 -71.5t-84 -28.5q-79 0 -123.5 61t-44.5 179v64q0 121 44.5 177t123.5 56q51 0 84 -29t47 -71v88h86v-512q0 -104 -42.5 -159t-146.5 -55zM225 76q58 0 87 52.5 t29 149.5q0 102 -29 155t-87 53q-57 0 -77.5 -47t-20.5 -144v-15q0 -96 20.5 -150t77.5 -54zM88 613q2 31 10 52.5t19.5 34.5t26.5 18.5t31 5.5q18 0 35.5 -7.5t33 -17t29.5 -17t26 -7.5q13 0 21 11.5t10 37.5h58q-2 -32 -10.5 -53t-20.5 -34t-26 -18.5t-29 -5.5 q-18 0 -34.5 8t-32 17t-29 17t-25.5 8q-14 0 -23.5 -12t-11.5 -38h-58v0z" />
<glyph horiz-adv-x="716" d="M61 538h86v-90q15 42 48.5 71t81.5 29q55 0 82 -27t37 -81q17 50 53.5 79t84.5 29q74 0 101.5 -48.5t27.5 -146.5v-353h-86v330q0 36 -3 64.5t-10.5 48.5t-21 30.5t-35.5 10.5q-49 0 -75.5 -47.5t-26.5 -130.5v-306h-86v341q0 67 -13 105t-57 38q-49 0 -75.5 -51.5 t-26.5 -139.5v-293h-86v538zM249 696h231v-61h-231v61z" />
<glyph horiz-adv-x="716" d="M324 725h76l111 -119h-78l-70 70l-70 -70h-79zM61 538h86v-90q15 42 48.5 71t81.5 29q55 0 82 -27t37 -81q17 50 53.5 79t84.5 29q74 0 101.5 -48.5t27.5 -146.5v-353h-86v330q0 36 -3 64.5t-10.5 48.5t-21 30.5t-35.5 10.5q-49 0 -75.5 -47.5t-26.5 -130.5v-306h-86v341 q0 67 -13 105t-57 38q-49 0 -75.5 -51.5t-26.5 -139.5v-293h-86v538z" />
<glyph horiz-adv-x="468" d="M101 722h78v-107h-78v107zM300 722h78v-107h-78v107zM61 538h86v-88q15 43 50 71.5t87 28.5q74 0 103 -46.5t29 -144.5v-359h-86v331q0 37 -2.5 65.5t-11 48t-23.5 30t-39 10.5q-53 0 -80 -51.5t-27 -139.5v-294h-86v538z" />
<glyph horiz-adv-x="468" d="M122 696h231v-61h-231v61zM61 538h86v-88q15 43 50 71.5t87 28.5q74 0 103 -46.5t29 -144.5v-359h-86v331q0 37 -2.5 65.5t-11 48t-23.5 30t-39 10.5q-53 0 -80 -51.5t-27 -139.5v-294h-86v538z" />
<glyph horiz-adv-x="468" d="M198 725h76l111 -119h-78l-70 70l-70 -70h-79zM61 538h86v-88q15 43 50 71.5t87 28.5q74 0 103 -46.5t29 -144.5v-359h-86v331q0 37 -2.5 65.5t-11 48t-23.5 30t-39 10.5q-53 0 -80 -51.5t-27 -139.5v-294h-86v538z" />
<glyph horiz-adv-x="485" d="M283 551q161 0 161 -242v-79q0 -242 -161 -242q-51 0 -87 29t-49 71v-263h-86v713h86v-86q13 42 49 70.5t87 28.5zM259 487q-56 0 -85.5 -55.5t-29.5 -161.5t29.5 -162t85.5 -56t76 52t20 151v29q0 100 -20 151.5t-76 51.5zM135 696h231v-61h-231v61z" />
<glyph horiz-adv-x="549" d="M274 -13q-60 0 -101.5 19.5t-67 60.5t-36.5 103t-11 148v89q0 85 11 147.5t36.5 103.5t67 60.5t101.5 19.5q61 0 102.5 -19.5t67 -60.5t37 -103.5t11.5 -147.5v-89q0 -86 -11.5 -148t-37 -103t-67 -60.5t-102.5 -19.5zM402 456q-2 53 -8.5 94t-20.5 69t-38 42.5t-61 14.5 q-42 0 -67.5 -19.5t-39 -56.5t-17.5 -91.5t-4 -123.5v-61zM274 50q43 0 68.5 19.5t39 56.5t17.5 91t4 123v49l-256 -131q2 -50 9 -89t21 -65.5t37.5 -40t59.5 -13.5z" />
<glyph horiz-adv-x="481" d="M199 -13q-160 0 -160 242v79q0 242 160 242q51 0 86.5 -29t49.5 -71v88h85v-538h-85v86q-14 -42 -49.5 -70.5t-86.5 -28.5zM223 51q55 0 85 52.5t30 164.5q0 113 -30 165.5t-85 52.5q-56 0 -76.5 -52t-20.5 -151v-29q0 -101 20.5 -152t76.5 -51z" />
<glyph horiz-adv-x="481" d="M199 -13q-160 0 -160 242v79q0 242 160 242q51 0 86.5 -29t49.5 -71v88h85v-538h-85v86q-14 -42 -49.5 -70.5t-86.5 -28.5zM223 51q55 0 85 52.5t30 164.5q0 113 -30 165.5t-85 52.5q-56 0 -76.5 -52t-20.5 -151v-29q0 -101 20.5 -152t76.5 -51zM193 722h78v-107h-78v107 z" />
<glyph horiz-adv-x="481" d="M199 -13q-160 0 -160 242v79q0 242 160 242q51 0 86.5 -29t49.5 -71v88h85v-538h-85v86q-14 -42 -49.5 -70.5t-86.5 -28.5zM223 51q55 0 85 52.5t30 164.5q0 113 -30 165.5t-85 52.5q-56 0 -76.5 -52t-20.5 -151v-29q0 -101 20.5 -152t76.5 -51zM88 613q2 31 10 52.5 t19.5 34.5t26.5 18.5t31 5.5q18 0 35.5 -7.5t33 -17t29.5 -17t26 -7.5q13 0 21 11.5t10 37.5h58q-2 -32 -10.5 -53t-20.5 -34t-26 -18.5t-29 -5.5q-18 0 -34.5 8t-32 17t-29 17t-25.5 8q-14 0 -23.5 -12t-11.5 -38h-58v0z" />
<glyph horiz-adv-x="481" d="M231 590q-38 0 -64 23t-26 60q0 17 7.5 33.5t15.5 26.5l82 115h110l-98 -102q26 -5 43 -25t17 -48q0 -37 -25.5 -60t-61.5 -23zM231 623q20 0 34.5 13.5t14.5 36.5t-14.5 36.5t-34.5 13.5t-35.5 -13.5t-15.5 -36.5t15.5 -36.5t35.5 -13.5zM199 -13q-160 0 -160 242v79 q0 242 160 242q51 0 86.5 -29t49.5 -71v88h85v-538h-85v86q-14 -42 -49.5 -70.5t-86.5 -28.5zM223 51q55 0 85 52.5t30 164.5q0 113 -30 165.5t-85 52.5q-56 0 -76.5 -52t-20.5 -151v-29q0 -101 20.5 -152t76.5 -51z" />
<glyph horiz-adv-x="481" d="M233 726q-18 0 -33 -13t-15 -35q0 -21 15 -34.5t33 -13.5q20 0 34.5 13.5t14.5 34.5q0 22 -14.5 35t-34.5 13zM233 593q-37 0 -63 23.5t-26 61.5q0 37 26.5 61t62.5 24q38 0 64 -24t26 -61q0 -38 -26 -61.5t-64 -23.5zM199 -13q-160 0 -160 242v79q0 242 160 242 q51 0 86.5 -29t49.5 -71v88h85v-538h-85v86q-14 -42 -49.5 -70.5t-86.5 -28.5zM223 51q55 0 85 52.5t30 164.5q0 113 -30 165.5t-85 52.5q-56 0 -76.5 -52t-20.5 -151v-29q0 -101 20.5 -152t76.5 -51z" />
<glyph horiz-adv-x="485" d="M199 -13q-160 0 -160 242v79q0 242 160 242q51 0 86.5 -29t49.5 -71v88h85v-538h1q-39 -19 -65.5 -43.5t-26.5 -49.5q0 -20 14 -30.5t38 -10.5q13 0 22 2.5t18 5.5v-54q-15 -4 -30.5 -5.5t-29.5 -1.5q-21 0 -41 5t-35.5 14.5t-25 25t-9.5 36.5q0 15 7 31t19 30.5t27.5 26 t31.5 18.5v86q-14 -42 -49.5 -70.5t-86.5 -28.5zM223 51q55 0 85 52.5t30 164.5q0 113 -30 165.5t-85 52.5q-56 0 -76.5 -52t-20.5 -151v-29q0 -101 20.5 -152t76.5 -51z" />
<glyph horiz-adv-x="481" d="M199 -13q-160 0 -160 242v79q0 242 160 242q51 0 86.5 -29t49.5 -71v88h85v-538h-85v86q-14 -42 -49.5 -70.5t-86.5 -28.5zM223 51q55 0 85 52.5t30 164.5q0 113 -30 165.5t-85 52.5q-56 0 -76.5 -52t-20.5 -151v-29q0 -101 20.5 -152t76.5 -51zM116 696h231v-61h-231v61 z" />
<glyph horiz-adv-x="481" d="M199 -13q-160 0 -160 242v79q0 242 160 242q51 0 86.5 -29t49.5 -71v88h85v-538h-85v86q-14 -42 -49.5 -70.5t-86.5 -28.5zM223 51q55 0 85 52.5t30 164.5q0 113 -30 165.5t-85 52.5q-56 0 -76.5 -52t-20.5 -151v-29q0 -101 20.5 -152t76.5 -51zM98 725h105l64 -119h-68z " />
<glyph horiz-adv-x="481" d="M94 722h78v-107h-78v107zM293 722h78v-107h-78v107zM199 -13q-160 0 -160 242v79q0 242 160 242q51 0 86.5 -29t49.5 -71v88h85v-538h-85v86q-14 -42 -49.5 -70.5t-86.5 -28.5zM223 51q55 0 85 52.5t30 164.5q0 113 -30 165.5t-85 52.5q-56 0 -76.5 -52t-20.5 -151v-29 q0 -101 20.5 -152t76.5 -51z" />
<glyph horiz-adv-x="481" d="M192 725h76l111 -119h-78l-70 70l-70 -70h-79zM199 -13q-160 0 -160 242v79q0 242 160 242q51 0 86.5 -29t49.5 -71v88h85v-538h-85v86q-14 -42 -49.5 -70.5t-86.5 -28.5zM223 51q55 0 85 52.5t30 164.5q0 113 -30 165.5t-85 52.5q-56 0 -76.5 -52t-20.5 -151v-29 q0 -101 20.5 -152t76.5 -51z" />
<glyph horiz-adv-x="481" d="M199 -13q-160 0 -160 242v79q0 242 160 242q51 0 86.5 -29t49.5 -71v88h85v-538h-85v86q-14 -42 -49.5 -70.5t-86.5 -28.5zM223 51q55 0 85 52.5t30 164.5q0 113 -30 165.5t-85 52.5q-56 0 -76.5 -52t-20.5 -151v-29q0 -101 20.5 -152t76.5 -51zM232 605q-68 0 -97 33.5 t-33 86.5h62q3 -36 20 -52.5t48 -16.5t48.5 16.5t20.5 52.5h62q-5 -53 -33.5 -86.5t-97.5 -33.5z" />
<glyph horiz-adv-x="481" d="M209 -50h78v-108h-78v108zM199 -13q-160 0 -160 242v79q0 242 160 242q51 0 86.5 -29t49.5 -71v88h85v-538h-85v86q-14 -42 -49.5 -70.5t-86.5 -28.5zM223 51q55 0 85 52.5t30 164.5q0 113 -30 165.5t-85 52.5q-56 0 -76.5 -52t-20.5 -151v-29q0 -101 20.5 -152t76.5 -51 z" />
<glyph horiz-adv-x="481" d="M249 725h103l-101 -119h-68zM199 -13q-160 0 -160 242v79q0 242 160 242q51 0 86.5 -29t49.5 -71v88h85v-538h-85v86q-14 -42 -49.5 -70.5t-86.5 -28.5zM223 51q55 0 85 52.5t30 164.5q0 113 -30 165.5t-85 52.5q-56 0 -76.5 -52t-20.5 -151v-29q0 -101 20.5 -152 t76.5 -51z" />
<glyph horiz-adv-x="245" d="M194 0q-40 0 -66 5.5t-41 20.5t-20.5 40.5t-5.5 65.5v593h86v-575q0 -27 3 -43.5t11 -25.5t23.5 -12.5t40.5 -3.5h14v-65h-45v0z" />
<glyph horiz-adv-x="244" d="M194 0q-40 0 -66 5.5t-41 20.5t-20.5 40.5t-5.5 65.5v593h86v-575q0 -27 3 -43.5t11 -25.5t23.5 -12.5t40.5 -3.5h14v-65h-45v0zM136 886h113l-104 -113h-79z" />
<glyph horiz-adv-x="245" d="M225 725h85l-56 -170h-57zM194 0q-40 0 -66 5.5t-41 20.5t-20.5 40.5t-5.5 65.5v593h86v-575q0 -27 3 -43.5t11 -25.5t23.5 -12.5t40.5 -3.5h14v-65h-45z" />
<glyph horiz-adv-x="243" d="M90 -50h87v-88l-40 -83h-49l36 89h-34v82zM193 0q-40 0 -66 5.5t-41 20.5t-20.5 40.5t-5.5 65.5v593h86v-575q0 -27 3 -43.5t11 -25.5t23.5 -12.5t40.5 -3.5h14v-65h-45v0z" />
<glyph horiz-adv-x="318" d="M227 423h78v-107h-78v107zM194 0q-40 0 -66 5.5t-41 20.5t-20.5 40.5t-5.5 65.5v593h86v-575q0 -27 3 -43.5t11 -25.5t23.5 -12.5t40.5 -3.5h14v-65h-45v0z" />
<glyph horiz-adv-x="264" d="M0 349l63 41v335h86v-278l88 58v-76l-88 -58v-221q0 -27 3 -43.5t11 -25.5t23.5 -12.5t40.5 -3.5h14v-65h-45q-40 0 -66 5.5t-41 20.5t-20.5 40.5t-5.5 65.5v182l-63 -41v76z" />
<glyph horiz-adv-x="502" d="M61 528q0 58 13 98t37.5 65t60 36t81.5 11q38 0 71.5 -9.5t58 -29.5t39 -52.5t14.5 -78.5q0 -65 -29.5 -105t-77.5 -54q29 -6 54 -20t43.5 -37.5t29 -57t10.5 -78.5q0 -113 -51.5 -164.5t-157.5 -51.5h-48v59h41q36 0 60.5 11.5t39.5 32t21.5 49.5t6.5 64q0 79 -35 117.5 t-114 38.5h-24v62h22q29 0 52 6t38.5 21t24 39.5t8.5 61.5q0 57 -25.5 86t-73.5 29q-58 0 -81 -34.5t-23 -112.5v-705h-86v703z" />
<glyph horiz-adv-x="550" d="M275 -13q-60 0 -101.5 19.5t-67 60.5t-36.5 103t-11 148v89q0 85 11 147.5t36.5 103.5t67 60.5t101.5 19.5q61 0 102.5 -19.5t67 -60.5t37 -103.5t11.5 -147.5v-89q0 -86 -11.5 -148t-37 -103t-67 -60.5t-102.5 -19.5zM275 49q43 0 68.5 19.5t39 56.5t17.5 91.5t4 123.5 v45q0 69 -4 123.5t-17.5 92t-39 57t-68.5 19.5t-68.5 -19.5t-39 -57t-17.5 -92t-4 -123.5v-45q0 -69 4 -123.5t17.5 -91.5t39 -56.5t68.5 -19.5z" />
<glyph horiz-adv-x="325" d="M150 572h-137v56q50 0 78.5 2t44 11.5t22 29t12.5 54.5h67v-725h-87v572z" />
<glyph horiz-adv-x="480" d="M41 67l81 102q45 57 86 109.5t72 100.5t49.5 92.5t18.5 86.5q0 61 -28.5 90t-79.5 29q-58 0 -85.5 -40t-27.5 -114v-7h-81v6q0 104 49.5 160t149.5 56q42 0 76.5 -10t60 -31.5t39.5 -54.5t14 -79q0 -47 -18 -94t-49 -97t-73 -105t-90 -116l-65 -82h298v-69h-397v67z" />
<glyph horiz-adv-x="505" d="M235 -13q-94 0 -146 50.5t-52 145.5v4h81v-4q0 -58 27.5 -96t90.5 -38q38 0 63 11.5t39.5 31.5t20.5 47t6 57q0 35 -8 62.5t-26.5 46.5t-48.5 29t-74 10h-38v64h36q69 0 103 34t34 106q0 63 -27 96t-84 33q-59 0 -82 -35.5t-23 -97.5v-4h-81v4q0 95 49.5 144.5 t139.5 49.5q41 0 77 -9.5t62.5 -31t41.5 -57t15 -87.5q0 -68 -30.5 -112t-83.5 -58q63 -14 100 -60.5t37 -124.5q0 -109 -57 -160t-162 -51z" />
<glyph horiz-adv-x="509" d="M306 189h-290v65l291 471h85v-467h84v-69h-84v-189h-86v189zM306 258v353l-220 -353h220z" />
<glyph horiz-adv-x="506" d="M241 -13q-93 0 -146 50.5t-53 145.5v4h82v-4q0 -63 28.5 -98.5t88.5 -35.5q64 0 94 44t30 124v36q0 80 -29.5 124.5t-89.5 44.5q-47 0 -74.5 -26.5t-41.5 -69.5l-77 3l38 396h346v-68h-280l-23 -249q14 29 49.5 52.5t89.5 23.5q85 0 133 -57t48 -167v-48q0 -109 -56 -167 t-157 -58z" />
<glyph horiz-adv-x="535" d="M274 -13q-51 0 -90.5 15t-66.5 48.5t-41.5 87.5t-14.5 132v100q0 91 10 160t35.5 115t68.5 69.5t108 23.5q47 0 82 -14.5t58.5 -39.5t35 -60t11.5 -75v-6h-81v5q0 60 -26 94.5t-82 34.5q-38 0 -64 -17.5t-41.5 -51.5t-22 -85t-6.5 -117v-24q5 16 17 33t30.5 31t43 23 t55.5 9q86 0 138 -56.5t52 -169.5v-39q0 -57 -15 -99.5t-42.5 -70.5t-66 -42t-85.5 -14zM271 49q59 0 91.5 42.5t32.5 124.5v28q0 83 -32.5 126.5t-91.5 43.5q-58 0 -91.5 -45t-33.5 -127v-24q0 -81 33.5 -125t91.5 -44z" />
<glyph horiz-adv-x="434" d="M84 0q6 108 26 200.5t53.5 173t81 150.5t108.5 133h-339v68h416v-68q-65 -66 -111.5 -137t-77 -150.5t-47 -171t-22.5 -198.5h-88v0z" />
<glyph horiz-adv-x="539" d="M270 -13q-52 0 -93.5 12t-71 38t-45.5 66.5t-16 97.5q0 44 11.5 76t30 54t41 35.5t45.5 21.5q-17 6 -36.5 18.5t-35.5 32.5t-26.5 48.5t-10.5 66.5q0 48 15.5 83t43 57.5t65.5 33t83 10.5t82.5 -10.5t65 -33t43 -57.5t15.5 -83q0 -38 -10.5 -66.5t-26.5 -48.5 t-35.5 -32.5t-37.5 -18.5q23 -8 46 -21.5t41.5 -35.5t30 -54t11.5 -76q0 -57 -16 -97.5t-45 -66.5t-71 -38t-93 -12zM270 49q62 0 99 37t37 107v16q0 70 -36.5 107.5t-99.5 37.5t-100.5 -37.5t-37.5 -106.5v-17q0 -70 37.5 -107t100.5 -37zM270 413q57 0 87 31.5t30 94.5v12 q0 63 -30 94.5t-87 31.5q-118 0 -118 -126v-13q0 -63 30.5 -94t87.5 -31z" />
<glyph horiz-adv-x="535" d="M253 -13q-47 0 -82 14.5t-58 39.5t-34 59.5t-11 75.5v6h82v-4q0 -60 24.5 -94.5t80.5 -34.5q77 0 105.5 68.5t28.5 201.5v24q-5 -16 -17 -33t-30.5 -31t-43 -23t-55.5 -9q-86 0 -138.5 56.5t-52.5 169.5v39q0 114 57.5 170t152.5 56q51 0 90.5 -15t66.5 -48.5t41.5 -87.5 t14.5 -132v-100q0 -91 -10 -160t-35.5 -115t-68 -69.5t-108.5 -23.5zM265 311q60 0 92 45.5t32 126.5v24q0 81 -32 125.5t-92 44.5q-59 0 -91 -42.5t-32 -125.5v-28q0 -83 32 -126.5t91 -43.5z" />
<glyph horiz-adv-x="521" d="M260 -13q-60 0 -101.5 19.5t-67 60.5t-36.5 103t-11 148v89q0 85 11 147.5t36.5 103.5t67 60.5t101.5 19.5q61 0 102.5 -19.5t67 -60.5t37 -103.5t11.5 -147.5v-89q0 -86 -11.5 -148t-37 -103t-67 -60.5t-102.5 -19.5zM131 323l257 133q-2 53 -8.5 94t-20.5 69.5t-38 43 t-61 14.5q-43 0 -68.5 -19.5t-39 -57t-17.5 -92t-4 -123.5v-45v-17zM260 49q43 0 68.5 19.5t39 56.5t17.5 91.5t4 123.5v45v4l-257 -131q2 -50 9 -89t21.5 -65.5t38 -40.5t59.5 -14z" />
<glyph d="M274 50q43 0 68 19.5t38.5 56.5t17.5 91t4 123v45q0 69 -4 123.5t-17.5 91.5t-38.5 56.5t-68 19.5q-42 0 -67.5 -19.5t-39 -56.5t-17.5 -91.5t-4 -123.5v-45q0 -69 4 -123t17.5 -91t39 -56.5t67.5 -19.5zM274 -13q-60 0 -101.5 19.5t-67 60.5t-37 103t-11.5 148v89 q0 85 11.5 147.5t37 103.5t67 60.5t101.5 19.5q61 0 102.5 -19.5t67 -60.5t36.5 -103.5t11 -147.5v-89q0 -86 -11 -148t-36.5 -103t-67 -60.5t-102.5 -19.5z" />
<glyph d="M57 69h183v503h-160v56q46 0 77.5 3t51.5 13t31.5 29.5t18.5 51.5h66v-656h166v-69h-434v69z" />
<glyph d="M75 67l81 102q45 57 86 109.5t72.5 100.5t50 92.5t18.5 86.5q0 61 -29 90t-80 29q-57 0 -85 -40t-28 -114v-7h-81v6q0 104 49.5 160t150.5 56q42 0 77 -10t60 -31.5t39 -54.5t14 -79q0 -47 -18 -94t-49 -97t-73.5 -105t-90.5 -116l-64 -82h298v-69h-398v67z" />
<glyph horiz-adv-x="549" d="M263 -13q-94 0 -145.5 50.5t-51.5 145.5v4h82v-4q0 -58 27 -95.5t90 -37.5q39 0 64 11.5t39.5 31t20.5 46.5t6 57q0 35 -8 62.5t-26.5 46.5t-48.5 29t-74 10h-40v64h38q69 0 103 34t34 106q0 63 -27.5 96t-84.5 33q-59 0 -81.5 -35t-22.5 -98v-4h-82v4q0 95 49.5 144.5 t139.5 49.5q41 0 77 -9.5t62.5 -31t42 -57t15.5 -87.5q0 -68 -30.5 -112t-84.5 -58q63 -14 100 -60.5t37 -124.5q0 -109 -57 -160t-163 -51z" />
<glyph horiz-adv-x="549" d="M335 189h-290v65l291 471h84v-467h84v-69h-84v-189h-85v189zM335 258v353l-220 -353h220z" />
<glyph d="M268 -13q-94 0 -147 50.5t-53 145.5v4h82v-4q0 -63 29 -98.5t89 -35.5q63 0 93.5 44t30.5 124v36q0 80 -30 124.5t-90 44.5q-46 0 -74 -26.5t-42 -69.5l-77 3l38 396h346v-68h-279l-24 -249q14 29 50 52.5t89 23.5q85 0 133 -57t48 -167v-48q0 -109 -56 -167t-156 -58z " />
<glyph d="M276 -13q-51 0 -90.5 15t-66.5 48.5t-41.5 87.5t-14.5 132v100q0 91 10 160t35.5 115t68.5 69.5t108 23.5q47 0 82.5 -14.5t59 -39.5t35 -60t11.5 -75v-6h-82v5q0 60 -26 94.5t-82 34.5q-76 0 -105 -69t-29 -202v-24q5 16 17 33t30.5 31t43 23t55.5 9q86 0 138 -56.5 t52 -169.5v-39q0 -114 -57 -170t-152 -56zM273 49q59 0 91 42.5t32 124.5v28q0 83 -32 126.5t-91 43.5q-58 0 -91.5 -45t-33.5 -127v-24q0 -81 33.5 -125t91.5 -44z" />
<glyph d="M141 0q7 108 26.5 200.5t53 173t80 150.5t107.5 133h-347v68h426v-68q-65 -66 -111.5 -137t-77 -150.5t-47 -171t-22.5 -198.5h-88v0z" />
<glyph d="M274 -13q-51 0 -93 12t-71 38t-45 66.5t-16 97.5q0 44 11.5 76t30 54t41.5 35.5t46 21.5q-18 6 -37 18.5t-35.5 32.5t-27 48.5t-10.5 66.5q0 48 15.5 83t42.5 57.5t65 33t83 10.5t83 -10.5t65.5 -33t43 -57.5t15.5 -83q0 -38 -10.5 -66.5t-26.5 -48.5t-35.5 -32.5 t-37.5 -18.5q23 -8 46 -21.5t41.5 -35.5t30 -54t11.5 -76q0 -57 -16 -97.5t-45.5 -66.5t-71 -38t-93.5 -12zM274 49q63 0 100 37t37 107v16q0 70 -37 107.5t-100 37.5t-100.5 -37.5t-37.5 -106.5v-17q0 -70 37.5 -107t100.5 -37zM274 413q117 0 117 126v12q0 126 -117 126 q-57 0 -87 -31.5t-30 -94.5v-13q0 -63 30 -94t87 -31z" />
<glyph d="M263 -13q-47 0 -81.5 14.5t-57.5 39.5t-34.5 59.5t-11.5 75.5v6h82v-4q0 -60 24.5 -94.5t80.5 -34.5q77 0 105.5 68.5t28.5 201.5v24q-5 -16 -17 -33t-30.5 -31t-43 -23t-55.5 -9q-86 0 -138 56.5t-52 169.5v39q0 114 57 170t152 56q51 0 90.5 -15t66.5 -48.5t41.5 -87.5 t14.5 -132v-100q0 -91 -10 -160t-35.5 -115t-68 -69.5t-108.5 -23.5zM275 311q60 0 92.5 45.5t32.5 126.5v24q0 81 -32.5 125.5t-92.5 44.5q-59 0 -91 -42.5t-32 -125.5v-28q0 -83 32 -126.5t91 -43.5z" />
<glyph d="M274 -13q-60 0 -101.5 19.5t-67 60.5t-37 103t-11.5 148v89q0 85 11.5 147.5t37 103.5t67 60.5t101.5 19.5q61 0 102.5 -19.5t67 -60.5t36.5 -103.5t11 -147.5v-89q0 -86 -11 -148t-36.5 -103t-67 -60.5t-102.5 -19.5zM146 319l255 132q-2 54 -8 96t-20 70.5t-38 43.5 t-61 15q-42 0 -67.5 -19.5t-39 -56.5t-17.5 -91.5t-4 -123.5v-45v-21zM274 50q43 0 68 19.5t38.5 56.5t17.5 91t4 123v45v1l-254 -131q2 -50 8.5 -88t21 -64t37.5 -39.5t59 -13.5z" />
<glyph horiz-adv-x="517" d="M258 47q37 0 58.5 17.5t33 50t15 80t3.5 107.5v45q0 60 -3.5 107.5t-15 80t-33 49.5t-58.5 17q-36 0 -57.5 -17t-33 -49.5t-14.5 -80t-3 -107.5v-45q0 -60 3 -107.5t14.5 -80t33 -50t57.5 -17.5zM258 -13q-56 0 -93.5 17.5t-60.5 54.5t-33 92.5t-10 132.5v82q0 76 10 132 t33 92.5t60.5 54.5t93.5 18t94 -18t61 -54.5t33 -92.5t10 -132v-82q0 -77 -10 -132.5t-33 -92.5t-61 -54.5t-94 -17.5z" />
<glyph horiz-adv-x="303" d="M136 511h-120v55q44 0 69 2t39 10.5t20 25.5t12 48h67v-652h-87v511z" />
<glyph horiz-adv-x="458" d="M46 67l73 91q42 52 78.5 99t63.5 89t42.5 80.5t15.5 74.5q0 51 -23.5 76t-66.5 25q-48 0 -70.5 -34t-22.5 -100v-6h-84v6q0 94 45 145t137 51q79 0 127 -38.5t48 -119.5q0 -41 -15.5 -82t-42.5 -85.5t-64 -92.5t-79 -103l-59 -74h263v-69h-366v67z" />
<glyph horiz-adv-x="479" d="M126 169v-4q0 -52 22.5 -85t75.5 -33q31 0 52.5 10t34 27.5t18 41t5.5 51.5q0 63 -29 95t-103 32h-36v64h33q60 0 87.5 30t27.5 90q0 56 -21.5 84.5t-71.5 28.5q-51 0 -69.5 -29t-18.5 -86v-3h-83v3q0 89 46.5 133t127.5 44q38 0 71 -8.5t57.5 -28t38.5 -52t14 -79.5 q0 -62 -28 -100.5t-73 -51.5q54 -14 87 -54.5t33 -112.5q0 -99 -53.5 -144t-147.5 -45q-84 0 -131.5 45t-47.5 133v4h82z" />
<glyph horiz-adv-x="486" d="M282 168h-255v65l257 419h85v-414h77v-70h-77v-168h-87v168zM282 238v301l-186 -301h186z" />
<glyph horiz-adv-x="477" d="M230 -13q-84 0 -133 45t-49 133v4h82v-4q0 -55 24.5 -86.5t75.5 -31.5q54 0 78.5 39t24.5 108v34q0 69 -24.5 107.5t-76.5 38.5q-38 0 -61.5 -22.5t-34.5 -59.5l-78 3l32 356h316v-69h-248l-19 -215q12 27 43 48t79 21q77 0 119.5 -51.5t42.5 -151.5v-43 q0 -100 -50 -151.5t-143 -51.5z" />
<glyph horiz-adv-x="504" d="M259 -13q-48 0 -85 14t-61.5 45.5t-37 81t-12.5 121.5v89q0 81 9.5 141.5t32.5 101.5t62 61.5t98 20.5q43 0 75 -13t53 -36t31.5 -54t10.5 -68v-6h-82v5q0 53 -21.5 81.5t-68.5 28.5q-65 0 -88 -58.5t-23 -173.5v-24q4 14 14.5 28.5t26.5 26.5t37.5 20t48.5 8 q78 0 123 -50.5t45 -152.5v-33q0 -104 -50 -154.5t-138 -50.5zM254 49q50 0 77 36.5t27 108.5v26q0 70 -27 108t-77 38t-77 -39t-27 -110v-22q0 -71 27 -108.5t77 -37.5z" />
<glyph horiz-adv-x="425" d="M95 0q10 190 70 331t168 252h-300v69h377v-69q-58 -60 -98.5 -123t-67.5 -133.5t-41 -151.5t-18 -175h-90v0z" />
<glyph horiz-adv-x="509" d="M255 -13q-47 0 -85 11t-64.5 34t-41 60t-14.5 88q0 39 10 67t26 48t36.5 32.5t41.5 20.5q-16 4 -33 15.5t-31.5 29.5t-23.5 43.5t-9 59.5q0 44 14 75.5t39.5 52t59.5 30t75 9.5q40 0 74.5 -9.5t59.5 -30t39 -52t14 -75.5q0 -34 -9.5 -59.5t-23.5 -43.5t-31 -29.5 t-33 -15.5q21 -8 41.5 -20.5t36.5 -32.5t26 -48t10 -67q0 -51 -14 -88t-40.5 -60t-64.5 -34t-85 -11zM255 47q55 0 84.5 33.5t29.5 92.5v14q0 60 -29.5 93t-84.5 33q-56 0 -85.5 -33t-29.5 -93v-14q0 -59 29.5 -92.5t85.5 -33.5zM255 372q50 0 73.5 28t23.5 82v10 q0 109 -97 109q-98 0 -98 -109v-11q0 -109 98 -109z" />
<glyph horiz-adv-x="504" d="M239 -13q-43 0 -75 13t-53 35.5t-31 54t-10 68.5v4h82v-3q0 -54 21 -83t68 -29q65 0 87.5 59.5t22.5 174.5v22q-5 -14 -15 -28t-26 -26t-37 -19.5t-48 -7.5q-79 0 -124 50t-45 152v34q0 103 50.5 154t138.5 51q48 0 84.5 -14t60.5 -45.5t36.5 -81t12.5 -121.5v-89 q0 -81 -9 -142t-32 -101.5t-61.5 -61t-97.5 -20.5zM249 284q49 0 76.5 39t27.5 110v22q0 71 -27.5 108.5t-76.5 37.5q-50 0 -77 -36.5t-27 -108.5v-26q0 -70 27 -108t77 -38z" />
<glyph horiz-adv-x="482" d="M240 -13q-56 0 -93.5 17.5t-60.5 54.5t-33 92.5t-10 132.5v82q0 76 10 132t33 92.5t60.5 54.5t93.5 18t94 -18t61 -54.5t33 -92.5t10 -132v-82q0 -77 -10 -132.5t-33 -92.5t-61 -54.5t-94 -17.5zM240 47q37 0 58.5 17.5t33 50t15 80t3.5 107.5v45v10l-217 -124 q1 -44 6.5 -78.5t17.5 -58.5t32 -36.5t51 -12.5zM132 298l216 124q-2 43 -7.5 76t-18 56t-32.5 35t-50 12q-36 0 -57.5 -17t-33 -49.5t-14.5 -80t-3 -107.5v-45v-4z" />
<glyph horiz-adv-x="534" d="M267 50q42 0 67 19.5t38.5 56.5t17.5 91t4 123v45q0 69 -4 122.5t-17.5 90.5t-38.5 56t-67 19t-66.5 -19t-37.5 -56t-17 -90.5t-4 -122.5v-45q0 -69 4 -123t17 -91t37.5 -56.5t66.5 -19.5zM267 -13q-61 0 -102.5 19.5t-67 60.5t-36.5 103t-11 148v89q0 85 11 147.5 t36.5 103.5t67 60.5t102.5 19.5t103 -19.5t67.5 -60.5t37 -103.5t11.5 -147.5v-89q0 -86 -11.5 -148t-37 -103t-67.5 -60.5t-103 -19.5z" />
<glyph horiz-adv-x="312" d="M147 571h-136v57q49 1 77.5 3t44 11.5t22 28.5t12.5 54h69v-725h-89v571z" />
<glyph horiz-adv-x="471" d="M36 69l81 102q45 57 86 109.5t71.5 100.5t48.5 92t18 85q0 60 -27.5 89t-77.5 29q-57 0 -83.5 -40t-26.5 -114v-7h-85v7q0 104 49.5 160t151.5 56q42 0 77 -10.5t60.5 -32t39.5 -54.5t14 -78q0 -46 -18 -92.5t-49 -96.5t-73 -104.5t-90 -116.5l-63 -82h296v-71h-400v69z " />
<glyph horiz-adv-x="495" d="M230 -13q-94 0 -146 50.5t-52 145.5v4h85v-4q0 -29 6.5 -53t20 -42t35 -28t52.5 -10q38 0 63 11.5t39.5 31.5t20 47t5.5 57q0 69 -33.5 107t-120.5 38h-39v67h37q67 0 100 33.5t33 104.5q0 62 -26 95.5t-83 33.5q-58 0 -80 -34.5t-22 -97.5v-4h-85v4q0 97 50 145.5 t140 48.5q42 0 78 -9.5t62.5 -31t42 -57t15.5 -87.5q0 -69 -30.5 -112.5t-83.5 -57.5q62 -14 99.5 -60.5t37.5 -124.5q0 -109 -57.5 -160t-163.5 -51z" />
<glyph horiz-adv-x="504" d="M303 189h-288v66l289 470h88v-464h85v-72h-85v-189h-89v189zM303 261v347l-218 -347h218z" />
<glyph horiz-adv-x="494" d="M237 -13q-94 0 -147 50.5t-53 145.5v4h84v-4q0 -62 28 -97.5t88 -35.5q62 0 91 44.5t29 122.5v36q0 79 -28.5 123.5t-88.5 44.5q-45 0 -72 -26t-41 -69l-79 3l37 396h347v-70h-279l-23 -247q7 15 20 28.5t30.5 24t40 17t48.5 6.5q86 0 133 -57t47 -167v-48 q0 -109 -55 -167t-157 -58z" />
<glyph horiz-adv-x="520" d="M266 -13q-51 0 -91 15t-67.5 48.5t-41.5 88t-14 133.5v99q0 91 10 160t35.5 115t68.5 69t108 23q48 0 83 -14.5t58 -39.5t34.5 -60t11.5 -75v-6h-84v4q0 60 -25.5 94t-79.5 34q-75 0 -102.5 -68t-27.5 -199v-25q5 16 17 32.5t30 30.5t42.5 23t54.5 9q86 0 137.5 -56.5 t51.5 -169.5v-39q0 -114 -56.5 -170t-152.5 -56zM262 49q58 0 90 43t32 124v28q0 82 -32 125t-90 43q-57 0 -89 -44.5t-32 -125.5v-24q0 -81 32 -125t89 -44z" />
<glyph horiz-adv-x="432" d="M82 0q6 107 26 199t53.5 172.5t80.5 150.5t108 133h-338v70h418v-70q-65 -66 -111.5 -137t-76.5 -150.5t-46 -170.5t-21 -197h-93v0z" />
<glyph horiz-adv-x="526" d="M263 -13q-52 0 -93.5 12t-71 38t-45 66.5t-15.5 97.5q0 44 11.5 76t29.5 54t41 35.5t46 21.5q-18 6 -37 18.5t-35.5 32.5t-27 48.5t-10.5 66.5q0 48 15.5 83t43 57.5t65.5 33t83 10.5t83 -10.5t65.5 -33t43 -57.5t15.5 -83q0 -38 -10.5 -66.5t-26.5 -48.5t-35 -32.5 t-36 -18.5q22 -8 45 -21.5t41 -35.5t29.5 -54t11.5 -76q0 -57 -16 -97.5t-45 -66.5t-71 -38t-94 -12zM263 50q63 0 98.5 37t35.5 106v16q0 69 -35.5 106.5t-98.5 37.5q-62 0 -98 -37t-36 -106v-17q0 -69 36 -106t98 -37zM263 413q115 0 115 126v12q0 125 -115 125 q-114 0 -114 -125v-13q0 -125 114 -125z" />
<glyph horiz-adv-x="520" d="M245 -13q-47 0 -82 14.5t-58 39.5t-34.5 59.5t-11.5 75.5v6h85v-4q0 -60 24.5 -94t78.5 -34q38 0 63 17t40 51t21.5 84t6.5 115v25q-5 -16 -17 -32.5t-30 -30.5t-42.5 -23t-55.5 -9q-85 0 -137 56.5t-52 169.5v39q0 114 57 170t153 56q51 0 91 -15t67.5 -49t41.5 -88 t14 -133v-99q0 -91 -10 -160t-35.5 -115t-68.5 -69t-109 -23zM257 313q58 0 90 44.5t32 125.5v24q0 81 -32 125t-90 44q-57 0 -89 -43t-32 -124v-28q0 -82 32 -125t89 -43z" />
<glyph horiz-adv-x="534" d="M267 -13q-61 0 -102.5 19.5t-67 60.5t-36.5 103t-11 148v89q0 85 11 147.5t36.5 103.5t67 60.5t102.5 19.5t103 -19.5t67.5 -60.5t37 -103.5t11.5 -147.5v-89q0 -86 -11.5 -148t-37 -103t-67.5 -60.5t-103 -19.5zM393 455q-2 52 -8 93t-20.5 68.5t-38 42t-59.5 14.5 q-42 0 -66.5 -19t-37.5 -56t-17 -90.5t-4 -122.5v-60zM267 50q42 0 67 19.5t38.5 56.5t17.5 91t4 123v48l-251 -128q2 -51 8.5 -90t20.5 -65.5t37 -40.5t58 -14z" />
<glyph d="M60 183l166 179l-167 182l50 50l165 -179l165 178l51 -50l-167 -181l167 -180l-51 -51l-165 179l-165 -179z" />
<glyph d="M64 509h221l61 124h80l-61 -124h120v-70h-154l-74 -150h228v-70h-262l-61 -124h-80l61 124h-79v70h113l74 150h-187v70z" />
<glyph horiz-adv-x="473" d="M229 -13q-41 0 -77 9.5t-64 30.5t-44 55t-16 83q0 34 8.5 62t22.5 50.5t32.5 40.5t39.5 33q22 16 37 28t24 26t13 33t4 49v44h93v-45q0 -36 -6 -61t-19 -44.5t-32 -35.5t-44 -35q-20 -14 -35 -28.5t-25 -31t-15 -37t-5 -45.5q0 -61 30.5 -89t78.5 -28q62 0 90.5 39 t28.5 112v7h91v-7q0 -106 -56 -160.5t-155 -54.5zM211 725h91v-125h-91v125z" />
<glyph horiz-adv-x="473" d="M167 239q0 36 6 61t18.5 44.5t31 35.5t44.5 34q41 29 61 60.5t20 81.5q0 62 -30.5 89.5t-78.5 27.5q-63 0 -91 -38.5t-28 -111.5v-8h-92v8q0 106 56.5 160.5t155.5 54.5q40 0 76.5 -9.5t64 -30.5t43.5 -55t16 -83q0 -34 -8 -62t-22 -50.5t-32.5 -40.5t-39.5 -33 q-22 -16 -37 -28.5t-24 -26.5t-13 -33t-4 -48v-44h-93v45zM167 125h90v-125h-90v125z" />
<glyph d="M237 388h-206v70h206v170h73v-170h207v-70h-207v-173h-73v173zM31 164h486v-69h-486v69z" />
<glyph d="M238 329h-210v71h210v233h72v-233h210v-71h-210v-234h-72v234z" />
<glyph horiz-adv-x="210" d="M53 422h104v-103h-104v103z" />
<glyph horiz-adv-x="234" d="M-1 0q51 79 80 168t29 195q0 107 -29 195t-80 167h79q22 -32 43 -72t37 -86t26 -97.5t10 -106.5q0 -56 -10 -107.5t-26 -97.5t-37 -86t-43 -72h-79v0z" />
<glyph horiz-adv-x="234" d="M156 0q-22 32 -43 72t-37 86t-25.5 97.5t-9.5 107.5q0 55 9.5 106.5t25.5 97.5t37 86t43 72h78q-50 -79 -79.5 -167t-29.5 -195t29.5 -195.5t79.5 -167.5h-78v0z" />
<glyph horiz-adv-x="371" d="M50 408h271v-78h-271v78z" />
<glyph horiz-adv-x="175" d="M25 278l83 92l-83 94v102l130 -144v-103l-130 -145v104z" />
<glyph horiz-adv-x="175" d="M20 319v103l131 144v-102l-85 -94l85 -92v-104z" />
<glyph horiz-adv-x="327" d="M25 278l83 92l-83 94v102l130 -144v-103l-130 -145v104zM176 278l84 92l-84 94v102l131 -144v-103l-131 -145v104z" />
<glyph horiz-adv-x="327" d="M20 319v103l131 144v-102l-85 -94l85 -92v-104zM171 319v103l131 144v-102l-84 -94l84 -92v-104z" />
<glyph horiz-adv-x="551" d="M40 635l471 -178v-75l-471 -179v74l368 143l-368 142v73zM511 95h-471v69h471v-69z" />
<glyph d="M72 98v80l325 186l-325 188v79l405 -229v-75z" />
<glyph d="M71 327v75l406 229v-79l-326 -188l326 -186v-80z" />
<glyph horiz-adv-x="549" d="M510 562l-366 -142l366 -143v-74l-471 179v75l471 178v-73zM39 164h471v-69h-471v69z" />
<glyph d="M28 402h492v-76h-492v76z" />
<glyph d="M226 252h96v-116h-96v116zM38 400h472v-72h-472v72zM226 589h96v-117h-96v117z" />
<glyph horiz-adv-x="459" d="M226 188q-36 0 -68 14t-56 39t-38 58t-14 72q0 37 14 69.5t38 56.5t56 38t68 14q39 0 73 -14t58.5 -38t38.5 -56.5t14 -69.5q0 -39 -14 -72t-38.5 -58t-58.5 -39t-73 -14z" />
<glyph horiz-adv-x="240" d="M86 260h69v-260h-69v260zM86 725h69v-265h-69v265z" />
<glyph horiz-adv-x="271" d="M-4 64h116v599h-116v62h190v-725h-190v64z" />
<glyph horiz-adv-x="271" d="M86 725h190v-62h-118v-599h118v-64h-190v725z" />
<glyph horiz-adv-x="259" d="M0 0v66h12q28 0 44.5 3.5t25.5 13t12 25.5t3 40v77q0 34 5.5 58t15.5 40t24.5 25t32.5 14v2q-18 5 -32.5 14t-24.5 24.5t-15.5 39t-5.5 58.5v78q0 24 -3 39.5t-12 25t-25.5 13t-44.5 3.5h-12v66h24q42 0 70.5 -6.5t46 -23t25 -44t7.5 -68.5v-74q0 -23 2.5 -43.5 t10.5 -35.5t22.5 -23.5t38.5 -9.5v-68q-24 -1 -38.5 -10t-22.5 -24t-10.5 -35t-2.5 -44v-74q0 -41 -7.5 -68.5t-25 -44t-46 -23t-70.5 -6.5h-24z" />
<glyph horiz-adv-x="259" d="M235 0q-42 0 -70.5 6.5t-46.5 23t-25.5 44t-7.5 68.5v74q0 24 -2.5 44t-10.5 35t-22 24t-38 10v68q24 1 38 9.5t22 23.5t10.5 35.5t2.5 43.5v74q0 41 7.5 68.5t25.5 44t46.5 23t70.5 6.5h24v-66h-12q-28 0 -44.5 -3.5t-25.5 -13t-12 -25t-3 -39.5v-78q0 -35 -5.5 -58.5 t-15.5 -39t-25 -24.5t-33 -14v-2q18 -5 33 -14t25 -25t15.5 -40t5.5 -58v-77q0 -24 3 -40t12 -25.5t25.5 -13t44.5 -3.5h12v-66h-24v0z" />
<glyph horiz-adv-x="215" d="M68 725h80v-725h-80v725z" />
<glyph horiz-adv-x="621" d="M245 -13q-50 0 -89 15.5t-66 42.5t-41.5 63.5t-14.5 78.5q0 36 8.5 63.5t25.5 51.5t42.5 46t58.5 46l26 19q-19 26 -33.5 48t-24 43.5t-14.5 43.5t-5 48q0 33 11.5 59t32.5 44.5t49.5 28.5t63.5 10q31 0 59 -8.5t49 -26t33.5 -43.5t12.5 -62q0 -32 -10.5 -58.5t-28.5 -49 t-42 -43t-51 -39.5l-4 -3l148 -195q14 34 22 79t10 110h71q-2 -78 -16.5 -142t-39.5 -109l113 -148h-94l-63 83q-76 -96 -199 -96zM254 51q47 0 85.5 21.5t64.5 64.5l-170 225l-24 -17q-48 -35 -70.5 -68.5t-22.5 -86.5q0 -30 10 -55.5t28 -44t43 -29t56 -10.5zM193 594 q0 -20 4 -36t11.5 -32t19 -32.5t27.5 -37.5l3 2q19 14 37 29t31.5 31.5t21.5 35.5t8 41q0 36 -20 58.5t-61 22.5q-35 0 -58.5 -20t-23.5 -62z" />
<glyph horiz-adv-x="725" d="M35 408h656v-78h-656v78z" />
<glyph horiz-adv-x="496" d="M35 408h427v-78h-427v78z" />
<glyph d="M64 289h421v-70h-421v70zM64 509h421v-70h-421v70z" />
<glyph horiz-adv-x="271" d="M87 523v202h97v-202l-19 -332h-59zM90 125h91v-125h-91v125z" />
<glyph horiz-adv-x="272" d="M181 725v-125h-91v125h91zM165 534l19 -332v-202h-97v202l19 332h59z" />
<glyph horiz-adv-x="220" d="M135 -188q-21 0 -41 5t-35 15t-24.5 25.5t-9.5 36.5q0 15 7 31t19 30.5t27.5 26t31.5 18.5h86q-38 -19 -64.5 -44t-26.5 -50q0 -20 13.5 -30.5t36.5 -10.5q13 0 22.5 2.5t18.5 4.5v-53q-14 -4 -30 -5.5t-31 -1.5z" />
<glyph horiz-adv-x="405" d="M266 897h113l-104 -113h-79zM95 896h113l-104 -113h-79z" />
<glyph horiz-adv-x="271" d="M200 837q0 -36 -25.5 -59t-62.5 -23t-62 23t-25 59q0 18 6 32.5t17 25.5l111 111h87l-108 -89q26 -8 44 -28t18 -52zM112 882q-17 0 -31 -12.5t-14 -32.5t14 -32t31 -12q18 0 31.5 12t13.5 32t-13.5 32.5t-31.5 12.5z" />
<glyph horiz-adv-x="138" d="M25 881h90v-104h-90v104z" />
<glyph horiz-adv-x="238" d="M104 -194q-41 0 -79 13l13 38q11 -5 26.5 -8.5t30.5 -3.5q23 0 41 8.5t18 28.5q0 34 -46 34q-11 0 -22 -2.5t-20 -7.5l-19 17l48 77h42l-33 -53q7 2 14.5 3t16.5 1q32 0 55 -17.5t23 -49.5q0 -36 -30.5 -57t-78.5 -21z" />
<glyph horiz-adv-x="358" d="M136 773l-111 113h87l67 -69l65 69h89l-111 -113h-86z" />
<glyph horiz-adv-x="345" d="M22 773q2 32 10 53.5t19.5 34.5t26.5 18.5t31 5.5q19 0 36.5 -8t33 -17t29.5 -17t26 -8q14 0 21.5 11.5t9.5 38.5h58q-2 -32 -10 -53.5t-20 -34.5t-26.5 -18.5t-29.5 -5.5q-18 0 -34.5 8t-32 17t-29 17t-25.5 8q-14 0 -24 -12t-11 -38h-59v0z" />
<glyph horiz-adv-x="226" d="M113 814q14 0 25.5 9t11.5 26t-11.5 27t-25.5 10q-15 0 -26 -10t-11 -27t11 -26t26 -9zM113 766q-37 0 -62.5 23.5t-25.5 59.5q0 37 26 60t62 23q37 0 62.5 -23t25.5 -60q0 -36 -25.5 -59.5t-62.5 -23.5z" />
<glyph horiz-adv-x="288" d="M25 864h238v-65h-238v65z" />
<glyph horiz-adv-x="233" d="M25 886h112l71 -113h-78z" />
<glyph horiz-adv-x="327" d="M25 881h79v-104h-79v104zM223 881h79v-104h-79v104z" />
<glyph horiz-adv-x="358" d="M136 886h86l111 -113h-89l-65 68l-67 -68h-87z" />
<glyph horiz-adv-x="307" d="M152 773q-63 0 -94 27.5t-33 85.5h62q2 -36 20.5 -47.5t45.5 -11.5q28 0 46 11.5t20 47.5h63q-7 -113 -130 -113z" />
<glyph horiz-adv-x="233" d="M95 886h113l-104 -113h-79z" />
<glyph horiz-adv-x="295" d="M142 -8q-56 0 -81.5 30t-25.5 78v3h58v-3q0 -66 50 -66q39 0 52 35.5t13 103.5v16q-7 -18 -26.5 -33.5t-51.5 -15.5q-49 0 -76.5 31.5t-27.5 95.5v20q0 65 31 96.5t87 31.5q66 0 95.5 -38.5t29.5 -129.5v-56q0 -49 -6 -86.5t-20 -62.5t-39 -37.5t-62 -12.5zM149 183 q29 0 44.5 22.5t15.5 64.5v15q0 43 -15.5 65.5t-44.5 22.5q-60 0 -60 -87v-16q0 -42 15 -64.5t45 -22.5z" />
<glyph horiz-adv-x="295" d="M151 -8q-66 0 -95.5 38.5t-29.5 129.5v56q0 49 6 86.5t20 62.5t38.5 37.5t62.5 12.5q57 0 82.5 -30t25.5 -78v-3h-58v3q0 66 -51 66q-39 0 -51.5 -35.5t-12.5 -103.5v-16q7 17 26 33t51 16q49 0 76.5 -31.5t27.5 -95.5v-20q0 -65 -31 -96.5t-87 -31.5zM146 34q61 0 61 87 v16q0 42 -15.5 64.5t-45.5 22.5q-29 0 -44 -22.5t-15 -64.5v-15q0 -88 59 -88z" />
<glyph horiz-adv-x="295" d="M75 0q5 117 38.5 205.5t99.5 154.5h-178v48h231v-48q-36 -35 -59.5 -74t-38.5 -83t-22 -94.5t-9 -108.5h-62v0z" />
<glyph horiz-adv-x="272" d="M32 173h61v-45q8 23 28 38t49 15q42 0 58.5 -24.5t16.5 -81.5v-204h-61v183q0 38 -6.5 61t-31.5 23q-29 0 -41 -28t-12 -74v-165h-61v302z" />
<glyph horiz-adv-x="159" d="M108 -129q-42 0 -56 17t-14 59v186h-38v40h38v79h61v-79h52v-40h-52v-180q0 -27 6.5 -34.5t28.5 -7.5h17v-40h-43v0z" />
<glyph horiz-adv-x="333" d="M21 -5v52h291v-52h-291z" />
<glyph horiz-adv-x="245" d="M126 -137q-52 0 -80.5 27.5t-28.5 76.5v1h56v-1q0 -62 53 -62q21 0 34.5 9.5t13.5 31.5q0 20 -8.5 31t-31.5 21l-45 17q-31 11 -49.5 29.5t-18.5 53.5q0 44 28.5 63.5t72.5 19.5q20 0 38.5 -5.5t32.5 -16.5t22.5 -29t8.5 -42v-2h-56v2q0 29 -15 40t-34 11q-18 0 -30 -8.5 t-12 -28.5q0 -17 8 -26.5t26 -17.5l43 -17q18 -7 32 -14.5t24 -17.5t15.5 -24t5.5 -34q0 -23 -8.5 -40t-22.5 -27.5t-33.5 -15.5t-40.5 -5z" />
<glyph horiz-adv-x="267" d="M134 -96q33 0 41 28t8 79v23q0 49 -8 77.5t-41 28.5t-41.5 -28.5t-8.5 -77.5v-23q0 -51 8.5 -79t41.5 -28zM134 -137q-59 0 -86 34.5t-27 103.5v43q0 69 27 103.5t86 34.5q58 0 85 -34.5t27 -103.5v-43q0 -69 -27 -103.5t-85 -34.5z" />
<glyph horiz-adv-x="295" d="M143 315h-74v40q26 0 41.5 1.5t24 6.5t12.5 15.5t8 29.5h48v-408h-60v315z" />
<glyph horiz-adv-x="280" d="M188 -84q-8 -23 -28 -38t-48 -15q-91 0 -91 138v43q0 137 91 137q28 0 48 -15t28 -38v45h60v-401h-60v144zM131 -92q59 0 59 114q0 116 -59 116q-29 0 -38 -27.5t-9 -80.5v-16q0 -54 9 -80t38 -26z" />
<glyph horiz-adv-x="337" d="M142 -5h-121v52h121v124h54v-124h121v-52h-121v-124h-54v124z" />
<glyph horiz-adv-x="295" d="M30 46l45 57q27 34 49.5 62.5t39 54t26 48.5t9.5 45q0 60 -54 60t-54 -82v-4h-59v4q0 60 29 92t87 32q52 0 82 -24t30 -75q0 -49 -34.5 -101.5t-87.5 -119.5l-37 -48h160v-47h-231v46z" />
<glyph horiz-adv-x="295" d="M139 -8q-54 0 -84 28t-30 85v2h57v-2q0 -32 13 -51.5t44 -19.5q39 0 52.5 23t13.5 55q0 35 -17 56.5t-63 21.5h-22v43h21q68 0 68 72q0 32 -13 50t-42 18t-40.5 -17t-11.5 -52v-2h-57v2q0 57 30 84t81 27q24 0 45 -5t36.5 -17.5t24 -32.5t8.5 -50q0 -40 -18 -63t-44 -31 q35 -9 55.5 -34.5t20.5 -68.5q0 -64 -33.5 -92.5t-94.5 -28.5z" />
<glyph horiz-adv-x="169" d="M31 173h60v-61q7 26 22 43.5t47 17.5h11v-57h-20q-34 0 -46.5 -19t-12.5 -67v-159h-61v302z" />
<glyph horiz-adv-x="147" d="M41 -53h78v-76h-78v76z" />
<glyph horiz-adv-x="295" d="M148 33q22 0 34.5 10.5t18.5 30.5t7.5 49t1.5 66v28q0 37 -1.5 66t-7.5 49t-18.5 30.5t-34.5 10.5q-21 0 -33.5 -10.5t-19 -30.5t-8.5 -49t-2 -66v-28q0 -37 2 -66t8.5 -49t19 -30.5t33.5 -10.5zM148 -9q-71 0 -98 45.5t-27 140.5v52q0 95 27 140t98 45t98 -45t27 -140 v-52q0 -95 -27 -140.5t-98 -45.5z" />
<glyph horiz-adv-x="279" d="M32 173h61v-45q8 23 28 38t47 15q48 0 69.5 -34t21.5 -103v-43q0 -69 -21.5 -103.5t-69.5 -34.5q-27 0 -47 15t-28 38v-144h-61v401zM149 -92q29 0 38.5 26t9.5 80v16q0 53 -9.5 80.5t-38.5 27.5q-58 0 -58 -116q0 -114 58 -114z" />
<glyph horiz-adv-x="272" d="M32 279h61v-151q8 23 28 38t49 15q42 0 58.5 -24.5t16.5 -81.5v-204h-61v183q0 38 -6.5 61t-31.5 23q-29 0 -41 -28t-12 -74v-165h-61v408z" />
<glyph horiz-adv-x="231" d="M27 46h177v-49h-177v49z" />
<glyph horiz-adv-x="126" d="M32 173h61v-302h-61v302zM32 279h61v-65h-61v65z" />
<glyph horiz-adv-x="126" d="M-11 -188h14q21 0 25.5 9t4.5 37v315h62v-314q0 -26 -4.5 -43t-15 -27t-26.5 -13.5t-40 -3.5h-20v40zM33 279h62v-65h-62v65z" />
<glyph horiz-adv-x="244" d="M33 279h58v-224l91 118h56l-76 -103l85 -199h-56l-66 149l-34 -46v-103h-58v408z" />
<glyph horiz-adv-x="126" d="M32 279h61v-408h-61v408z" />
<glyph horiz-adv-x="412" d="M32 173h61v-47q8 23 27.5 38t45.5 15q30 0 46 -14t22 -43q10 28 30.5 42.5t46.5 14.5q43 0 58 -26.5t15 -82.5v-199h-60v182q0 37 -6 60t-29 23q-27 0 -38 -24t-11 -66v-175h-63v191q0 33 -5 53.5t-28 20.5q-28 0 -39.5 -27.5t-11.5 -74.5v-163h-61v302z" />
<glyph horiz-adv-x="267" d="M104 -137q-44 0 -60 27.5t-16 82.5v200h61v-183q0 -37 6.5 -59.5t29.5 -22.5q26 0 37.5 27.5t11.5 73.5v164h61v-302h-60v46q-8 -24 -26 -39t-45 -15z" />
<glyph horiz-adv-x="295" d="M148 -8q-60 0 -94.5 28t-34.5 94q0 46 21.5 70t48.5 34q-10 3 -20.5 10t-19.5 18.5t-14.5 27t-5.5 36.5q0 58 33.5 81.5t85.5 23.5q51 0 84.5 -23.5t33.5 -81.5q0 -41 -20 -63t-39 -29q27 -10 48.5 -34t21.5 -70q0 -66 -34.5 -94t-94.5 -28zM148 34q33 0 50 20.5t17 56.5 v7q0 35 -17 55.5t-50 20.5t-50.5 -20.5t-17.5 -55.5v-7q0 -36 17.5 -56.5t50.5 -20.5zM148 235q30 0 42.5 17t12.5 49v5q0 33 -12.5 50t-42.5 17q-31 0 -43.5 -17t-12.5 -50v-5q0 -32 13 -49t43 -17z" />
<glyph horiz-adv-x="262" d="M133 -137q-58 0 -85 35.5t-27 101.5v46q0 67 27 101t86 34q61 0 85.5 -35.5t24.5 -107.5v-21h-162v-8q0 -50 9.5 -77.5t42.5 -27.5q23 0 35.5 15t12.5 49v1h58v-2q0 -27 -8.5 -47t-23.5 -32.5t-34.5 -18.5t-40.5 -6zM82 52h106v5q0 42 -10.5 62.5t-42.5 20.5t-42.5 -21.5 t-10.5 -62.5v-4z" />
<glyph horiz-adv-x="281" d="M112 -137q-91 0 -91 138v43q0 137 91 137q28 0 48 -15t28 -38v151h60v-408h-60v45q-8 -23 -28 -38t-48 -15zM131 -92q59 0 59 114q0 116 -59 116q-29 0 -38 -27.5t-9 -80.5v-16q0 -54 9 -80t38 -26z" />
<glyph horiz-adv-x="168" d="M80 -129h-34v79h80v-86l-43 -82h-42z" />
<glyph horiz-adv-x="253" d="M133 -137q-58 0 -85 34.5t-27 103.5v43q0 69 27 103t85 34q44 0 73.5 -25.5t29.5 -82.5v-4h-57v4q0 35 -11.5 50.5t-34.5 15.5q-33 0 -41 -27.5t-8 -77.5v-25q0 -50 8 -77.5t41 -27.5q46 0 46 67v3h57v-3q0 -57 -29.5 -82.5t-73.5 -25.5z" />
<glyph horiz-adv-x="278" d="M168 -137q-27 0 -47 15t-28 38v-45h-61v408h61v-151q8 23 28 38t47 15q48 0 69.5 -34t21.5 -103v-43q0 -69 -21.5 -103.5t-69.5 -34.5zM149 -92q29 0 38.5 26t9.5 80v16q0 53 -9.5 80.5t-38.5 27.5q-58 0 -58 -116q0 -114 58 -114z" />
<glyph horiz-adv-x="257" d="M96 -137q-38 0 -59.5 23.5t-21.5 62.5v7q0 33 24 55q11 11 29 18.5t42 15.5l58 22v26q0 26 -10.5 37.5t-33.5 11.5t-35.5 -12t-12.5 -41v-6h-56v6q0 48 28 70.5t77 22.5q24 0 43 -4t32.5 -15t21 -30.5t7.5 -51.5v-20.5t-0.5 -36t-0.5 -36.5v-20q0 -35 1 -56t3 -41h-57 l-1 41q-11 -25 -29.5 -37t-48.5 -12zM117 -97q23 0 38 17.5t15 62.5v49q-2 -1 -8 -3.5t-13 -5.5t-13.5 -5.5t-8.5 -3.5q-26 -9 -38.5 -21t-12.5 -35v-6q0 -49 41 -49z" />
<glyph horiz-adv-x="305" d="M27 -12h251v-52h-251v52zM27 108h251v-52h-251v52z" />
<glyph horiz-adv-x="157" d="M42 133h-40v40h40v31q0 46 19 60.5t64 14.5h31v-39h-18q-22 0 -29 -7.5t-7 -30.5v-29h54v-40h-54v-262h-60v262z" />
<glyph horiz-adv-x="295" d="M145 -8q-52 0 -84 28t-32 85v2h59v-2q0 -33 13 -52t44 -19q32 0 45 23t13 64v23q0 41 -13.5 64t-43.5 23q-23 0 -36 -13t-20 -35l-55 2l22 223h200v-48h-154l-12 -129q8 17 27.5 30t47.5 13q100 0 100 -127v-28q0 -127 -121 -127z" />
<glyph horiz-adv-x="295" d="M171 103h-159v44l158 261h58v-256h49v-49h-49v-103h-57v103zM171 152v178l-112 -178h112z" />
<glyph horiz-adv-x="230" d="M3 173h61l52 -239l54 239h57l-79 -302h-69z" />
<glyph horiz-adv-x="328" d="M12 173h51l31 -235l44 235h53l43 -235l31 235h52l-47 -302h-62l-44 244l-42 -244h-63z" />
<glyph horiz-adv-x="282" d="M136 -235q-51 0 -76.5 25t-25.5 67v1h55v-1q0 -23 11.5 -36.5t36.5 -13.5q28 0 40.5 15.5t12.5 58.5v50q-8 -22 -26 -37t-46 -15q-45 0 -71 33.5t-26 99.5v36q0 69 26 101t71 32q28 0 46 -15.5t26 -37.5v45h60v-282q0 -63 -26.5 -94.5t-87.5 -31.5zM133 -76 q32 0 45.5 25.5t13.5 77.5q0 57 -13.5 84t-45.5 27q-30 0 -39.5 -26t-9.5 -75v-9q0 -51 9.5 -77.5t39.5 -26.5z" />
<glyph horiz-adv-x="229" d="M113 -24l-59 -105h-55l87 154l-81 148h61l50 -94l53 94h54l-80 -143l86 -159h-59z" />
<glyph horiz-adv-x="228" d="M22 -188h20q20 0 28.5 8t14.5 34l3 17l-85 302h61l55 -239l50 239h56l-77 -304q-8 -30 -15.5 -49t-18 -29.5t-26 -14.5t-39.5 -4h-27v40z" />
<glyph horiz-adv-x="256" d="M28 -90l132 223h-119v40h184v-39l-133 -223h136v-40h-200v39z" />
<glyph horiz-adv-x="312" d="M156 -137q-71 0 -98.5 45t-27.5 140v53q0 95 27.5 140t98.5 45t98 -44.5t27 -140.5v-53q0 -95 -27 -140t-98 -45zM156 -95q21 0 33.5 10.5t19 30t8 48.5t1.5 66v23l-126 -61q2 -57 14 -87t50 -30zM92 68l125 62q-2 55 -13.5 84.5t-47.5 29.5q-22 0 -34.5 -10.5t-19 -30 t-8.5 -48.5t-2 -66v-21z" />
<glyph horiz-adv-x="302" d="M144 -8q-57 0 -82.5 30t-25.5 78v3h59v-3q0 -66 50 -66q39 0 51.5 35.5t12.5 103.5v16q-6 -18 -25.5 -33.5t-51.5 -15.5q-49 0 -77 31.5t-28 95.5v20q0 65 31.5 96.5t87.5 31.5q66 0 95.5 -38.5t29.5 -129.5v-56q0 -49 -6 -86.5t-20 -62.5t-39 -37.5t-62 -12.5zM151 183 q29 0 44 22.5t15 64.5v15q0 88 -59 88q-60 0 -60 -87v-16q0 -42 15 -64.5t45 -22.5z" />
<glyph horiz-adv-x="296" d="M157 -8q-65 0 -94.5 38.5t-29.5 129.5v56q0 49 6 86.5t20 62.5t38.5 37.5t62.5 12.5q56 0 82 -30t26 -78v-3h-59v3q0 66 -50 66q-39 0 -52 -35.5t-13 -103.5v-16q7 17 26.5 33t51.5 16q49 0 76.5 -31.5t27.5 -95.5v-20q0 -65 -31 -96.5t-88 -31.5zM153 34q60 0 60 87v16 q0 42 -15 64.5t-45 22.5q-29 0 -44.5 -22.5t-15.5 -64.5v-15q0 -43 15.5 -65.5t44.5 -22.5z" />
<glyph horiz-adv-x="233" d="M44 0q5 117 38.5 205.5t99.5 154.5h-177v48h230v-48q-36 -35 -59.5 -74t-38.5 -83t-22 -94.5t-9 -108.5h-62v0z" />
<glyph horiz-adv-x="159" d="M108 0q-42 0 -56 17t-14 59v186h-38v40h38v79h61v-79h52v-40h-52v-180q0 -27 6.5 -34.5t28.5 -7.5h17v-40h-43v0z" />
<glyph horiz-adv-x="272" d="M32 302h61v-45q8 23 28 38t49 15q42 0 58.5 -24.5t16.5 -81.5v-204h-61v183q0 38 -6.5 61t-31.5 23q-29 0 -41 -28t-12 -74v-165h-61v302z" />
<glyph horiz-adv-x="291" d="M136 -8q-53 0 -83.5 28t-30.5 85v2h58v-2q0 -32 12.5 -51.5t44.5 -19.5q39 0 52 23t13 55q0 35 -17 56.5t-63 21.5h-21v42h21q67 0 67 72q0 33 -13 51t-42 18t-40 -17t-11 -52v-2h-58v2q0 57 30.5 84t81.5 27q24 0 44.5 -5t36 -17.5t24 -32.5t8.5 -50q0 -40 -17.5 -63 t-44.5 -31q35 -9 55.5 -34.5t20.5 -68.5q0 -64 -33.5 -92.5t-94.5 -28.5z" />
<glyph horiz-adv-x="245" d="M126 -8q-52 0 -80.5 27.5t-28.5 76.5v1h56v-1q0 -61 53 -61q21 0 34.5 9t13.5 31q0 20 -8.5 31t-31.5 21l-45 17q-31 11 -49.5 29.5t-18.5 53.5q0 44 28.5 63.5t72.5 19.5q20 0 38.5 -5.5t32.5 -16.5t22.5 -29t8.5 -42v-2h-56v2q0 29 -15 40t-34 11q-18 0 -30 -8.5 t-12 -28.5q0 -17 8 -26.5t26 -17.5l43 -17q35 -14 56 -32t21 -58q0 -23 -8.5 -40t-22.5 -27.5t-33.5 -15.5t-40.5 -5z" />
<glyph horiz-adv-x="267" d="M134 33q33 0 41 28t8 79v24q0 48 -8 76.5t-41 28.5t-41.5 -28.5t-8.5 -76.5v-24q0 -51 8.5 -79t41.5 -28zM134 -8q-59 0 -86 34.5t-27 103.5v43q0 69 27 103.5t86 34.5q58 0 85 -34.5t27 -103.5v-43q0 -69 -27 -103.5t-85 -34.5z" />
<glyph horiz-adv-x="210" d="M101 315h-74v40q26 0 41.5 1.5t24 6.5t12.5 15.5t8 29.5h48v-408h-60v315z" />
<glyph horiz-adv-x="280" d="M188 45q-8 -23 -28 -38t-48 -15q-91 0 -91 138v43q0 137 91 137q28 0 48 -15t28 -38v45h60v-401h-60v144zM131 37q59 0 59 114q0 116 -59 116q-29 0 -38 -27.5t-9 -80.5v-16q0 -54 9 -80t38 -26z" />
<glyph horiz-adv-x="169" d="M31 302h60v-61q7 26 22 43.5t47 17.5h11v-57h-20q-34 0 -46.5 -19t-12.5 -67v-159h-61v302z" />
<glyph horiz-adv-x="337" d="M142 124h-121v53h121v123h54v-123h121v-53h-121v-124h-54v124z" />
<glyph horiz-adv-x="147" d="M41 76h78v-76h-78v76z" />
<glyph horiz-adv-x="279" d="M32 302h61v-45q8 23 28 38t47 15q48 0 69.5 -34t21.5 -103v-43q0 -69 -21.5 -103.5t-69.5 -34.5q-27 0 -47 15t-28 38v-144h-61v401zM149 37q29 0 38.5 26t9.5 80v16q0 53 -9.5 80.5t-38.5 27.5q-58 0 -58 -116q0 -114 58 -114z" />
<glyph horiz-adv-x="139" d="M-5 -104q29 47 48 112t19 144q0 78 -19 143t-48 113h50q13 -20 26 -47t23.5 -60t17.5 -70.5t7 -78.5t-7 -79.5t-17.5 -71.5t-23.5 -59.5t-26 -45.5h-50v0z" />
<glyph horiz-adv-x="139" d="M94 -104q-12 19 -25.5 45.5t-24.5 59.5t-18 71.5t-7 79.5t7 78.5t18 70.5t24.5 60t25.5 47h50q-29 -48 -48.5 -113t-19.5 -143q0 -79 19.5 -144t48.5 -112h-50v0z" />
<glyph horiz-adv-x="231" d="M27 175h177v-49h-177v49z" />
<glyph horiz-adv-x="272" d="M32 408h61v-151q8 23 28 38t49 15q42 0 58.5 -24.5t16.5 -81.5v-204h-61v183q0 38 -6.5 61t-31.5 23q-29 0 -41 -28t-12 -74v-165h-61v408z" />
<glyph horiz-adv-x="126" d="M32 302h61v-302h-61v302zM32 408h61v-65h-61v65z" />
<glyph horiz-adv-x="126" d="M-11 -59h14q21 0 25.5 9.5t4.5 36.5v315h62v-314q0 -26 -4.5 -43t-15 -27t-26.5 -13.5t-40 -3.5h-20v40zM33 408h62v-65h-62v65z" />
<glyph horiz-adv-x="244" d="M33 408h58v-224l91 118h56l-76 -103l85 -199h-56l-66 149l-34 -46v-103h-58v408z" />
<glyph horiz-adv-x="126" d="M32 408h61v-408h-61v408z" />
<glyph horiz-adv-x="412" d="M32 302h61v-47q8 23 27.5 38t45.5 15q30 0 46 -14t22 -43q10 28 30.5 42.5t46.5 14.5q43 0 58 -26.5t15 -82.5v-199h-60v182q0 37 -6 60t-29 23q-27 0 -38 -24t-11 -66v-175h-63v192q0 33 -5 53t-28 20q-28 0 -39.5 -27.5t-11.5 -73.5v-164h-61v302z" />
<glyph horiz-adv-x="267" d="M104 -8q-44 0 -60 27.5t-16 82.5v200h61v-183q0 -37 6.5 -59.5t29.5 -22.5q26 0 37.5 28t11.5 73v164h61v-302h-60v46q-8 -24 -26 -39t-45 -15z" />
<glyph horiz-adv-x="276" d="M22 46l45 57q54 68 89 117t35 93q0 60 -54 60t-54 -82v-4h-59v4q0 60 29 92t87 32q52 0 82 -24t30 -75q0 -49 -34.5 -101.5t-87.5 -119.5l-37 -48h160v-47h-231v46z" />
<glyph horiz-adv-x="333" d="M21 124v53h291v-53h-291z" />
</font>
</defs>
</svg>
