<svg xmlns="http://www.w3.org/2000/svg" width="12" height="12"><path fill="#666" d="M9 9c-.765 0-1.238.522-1.741 1.022.536.358.792 1.028.62 1.978h4.121c0-1.54-1.465-3-3-3zm-2.868 1.248c-.965 0-1.747.784-1.747 1.751h3.494c0-.967-.782-1.751-1.747-1.751zm3.868-9.248v-1h-3v1h-2v5l1 1v-5h1v5l1 1v-6h1v6h1v-6h1v7l1 .607v-8.607h-2zm-3.34 8.539l.061-.06c.182-.182.383-.339.593-.475v-.59l-1.183-1.227-3.131.813v4h.62c0-1.388 1.127-2.517 2.512-2.517.18-.001.358.019.528.056zm-4.66 2.461zm-1-10l-1 3v7h2v-7l-1-3zm.111 4.955c-.307 0-.555-.249-.555-.555 0-.307.248-.555.555-.555s.554.248.554.555c0 .306-.247.555-.554.555z"/></svg>
