<?xml version="1.0" encoding="utf-8"?>
<!-- Generator: Adobe Illustrator 17.1.0, SVG Export Plug-In . SVG Version: 6.00 Build 0)  -->
<!DOCTYPE svg PUBLIC "-//W3C//DTD SVG 1.1//EN" "http://www.w3.org/Graphics/SVG/1.1/DTD/svg11.dtd">
<svg version="1.1" id="Layer_1" xmlns="http://www.w3.org/2000/svg" xmlns:xlink="http://www.w3.org/1999/xlink" x="0px" y="0px"
	 width="20px" height="14px" viewBox="0 0 20 14" enable-background="new 0 0 20 14" xml:space="preserve">
<path fill-rule="evenodd" clip-rule="evenodd" fill="#424242" d="M18,5c0-1-1-4-3-4h-3h-2C8,1,7,4,7,5H5v2h1v4c0,0.6,0,1,1,1v2h2v-2
	h7v2h2v-2c1,0,1-0.4,1-1V7h1V5H18z M10,3h2h3c2,0,2,1,2,3H8C8,4,8,3,10,3z M9,10H8c-0.6,0-1-0.4-1-1c0-0.6,0.4-1,1-1h1
	c0.6,0,1,0.4,1,1C10,9.6,9.6,10,9,10z M17,10h-1c-0.6,0-1-0.4-1-1c0-0.6,0.4-1,1-1h1c0.6,0,1,0.4,1,1C18,9.6,17.6,10,17,10z M4,4h2
	V3H4C1,3,1,6,1,7H0v1h1v4h2v-1h2V7H2C2,6,2,4,4,4z M3,9l1,1H2V9H3z"/>
<g>
	<path fill="#FFFFFF" d="M16,8h1c0.4,0,0.7,0.2,0.8,0.5C17.9,8.4,18,8.2,18,8c0-0.6-0.4-1-1-1h-1c-0.6,0-1,0.4-1,1
		c0,0.2,0.1,0.4,0.2,0.5C15.3,8.2,15.6,8,16,8z"/>
	<path fill="#FFFFFF" d="M8,8h1c0.4,0,0.7,0.2,0.8,0.5C9.9,8.4,10,8.2,10,8c0-0.6-0.4-1-1-1H8C7.4,7,7,7.4,7,8
		c0,0.2,0.1,0.4,0.2,0.5C7.3,8.2,7.6,8,8,8z"/>
	<path fill="#FFFFFF" d="M6,3H4c0,0,0,0,0,0C2,3,2,5,2,6h0c0.1-1,0.5-2,2-2h1h1V3z"/>
	<rect y="7" fill="#FFFFFF" width="1" height="1"/>
	<path fill="#FFFFFF" d="M15,2h-3h-2C8,2,8,3,8,5h0c0-1.3,0.3-2,2-2h2h3c1.7,0,1.9,0.7,2,2h0C17,3,17,2,15,2z"/>
	<polygon fill="#FFFFFF" points="2,9 3,9 3,9 4,9 3,8 2,8 2,9 2,9 	"/>
	<path fill="#FFFFFF" d="M7,11c-1,0-1-0.4-1-1v1c0,0.6,0,1,1,1V11z"/>
	<path fill="#FFFFFF" d="M18,11v1c1,0,1-0.4,1-1v-1C19,10.6,19,11,18,11z"/>
	<rect x="19" y="6" fill="#FFFFFF" width="1" height="1"/>
	<polygon fill="#FFFFFF" points="5,10 3,10 3,11 1,11 1,12 3,12 3,11 5,11 5,7 5,7 	"/>
	<rect x="16" y="13" fill="#FFFFFF" width="2" height="1"/>
	<rect x="5" y="6" fill="#FFFFFF" width="1" height="1"/>
	<polygon fill="#FFFFFF" points="16,11 9,11 9,13 7,13 7,14 9,14 9,12 16,12 	"/>
</g>
<g>
	<path fill="#2E2E2E" d="M2,6c0,0.4,0,0.7,0,1h3V6H2z"/>
	<polygon fill="#2E2E2E" points="4,10 3,9 2,9 2,10 	"/>
	<path fill="#2E2E2E" d="M4,3h2V2H4C1,2,1,5,1,6H0v1h1C1,6,1,3,4,3z"/>
	<path fill="#2E2E2E" d="M18,4c0-1-1-4-3-4h-3h-2C8,0,7,3,7,4H6H5v1h2c0-1,1-4,3-4h2h3c2,0,3,3,3,4h2V4H18z"/>
	<path fill="#2E2E2E" d="M8,10h1c0.6,0,1-0.4,1-1c0-0.2-0.1-0.4-0.2-0.5C9.7,8.8,9.4,9,9,9H8C7.6,9,7.3,8.8,7.2,8.5
		C7.1,8.6,7,8.8,7,9C7,9.6,7.4,10,8,10z"/>
	<path fill="#2E2E2E" d="M17,6c0-0.4,0-0.7,0-1H8c0,0.3,0,0.6,0,1H17z"/>
	<path fill="#2E2E2E" d="M17.8,8.5C17.7,8.8,17.4,9,17,9h-1c-0.4,0-0.7-0.2-0.8-0.5C15.1,8.6,15,8.8,15,9c0,0.6,0.4,1,1,1h1
		c0.6,0,1-0.4,1-1C18,8.8,17.9,8.6,17.8,8.5z"/>
</g>
</svg>
