<svg xmlns="http://www.w3.org/2000/svg" width="18" height="18"><g fill="#23A5D4"><path d="M17 8h-1.08c-.44-3.063-2.856-5.48-5.92-5.92v-1.08c0-.552-.447-1-1-1s-1 .448-1 1v1.08c-3.064.44-5.48 2.857-5.92 5.92h-1.08c-.553 0-1 .448-1 1 0 .553.447 1 1 1h1.08c.44 3.063 2.856 5.48 5.92 5.92v1.08c0 .553.447 1 1 1s1-.447 1-1v-1.08c3.064-.439 5.48-2.856 5.92-5.92h1.08c.553 0 1-.447 1-1 0-.552-.447-1-1-1zm-8 6c-2.76 0-5-2.238-5-5s2.24-5 5-5c2.761 0 5 2.238 5 5s-2.239 5-5 5z"/><circle cx="9" cy="9" r="3"/></g><path d="M14 10.004c0-.17-.009-.337-.025-.502-.252 2.525-2.383 4.498-4.975 4.498s-4.723-1.973-4.975-4.498c-.016.165-.025.332-.025.502 0 2.762 2.24 5 5 5 2.761 0 5-2.238 5-5zm-4-6.921c3.064.439 5.48 2.856 5.92 5.921h1.08c.369 0 .688.201.86.498.087-.148.14-.318.14-.502 0-.552-.447-1-1-1h-1.08c-.44-3.063-2.856-5.48-5.92-5.92v1.003zm-9 5.921h1.08c.44-3.065 2.856-5.482 5.92-5.921v-1.003c-3.064.44-5.48 2.857-5.92 5.92h-1.08c-.553 0-1 .448-1 1 0 .184.053.354.14.502.172-.297.491-.498.86-.498zm8-8c.553 0 1 .447 1 1v-1.004c0-.552-.447-1-1-1s-1 .448-1 1v1.004c0-.553.447-1 1-1z" fill="#2685AA"/><path fill="#1C85AB" d="M9 7c1.486 0 2.717 1.082 2.955 2.5.027-.163.045-.329.045-.5 0-1.656-1.344-3-3-3s-3 1.344-3 3c0 .171.018.337.045.5.238-1.418 1.469-2.5 2.955-2.5z"/></svg>