<svg xmlns="http://www.w3.org/2000/svg" width="20" height="20"><linearGradient id="a" gradientUnits="userSpaceOnUse" x1="10" y1="19" x2="10" y2="1"><stop offset="0" stop-color="#D1D1D1"/><stop offset=".5" stop-color="#fff"/><stop offset="1" stop-color="#fff"/></linearGradient><circle fill="url(#a)" cx="10" cy="10" r="9"/><g opacity=".2"><linearGradient id="b" gradientUnits="userSpaceOnUse" x1="14.979" y1="18.625" x2="5.021" y2="1.375"><stop offset="0" stop-opacity=".7"/><stop offset=".859" stop-opacity=".271"/><stop offset="1" stop-opacity=".2"/></linearGradient><path fill="url(#b)" d="M10 1c4.971 0 9 4.029 9 9s-4.029 9-9 9-9-4.029-9-9 4.029-9 9-9m0-.961c-5.492 0-9.96 4.469-9.96 9.961s4.468 9.961 9.96 9.961 9.96-4.469 9.96-9.961-4.468-9.961-9.96-9.961z"/></g><linearGradient id="c" gradientUnits="userSpaceOnUse" x1="10" y1="15" x2="10" y2="5"><stop offset="0" stop-color="#1042C1"/><stop offset="1" stop-color="#0C52CD"/></linearGradient><circle fill="url(#c)" cx="10" cy="10" r="5"/><linearGradient id="d" gradientUnits="userSpaceOnUse" x1="12" y1="13.465" x2="7.999" y2="6.535"><stop offset="0" stop-color="#fff" stop-opacity="0"/><stop offset=".859" stop-color="#fff" stop-opacity=".172"/><stop offset="1" stop-color="#fff" stop-opacity=".2"/></linearGradient><circle fill="url(#d)" cx="10" cy="10" r="4"/></svg>
