<?xml version="1.0" encoding="utf-8"?>
<!-- Generator: Adobe Illustrator 17.1.0, SVG Export Plug-In . SVG Version: 6.00 Build 0)  -->
<!DOCTYPE svg PUBLIC "-//W3C//DTD SVG 1.1//EN" "http://www.w3.org/Graphics/SVG/1.1/DTD/svg11.dtd">
<svg version="1.1" id="Layer_1" xmlns="http://www.w3.org/2000/svg" xmlns:xlink="http://www.w3.org/1999/xlink" x="0px" y="0px"
	  enable-background="new 0 0 52 24" xml:space="preserve">
<path fill="#222222" d="M31,8.3c-1.3,0-2.3,0.9-2.3,3.2c0,1.8,0,2.1,0,4c0,3.5,3,3.3,4.6,2.8V15H31v-2h5v6c-1.2,1.4-3.3,2-4.5,2
	c-2.7,0-5.5-1-5.5-5c0-1.6,0-4.5,0-5c0-3.7,1.9-5,5-5c4.2,0,5.1,3.4,5,5h-2.7C33.3,9.2,32.4,8.3,31,8.3z M41,6.2h-3v14.7h3V6.2z
	 M41,6.2h-3v14.7h3V6.2z M47.5,21c-3.4,0-4.5-1.9-4.5-5h2.7c-0.2,2.1,0.6,2.7,1.8,2.7c1.1,0,1.8-0.5,1.8-1.7c0-3.3-6.3-1.5-6.3-7
	c0-2.7,2.1-4,4.5-4c3.9,0,4.5,3,4.5,5h-2.7c0.2-1.7-0.6-2.7-1.9-2.7c-1.1,0-1.7,0.7-1.7,1.7c0,3.2,6.3,1.3,6.3,7
	C52,19.4,50.4,21,47.5,21z"/>
<g>
	<g>
		<path fill="#FFFFFF" d="M11.5,2C8.9,2,6.4,3,4.6,4.6C3,6.4,2,8.9,2,11.5C2,17.3,6.7,22,12.5,22c2.6,0,5.1-1,6.9-2.6
			c1.6-1.8,2.6-4.3,2.6-6.9C22,6.7,17.3,2,11.5,2z"/>
	</g>
	<path fill="#EDEE00" d="M12.5,22C6.7,22,2,17.3,2,11.5c0-2.4,0.8-4.6,2.2-6.3C1.6,7.1,0,10.1,0,13.5C0,19.3,4.7,24,10.5,24
		c3.4,0,6.4-1.6,8.3-4.2C17.1,21.2,14.9,22,12.5,22z"/>
	<path fill="#A6CD2A" d="M10,18c4.6-4,7.5-5.4,7.5-8c0-1-0.8-2-2.5-2c-1.3,0-2.7,0.8-2.5,4H10v-2c0-1.6,1-5,5-5c3.1,0,5,2.3,5,5
		c0,3.8-3.7,6-6,8h6.4c1-1.6,1.6-3.5,1.6-5.5C22,6.7,17.3,2,11.5,2C8.9,2,6.4,3,4.6,4.6C3,6.4,2,8.9,2,11.5c0,4.9,3.4,9.1,8,10.2V18
		z"/>
	<path fill="#0DA5D5" d="M13.5,0c-3.4,0-6.4,1.6-8.3,4.2C6.9,2.8,9.1,2,11.5,2C17.3,2,22,6.7,22,12.5c0,2.4-0.8,4.6-2.2,6.3
		c2.5-1.9,4.2-4.9,4.2-8.3C24,4.7,19.3,0,13.5,0z"/>
</g>
</svg>
