<svg xmlns="http://www.w3.org/2000/svg" enable-background="new 0 0 52 24"><path fill="#222" d="M31 8.3c-1.3 0-2.3.9-2.3 3.2v4c0 3.5 3 3.3 4.6 2.8v-3.3h-2.3v-2h5v6c-1.2 1.4-3.3 2-4.5 2-2.7 0-5.5-1-5.5-5v-5c0-3.7 1.9-5 5-5 4.2 0 5.1 3.4 5 5h-2.7c0-1.8-.9-2.7-2.3-2.7zm10-2.1h-3v14.7h3v-14.7zm0 0h-3v14.7h3v-14.7zm6.5 14.8c-3.4 0-4.5-1.9-4.5-5h2.7c-.2 2.1.6 2.7 1.8 2.7 1.1 0 1.8-.5 1.8-1.7 0-3.3-6.3-1.5-6.3-7 0-2.7 2.1-4 4.5-4 3.9 0 4.5 3 4.5 5h-2.7c.2-1.7-.6-2.7-1.9-2.7-1.1 0-1.7.7-1.7 1.7 0 3.2 6.3 1.3 6.3 7 0 2.4-1.6 4-4.5 4z"/><path fill="#fff" d="M11.5 2c-2.6 0-5.1 1-6.9 2.6-1.6 1.8-2.6 4.3-2.6 6.9 0 5.8 4.7 10.5 10.5 10.5 2.6 0 5.1-1 6.9-2.6 1.6-1.8 2.6-4.3 2.6-6.9 0-5.8-4.7-10.5-10.5-10.5z"/><path fill="#EDEE00" d="M12.5 22c-5.8 0-10.5-4.7-10.5-10.5 0-2.4.8-4.6 2.2-6.3-2.6 1.9-4.2 4.9-4.2 8.3 0 5.8 4.7 10.5 10.5 10.5 3.4 0 6.4-1.6 8.3-4.2-1.7 1.4-3.9 2.2-6.3 2.2z"/><path fill="#A6CD2A" d="M10 18c4.6-4 7.5-5.4 7.5-8 0-1-.8-2-2.5-2-1.3 0-2.7.8-2.5 4h-2.5v-2c0-1.6 1-5 5-5 3.1 0 5 2.3 5 5 0 3.8-3.7 6-6 8h6.4c1-1.6 1.6-3.5 1.6-5.5 0-5.8-4.7-10.5-10.5-10.5-2.6 0-5.1 1-6.9 2.6-1.6 1.8-2.6 4.3-2.6 6.9 0 4.9 3.4 9.1 8 10.2v-3.7z"/><path fill="#0DA5D5" d="M13.5 0c-3.4 0-6.4 1.6-8.3 4.2 1.7-1.4 3.9-2.2 6.3-2.2 5.8 0 10.5 4.7 10.5 10.5 0 2.4-.8 4.6-2.2 6.3 2.5-1.9 4.2-4.9 4.2-8.3 0-5.8-4.7-10.5-10.5-10.5z"/></svg>