<svg xmlns="http://www.w3.org/2000/svg" width="12" height="12">
    <path d="M 9,9 C 8.235,9 7.762,9.522 7.259,10.022 7.795,10.38 8.051,11.05 7.879,12 H 12 C 12,10.46 10.535,9 9,9 z m -2.868,1.248 c -0.965,0 -1.747,0.784 -1.747,1.751 h 3.494 c 0,-0.967 -0.782,-1.751 -1.747,-1.751 z M 10,1 V 0 H 7 V 1 H 5 V 6 L 6,7 V 2 H 7 V 7 L 8,8 V 2 h 1 v 6 h 1 V 2 h 1 v 7 l 1,0.607 V 1 H 10 z M 6.66,9.539 6.721,9.479 C 6.903,9.297 7.104,9.14 7.314,9.004 V 8.414 L 6.131,7.187 3,8 v 4 H 3.62 C 3.62,10.612 4.747,9.483 6.132,9.483 6.312,9.482 6.49,9.502 6.66,9.539 z M 2,12 z M 1,2 0,5 v 7 H 2 V 5 L 1,2 z M 1.111,6.955 C 0.804,6.955 0.556,6.706 0.556,6.4 c 0,-0.307 0.248,-0.555 0.555,-0.555 0.307,0 0.554,0.248 0.554,0.555 0,0.306 -0.247,0.555 -0.554,0.555 z" fill="#a0a0a0"/>
</svg>
