<svg xmlns="http://www.w3.org/2000/svg" width="18" height="18">
    <g fill="#4c4c4c">
        <path d="M 17,8 H 15.92 C 15.48,4.937 13.064,2.52 10,2.08 V 1 C 10,0.448 9.553,0 9,0 8.447,0 8,0.448 8,1 V 2.08 C 4.936,2.52 2.52,4.937 2.08,8 H 1 C 0.447,8 0,8.448 0,9 0,9.553 0.447,10 1,10 H 2.08 C 2.52,13.063 4.936,15.48 8,15.92 V 17 c 0,0.553 0.447,1 1,1 0.553,0 1,-0.447 1,-1 V 15.92 C 13.064,15.481 15.48,13.064 15.92,10 H 17 C 17.553,10 18,9.553 18,9 18,8.448 17.553,8 17,8 z M 9,14 C 6.24,14 4,11.762 4,9 4,6.238 6.24,4 9,4 c 2.761,0 5,2.238 5,5 0,2.762 -2.239,5 -5,5 z"/>
        <circle cx="9" cy="9" r="3"/>
    </g>
    <g fill="#353535">
        <path d="M 14,10.004 C 14,9.834 13.991,9.667 13.975,9.502 13.723,12.027 11.592,14 9,14 6.408,14 4.277,12.027 4.025,9.502 4.009,9.667 4,9.834 4,10.004 c 0,2.762 2.24,5 5,5 2.761,0 5,-2.238 5,-5 z M 10,3.083 c 3.064,0.439 5.48,2.856 5.92,5.921 H 17 c 0.369,0 0.688,0.201 0.86,0.498 C 17.947,9.354 18,9.184 18,9 18,8.448 17.553,8 17,8 H 15.92 C 15.48,4.937 13.064,2.52 10,2.08 V 3.083 z M 1,9.004 H 2.08 C 2.52,5.939 4.936,3.522 8,3.083 V 2.08 C 4.936,2.52 2.52,4.937 2.08,8 H 1 C 0.447,8 0,8.448 0,9 0,9.184 0.053,9.354 0.14,9.502 0.312,9.205 0.631,9.004 1,9.004 z m 8,-8 c 0.553,0 1,0.447 1,1 V 1 C 10,0.448 9.553,0 9,0 8.447,0 8,0.448 8,1 v 1.004 c 0,-0.553 0.447,-1 1,-1 z"/>
    </g>
    <path d="m 9,7 c 1.486,0 2.717,1.082 2.955,2.5 C 11.982,9.337 12,9.171 12,9 12,7.344 10.656,6 9,6 7.344,6 6,7.344 6,9 6,9.171 6.018,9.337 6.045,9.5 6.283,8.082 7.514,7 9,7 z" fill="#353535"/>
</svg>
