<svg xmlns="http://www.w3.org/2000/svg" width="12" height="12"><path fill="#70A3D8" d="M10 0h-8c-1.104 0-2 .896-2 2v2h2v-1c0-.553.447-1 1-1h6c.553 0 1 .447 1 1v6c0 .553-.447 1-1 1h-6c-.553 0-1-.447-1-1v-1h-2v2c0 1.104.896 2 2 2h8c1.104 0 2-.896 2-2v-8c0-1.104-.896-2-2-2zm-1 6l-4-3v2h-5v2h5v2z"/><path fill="#5982AD" d="M0 10c0 .812.485 1.506 1.18 1.82-.114-.251-.18-.527-.18-.82v-2h1v-1h-2v2zm10-10h-8c-1.104 0-2 .896-2 2v2h1v-1c0-1.104.896-2 2-2h8c.293 0 .569.066.82.18-.314-.695-1.008-1.18-1.82-1.18zm.643 3.25l-.885-.906-.025-.012c.162.178.267.409.267.668v6c0 .553-.447 1-1 1h-6c-.216 0-.414-.056-.578-.172l-.022.004.928.899c.178.164.411.269.672.269h6c.553 0 1-.447 1-1v-6c0-.304-.143-.566-.357-.75zm-4.643.75v-.25l-1-.75v2h-5v2h1v-1h5z"/></svg>
