<svg xmlns="http://www.w3.org/2000/svg" width="20" height="7"><path fill="#70A3D8" d="M16.5 0c-1.762 0-3.205 1.306-3.449 3h-8.102c-.231-1.142-1.239-2-2.449-2-1.381 0-2.5 1.119-2.5 2.5s1.119 2.5 2.5 2.5c1.21 0 2.218-.858 2.449-2h8.102c.244 1.693 1.688 3 3.449 3 1.933 0 3.5-1.567 3.5-3.5 0-1.934-1.567-3.5-3.5-3.5z"/><path d="M1 4.5c0-1.381 1.119-2.5 2.5-2.5.431 0 .834.113 1.188.305-.424-.776-1.241-1.305-2.188-1.305-1.381 0-2.5 1.119-2.5 2.5 0 .948.534 1.764 1.312 2.188-.193-.355-.312-.755-.312-1.188zm4.949-.5h8.102c.244-1.694 1.688-3 3.449-3 .711 0 1.369.215 1.922.578-.626-.949-1.699-1.578-2.922-1.578-1.762 0-3.205 1.306-3.449 3h-7.562c.221.292.385.628.46 1z" fill="#5982AD"/></svg>
