<?xml version="1.0" encoding="UTF-8" standalone="no"?>
<!-- Created with Inkscape (http://www.inkscape.org/) -->

<svg
   xmlns:dc="http://purl.org/dc/elements/1.1/"
   xmlns:cc="http://creativecommons.org/ns#"
   xmlns:rdf="http://www.w3.org/1999/02/22-rdf-syntax-ns#"
   xmlns:svg="http://www.w3.org/2000/svg"
   xmlns="http://www.w3.org/2000/svg"
   xmlns:sodipodi="http://sodipodi.sourceforge.net/DTD/sodipodi-0.dtd"
   xmlns:inkscape="http://www.inkscape.org/namespaces/inkscape"
   width="48"
   height="48"
   viewBox="0 0 48 48"
   id="svg2"
   version="1.1"
   inkscape:version="0.91 r13725"
   sodipodi:docname="drawing16b.svg">
  <defs
     id="defs4" />
  <sodipodi:namedview
     id="base"
     pagecolor="#ffffff"
     bordercolor="#666666"
     borderopacity="1.0"
     inkscape:pageopacity="0.0"
     inkscape:pageshadow="2"
     inkscape:zoom="64"
     inkscape:document-units="px"
     inkscape:current-layer="svg2"
     showgrid="true"
     inkscape:window-width="1920"
     inkscape:window-height="1016"
     inkscape:window-maximized="1"
     showguides="false"
     inkscape:guide-bbox="true"
     units="px"
     inkscape:cx="2.05661"
     inkscape:cy="49.6584"
     inkscape:window-x="0"
     inkscape:window-y="27"
     inkscape:snap-global="false">
    <inkscape:grid
       type="xygrid"
       id="grid3366"
       dotted="false" />
  </sodipodi:namedview>
  <metadata
     id="metadata7">
    <rdf:RDF>
      <cc:Work
         rdf:about="">
        <dc:format>image/svg+xml</dc:format>
        <dc:type
           rdf:resource="http://purl.org/dc/dcmitype/StillImage" />
        <dc:title />
      </cc:Work>
    </rdf:RDF>
  </metadata>
  <g
     inkscape:label="Layer 1"
     inkscape:groupmode="layer"
     id="layer1" />
  <path
     style="fill:#eeeeee;fill-rule:evenodd;stroke:#000000;stroke-width:0px;stroke-linecap:round;stroke-linejoin:round;stroke-opacity:1"
     d="M 8.47239,-6.86769 C 6.22637,-5.39969 1.37133,-1.30573 1.37133,-1.30573 0.590251,-0.524796 0.590251,0.741204 1.37133,1.52227 1.37133,1.52227 6.61339,5.54527 8.47239,6.62427 8.04538,6.76227 9.20236,6.18627 9.66036,5.61627 9.88335,5.33927 8.78538,0.502204 8.78538,0.502204 L 8.78538,-0.286796 C 8.78538,-0.286796 9.66436,-4.52373 9.69035,-5.57169 9.69535,-5.77469 8.67738,-7.00169 8.47239,-6.86769"
     id="path3336"
     inkscape:connector-curvature="0" />
  <path
     style="fill:#0085a0;fill-rule:evenodd;stroke:#000000;stroke-width:0px;stroke-linecap:round;stroke-linejoin:round;stroke-opacity:1"
     d="M 6.81453,-0.885256 8.38254,-5.1592 2.00351,0.009734 8.56953,4.9358 6.85253,1.11179"
     id="path3337"
     inkscape:connector-curvature="0" />
  <path
     style="fill:#0085a0;fill-rule:evenodd;stroke:#eeeeee;stroke-width:1.6px;stroke-linecap:round;stroke-linejoin:round;stroke-opacity:1"
     d="M -6.5000,-1.8000
     L -6.0522,-1.8000
     L -7.0975,-5.2537
     C -6.6619,-6.2565 -6.5980,-6.3550 -6.1757,-6.1470
     L 0.8371,-0.3552
     C 0.9275,-0.1764 0.9275,0.1764 0.8371,0.3552
     L -6.1757,6.1470
     C -6.5980,6.3550 -6.6619,6.2565 -7.0975,5.2537
     L -6.0522,1.8000
     L -6.5000,1.8000"
     id="path3338"
     inkscape:connector-curvature="0"
     sodipodi:nodetypes="cccccccccc" />
</svg>
