<?xml version="1.0" encoding="utf-8"?>
<!-- Generator: Adobe Illustrator 16.0.0, SVG Export Plug-In . SVG Version: 6.00 Build 0)  -->
<!DOCTYPE svg PUBLIC "-//W3C//DTD SVG 1.1//EN" "http://www.w3.org/Graphics/SVG/1.1/DTD/svg11.dtd">
<svg version="1.1" id="Layer_1" xmlns="http://www.w3.org/2000/svg" xmlns:xlink="http://www.w3.org/1999/xlink" x="0px" y="0px"
	 width="18px" height="18px" viewBox="0 0 18 18" enable-background="new 0 0 18 18" xml:space="preserve">
<g>
	<g display="none">
		<path display="inline" fill="#FFFFFF" d="M8,15.92C4.936,15.48,2.52,13.063,2.08,10H1c-0.366,0-0.673-0.206-0.847-0.5
			C0.064,9.649,0,9.814,0,10c0,0.553,0.447,1,1,1h1.08C2.52,14.063,4.936,16.48,8,16.92V15.92z"/>
		<path display="inline" fill="#FFFFFF" d="M9,18c-0.553,0-1-0.447-1-1v1c0,0.553,0.447,1,1,1s1-0.447,1-1v-1
			C10,17.553,9.553,18,9,18z"/>
		<path display="inline" fill="#FFFFFF" d="M17,10h-1.08c-0.439,3.063-2.855,5.48-5.92,5.92v1c3.064-0.439,5.48-2.856,5.92-5.92H17
			c0.553,0,1-0.447,1-1c0-0.186-0.064-0.351-0.153-0.5C17.673,9.794,17.366,10,17,10z"/>
	</g>
	<g>
		<path fill="#4C4C4C" d="M17,8h-1.08C15.48,4.937,13.064,2.52,10,2.08V1c0-0.552-0.447-1-1-1S8,0.448,8,1v1.08
			C4.936,2.52,2.52,4.937,2.08,8H1C0.447,8,0,8.448,0,9c0,0.553,0.447,1,1,1h1.08C2.52,13.063,4.936,15.48,8,15.92V17
			c0,0.553,0.447,1,1,1s1-0.447,1-1v-1.08c3.064-0.439,5.48-2.856,5.92-5.92H17c0.553,0,1-0.447,1-1C18,8.448,17.553,8,17,8z M9,14
			c-2.76,0-5-2.238-5-5s2.24-5,5-5c2.761,0,5,2.238,5,5S11.761,14,9,14z"/>
		<circle fill="#4C4C4C" cx="9" cy="9" r="3"/>
	</g>
	<g>
		<path fill="#353535" d="M14,10.004c0-0.17-0.009-0.337-0.025-0.502C13.723,12.027,11.592,14,9,14s-4.723-1.973-4.975-4.498
			C4.009,9.667,4,9.834,4,10.004c0,2.762,2.24,5,5,5C11.761,15.004,14,12.766,14,10.004z"/>
		<path fill="#353535" d="M10,3.083c3.064,0.439,5.48,2.856,5.92,5.921H17c0.369,0,0.688,0.201,0.86,0.498
			C17.947,9.354,18,9.184,18,9c0-0.552-0.447-1-1-1h-1.08C15.48,4.937,13.064,2.52,10,2.08V3.083z"/>
		<path fill="#353535" d="M1,9.004h1.08C2.52,5.939,4.936,3.522,8,3.083V2.08C4.936,2.52,2.52,4.937,2.08,8H1C0.447,8,0,8.448,0,9
			c0,0.184,0.053,0.354,0.14,0.502C0.312,9.205,0.631,9.004,1,9.004z"/>
		<path fill="#353535" d="M9,1.004c0.553,0,1,0.447,1,1V1c0-0.552-0.447-1-1-1S8,0.448,8,1v1.004C8,1.451,8.447,1.004,9,1.004z"/>
	</g>
	<path fill="#353535" d="M9,7c1.486,0,2.717,1.082,2.955,2.5C11.982,9.337,12,9.171,12,9c0-1.656-1.344-3-3-3S6,7.344,6,9
		c0,0.171,0.018,0.337,0.045,0.5C6.283,8.082,7.514,7,9,7z"/>
	<g display="none">
		<path display="inline" fill="#FFFFFF" d="M9,13c1.657,0,3-1.343,3-3c0-0.171-0.022-0.337-0.051-0.5C11.711,10.918,10.486,12,9,12
			s-2.711-1.082-2.949-2.5C6.022,9.663,6,9.829,6,10C6,11.657,7.343,13,9,13z"/>
	</g>
</g>
</svg>
