<svg xmlns="http://www.w3.org/2000/svg" viewBox="0 0 112 49" enable-background="new 0 0 112 49"><path clip-rule="evenodd" d="M87.1 32.8" fill="none"/><path fill-rule="evenodd" clip-rule="evenodd" fill="#ECECEC" d="M106.5 17.1c0-4.8-1.9-5.7-5-5.7-2.9 0-3.8 1.4-3.8 4.2-.1 8 14.6 3.2 14.3 17.6-.1 6-4 10.1-10.9 10.1-8.1 0-11.6-5.2-11-12.5h5.4c-.5 5.5 2.5 6.8 5.4 6.8 2.5 0 4.4-1 4.5-4.3.2-8.2-14.5-4-14.3-17.8.1-6.8 4.8-9.8 10.6-9.8 9.3 0 10.4 7.1 10.2 11.4h-5.4zm-25.8 25.1v-35.4h6.3v35.6h-6.3v-.2zm-4.4-18.3v15.200000000000001h-.4c-2.3 2.4-6.1 4.2-9.4 4.2-5.5 0-12.1-2.7-12.1-12.4v-11.5c0-9 5-13.7 11.9-13.7 7.5 0 9.4 4.9 10 9v3.5h-5.5v-1.7c-.3-3.9-2-5.2-4.8-5.2-2.9 0-5.1 2.3-5.1 8.5v10.3c.2 9.3 7.8 7.6 9.8 5.4v-5.9h-5.5v-5.7h11.1z"/><path fill="#9CBF3C" d="M43.4 11.4c.7 1.5 1.1 3.2 1.1 5 0 8.8-8.8 15.9-13.9 20.4h13.3c2-3.6 3.2-7.8 3.2-12.2 0-4.9-1.4-9.4-3.7-13.2zM20.9 42.2v-4.1c10.1-9.1 17-15.1 17-21.1 0-2.2-1.6-6.1-5.2-6.1-2.9 0-5.7 2.2-5.2 9.5h-5.2c-1.5-8.5 2.7-15 11.1-15 3.3 0 5.9 1.1 7.8 2.8-4.4-5-10.6-8.2-17.7-8.2-13 0-23.5 11-23.5 24.5s10.5 24.5 23.5 24.5c6.3 0 12-2.6 16.3-6.8h-18.9z"/></svg>