<svg xmlns="http://www.w3.org/2000/svg" viewBox="0 0 70 31" enable-background="new 0 0 70 31"><path fill="#393939" d="M27.8 10.3c0 5.6-5.5 10.1-8.7 12.9h8.3c1.3-2.3 2-4.9 2-7.7 0-3-.8-5.8-2.3-8.2.5.9.7 1.9.7 3zm-14.7 13.8c6.3-5.8 10.6-9.6 10.6-13.3 0-1.4-1-3.9-3.3-3.9-1.8 0-3.6 1.4-3.3 6h-3.3c-.9-5.3 1.7-9.5 6.9-9.5 2 0 3.6.6 4.8 1.7-2.6-3.1-6.5-5.1-10.8-5.1-8.1 0-14.7 6.9-14.7 15.5s6.6 15.5 14.7 15.5c3.9 0 7.5-1.6 10.2-4.3h-11.8v-2.6zm37.3 2.8h4v-22.6h-4v22.6zm13-19.7c1.9 0 3.1.6 3.1 3.6h3.5c.1-2.7-.6-7.2-6.4-7.2-3.6 0-6.6 1.9-6.6 6.2-.2 8.7 9.1 6 8.9 11.2-.1 2.1-1.2 2.7-2.8 2.7-1.9 0-3.7-.8-3.4-4.3h-3.4c-.4 4.6 1.8 7.9 6.8 7.9 4.3 0 6.8-2.6 6.8-6.4.2-9.1-9-6-8.9-11.1.1-1.7.6-2.6 2.4-2.6zm-22.6 7.9v3.6h3.5v3.8c-1.3 1.4-6 2.5-6.2-3.4v-6.5c0-3.9 1.3-5.3 3.2-5.3 1.7 0 2.8.8 3 3.3v1h3.4v-2.3c-.4-2.6-1.6-5.7-6.2-5.7-4.3 0-7.4 2.9-7.4 8.6v7.3c0 6.2 4.1 7.9 7.6 7.9 2 0 4.5-1.2 5.9-2.6h.3v-9.6l-7.1-.1z"/></svg>