<svg xmlns="http://www.w3.org/2000/svg" viewBox="0 0 25 25" enable-background="new 0 0 25 25"><path fill="#fff" d="M24.5 3.8s1.1-1.1 0-2.2l-1.1-1.1c-1.1-1.1-2.2 0-2.2 0l-5.6 5.6s-1.1 1.1-2.2 0l-1.1-1.1c-2.3-2.3-4.5 0-4.5 0l-1.1 1.1 2.2 2.2 1.1 1.1 1.6 1.6.7.7 1.1 1.1 2.2 2.2 1.1 1.1 2.2 2.2 1.1-1.1s2.2-2.2 0-4.5l-1.1-1.1c-1.1-1.1 0-2.2 0-2.2l5.6-5.6zm-2.8-1.6c.3-.3.8-.3 1.1 0 .3.3.3.8 0 1.1-.3.3-.8.3-1.1 0-.3-.3-.3-.8 0-1.1zM.7 12c-.4.4-.4 1 0 1.4l.8.8c.4.4 1 .4 1.4 0l4.2-4.2c.4-.4.4-1 0-1.4l-.8-.7c-.4-.4-1-.4-1.4 0l-4.2 4.1zM4 15.4c-.4.4-.4 1 0 1.4l.8.8c.4.4 1 .4 1.4 0l4.2-4.2c.4-.4.4-1 0-1.4l-.8-.8c-.4-.4-1-.4-1.4 0l-4.2 4.2zM7.4 18.7c-.4.4-.4 1 0 1.4l.8.9c.4.4 1 .4 1.4 0l4.2-4.2c.4-.4.4-1 0-1.4l-.8-.8c-.4-.4-1-.4-1.4 0l-4.2 4.1zM10.7 22.1c-.4.4-.4 1 0 1.4l.8.8c.4.4 1 .4 1.4 0l4.2-4.2c.4-.4.4-1 0-1.4l-.8-.8c-.4-.4-1-.4-1.4 0l-4.2 4.2z"/></svg>