<svg xmlns="http://www.w3.org/2000/svg" width="25" height="27" viewBox="0 0 25 27"><path fill="#fff" d="M13.1 17.1c-.6-.6-1.7-.6-2.3 0l-3.4 3.5c-.6.6-.6 1.7 0 2.4.6.6 1.6.6 2.2 0l3.4-3.5c.7-.7.7-1.7.1-2.4zm-3.5-3.5c-.6-.6-1.7-.6-2.3 0l-3.4 3.5c-.6.6-.6 1.7 0 2.4.6.6 1.7.6 2.3 0l3.4-3.5c.7-.7.7-1.8 0-2.4zm-3.4-3.6c-.6-.6-1.7-.6-2.3 0l-3.4 3.5c-.6.6-.6 1.7 0 2.4.6.6 1.7.6 2.3 0l3.4-3.5c.6-.6.6-1.7 0-2.4zm8 10.6l-3.4 3.5c-.6.6-.6 1.7 0 2.4.6.6 1.7.6 2.3 0l3.4-3.5c.6-.6.6-1.7 0-2.4-.6-.6-1.7-.6-2.3 0zM24.5 5.3s1.1-1.2 0-2.4l-1.1-1.2c-1.1-1.2-2.3 0-2.3 0l-5.7 5.9s-1.1 1.2-2.3 0c-.3-.3-.7-.7-1.1-1.2-2.3-2.4-4.6 0-4.6 0l-1.2 1.3 3.4 3.5 1.6 1.6.7.7 1.1 1.2 2.3 2.4 1.1 1.2 2.3 2.4 1.1-1.2s2.3-2.4 0-4.7c-.5-.5-.8-.9-1.1-1.2-1.1-1.2 0-2.4 0-2.4l5.8-5.9zm-2.9-3c.3-.3.8-.3 1.1 0 .3.3.3.9 0 1.2-.3.3-.8.3-1.1 0-.3-.4-.3-.9 0-1.2z"/><path fill="#474746" d="M6.2 8.8c-.6-.6-1.7-.6-2.3 0l-3.4 3.5c-.6.6-.6 1.7 0 2.4.6.6 1.7.6 2.3 0l3.4-3.5c.6-.7.6-1.8 0-2.4zm3.4 3.5c-.6-.6-1.7-.6-2.3 0l-3.4 3.5c-.6.6-.6 1.7 0 2.4.6.6 1.7.6 2.3 0l3.4-3.5c.7-.7.7-1.8 0-2.4zm14.9-8.2s1.1-1.2 0-2.4l-1.1-1.2c-1.1-1.2-2.3 0-2.3 0l-5.7 5.9s-1.1 1.2-2.3 0c-.3-.3-.7-.7-1.1-1.2-2.3-2.4-4.6 0-4.6 0l-1.2 1.2 3.4 3.5 1.6 1.6.7.7 1.1 1.2 2.3 2.4 1.1 1.2 2.3 2.4 1.1-1.2s2.3-2.4 0-4.7c-.5-.5-.8-.9-1.1-1.2-1.1-1.2 0-2.4 0-2.4l5.8-5.8zm-2.9-1.8c.3-.3.8-.3 1.1 0 .3.3.3.9 0 1.2-.3.3-.8.3-1.1 0-.3-.4-.3-.9 0-1.2zm-7.4 17l-3.4 3.5c-.6.6-.6 1.7 0 2.4.6.6 1.7.6 2.3 0l3.4-3.5c.6-.6.6-1.7 0-2.4-.6-.6-1.7-.6-2.3 0zm-1.1-3.5c-.6-.6-1.7-.6-2.3 0l-3.4 3.5c-.6.6-.6 1.7 0 2.4.6.6 1.7.6 2.3 0l3.4-3.5c.6-.7.6-1.7 0-2.4z"/><g fill="#2F2F30"><path d="M7.3 6.6s2.3-2.4 4.6 0c.5.5.8.9 1.1 1.2 1.1 1.2 2.3 0 2.3 0l5.7-5.9s1.1-1.2 2.3 0l1.1 1.2c.1.1.3.3.3.4.2-.5.4-1.1-.3-1.9l-1.1-1.2c-1.1-1.2-2.3 0-2.3 0l-5.7 5.9s-1.1 1.2-2.3 0c-.3-.3-.7-.7-1.1-1.2-2.3-2.4-4.6 0-4.6 0l-1.1 1.3.7.7.4-.5zM13.1 15.8c-.6-.6-1.7-.6-2.3 0l-3.4 3.5c-.5.5-.6 1.3-.3 1.9l.3-.5 3.4-3.5c.6-.6 1.7-.6 2.3 0 .1.1.2.3.3.5.2-.6.1-1.4-.3-1.9zM14.2 19.3l-3.4 3.5c-.5.5-.6 1.3-.3 1.9l.3-.5 3.4-3.5c.6-.6 1.7-.6 2.3 0 .1.1.2.3.3.5.3-.6.2-1.4-.3-1.9-.6-.6-1.7-.6-2.3 0zM18.8 12.3c-.1-.1-.3-.3-.3-.4-.2.5-.4 1.1.3 1.9.3.3.7.7 1.1 1.2.5.5.8 1.1.9 1.6.2-.8.1-1.9-.9-3-.5-.6-.8-1-1.1-1.3zM.5 13.7l3.4-3.5c.6-.6 1.7-.6 2.3 0 .1.1.2.3.3.5.3-.7.2-1.4-.3-1.9-.6-.6-1.7-.6-2.3 0l-3.4 3.5c-.5.5-.6 1.3-.3 1.9 0-.2.1-.4.3-.5zM7.3 13.7c.6-.6 1.7-.6 2.3 0 .1.1.2.3.3.5.3-.6.2-1.4-.3-1.9-.6-.6-1.7-.6-2.3 0l-3.4 3.5c-.5.5-.6 1.3-.3 1.9l.3-.5 3.4-3.5z"/></g><path fill="#2F2F30" d="M18.3 10.8s-.8 1.5.2 2.6l.5-.8c.1 0-1-.8-.7-1.8zM22.8 3.5c-.3.3-.8.3-1.1 0-.2-.2-.2-.4-.2-.6v1c0 .2.1.4.2.5.3.3.8.3 1.2 0 0-.1.1-.3.1-.5v-.9c0 .1-.1.3-.2.5z"/></svg>