<svg xmlns="http://www.w3.org/2000/svg" width="7" height="12">
    <path d="m 3.5,8 c 0.211,0 0.798,0.035 1,0 v 4 l -2,-1 V 8 c 0.372,0.066 0.861,0 1,0 z M 0.358,5.384 c -0.277,-0.518 -0.44,-1.107 -0.44,-1.738 0,-2.013 1.604,-3.644 3.582,-3.644 1.978,0 3.582,1.631 3.582,3.644 0,0.647 -0.169,1.254 -0.461,1.78 L 6.559,5.494 6.535,5.566 C 5.872,6.549 4.762,7.192 3.502,7.192 2.168,7.192 1.002,6.467 0.358,5.384 z M 2.531,1.275 c -0.549,0 -0.995,0.453 -0.995,1.014 0,0.559 0.446,1.012 0.995,1.012 0.551,0 0.996,-0.453 0.996,-1.012 0,-0.56 -0.445,-1.014 -0.996,-1.014 z" fill="#666"/>
</svg>
