<svg xmlns="http://www.w3.org/2000/svg" width="20" height="7">
    <path d="M 16.5,0 C 14.738,0 13.295,1.306 13.051,3 H 4.949 C 4.718,1.858 3.71,1 2.5,1 1.119,1 0,2.119 0,3.5 0,4.881 1.119,6 2.5,6 3.71,6 4.718,5.142 4.949,4 h 8.102 C 13.295,5.693 14.739,7 16.5,7 18.433,7 20,5.433 20,3.5 20,1.566 18.433,0 16.5,0 z" fill="#70a3d8"/>
    <path d="M 1,4.5 C 1,3.119 2.119,2 3.5,2 3.931,2 4.334,2.113 4.688,2.305 4.264,1.529 3.447,1 2.5,1 1.119,1 0,2.119 0,3.5 0,4.448 0.534,5.264 1.312,5.688 1.119,5.333 1,4.933 1,4.5 z M 5.949,4 h 8.102 C 14.295,2.306 15.739,1 17.5,1 18.211,1 18.869,1.215 19.422,1.578 18.796,0.629 17.723,0 16.5,0 14.738,0 13.295,1.306 13.051,3 H 5.489 c 0.221,0.292 0.385,0.628 0.46,1 z" fill="#5982ad"/>
</svg>
