<svg xmlns="http://www.w3.org/2000/svg" width="44" height="44">
    <path d="M 35.68,10.32 C 38.368,13.465 40,17.539 40,22 40,31.941 31.941,40 22,40 12.059,40 4,31.941 4,22 4,17.539 5.632,13.465 8.32,10.32 L 5.48,7.48 C 2.07,11.354 0,16.434 0,22 0,34.15 9.85,44 22,44 34.15,44 44,34.15 44,22 44,16.434 41.93,11.354 38.52,7.48 l -2.84,2.84 z" fill="#0da5d5"/>
    <path d="M 9.271,9.272 C 12.529,6.015 17.029,4 22,4 26.971,4 31.471,6.015 34.729,9.272 L 37.557,6.444 C 33.575,2.462 28.075,0 22,0 15.925,0 10.425,2.462 6.443,6.444 l 2.828,2.828 z" fill="#a6cd2a"/>
</svg>
