<svg xmlns="http://www.w3.org/2000/svg" width="20" height="14" viewBox="0 0 20 14">
    <path d="M 18,5 C 18,4 17,1 15,1 H 12 10 C 8,1 7,4 7,5 H 5 v 2 h 1 v 4 c 0,0.6 0,1 1,1 v 2 h 2 v -2 h 7 v 2 h 2 v -2 c 1,0 1,-0.4 1,-1 V 7 h 1 V 5 H 18 z M 10,3 h 2 3 c 2,0 2,1 2,3 H 8 C 8,4 8,3 10,3 z M 9,10 H 8 C 7.4,10 7,9.6 7,9 7,8.4 7.4,8 8,8 h 1 c 0.6,0 1,0.4 1,1 0,0.6 -0.4,1 -1,1 z m 8,0 H 16 C 15.4,10 15,9.6 15,9 15,8.4 15.4,8 16,8 h 1 c 0.6,0 1,0.4 1,1 0,0.6 -0.4,1 -1,1 z M 4,4 H 6 V 3 H 4 C 1,3 1,6 1,7 H 0 v 1 h 1 v 4 H 3 V 11 H 5 V 7 H 2 C 2,6 2,4 4,4 z M 3,9 4,10 H 2 V 9 h 1 z" fill="#616161" fill-rule="evenodd"/>
    <g fill="#fff">
        <path d="m 16,8 h 1 c 0.4,0 0.7,0.2 0.8,0.5 C 17.9,8.4 18,8.2 18,8 18,7.4 17.6,7 17,7 h -1 c -0.6,0 -1,0.4 -1,1 0,0.2 0.1,0.4 0.2,0.5 C 15.3,8.2 15.6,8 16,8 z"/>
        <path d="M 8,8 H 9 C 9.4,8 9.7,8.2 9.8,8.5 9.9,8.4 10,8.2 10,8 10,7.4 9.6,7 9,7 H 8 C 7.4,7 7,7.4 7,8 7,8.2 7.1,8.4 7.2,8.5 7.3,8.2 7.6,8 8,8 z"/>
        <path d="M 6,3 H 4 C 4,3 4,3 4,3 2,3 2,5 2,6 H 2 C 2.1,5 2.5,4 4,4 H 5 6 V 3 z"/>
        <path d="M0 7H1V8H0z"/>
        <path d="M 15,2 H 12 10 C 8,2 8,3 8,5 H 8 C 8,3.7 8.3,3 10,3 h 2 3 c 1.7,0 1.9,0.7 2,2 h 0 C 17,3 17,2 15,2 z"/>
        <path d="M3 9L4 9 3 8 2 8 2 9 2 9 2 9 3 9z"/>
        <path d="M 7,11 C 6,11 6,10.6 6,10 v 1 c 0,0.6 0,1 1,1 v -1 z"/>
        <path d="m 18,11 v 1 c 1,0 1,-0.4 1,-1 v -1 c 0,0.6 0,1 -1,1 z"/>
        <path d="M19 6H20V7H19z"/>
        <path d="M3 11L1 11 1 12 3 12 3 11 5 11 5 7 5 7 5 10 3 10z"/>
        <path d="M16 13H18V14H16z"/>
        <path d="M5 6H6V7H5z"/>
        <path d="M9 13L7 13 7 14 9 14 9 12 16 12 16 11 9 11z"/>
    </g>
    <g fill="#444">
        <path d="M 2,6 C 2,6.4 2,6.7 2,7 H 5 V 6 H 2 z"/>
        <path d="M2 9L2 10 4 10 3 9z"/>
        <path d="M 4,3 H 6 V 2 H 4 C 1,2 1,5 1,6 H 0 V 7 H 1 C 1,6 1,3 4,3 z"/>
        <path d="M 18,4 C 18,3 17,0 15,0 H 12 10 C 8,0 7,3 7,4 H 6 5 V 5 H 7 C 7,4 8,1 10,1 h 2 3 c 2,0 3,3 3,4 h 2 V 4 h -2 z"/>
        <path d="M 8,10 H 9 C 9.6,10 10,9.6 10,9 10,8.8 9.9,8.6 9.8,8.5 9.7,8.8 9.4,9 9,9 H 8 C 7.6,9 7.3,8.8 7.2,8.5 7.1,8.6 7,8.8 7,9 c 0,0.6 0.4,1 1,1 z"/>
        <path d="M 17,6 C 17,5.6 17,5.3 17,5 H 8 c 0,0.3 0,0.6 0,1 h 9 z"/>
        <path d="M 17.8,8.5 C 17.7,8.8 17.4,9 17,9 H 16 C 15.6,9 15.3,8.8 15.2,8.5 15.1,8.6 15,8.8 15,9 c 0,0.6 0.4,1 1,1 h 1 c 0.6,0 1,-0.4 1,-1 0,-0.2 -0.1,-0.4 -0.2,-0.5 z"/>
    </g>
</svg>
