<svg xmlns="http://www.w3.org/2000/svg" viewBox="0 0 15 29" enable-background="new 0 0 15 29"><g fill="#fff"><path d="M4.6 27h5.1v2h-5.1zM0 13.8h4.6v2h-4.6zM9.6 13.8h5.4v2h-5.4zM9.6 6.3v2c0-.9.6-1.6 1.1-1.6h4.3v-2h-4.3c-.5 0-1.1.7-1.1 1.6z"/></g><path fill="#484747" d="M15 4.7h-4.3c-.5 0-1.1.7-1.1 1.6v3.1h5.4v4.4h-5.4v13.2h-5v-13.2h-4.6v-4.5h4.6v-2.5c0-3.8 2.6-6.8 6.1-6.8h4.3v4.7z"/><g opacity=".3"><path d="M0 9.4h4.6v2h-4.6zM9.6 9.4h5.4v2h-5.4zM10.7 0c-3.5 0-6.1 3-6.1 6.8v2c0-3.8 2.6-6.8 6.1-6.8h4.3v-2h-4.3z"/></g></svg>