<svg xmlns="http://www.w3.org/2000/svg" viewBox="0 0 17 29" enable-background="new 0 0 17 29"><g fill="#fff"><path d="M8.3 6c-1.7 0-3 1.4-3 3 0 .3.1.6.2.9.3-1.2 1.5-2.1 2.8-2.1 1.4 0 2.5.9 2.9 2.1.1-.3.2-.6.2-.9-.1-1.6-1.4-3-3.1-3zM8.5 27.2c-1.6-3.2-7.8-14.1-8.4-18.1-.1.4-.1.8-.1 1.2 0 3.4 6.8 15.3 8.5 18.7 1.7-3.4 8.5-15.3 8.5-18.7 0-.4 0-.8-.1-1.2-.6 4-6.8 14.9-8.4 18.1z"/></g><path fill="#474646" d="M8.5 0c-3.4 0-8.5 1.7-8.5 8.5 0 3.4 6.8 15.3 8.5 18.7 1.7-3.4 8.5-15.3 8.5-18.7 0-6.8-5.1-8.5-8.5-8.5zm-.2 12.1c-1.7 0-3-1.4-3-3 0-1.7 1.4-3 3-3s3 1.4 3 3-1.3 3-3 3z"/><g opacity=".3" fill="#010101"><path d="M8.5 1.9c3.2 0 7.8 1.5 8.4 7.2.1-.2.1-.4.1-.6 0-6.8-5.1-8.5-8.5-8.5s-8.5 1.7-8.5 8.5c0 .2 0 .4.1.6.6-5.7 5.2-7.2 8.4-7.2zM8.3 14c1.7 0 3-1.4 3-3 0-.3-.1-.6-.2-1-.4 1.2-1.5 2.1-2.9 2.1s-2.3-.9-2.7-2.1c-.1.3-.2.6-.2 1 0 1.6 1.3 3 3 3z"/></g></svg>