<svg xmlns="http://www.w3.org/2000/svg" viewBox="0 0 29 20" enable-background="new 0 0 29 20"><path fill="#474746" d="M26.4 15h-.4v-12.7c0-1.3-1.3-2.3-2.6-2.3h-18.1c-1.3 0-2.3 1-2.3 2.3v12.7h-.7c-1.3 0-2.3 1-2.3 2.3v1.7h29v-1.7c0-1.3-1.3-2.3-2.6-2.3zm-20.4-12h17v12h-17v-12z"/><path fill="#2F2F30" d="M23.7 0h-18.4c-1.3 0-2.3 1-2.3 2.3v1c0-1.3 1-2.3 2.3-2.3h18.4c1.3 0 2.3 1 2.3 2.3v-1c0-1.3-1-2.3-2.3-2.3z"/><g fill="#2F2F30"><path d="M6 15h17v1h-17zM3 15h-.7c-1.3 0-2.3 1-2.3 2.3v1c0-1.3 1-2.3 2.3-2.3h.7v-1zM26.7 15h-.7v1h.7c1.3 0 2.3 1 2.3 2.3v-1c0-1.3-1-2.3-2.3-2.3z"/></g><path fill="#fff" d="M6 3h17v1h-17zM0 19h29v1h-29z"/></svg>