<svg xmlns="http://www.w3.org/2000/svg" width="15" height="26" viewBox="0 0 15 26"><path fill="#474746" d="M12.8 0h-10.6c-1.2 0-2.2 1-2.2 2.2v20.5c0 1.3 1 2.3 2.2 2.3h10.5c1.2 0 2.2-1 2.2-2.2v-20.6c.1-1.2-.9-2.2-2.1-2.2zm-5.3 23.2c-.4 0-.6-.3-.6-.6 0-.4.3-.6.6-.6s.6.3.6.6-.3.6-.6.6zm4.5-3.2h-9v-17h9v17z"/><path fill="#2F2F30" d="M12.8 0h-10.6c-1.2 0-2.2 1-2.2 2.2v1c0-1.2 1-2.2 2.2-2.2h10.5c1.3 0 2.3 1 2.3 2.2v-1c0-1.2-1-2.2-2.2-2.2zM3 20h9v1h-9z"/><path fill="#fff" d="M3 3h9v1h-9z"/><path fill="#2F2F30" d="M7.5 23.2c-.4 0-.6-.3-.6-.6v1c0 .4.3.6.6.6s.6-.3.6-.6v-1c0 .3-.3.6-.6.6z"/><path fill="#fff" d="M12.8 25h-10.6c-1.2 0-2.2-1-2.2-2.2v1c0 1.2 1 2.2 2.2 2.2h10.5c1.2 0 2.2-1 2.2-2.2v-1c.1 1.2-.9 2.2-2.1 2.2z"/></svg>