<svg xmlns="http://www.w3.org/2000/svg" viewBox="0 0 32 34" enable-background="new 0 0 32 34"><g fill="#fff"><path d="M16 7.4c.7 0 1.3-.6 1.3-1.3v-2.1c0 .7-.6 1.3-1.3 1.3s-1.3-.6-1.3-1.3v2c0 .8.6 1.4 1.3 1.4zM6.6 10.5c.5.5 1.4.5 1.9 0s.5-1.4 0-1.9l-.1-.1c-.5.5-1.3.5-1.8 0l-1.8-1.8s-.1 0-.1.1c-.5.5-.5 1.4 0 1.9l1.9 1.8zM25.4 10.5l1.9-1.9c.5-.5.5-1.4 0-1.9 0 0-.1 0-.1-.1l-1.8 1.8c-.5.6-1.3.6-1.8.1l-.1.1c-.5.5-.5 1.4 0 1.9.6.5 1.4.5 1.9 0zM5.3 18c0-.4-.2-.8-.5-1-.2.2-.5.3-.8.3h-2.7c-.3 0-.6-.1-.8-.3-.3.2-.5.6-.5 1 0 .7.6 1.3 1.3 1.3h2.7c.7 0 1.3-.6 1.3-1.3zM27.2 27.4c-.5.5-1.3.4-1.8 0l-1.8-1.8s-.1 0-.1.1c-.5.5-.5 1.4 0 1.9l1.9 1.9c.5.5 1.4.5 1.9 0 .5-.7.5-1.5-.1-2.1zM31.5 17c-.2.2-.5.3-.8.3h-2.7c-.3 0-.6-.1-.8-.3-.3.2-.5.6-.5 1 0 .7.6 1.3 1.3 1.3h2.7c.7 0 1.3-.6 1.3-1.3 0-.4-.2-.8-.5-1zM23.9 17c-.5 3.9-3.8 7-7.9 7-4.1 0-7.4-3-7.9-7-.1.3-.1.7-.1 1 0 4.4 3.6 8 8 8s8-3.6 8-8c0-.3 0-.7-.1-1zM8.4 25.5l-1.8 1.8c-.5.5-1.3.5-1.8 0l-.1.1c-.5.5-.5 1.4 0 1.9s1.4.5 1.9 0l1.9-1.9c.5-.5.5-1.3-.1-1.9zM16 32c-.7 0-1.3-.6-1.3-1.3v2c0 .7.6 1.3 1.3 1.3s1.3-.6 1.3-1.3v-2c0 .7-.6 1.3-1.3 1.3z"/></g><path fill-rule="evenodd" clip-rule="evenodd" fill="#474646" d="M30.7 17.3h-2.7c-.7 0-1.3-.6-1.3-1.3 0-.7.6-1.3 1.3-1.3h2.7c.7 0 1.3.6 1.3 1.3 0 .7-.6 1.3-1.3 1.3zm-5.3-8.8c-.5.5-1.4.5-1.9 0s-.5-1.4 0-1.9l1.9-1.9c.5-.5 1.4-.5 1.9 0s.5 1.4 0 1.9l-1.9 1.9zm-9.4 15.5c-4.4 0-8-3.6-8-8s3.6-8 8-8 8 3.6 8 8-3.6 8-8 8zm0-18.7c-.7 0-1.3-.6-1.3-1.3v-2.7c0-.7.6-1.3 1.3-1.3.7 0 1.3.6 1.3 1.3v2.7c0 .7-.6 1.3-1.3 1.3zm-9.4 3.2l-1.9-1.9c-.5-.6-.5-1.4 0-1.9s1.4-.5 1.9 0l1.9 1.9c.5.5.5 1.3 0 1.9-.6.5-1.4.5-1.9 0zm-1.3 7.5c0 .7-.6 1.3-1.3 1.3h-2.7c-.7 0-1.3-.6-1.3-1.3 0-.7.6-1.3 1.3-1.3h2.7c.7 0 1.3.6 1.3 1.3zm1.3 7.5c.5-.5 1.4-.5 1.9 0s.5 1.4 0 1.9l-1.9 1.9c-.5.5-1.4.5-1.9 0s-.5-1.4 0-1.9l1.9-1.9zm9.4 3.1c.7 0 1.3.6 1.3 1.3v2.7c0 .7-.6 1.3-1.3 1.3-.7 0-1.3-.6-1.3-1.3v-2.6c0-.8.6-1.4 1.3-1.4zm9.4-3.1l1.9 1.9c.5.5.5 1.4 0 1.9s-1.4.5-1.9 0l-1.9-1.9c-.5-.5-.5-1.4 0-1.9.6-.5 1.4-.5 1.9 0z"/><g opacity=".3"><path d="M16 2c.7 0 1.3.6 1.3 1.3v-2c0-.7-.6-1.3-1.3-1.3s-1.3.6-1.3 1.3v2c0-.7.6-1.3 1.3-1.3zM8.1 17c.5-3.9 3.9-7 7.9-7 4.1 0 7.4 3 7.9 7l.1-1c0-4.4-3.6-8-8-8s-8 3.6-8 8c0 .3 0 .7.1 1zM26.7 16c0 .4.2.8.5 1 .2-.2.5-.3.8-.3h2.7c.3 0 .6.1.8.3.3-.2.5-.6.5-1 0-.7-.6-1.3-1.3-1.3h-2.7c-.7 0-1.3.6-1.3 1.3zM23.6 8.5l1.8-1.8c.5-.5 1.3-.5 1.8-.1l.1-.1c.5-.5.5-1.4 0-1.9s-1.4-.5-1.9 0l-1.9 1.9c-.5.6-.5 1.4.1 2zM6.6 23.5l-1.9 1.9c-.5.5-.5 1.4 0 1.9 0 0 .1 0 .1.1l1.8-1.8c.5-.5 1.3-.5 1.8-.1l.1-.1c.5-.5.5-1.4 0-1.9-.6-.5-1.4-.5-1.9 0zM4.8 6.7c.5-.4 1.3-.4 1.8.1l1.8 1.8s.1 0 .1-.1c.5-.6.5-1.4 0-1.9l-1.9-1.9c-.5-.5-1.4-.5-1.9 0s-.5 1.3.1 2zM16 26.6c-.7 0-1.3.6-1.3 1.3v2c0-.7.6-1.3 1.3-1.3s1.3.6 1.3 1.3v-2c0-.7-.6-1.3-1.3-1.3zM25.4 23.5c-.5-.5-1.4-.5-1.9 0s-.5 1.4 0 1.9l.1.1c.5-.4 1.3-.4 1.8.1l1.8 1.8s.1 0 .1-.1c.5-.5.5-1.4 0-1.9l-1.9-1.9zM.5 17c.2-.2.5-.3.8-.3h2.7c.3 0 .6.1.8.3.3-.2.5-.6.5-1 0-.7-.6-1.3-1.3-1.3h-2.7c-.7 0-1.3.6-1.3 1.3 0 .4.2.8.5 1z"/></g></svg>