<svg xmlns="http://www.w3.org/2000/svg" width="21" height="27" viewBox="0 0 21 27"><path fill="#474746" d="M18.7 0h-16.4c-1.3 0-2.3 1-2.3 2.3v21.4c0 1.3 1 2.3 2.3 2.3h16.4c1.3 0 2.3-1 2.3-2.3v-21.4c0-1.3-1-2.3-2.3-2.3zm-8.2 24.2c-.4 0-.6-.3-.6-.6 0-.4.3-.6.6-.6.4 0 .6.3.6.6s-.3.6-.6.6zm7.5-3.2h-15v-18h15v18z"/><path fill="#2F2F30" d="M18.7 0h-16.4c-1.3 0-2.3 1-2.3 2.3v1c0-1.3 1-2.3 2.3-2.3h16.4c1.3 0 2.3 1 2.3 2.3v-1c0-1.3-1-2.3-2.3-2.3zM3 21h15v1h-15z"/><path fill="#fff" d="M3 3h15v1h-15z"/><path fill="#2F2F30" d="M10.5 24.2c-.4 0-.6-.3-.6-.6v1c0 .4.3.6.6.6.4 0 .6-.3.6-.6v-1c0 .3-.3.6-.6.6z"/><path fill="#fff" d="M18.7 26h-16.4c-1.3 0-2.3-1-2.3-2.3v1c0 1.3 1 2.3 2.3 2.3h16.4c1.3 0 2.3-1 2.3-2.3v-1c0 1.3-1 2.3-2.3 2.3z"/></svg>