<svg xmlns="http://www.w3.org/2000/svg" viewBox="0 0 27 24" enable-background="new 0 0 27 24"><g fill="#fff"><path d="M26.3 2.4c-.7.4-1.5.8-2.4 1 .7 0 1.5-.2 2.1-.4l.3-.6zM4.3 15.4h-.2c-.4 0-.7 0-1-.1.5 1.4 1.5 2.6 2.8 3.3.9-.4 1.6-.9 2.4-1.4-1.7 0-3-.7-4-1.8zM13.3 6.8v-.3c-.1.1-.1.2 0 .3zM3.5 14.4c-.2-.3-.4-.7-.5-1 .3.1.7.1 1 .1.5 0 1-.1 1.5-.2-1.8-.4-3.3-1.6-4-3.3l-.4-.3v.1c0 1.9.9 3.6 2.4 4.6zM3.6 8.4c-1.2-.8-2.1-2.1-2.4-3.6-.1.3-.1.7-.1 1 0 .8.2 1.5.4 2.1.7.3 1.4.5 2.1.5zM24.2 5.5v.7c0 7.3-5.6 15.8-15.8 15.8-1.6 0-3.2-.2-4.6-.7-.8.2-1.7.3-2.5.3-.4 0-.9 0-1.3-.1 2.4 1.6 5.4 2.5 8.5 2.5 10.2 0 15.8-8.5 15.8-15.8v-.7c1.1-.8 2-1.8 2.8-2.9-.9.4-1.8.6-2.9.9z"/></g><path fill="#474646" d="M27.1 2.6c-1 .4-2.1.7-3.2.9 1.1-.7 2-1.8 2.4-3.1-1.1.6-2.3 1.1-3.5 1.3-1-1.1-2.5-1.8-4.1-1.8-3.1 0-5.6 2.5-5.6 5.6 0 .4 0 .9.1 1.3-4.5-.2-8.6-2.4-11.3-5.8-.5.8-.8 1.8-.8 2.8 0 1.9 1 3.6 2.5 4.6-.9 0-1.8-.3-2.5-.7v.1c0 2.7 1.9 4.9 4.5 5.4-.5.1-1 .2-1.5.2-.4 0-.7 0-1-.1.7 2.2 2.8 3.8 5.2 3.9-1.9 1.5-4.3 2.4-6.9 2.4-.4 0-.9 0-1.3-.1 2.4 1.6 5.3 2.5 8.4 2.5 10.2 0 15.8-8.5 15.8-15.8v-.7c1.1-.8 2-1.8 2.8-2.9z"/><g opacity=".3"><path d="M24.3 6.5zM3.5 14.4l.6.1c.5 0 1-.1 1.5-.2-.7-.1-1.4-.5-2-.9h-.5c.1.3.2.7.4 1zM25.4 3.2c-.4.5-.9.9-1.5 1.3.7-.1 1.4-.2 2.1-.5.4-.4.8-.9 1.1-1.4-.6.2-1.2.4-1.7.6zM1.9 2c2.7 3.4 6.8 5.6 11.4 5.8-.1-.3-.1-.7-.1-1-4.6-.3-8.6-2.5-11.3-5.8-.5.8-.8 1.8-.8 2.8v.5c.1-.8.4-1.6.8-2.3zM8.2 18.2c-.4 0-.8-.1-1.2-.2-1.7 1-3.6 1.6-5.7 1.6-.4 0-.9 0-1.3-.1l1.9 1.1c2.4-.2 4.6-1 6.3-2.4zM18.7 1c1.6 0 3 .7 4.1 1.8 1-.2 2-.5 2.8-1 .3-.4.5-.9.7-1.4-1.1.6-2.3 1.1-3.5 1.3-1-1.1-2.5-1.8-4.1-1.8-3.1 0-5.6 2.5-5.6 5.6v.5c.4-2.8 2.8-5 5.6-5zM3.6 9.4c-.5-.3-.9-.7-1.3-1.2-.4-.1-.8-.2-1.2-.5v.1c0 .3 0 .7.1 1 .7.4 1.5.6 2.4.6z"/><g fill="#010101"><path d="M24.3 6.5zM3.5 14.4l.6.1c.5 0 1-.1 1.5-.2-.7-.1-1.4-.5-2-.9h-.5c.1.3.2.7.4 1zM25.4 3.2c-.4.5-.9.9-1.5 1.3.7-.1 1.4-.2 2.1-.5.4-.4.8-.9 1.1-1.4-.6.2-1.2.4-1.7.6zM1.9 2c2.7 3.4 6.8 5.6 11.4 5.8-.1-.3-.1-.7-.1-1-4.6-.3-8.6-2.5-11.3-5.8-.5.8-.8 1.8-.8 2.8v.5c.1-.8.4-1.6.8-2.3zM8.2 18.2c-.4 0-.8-.1-1.2-.2-1.7 1-3.6 1.6-5.7 1.6-.4 0-.9 0-1.3-.1l1.9 1.1c2.4-.2 4.6-1 6.3-2.4zM18.7 1c1.6 0 3 .7 4.1 1.8 1-.2 2-.5 2.8-1 .3-.4.5-.9.7-1.4-1.1.6-2.3 1.1-3.5 1.3-1-1.1-2.5-1.8-4.1-1.8-3.1 0-5.6 2.5-5.6 5.6v.5c.4-2.8 2.8-5 5.6-5zM3.6 9.4c-.5-.3-.9-.7-1.3-1.2-.4-.1-.8-.2-1.2-.5v.1c0 .3 0 .7.1 1 .7.4 1.5.6 2.4.6z"/></g></g></svg>