<svg xmlns="http://www.w3.org/2000/svg" width="25" height="30" viewBox="0 0 25 30"><g fill="#DEDDDD"><path d="M8.6 6.3c-1.7 0-3.1 1.4-3.1 3.1 0 .3.1.6.2.9.4-1.3 1.6-2.2 3-2.2s2.6.9 3 2.2c.1-.3.2-.6.2-.9-.2-1.7-1.6-3.1-3.3-3.1zM8.8 28.2c-1.7-3.4-8.1-14.7-8.7-18.8-.1.4-.1.8-.1 1.3 0 3.5 7 15.9 8.8 19.4 1.8-3.5 8.8-15.9 8.8-19.4 0-.4 0-.9-.1-1.3-.6 4.1-7 15.4-8.7 18.8z"/></g><path fill="#474646" d="M8.8 0c-3.5 0-8.8 1.8-8.8 8.8 0 3.5 7 15.9 8.8 19.4 1.8-3.5 8.8-15.9 8.8-19.4 0-7-5.3-8.8-8.8-8.8zm-.2 12.5c-1.7 0-3.1-1.4-3.1-3.1 0-1.7 1.4-3.1 3.1-3.1s3.1 1.4 3.1 3.1c0 1.7-1.4 3.1-3.1 3.1z"/><g opacity=".3" fill="#010101"><path d="M8.8 2c3.3 0 8.1 1.5 8.7 7.5l.1-.7c0-7-5.3-8.8-8.8-8.8s-8.8 1.8-8.8 8.8c0 .2 0 .4.1.7.6-6 5.4-7.5 8.7-7.5zM8.6 14.5c1.7 0 3.1-1.4 3.1-3.1 0-.3-.1-.7-.2-1-.4 1.2-1.6 2.1-3 2.1s-2.5-.9-3-2.1c-.1.3-.2.6-.2 1 .2 1.7 1.6 3.1 3.3 3.1z"/></g><g fill="#fff"><path d="M19.6 8.4c0-.6 0-1.1-.1-1.6l-.5-.1c.3.7.5 1.5.5 2.4.1-.3.1-.5.1-.7zM19.6 10.8c-.1.4-.2 1-.4 1.6.3.3.5.6.7 1 .1-.3.2-.7.2-1 0-.6-.2-1.2-.5-1.6zM17.7 28c-.6-1.1-1.7-3.2-3-5.6l-.5 1c1.4 2.8 2.9 5.4 3.5 6.6 1.5-2.9 7.3-13.2 7.3-16.1 0-.5 0-.9-.1-1.3-.7 3.6-5.9 12.7-7.2 15.4z"/></g><path fill="#474646" d="M19 4.7c.4 1 .6 2.3.6 3.7 0 .5-.2 1.2-.4 2 .6.5.9 1.2.9 2 0 1.4-1.2 2.6-2.6 2.6h-.1c-1 2.1-2.1 4.3-3.2 6.4 1.4 2.8 2.9 5.4 3.5 6.6 1.5-2.9 7.3-13.2 7.3-16.1 0-5.1-3.2-6.8-6-7.2z"/><g opacity=".3"><path d="M24.9 12.6c.1-.3.1-.5.1-.7 0-5-3.2-6.8-6-7.2.2.6.4 1.3.5 2.1 2.4.4 4.9 2 5.4 5.8zM19.5 9.1c-.1.4-.2.8-.3 1.3l.4.4v-.4c0-.5 0-.9-.1-1.3zM17.4 17h.1c1.4 0 2.6-1.2 2.6-2.6 0-.4-.1-.7-.2-1-.4.9-1.3 1.6-2.4 1.6h-.1c-1 2.1-2.1 4.3-3.2 6.4l.5 1c.9-1.8 1.9-3.7 2.7-5.4z"/></g></svg>