<svg xmlns="http://www.w3.org/2000/svg" viewBox="0 0 18 25" enable-background="new 0 0 18 25"><g fill="#fff"><path d="M5.6 8.8v-.7.7zM5.6 4.1v2.5c1.9 0 4.1-.3 4.8 1 .2-.3.3-.8.3-1.3 0-2.6-2.8-2.2-5.1-2.2zM5.6 12.8v5.6-3.1c2.4 0 5.4-.4 6.3 1.5.1-.3.2-.7.2-1.2.1-3.4-3.7-2.8-6.5-2.8zM13.4 10.1c.2.1 1.4.5 1.8.7l.3.2c.7-.8 1-1.9 1-3.5 0-.4 0-.8-.1-1.1-.3 1.8-1.3 2.7-3 3.7zM9.7 22.5h-9.7v2.5h9.7c4 0 8.3-2.2 8.3-6.5 0-.6 0-1.1-.1-1.5-.6 3.7-4.4 5.5-8.2 5.5z"/></g><path fill="#484747" d="M0 0h10.2c3.4 0 6.2 1.6 6.2 5 0 2.8-1 3.9-3.1 5.1.2.1 1.4.5 1.8.7.6.3 1 .6 1.4 1.1 1.3 1.1 1.5 2.2 1.5 4.1 0 4.3-4.2 6.5-8.3 6.5h-9.7v-22.5zm5.6 5.9v2.9c2.6 0 5.1.3 5.1-2.5 0-2.6-2.8-2.2-5.1-2.2v1.8zm0 12.5c2.9 0 6.5.5 6.5-2.8.1-3.4-3.7-2.8-6.5-2.8v5.6z"/><g opacity=".3"><path d="M5.6 18.4v2.5c2.9 0 6.5.5 6.5-2.8 0-.5-.1-1-.2-1.3-.9 1.9-3.8 1.6-6.3 1.6zM13.4 12.6c.2.1 1.4.5 1.8.7.6.3 1 .6 1.4 1.1.8.8 1.2 1.6 1.3 2.7.1-.3.1-.6.1-1 0-1.9-.2-3-1.4-4.2-.3-.4-.7-.6-1.1-.9-.5.5-1.2 1-2.1 1.6zM0 2.5h10.2c3 0 5.5 1.3 6.1 3.9.1-.4.1-.9.1-1.4 0-3.3-2.9-5-6.2-5h-10.2v22.5-20zM5.6 8.1v-1.5zM10.7 8.8c0-.5-.1-.9-.3-1.2-.7 1.5-2.7 1.2-4.8 1.2v2.5c2.6 0 5.1.4 5.1-2.5z"/></g></svg>